<svg id="Layer_1" data-name="Layer 1" xmlns="http://www.w3.org/2000/svg" viewBox="0 0 285 162"><g id="HS_ANTENNA_03_0_Layer3_0_FILL" data-name="HS ANTENNA 03 0 Layer3 0 FILL"><path d="M146.51,162l2.25-97.5a30.6,30.6,0,0,1-6.7.7,34.28,34.28,0,0,1-7.3-.75l-2.85,98.85Z" fill="#096"/></g><path id="HS_ANTENNA_03_0_Layer3_0_1_STROKES" data-name="HS ANTENNA 03 0 Layer3 0 1 STROKES" d="M146.51,162l2.25-97.5a30.6,30.6,0,0,1-6.7.7,34.28,34.28,0,0,1-7.3-.75l-2.85,98.85" fill="none" stroke="#000" stroke-linecap="round" stroke-linejoin="round" stroke-width="4"/><path id="HS_ANTENNA_03_0_Layer1_0_1_STROKES" data-name="HS ANTENNA 03 0 Layer1 0 1 STROKES" d="M158.91,10.88l-6,10.7M176,19.23l-10.9,8.45m-28.85-14.9,3.5,10.2m-22.3-4.1,8.1,8.9" fill="none" stroke="#000" stroke-linecap="round" stroke-linejoin="round" stroke-width="4"/><path id="HS_ANTENNA_03_0_Layer1_0_2_STROKES" data-name="HS ANTENNA 03 0 Layer1 0 2 STROKES" d="M95.16,113.43q3-2.25-3.25-10.65-3.64-4.91-8.7-4.55-5.74.34-7.6,8.25-1.35,5.65,4.75,8.2,6.4,2.66,14.75-1.2l0,0q20.06-14.4,18.35-24.1M81,133.78q-.3-6-8.55-11.6a3.29,3.29,0,0,0-.6-.15,11.88,11.88,0,0,0-6.45-.2,6.93,6.93,0,0,0-4.2,3A10,10,0,0,0,60,128.33a7.11,7.11,0,0,0,.65,5q3.45,6,20.4.4,13.09-10.35,14.1-20.3m-26,59.15c4.24-9.9,1.87-8.32,1.37-15q-11.06,1.75-17.5-2.7c-1.87-1.33-2.83-2.82-2.9-4.45s1-3.45,3.1-5.05m2.5-.8q10.54.3,14.8,13,13.24-12.71,10.5-23.8" fill="none" stroke="#ff9" stroke-linecap="round" stroke-linejoin="round" stroke-width="4"/><path id="HS_ANTENNA_03_0_Layer0_0_1_STROKES" data-name="HS ANTENNA 03 0 Layer0 0 1 STROKES" d="M231,134.58q-14.3.3-21.9,9.7,10.9,4.25,20.4,0c2.63-1.2,4.32-2.65,5.05-4.35s.22-3.57-1.65-5.2m-65.45-43.3q-3,12.3,14.6,23.25-1.31-11.45,8.05-15.3,9.79-4.09,11.8,4.8m8.45,10.4q8.55-2.51,11,1.15t-.9,7.3a24.28,24.28,0,0,1-9.7,5.9,15.34,15.34,0,0,1-12.6-1q.45,9,10.9,16.3c-8.93,10.73-13.54,13.45-6.57,26.78m7.87-57q-10,4.24-12.2,13.9-14,.35-16-12.1l-.2-1.2q16.75-2.3,19.3-10.05" fill="none" stroke="#ff9" stroke-linecap="round" stroke-linejoin="round" stroke-width="4"/><g id="HS_ANTENNA_03_0_Layer2_0_FILL" data-name="HS ANTENNA 03 0 Layer2 0 FILL"><path d="M158.16,60.38q6.65-4.91,7.6-11.65t-7-12.8a24.71,24.71,0,0,0-18.65-4.8q-10.65,1.31-16.25,6.15a14.43,14.43,0,0,0-5.45,11.9q.15,7.09,7.25,11.6a30.12,30.12,0,0,0,16.45,4.45A26.74,26.74,0,0,0,158.16,60.38Z" fill="#ff3"/></g><path id="HS_ANTENNA_03_0_Layer2_0_1_STROKES" data-name="HS ANTENNA 03 0 Layer2 0 1 STROKES" d="M150.26,69.33a50.35,50.35,0,0,1,18.65,3.75q8.21,3.45,4.35,10a23.37,23.37,0,0,1-11.95,9.75,66.68,66.68,0,0,1-18.1,4.1,47.15,47.15,0,0,1-19.7-2.3q-9.65-3.3-9.85-9.4t9.8-10.85a47.56,47.56,0,0,1,9.6-3.35m32.7-22.3q-.94,6.75-7.6,11.65a26.74,26.74,0,0,1-16.1,4.85,30.12,30.12,0,0,1-16.45-4.45q-7.1-4.5-7.25-11.6a14.43,14.43,0,0,1,5.45-11.9q5.59-4.85,16.25-6.15a24.71,24.71,0,0,1,18.65,4.8Q166.66,42,165.76,48.73Z" fill="none" stroke="#000" stroke-linecap="round" stroke-linejoin="round" stroke-width="4"/></svg>