<svg id="Layer_1" data-name="Layer 1" xmlns="http://www.w3.org/2000/svg" xmlns:xlink="http://www.w3.org/1999/xlink" viewBox="0 0 430.92 373.99"><defs><clipPath id="clip-path"><ellipse cx="214.47" cy="210.97" rx="189.08" ry="155.5" fill="none"/></clipPath></defs><path d="M110.47,80.15,5.54,68.28a5,5,0,0,0-3.27,9.09L79.5,127.69Z" fill="#ff8871"/><line x1="38.49" y1="89.53" x2="77.57" y2="97.67" fill="none" stroke="#1d1d1b" stroke-linecap="round" stroke-miterlimit="10"/><path d="M320.45,80.15,425.39,68.28a5,5,0,0,1,3.26,9.09l-77.23,50.32Z" fill="#ff8871"/><line x1="392.43" y1="89.53" x2="353.36" y2="97.67" fill="none" stroke="#1d1d1b" stroke-linecap="round" stroke-miterlimit="10"/><g clip-path="url(#clip-path)"><ellipse cx="214.47" cy="210.97" rx="189.08" ry="155.5" fill="#ff8871"/><path d="M238.2,297.62c-4,1.65-1.1.45-2,.82v-.05l0-.06,0-.12L236,298l-.18-.48-.36-1c-.23-.65-.49-1.28-.67-1.94-.38-1.31-.82-2.6-1.1-3.94l-.46-2-.35-2c-.26-1.34-.37-2.71-.52-4.06a54.63,54.63,0,0,1,1-16.24,53.44,53.44,0,0,1,5.69-15.2c.63-1.2,1.36-2.35,2.1-3.48s1.48-2.2,2.22-3.3l4.47-6.49a1.52,1.52,0,0,1,2.52,1.69l-4.33,6.59c-.71,1.09-1.48,2.2-2.12,3.28s-1.34,2.17-1.91,3.31a49.77,49.77,0,0,0-5,14.32,50.56,50.56,0,0,0-.62,15.13c.16,1.25.28,2.51.55,3.75l.36,1.86.47,1.84c.27,1.23.71,2.42,1.08,3.62.18.61.44,1.19.66,1.78l.35.88.17.44.09.22,0,.11,0,.05v0h0A17.71,17.71,0,1,1,238.2,297.62Z" fill="#1d1d1b"/><path d="M243,229.83a27.09,27.09,0,0,0,16.25,13.35" fill="none" stroke="#1d1d1b" stroke-linecap="round" stroke-miterlimit="10"/><path d="M170.12,300.32c0-7.32-5.51-13.26-22.42-13.26s-22.41,5.94-22.41,13.26c0,3.93,2.88,7.45,7.45,9.88a17.28,17.28,0,0,1,8.46,11.19l0,.14c.84,3.34,3.48,5.64,6.47,5.64h0c3,0,5.64-2.3,6.48-5.64l0-.14a17.28,17.28,0,0,1,8.46-11.19C167.24,307.77,170.12,304.25,170.12,300.32Z" fill="#1d1d1b"/><path d="M5.14,396H417.3V296.62a161.16,161.16,0,0,0-35.59-101h0a60.15,60.15,0,0,0-46.86-22.44h0a60.13,60.13,0,0,0-49.21,25.56h0a175.44,175.44,0,0,0-24.49,50.41h0a102.82,102.82,0,0,1-83.91,72.18l-11.13,1.59a24.29,24.29,0,0,1-20.91-7.18h0a19,19,0,0,1,3.93-29.52l11.66-7A48.31,48.31,0,0,0,183.7,230l0-.13a48,48,0,0,0-18.31-30.44h0a48,48,0,0,0-45.11-7h0a139.8,139.8,0,0,0-87,91.38l-7.88,26.15Z" fill="#f9e4e1"/></g><rect x="125.18" y="145.44" width="25.79" height="25.79" fill="#1d1d1b"/><rect x="289.61" y="145.44" width="25.79" height="25.79" fill="#1d1d1b"/><circle cx="135.77" cy="152.52" r="5.26" fill="#007aff"/><ellipse cx="143.99" cy="162.29" rx="4.91" ry="6.57" fill="#007aff"/><ellipse cx="132.37" cy="164.15" rx="4.16" ry="4.81" fill="#007aff"/><ellipse cx="297.59" cy="152.52" rx="6.42" ry="5.81" fill="#007aff"/><ellipse cx="309.07" cy="164.15" rx="5.06" ry="5.81" fill="#007aff"/><ellipse cx="310.07" cy="151.77" rx="3.56" ry="4.16" fill="#007aff"/><path d="M304.06,190.39l-.72-18.59a3.07,3.07,0,0,0-2.38-2.91,3,3,0,0,0-3.58,2.8l-.73,18.71a240.44,240.44,0,0,1-6.73,48,10.71,10.71,0,0,0-.31,2.79,10.75,10.75,0,0,0,21.5-.22,10.62,10.62,0,0,0-.4-2.89C306.39,222.56,304.69,206.46,304.06,190.39Z" fill="#007aff"/><path d="M211.76,49.8l-4,.1a185.31,185.31,0,0,1-39.19-3.24h0a4.87,4.87,0,0,0-5.77,4.9h0a4.85,4.85,0,0,0,5,4.74l84.22-2a4.86,4.86,0,0,0,4.75-5h0a4.87,4.87,0,0,0-6-4.61h0A185,185,0,0,1,211.76,49.8Z" fill="#1d1d1b"/><path d="M208.55,0h0a21.19,21.19,0,0,0-20.68,21.7l.7,29.23,42.39-1-.7-29.23A21.2,21.2,0,0,0,208.55,0Z" fill="#1d1d1b"/></svg>