<svg id="Layer_1" data-name="Layer 1" xmlns="http://www.w3.org/2000/svg" viewBox="0 0 299.44 81.73"><g id="HS_CAP_02_0_Layer1_0_FILL" data-name="HS CAP 02 0 Layer1 0 FILL"><path d="M51.35,54.36Q46.6,60,40.85,71.15l-4.76,9.93L256,81.15A155.34,155.34,0,0,0,245.08,55.8Z" fill="#f90"/><path d="M216.47,26.27q-22-21.18-62.37-22.13T87.3,22.84Q60.87,42.51,51.35,54.36L245.08,55.8Q238.4,47.44,216.47,26.27Z" fill="#fc3"/></g><path id="HS_CAP_02_0_Layer1_0_1_STROKES" data-name="HS CAP 02 0 Layer1 0 1 STROKES" d="M51.35,54.36Q60.88,42.51,87.3,22.84t66.8-18.7q40.38,1,62.37,22.13T245.08,55.8A155.34,155.34,0,0,1,256,81.15L36.09,81.08l4.76-9.93q5.73-11.1,10.5-16.79L245.08,55.8" fill="none" stroke="#000" stroke-linecap="round" stroke-linejoin="round" stroke-width="4"/><g id="HS_CAP_02_0_Layer0_0_FILL" data-name="HS CAP 02 0 Layer0 0 FILL"><path d="M38.35,76.36,50.53,52.78l-16-19L14.47,48.19,37.16,78.83M246,57.54l11.73,23.2L285,62.92,271.73,41.2Z" fill="#f90"/></g><path id="HS_CAP_02_0_Layer0_0_1_STROKES" data-name="HS CAP 02 0 Layer0 0 1 STROKES" d="M246,57.54,271.73,41.2,285,62.92,257.72,80.74ZM34.55,33.74l16,19L37.16,78.83,14.47,48.19Z" fill="none" stroke="#000" stroke-linecap="round" stroke-linejoin="round" stroke-width="4"/></svg>