<svg id="Layer_1" data-name="Layer 1" xmlns="http://www.w3.org/2000/svg" viewBox="0 0 438.95 299"><g id="SIGN_01_0_Layer0_0_FILL" data-name="SIGN 01 0 Layer0 0 FILL"><path d="M97.8,39.6,97,4,61,6,59.35,39.75,59,47l39,1-.2-8.4M345,2l-.8,36.45L344,46H385V3Z" fill="#9af3c7"/><path d="M344,46l.2-7.55L97.8,39.6,98,48,59,47l.35-7.25L5,40,2,294l435,3L436,38l-51,.25V46H344M277.35,86.4a11.61,11.61,0,0,1,1.75,2.1,11.61,11.61,0,0,0-1.75-2.1,11.41,11.41,0,0,0-15.2,0A9.38,9.38,0,0,0,259,93.5a9.22,9.22,0,0,0,3.15,7,10.7,10.7,0,0,0,7.6,3q4.46,0,9.6-5-5.14,5-9.6,5a10.7,10.7,0,0,1-7.6-3,9.22,9.22,0,0,1-3.15-7,9.38,9.38,0,0,1,3.15-7.1,11.41,11.41,0,0,1,15.2,0m-31,59.65,0,.15,6.05,14.3-6.05-14.3a6.11,6.11,0,0,1,.25,2.65,8.88,8.88,0,0,1-2.35,5,8.54,8.54,0,0,1-4.8,2.8,4.48,4.48,0,0,1-5.75-5.25,8.77,8.77,0,0,1,2.4-5,8.32,8.32,0,0,1,4.75-2.8,4.64,4.64,0,0,1,4.35,1,4.26,4.26,0,0,1,1.1,1.45m43.2-2.35A8.65,8.65,0,0,1,296,141a8.47,8.47,0,0,1,6.35,2.7,8.15,8.15,0,0,1,1.15,1.45,8.15,8.15,0,0,0-1.15-1.45A8.47,8.47,0,0,0,296,141a8.65,8.65,0,0,0-6.4,2.7,9.55,9.55,0,0,0,0,13.1,8.65,8.65,0,0,0,6.4,2.7q2.5,0,9.05-4.5-6.56,4.5-9.05,4.5a8.65,8.65,0,0,1-6.4-2.7,9.55,9.55,0,0,1,0-13.1M226.5,86.5l.5,16-.5-16m.5,4q12.3-13.09,15,13.5-2.7-26.59-15-13.5m32.5,4,19-6-19,6M350,134.45a1.28,1.28,0,0,1,0,2.1,1.72,1.72,0,0,1-1.2.45,1.92,1.92,0,0,1-1.25-.45,1.35,1.35,0,0,1,0-2.1,1.92,1.92,0,0,1,1.25-.45,1.72,1.72,0,0,1,1.2.45m49.75,9.9a4.91,4.91,0,0,1,4.45.55,4.11,4.11,0,0,1,1.5,4,8.32,8.32,0,0,1-2.25,5,9.85,9.85,0,0,1-4.85,3.15,4.76,4.76,0,0,1-4.45-.55,4.18,4.18,0,0,1-1.5-4,8.43,8.43,0,0,1,2.3-5.1,9.54,9.54,0,0,1,4.8-3.1M420,125l2,23-2-23m4.45,34.55A2,2,0,0,1,425,161a1.88,1.88,0,0,1-.55,1.4,1.5,1.5,0,0,1-1.2.6,1.66,1.66,0,0,1-1.25-.6,2,2,0,0,1-.5-1.4,2.2,2.2,0,0,1,.5-1.45,1.71,1.71,0,0,1,1.25-.55,1.55,1.55,0,0,1,1.2.55m-172,74.8q-1.65-6.9,4.75-13.6t17.25-9.35q10.8-2.66,19.5.35t10.5,9.9q1.69,6.85-4.8,13.55t-17.15,9.35q-10.8,2.65-19.6-.35t-10.45-9.85M407,146q9.41,41.85-18,28.5,27.41,13.35,18-28.5M288,151.5l15-5.5-15,5.5M383,162q-3-26.66-18.5-12Q380,135.34,383,162m-20-17,1,15-1-15m-12-1v0m-35.5-12.5,2.5,26-2.5-26m19,1v0M270,159l7-17-7,17-11-16,11,16M34,133l1,10.45L52,141l-17,2.45q.7,24.6,13,14.55-12.3,10-13-14.55L24,145l11-1.55L34,133m36.45-3.95A2,2,0,0,1,71,130.5a1.88,1.88,0,0,1-.55,1.4,1.5,1.5,0,0,1-1.2.6,1.66,1.66,0,0,1-1.25-.6,2,2,0,0,1-.5-1.4,2.2,2.2,0,0,1,.5-1.45,1.71,1.71,0,0,1,1.25-.55,1.55,1.55,0,0,1,1.2.55m56,12.5a9.53,9.53,0,0,1,7.1-3.05,9.37,9.37,0,0,1,7.05,3.05c.33.37.65.75.95,1.15-.3-.4-.62-.78-.95-1.15a9.37,9.37,0,0,0-7.05-3.05,9.53,9.53,0,0,0-7.1,3.05,10.27,10.27,0,0,0-2.85,6.55l18-4.8-18,4.8c0,.3,0,.6,0,.9a10.35,10.35,0,0,0,2.9,7.4,9.44,9.44,0,0,0,7.1,3.1,9.27,9.27,0,0,0,7.05-3.1l.4-.4-.4.4a9.27,9.27,0,0,1-7.05,3.1,9.44,9.44,0,0,1-7.1-3.1,10.35,10.35,0,0,1-2.9-7.4c0-.3,0-.6,0-.9a10.27,10.27,0,0,1,2.85-6.55m82.25-53.4A7.81,7.81,0,0,1,211,93.9a8.31,8.31,0,0,1-2.35,5.9,8.11,8.11,0,0,1-5.65,2.75,7.3,7.3,0,0,1-5.65-2.15A7.63,7.63,0,0,1,195,94.7a8.48,8.48,0,0,1,2.35-6,7.94,7.94,0,0,1,5.65-2.7,7.15,7.15,0,0,1,5.65,2.1m-32.8,1.7a19.65,19.65,0,0,1-3.6,5.75A9.88,9.88,0,0,1,166.9,99a5.61,5.61,0,0,1-5.05-1.15,4.19,4.19,0,0,1-1.75-3.7c.13-1.33,1-3,2.55-4.9a14.23,14.23,0,0,1,6.4-4.5c2.7-1,4.72-1,6,.2s1.58,2.8.75,4.9M179,136l.3,8.15L191,143l-11.7,1.15Q177.25,161,194,159q-16.75,2-14.7-14.85L170,145l9.3-.85L179,136m-2-49q5.85,35.4-17,28,22.84,7.4,17-28m23.9,114.15q13.6,5.44,12.8,14.35l20.8,15-23.45-3a40.27,40.27,0,0,1-8.85,7.05q-13.5,8.25-33.65,10.95t-34.75-2.45q-11.51-4-14.6-11.45a14.43,14.43,0,0,1-1-4.35,15.29,15.29,0,0,1,1-7q2.7-6.65,11.8-12.55,13.8-8.85,34.35-10.75t35.55,4.2M211,140.5l1,19-1-19M99.65,152.55q-4-17.2-13.65-6.05,9.65-11.15,13.65,6.05Q105.8,130,113,155.5q-7.2-25.5-13.35-2.95M85,142l1,17-1-17m-17-1,1,17-1-17m157,0q-9-3-12.5,7,3.5-10,12.5-7M172.25,95.6a19.65,19.65,0,0,0,3.6-5.75q1.25-3.15-.75-4.9c-1.33-1.17-3.35-1.23-6-.2a14.23,14.23,0,0,0-6.4,4.5c-1.57,1.93-2.42,3.57-2.55,4.9a4.19,4.19,0,0,0,1.75,3.7A5.61,5.61,0,0,0,166.9,99a9.88,9.88,0,0,0,5.35-3.4M211,93.9a7.81,7.81,0,0,0-2.35-5.75,7.15,7.15,0,0,0-5.65-2.1,7.94,7.94,0,0,0-5.65,2.7,8.48,8.48,0,0,0-2.35,6,7.63,7.63,0,0,0,2.35,5.7,7.3,7.3,0,0,0,5.65,2.15,8.11,8.11,0,0,0,5.65-2.75A8.31,8.31,0,0,0,211,93.9m193.15,51a4.91,4.91,0,0,0-4.45-.55,9.54,9.54,0,0,0-4.8,3.1,8.43,8.43,0,0,0-2.3,5.1,4.18,4.18,0,0,0,1.5,4,4.76,4.76,0,0,0,4.45.55A9.85,9.85,0,0,0,403.4,154a8.32,8.32,0,0,0,2.25-5,4.11,4.11,0,0,0-1.5-4m-157.7,1.3,0-.15a4.26,4.26,0,0,0-1.1-1.45,4.64,4.64,0,0,0-4.35-1,8.32,8.32,0,0,0-4.75,2.8,8.77,8.77,0,0,0-2.4,5,4.48,4.48,0,0,0,5.75,5.25,8.54,8.54,0,0,0,4.8-2.8,8.88,8.88,0,0,0,2.35-5A6.11,6.11,0,0,0,246.45,146.2Z" fill="#c9c"/><path d="M213.7,215.5q.8-8.9-12.8-14.35-15-6-35.55-4.2T131,207.7q-9.1,5.9-11.8,12.55a15.29,15.29,0,0,0-1,7,14.43,14.43,0,0,0,1,4.35q3.1,7.46,14.6,11.45,14.59,5.1,34.75,2.45t33.65-10.95a40.27,40.27,0,0,0,8.85-7.05l23.45,3-20.8-15M173.5,211l-.8,8.9-.7,7.6.7-7.6-9.7-4.4,9.7,4.4.8-8.9m-32,15.5q18,4.8.5,11,17.44-6.19-.5-11m-3-11q14.25,1.4,4.5,10.5,9.75-9.1-4.5-10.5m50.5-4h0v0m0,16,7.5-.5-7.5.5m.5-8,6.5-.5-6.5.5M138,216l3.5,21Z" fill="#9cf"/><path d="M71,130.5a2,2,0,0,0-.55-1.45,1.55,1.55,0,0,0-1.2-.55,1.71,1.71,0,0,0-1.25.55,2.2,2.2,0,0,0-.5,1.45,2,2,0,0,0,.5,1.4,1.66,1.66,0,0,0,1.25.6,1.5,1.5,0,0,0,1.2-.6,1.88,1.88,0,0,0,.55-1.4m201.5,91.75a1.2,1.2,0,0,0-.45-.9,1.75,1.75,0,0,0-2.1,0,1.2,1.2,0,0,0-.45.9,1,1,0,0,0,.45.85,1.58,1.58,0,0,0,2.1,0,1,1,0,0,0,.45-.85M284,221a3.2,3.2,0,0,0-.3-1.45c-.2-.37-.43-.55-.7-.55s-.5.18-.7.55A3.2,3.2,0,0,0,282,221a2.9,2.9,0,0,0,.3,1.4c.2.4.43.6.7.6s.5-.2.7-.6a2.9,2.9,0,0,0,.3-1.4m141-60a2,2,0,0,0-.55-1.45,1.55,1.55,0,0,0-1.2-.55,1.71,1.71,0,0,0-1.25.55,2.2,2.2,0,0,0-.5,1.45,2,2,0,0,0,.5,1.4,1.66,1.66,0,0,0,1.25.6,1.5,1.5,0,0,0,1.2-.6A1.88,1.88,0,0,0,425,161M350.5,135.5a1.32,1.32,0,0,0-.55-1.05,1.72,1.72,0,0,0-1.2-.45,1.92,1.92,0,0,0-1.25.45,1.35,1.35,0,0,0,0,2.1,1.92,1.92,0,0,0,1.25.45,1.72,1.72,0,0,0,1.2-.45A1.32,1.32,0,0,0,350.5,135.5Z" fill="#fff"/><path d="M257.1,220.75q-6.41,6.7-4.75,13.6t10.45,9.85q8.81,3,19.6.35t17.15-9.35q6.49-6.7,4.8-13.55t-10.5-9.9q-8.7-3-19.5-.35t-17.25,9.35m26.6-1.2A3.2,3.2,0,0,1,284,221a2.9,2.9,0,0,1-.3,1.4c-.2.4-.43.6-.7.6s-.5-.2-.7-.6a2.9,2.9,0,0,1-.3-1.4,3.2,3.2,0,0,1,.3-1.45c.2-.37.43-.55.7-.55s.5.18.7.55m-11.65,1.8a1.2,1.2,0,0,1,.45.9,1,1,0,0,1-.45.85,1.58,1.58,0,0,1-2.1,0,1,1,0,0,1-.45-.85,1.2,1.2,0,0,1,.45-.9,1.75,1.75,0,0,1,2.1,0M267.5,231.5q4.2,6,16-3Q271.7,237.55,267.5,231.5Z" fill="#faca44"/></g><path id="SIGN_01_0_Layer0_0_1_STROKES" data-name="SIGN 01 0 Layer0 0 1 STROKES" d="M344.2,38.45,345,2,385,3V38.25L436,38l1,259L2,294,5,40l54.35-.25L61,6,97,4l.8,35.6,246.4-1.15L344,46H385V38.25m-80.6,183.4q1.69,6.85-4.8,13.55t-17.15,9.35q-10.8,2.65-19.6-.35t-10.45-9.85q-1.65-6.9,4.75-13.6t17.25-9.35q10.8-2.66,19.5.35T304.35,221.65ZM267.5,231.5q4.2,6,16-3M97.8,39.6,98,48,59,47l.35-7.25" fill="none" stroke="#000" stroke-linecap="round" stroke-linejoin="round" stroke-width="4"/><path id="SIGN_01_0_Layer0_0_2_STROKES" data-name="SIGN 01 0 Layer0 0 2 STROKES" d="M279.35,98.55q-5.14,5-9.6,5a10.7,10.7,0,0,1-7.6-3,9.22,9.22,0,0,1-3.15-7,9.38,9.38,0,0,1,3.15-7.1,11.41,11.41,0,0,1,15.2,0,11.61,11.61,0,0,1,1.75,2.1M305.05,155q-6.56,4.5-9.05,4.5a8.65,8.65,0,0,1-6.4-2.7,9.55,9.55,0,0,1,0-13.1A8.65,8.65,0,0,1,296,141a8.47,8.47,0,0,1,6.35,2.7,8.15,8.15,0,0,1,1.15,1.45m-44-50.65,19-6m9.5,63,15-5.5M179,136l.3,8.15L191,143m-21,2,9.3-.85Q177.25,161,194,159m17.05,68.5a40.27,40.27,0,0,1-8.85,7.05q-13.5,8.25-33.65,10.95t-34.75-2.45q-11.51-4-14.6-11.45a14.43,14.43,0,0,1-1-4.35,15.29,15.29,0,0,1,1-7q2.7-6.65,11.8-12.55,13.8-8.85,34.35-10.75t35.55,4.2q13.6,5.44,12.8,14.35l20.8,15Z" fill="none" stroke="#f36" stroke-linecap="round" stroke-linejoin="round" stroke-width="4"/><path id="SIGN_01_0_Layer0_0_3_STROKES" data-name="SIGN 01 0 Layer0 0 3 STROKES" d="M252.5,160.5l-6.05-14.3a6.11,6.11,0,0,1,.25,2.65,8.88,8.88,0,0,1-2.35,5,8.54,8.54,0,0,1-4.8,2.8,4.48,4.48,0,0,1-5.75-5.25,8.77,8.77,0,0,1,2.4-5,8.32,8.32,0,0,1,4.75-2.8,4.64,4.64,0,0,1,4.35,1,4.26,4.26,0,0,1,1.1,1.45l0,.15M383,162q-3-26.66-18.5-12m-1.5-5,1,15m-48.5-28.5,2.5,26m-247-27a1.88,1.88,0,0,1-.55,1.4,1.5,1.5,0,0,1-1.2.6,1.66,1.66,0,0,1-1.25-.6,2,2,0,0,1-.5-1.4,2.2,2.2,0,0,1,.5-1.45,1.71,1.71,0,0,1,1.25-.55,1.55,1.55,0,0,1,1.2.55A2,2,0,0,1,71,130.5ZM211,93.9a8.31,8.31,0,0,1-2.35,5.9,8.11,8.11,0,0,1-5.65,2.75,7.3,7.3,0,0,1-5.65-2.15A7.63,7.63,0,0,1,195,94.7a8.48,8.48,0,0,1,2.35-6,7.94,7.94,0,0,1,5.65-2.7,7.15,7.15,0,0,1,5.65,2.1A7.81,7.81,0,0,1,211,93.9ZM173.5,211l-.8,8.9-.7,7.6m-9-12,9.7,4.4m-31.2,6.6q18,4.8.5,11m-3.5-22q14.25,1.4,4.5,10.5m46,1V211.5h8.5m-8.5,16,7.5-.5m-7-7.5,6.5-.5m-58-3,3.5,21M68,141l1,17" fill="none" stroke="#008bc1" stroke-linecap="round" stroke-linejoin="round" stroke-width="4"/><path id="SIGN_01_0_Layer0_0_4_STROKES" data-name="SIGN 01 0 Layer0 0 4 STROKES" d="M226.5,86.5l.5,16m0-12q12.3-13.09,15,13.5m162.15,40.9a4.11,4.11,0,0,1,1.5,4,8.32,8.32,0,0,1-2.25,5,9.85,9.85,0,0,1-4.85,3.15,4.76,4.76,0,0,1-4.45-.55,4.18,4.18,0,0,1-1.5-4,8.43,8.43,0,0,1,2.3-5.1,9.54,9.54,0,0,1,4.8-3.1A4.91,4.91,0,0,1,404.15,144.9ZM407,146q9.41,41.85-18,28.5m-54.45-42v28M34,133l1,10.45L52,141m-28,4,11-1.55q.7,24.6,13,14.55" fill="none" stroke="#96f" stroke-linecap="round" stroke-linejoin="round" stroke-width="4"/><path id="SIGN_01_0_Layer0_0_5_STROKES" data-name="SIGN 01 0 Layer0 0 5 STROKES" d="M350.5,135.5a1.32,1.32,0,0,1-.55,1.05,1.72,1.72,0,0,1-1.2.45,1.92,1.92,0,0,1-1.25-.45,1.35,1.35,0,0,1,0-2.1,1.92,1.92,0,0,1,1.25-.45,1.72,1.72,0,0,1,1.2.45A1.32,1.32,0,0,1,350.5,135.5Zm.5,8.5v16M172.25,95.6A9.88,9.88,0,0,1,166.9,99a5.61,5.61,0,0,1-5.05-1.15,4.19,4.19,0,0,1-1.75-3.7c.13-1.33,1-3,2.55-4.9a14.23,14.23,0,0,1,6.4-4.5c2.7-1,4.72-1,6,.2s1.58,2.8.75,4.9A19.65,19.65,0,0,1,172.25,95.6ZM177,87q5.85,35.4-17,28m51,25.5,1,19m-99-4q-7.2-25.5-13.35-2.95-4-17.2-13.65-6.05M85,142l1,17m139-18q-9-3-12.5,7" fill="none" stroke="#fc0" stroke-linecap="round" stroke-linejoin="round" stroke-width="4"/><path id="SIGN_01_0_Layer0_0_6_STROKES" data-name="SIGN 01 0 Layer0 0 6 STROKES" d="M420,125l2,23m3,13a1.88,1.88,0,0,1-.55,1.4,1.5,1.5,0,0,1-1.2.6,1.66,1.66,0,0,1-1.25-.6,2,2,0,0,1-.5-1.4,2.2,2.2,0,0,1,.5-1.45,1.71,1.71,0,0,1,1.25-.55,1.55,1.55,0,0,1,1.2.55A2,2,0,0,1,425,161ZM259,143l11,16,7-17M141,156l-.4.4a9.27,9.27,0,0,1-7.05,3.1,9.44,9.44,0,0,1-7.1-3.1,10.35,10.35,0,0,1-2.9-7.4c0-.3,0-.6,0-.9a10.27,10.27,0,0,1,2.85-6.55,9.53,9.53,0,0,1,7.1-3.05,9.37,9.37,0,0,1,7.05,3.05c.33.37.65.75.95,1.15m-18,5.4,18-4.8" fill="none" stroke="#3c6" stroke-linecap="round" stroke-linejoin="round" stroke-width="4"/><path id="SIGN_01_0_Layer0_0_7_STROKES" data-name="SIGN 01 0 Layer0 0 7 STROKES" d="M284,221a2.9,2.9,0,0,1-.3,1.4c-.2.4-.43.6-.7.6s-.5-.2-.7-.6a2.9,2.9,0,0,1-.3-1.4,3.2,3.2,0,0,1,.3-1.45c.2-.37.43-.55.7-.55s.5.18.7.55A3.2,3.2,0,0,1,284,221Z" fill="none" stroke="#000" stroke-linecap="round" stroke-linejoin="round" stroke-width="2"/><path id="SIGN_01_0_Layer0_0_8_STROKES" data-name="SIGN 01 0 Layer0 0 8 STROKES" d="M272.5,222.25a1,1,0,0,1-.45.85,1.58,1.58,0,0,1-2.1,0,1,1,0,0,1-.45-.85,1.2,1.2,0,0,1,.45-.9,1.75,1.75,0,0,1,2.1,0A1.2,1.2,0,0,1,272.5,222.25Z" fill="none" stroke="#000" stroke-linecap="round" stroke-linejoin="round" stroke-width="2.5"/></svg>