<svg id="Layer_1" data-name="Layer 1" xmlns="http://www.w3.org/2000/svg" xmlns:xlink="http://www.w3.org/1999/xlink" viewBox="0 0 421 410.63"><defs><clipPath id="clip-path"><path d="M413.55,219.73h0A148,148,0,0,0,279.62,97.83l-18.57-1.49a10,10,0,0,1-9-7.93l-4.46-21A25.65,25.65,0,0,0,224.82,47a25.24,25.24,0,0,0-26,17.18l-6.33,19A10.06,10.06,0,0,1,182.13,90l-16.65-1.34C47.41,79.22-33.38,205.4,24.63,308.67h0a181.49,181.49,0,0,0,175.49,91.79l81.75-7.8C367.8,384.46,428.5,304.75,413.55,219.73Z" fill="none"/></clipPath></defs><path d="M170.16,106.68,118.19,3a5.45,5.45,0,0,0-10.33,2.44V106.68Z" fill="#ff8871"/><line x1="118.38" y1="46.08" x2="134.32" y2="86.9" fill="none" stroke="#1d1d1b" stroke-linecap="round" stroke-miterlimit="10"/><path d="M257.29,106.68,309.27,3a5.45,5.45,0,0,1,10.32,2.44V106.68Z" fill="#ff8871"/><line x1="309.07" y1="46.08" x2="293.13" y2="86.9" fill="none" stroke="#1d1d1b" stroke-linecap="round" stroke-miterlimit="10"/><g clip-path="url(#clip-path)"><path d="M413.55,219.73h0A148,148,0,0,0,279.62,97.83l-18.57-1.49a10,10,0,0,1-9-7.93l-4.46-21A25.65,25.65,0,0,0,224.82,47a25.24,25.24,0,0,0-26,17.18l-6.33,19A10.06,10.06,0,0,1,182.13,90l-16.65-1.34C47.41,79.22-33.38,205.4,24.63,308.67h0a181.49,181.49,0,0,0,175.49,91.79l81.75-7.8C367.8,384.46,428.5,304.75,413.55,219.73Z" fill="#ff8871"/><path d="M474.06,338.22l-23.19-65.8A124.54,124.54,0,0,0,404,211.21h0a99.78,99.78,0,0,0-116,2.08h0a6.5,6.5,0,0,1-10.23-3.87l-30.3-142.5a25.26,25.26,0,0,0-24.7-20h0A25.25,25.25,0,0,0,198.8,64.19l-47,141a6.51,6.51,0,0,1-9.87,3.3h0a110.8,110.8,0,0,0-122.17-2.54h0a166.69,166.69,0,0,0-48.72,47l-40,58.53L5.4,431.36,136.19,475l244.73-30.72Z" fill="#f9e4e1"/></g><path d="M246.18,208.76l-10,31.2c-6,18.5-32.12,18.5-38.07,0l-10-31.2" fill="none" stroke="#1d1d1b" stroke-linecap="round" stroke-miterlimit="10" stroke-width="4"/><rect x="86.82" y="122.22" width="35.33" height="39.63" fill="#1d1d1b"/><rect x="293.57" y="122.22" width="35.33" height="39.63" fill="#1d1d1b"/><path d="M172.51,208.81A19.81,19.81,0,0,0,197.44,196" fill="none" stroke="#1d1d1b" stroke-linecap="round" stroke-miterlimit="10" stroke-width="2"/><path d="M261.47,208.81A19.81,19.81,0,0,1,236.54,196" fill="none" stroke="#1d1d1b" stroke-linecap="round" stroke-miterlimit="10" stroke-width="2"/><path d="M251.71,61.12c0-7.84-7.05-14.2-28.66-14.2s-28.66,6.36-28.66,14.2c0,4.2,3.68,8,9.53,10.57a19.31,19.31,0,0,1,10.81,12l.05.14a8.58,8.58,0,0,0,8.27,6h0a8.58,8.58,0,0,0,8.27-6l.05-.14a19.31,19.31,0,0,1,10.81-12C248,69.09,251.71,65.32,251.71,61.12Z" fill="#1d1d1b"/><circle cx="94.66" cy="131.55" r="3.06" fill="#f5f5f5"/><ellipse cx="111.5" cy="134.36" rx="2.56" ry="3.72" fill="#f5f5f5"/><circle cx="101.96" cy="151.41" r="3.26" fill="#f5f5f5"/><ellipse cx="305.62" cy="132.59" rx="2.81" ry="4.09" fill="#f5f5f5"/><ellipse cx="317.06" cy="138.08" rx="2.53" ry="2.97" fill="#f5f5f5"/><circle cx="305.62" cy="152.8" r="3.27" fill="#f5f5f5"/><path d="M69.44,114.27l-3.7,2.39a202.81,202.81,0,0,1-38.52,19.5h0a5.34,5.34,0,0,0-2.59,7.9h0A5.35,5.35,0,0,0,32,145.64l77.64-50.31a5.35,5.35,0,0,0,1.58-7.39h0a5.35,5.35,0,0,0-8.27-.86h0A203.3,203.3,0,0,1,69.44,114.27Z" fill="#1d1d1b"/><path d="M37.82,69.52h0a23.29,23.29,0,0,0-6.88,32.2L48.4,128.66l39.07-25.32L70,76.4A23.29,23.29,0,0,0,37.82,69.52Z" fill="#1d1d1b"/></svg>