<svg id="Layer_1" data-name="Layer 1" xmlns="http://www.w3.org/2000/svg" viewBox="0 0 36.95 131.5"><g id="EARING_1_Layer2_0_FILL" data-name="EARING 1 Layer2 0 FILL"><path d="M17.72,100.61,4.58,113.51l12.74,17,13.27-18Z" fill="#92e6bc"/><path d="M23.69,85.11a6.64,6.64,0,0,0-1.8-4.7,5.77,5.77,0,0,0-8.63,0,7.08,7.08,0,0,0,0,9.39,5.77,5.77,0,0,0,8.63,0A6.63,6.63,0,0,0,23.69,85.11Z" fill="#58b989"/><path d="M35.85,59.38a12.87,12.87,0,0,0-5-10.14,18,18,0,0,0-12-4.17,18,18,0,0,0-12,4.17,12.83,12.83,0,0,0,0,20.23,18,18,0,0,0,12,4.19,17.93,17.93,0,0,0,12-4.19,12.79,12.79,0,0,0,5-10.09M24.06,54.76a5.4,5.4,0,0,1,2.23,4.33,5.33,5.33,0,0,1-2.23,4.3,8.33,8.33,0,0,1-5.41,1.8,8.29,8.29,0,0,1-5.39-1.8A5.33,5.33,0,0,1,11,59.09a5.4,5.4,0,0,1,2.23-4.33A8.33,8.33,0,0,1,18.65,53,8.37,8.37,0,0,1,24.06,54.76Z" fill="#ee9cd4"/><path d="M26.29,59.09a5.4,5.4,0,0,0-2.23-4.33A8.37,8.37,0,0,0,18.65,53a8.33,8.33,0,0,0-5.39,1.78A5.4,5.4,0,0,0,11,59.09a5.33,5.33,0,0,0,2.23,4.3,8.29,8.29,0,0,0,5.39,1.8,8.33,8.33,0,0,0,5.41-1.8A5.33,5.33,0,0,0,26.29,59.09Z" fill="#f15cc1"/></g><path id="EARING_1_Layer2_0_1_STROKES" data-name="EARING 1 Layer2 0 1 STROKES" d="M35.85,59.38a12.79,12.79,0,0,1-5,10.09,17.93,17.93,0,0,1-12,4.19,18,18,0,0,1-12-4.19,12.83,12.83,0,0,1,0-20.23,18,18,0,0,1,12-4.17,18,18,0,0,1,12,4.17A12.87,12.87,0,0,1,35.85,59.38Zm-9.56-.29a5.33,5.33,0,0,1-2.23,4.3,8.33,8.33,0,0,1-5.41,1.8,8.29,8.29,0,0,1-5.39-1.8A5.33,5.33,0,0,1,11,59.09a5.4,5.4,0,0,1,2.23-4.33A8.33,8.33,0,0,1,18.65,53a8.37,8.37,0,0,1,5.41,1.78A5.4,5.4,0,0,1,26.29,59.09Zm-2.6,26a6.63,6.63,0,0,1-1.8,4.69,5.77,5.77,0,0,1-8.63,0,7.08,7.08,0,0,1,0-9.39,5.77,5.77,0,0,1,8.63,0A6.64,6.64,0,0,1,23.69,85.11Zm6.9,27.34-13.27,18-12.74-17,13.14-12.9Z" fill="none" stroke="#000" stroke-linecap="round" stroke-linejoin="round" stroke-width="2.12"/><path id="EARING_1_Layer1_0_1_STROKES" data-name="EARING 1 Layer1 0 1 STROKES" d="M17.32,44.49q0-17.06.4-27.22.42-10.51,1.19-12.08Q21.76-.5,25.76,1.53a6.48,6.48,0,0,1,2.68,2.73,8.28,8.28,0,0,1,1.09,4.12M17.85,74.22v3.19M16.79,91.74l1.06,9" fill="none" stroke="#000" stroke-linecap="round" stroke-linejoin="round" stroke-width="2.12"/><path id="EARING_1_Layer0_0_1_STROKES" data-name="EARING 1 Layer0 0 1 STROKES" d="M28.47,47.67l-5.15,6.59m-7.59-.75L13.6,47.14M20,51.92l.53-5.84M12,55.1,5.64,50.86m4.78,8h-8M23.8,63.6,28.47,70M15.19,65.72,12.54,72.1M20,65.72v7.44M12,63.07,5.64,66.79M20,55.64l-3.18,5.84M20.5,114l-3.71,5.31m2.12-9-4.78,5.31M33.25,54l-6.9,3.19m.53,2.65,8.84,1.46" fill="none" stroke="#000" stroke-linecap="round" stroke-linejoin="round" stroke-width="2.12"/></svg>