<svg id="Layer_1" data-name="Layer 1" xmlns="http://www.w3.org/2000/svg" viewBox="0 0 323.7 110.25"><g id="HS_GOOGLES_03_0_Layer2_0_FILL" data-name="HS GOOGLES 03 0 Layer2 0 FILL"><path d="M289,41.77a92.87,92.87,0,0,0,4.85-17.47q2.55-14.64-2.5-22.51L79.92,1.42q-9.9.23-16.2.14c-4.2-.09-7.4-.16-9.6-.19H39.37C39,1.93,38.49,3,37.72,4.59q-2.4,4.94-3,29.31t20,41.8q20.7,17.37,44.7,15.79t40.95-15q13.35-10.43,16.2-24.37,4,16.13,19.65,28.24,16.91,13.09,41.2,13.1,22.35,0,44-16.13,1.8-1.4,3.6-2.84a87.63,87.63,0,0,0,9.2-8.71,77.57,77.57,0,0,0,14.8-24" fill="#ca212c"/></g><path id="HS_GOOGLES_03_0_Layer2_0_1_STROKES" data-name="HS GOOGLES 03 0 Layer2 0 1 STROKES" d="M291.32,1.79,79.92,1.42q-9.9.23-16.2.14c-4.2-.09-7.4-.16-9.6-.19H39.37C39,1.93,38.49,3,37.72,4.59q-2.4,4.94-3,29.31t20,41.8q20.7,17.37,44.7,15.79t40.95-15q13.35-10.43,16.2-24.37,4,16.13,19.65,28.24,16.91,13.09,41.2,13.1,22.35,0,44-16.13" fill="none" stroke="#000" stroke-linecap="round" stroke-linejoin="round" stroke-width="3.86"/><path id="HS_GOOGLES_03_0_Layer2_0_1_STROKES-2" data-name="HS GOOGLES 03 0 Layer2 0 1 STROKES" d="M291.32,1.79q5.06,7.87,2.5,22.51A92.87,92.87,0,0,1,289,41.77a77.57,77.57,0,0,1-14.8,24,87.63,87.63,0,0,1-9.2,8.71q-1.8,1.44-3.6,2.84" fill="none" stroke="#000" stroke-linecap="round" stroke-linejoin="round" stroke-width="3.86"/><g id="HS_GOOGLES_03_0_Layer1_0_FILL" data-name="HS GOOGLES 03 0 Layer1 0 FILL"><path d="M97.47,32.13q-5-4.38-5.4-16.22l-26.2-.33q-2.4,13.14,2.2,19,2.59,3.26,12.1,7.41t13.65,9.18q6.5,8,6.55,23.39,13.65-.65,27.35-12.3-1.45-14.64-7.35-20.46-3.75-3.72-11.85-5.45-8.3-1.77-11-4.19m116.6.37q-5.85-3.63-6.5-14.68l-22.5.23q-.19,15.28,3.9,21.49,2.7,4.1,9.55,6.66,7.95,3,11,5.82,5.85,5.46,8.65,20.18c1.1-.15,2.22-.34,3.35-.56A79.42,79.42,0,0,0,247.77,62q-2.21-15-8.35-20.78-4.09-3.82-12.8-5.36Q216.92,34.22,214.07,32.5Z" fill="#fff"/><path d="M92.07,15.91q.41,11.84,5.4,16.22,2.75,2.41,11,4.19,8.1,1.73,11.85,5.45,5.89,5.83,7.35,20.46a93.38,93.38,0,0,0,7-6.66Q153.22,36,152.12,16.7a.06.06,0,0,1,0-.09l-60.05-.7M53,15.4a51.33,51.33,0,0,0-1.2,12.86q.3,24.33,13.95,35T97.77,74.53c.87,0,1.73,0,2.6,0q0-15.42-6.55-23.39-4-5-13.65-9.18t-12.1-7.41q-4.6-5.82-2.2-19L53,15.4M198.52,46.2q-6.86-2.56-9.55-6.66-4.09-6.21-3.9-21.49l-11,.1A84.11,84.11,0,0,0,173,28.07q-1.31,26,13.6,36.63,13.65,9.78,31.6,7.5-2.8-14.73-8.65-20.18-3-2.84-11-5.82m9-28.38q.65,11,6.5,14.68,2.85,1.72,12.55,3.4,8.7,1.55,12.8,5.36Q245.57,47,247.77,62A75.43,75.43,0,0,0,256,56.26q14.4-11.68,19.25-31.87,1.5-6.29.5-7.17a1,1,0,0,0-.3-.14Z" fill="#333"/></g><path id="HS_GOOGLES_03_0_Layer1_0_1_STROKES" data-name="HS GOOGLES 03 0 Layer1 0 1 STROKES" d="M207.57,17.82q.65,11,6.5,14.68,2.85,1.72,12.55,3.4,8.7,1.55,12.8,5.36Q245.57,47,247.77,62A75.43,75.43,0,0,0,256,56.26q14.4-11.68,19.25-31.87,1.5-6.29.5-7.17a1,1,0,0,0-.3-.14l-67.9.74-22.5.23q-.19,15.28,3.9,21.49,2.7,4.1,9.55,6.66,7.95,3,11,5.82,5.85,5.46,8.65,20.18c1.1-.15,2.22-.34,3.35-.56A79.42,79.42,0,0,0,247.77,62M218.17,72.2q-18,2.28-31.6-7.5Q171.68,54,173,28.07A84.11,84.11,0,0,1,174,18.15l11-.1m-84.7,56.48c-.87,0-1.73,0-2.6,0q-18.4-.56-32-11.23t-13.95-35A51.33,51.33,0,0,1,53,15.4h-.6m39.7.51q.41,11.84,5.4,16.22,2.75,2.41,11,4.19,8.1,1.73,11.85,5.45,5.89,5.83,7.35,20.46a93.38,93.38,0,0,0,7-6.66Q153.22,36,152.12,16.7a.06.06,0,0,1,0-.09l-60.05-.7-26.2-.33q-2.4,13.14,2.2,19,2.59,3.26,12.1,7.41t13.65,9.18q6.5,8,6.55,23.39,13.65-.65,27.35-12.3M53,15.4l12.9.18" fill="none" stroke="#000" stroke-linecap="round" stroke-linejoin="round" stroke-width="3.86"/></svg>