<svg id="Layer_1" data-name="Layer 1" xmlns="http://www.w3.org/2000/svg" viewBox="0 0 486.94 433.95"><g id="MAMMOTH_EMBARRASSED_0_Layer1_0_FILL" data-name="MAMMOTH EMBARRASSED 0 Layer1 0 FILL"><path d="M250.84,253.2a62.15,62.15,0,0,1-7.61-13,45.9,45.9,0,0,1-9.14,14.55,49.84,49.84,0,0,0,16.75-1.55M34.08,211.55q-3.09-6.11-6.85-7.25a60.76,60.76,0,0,0-11.5,2.6l-2.14.75c-2,2-3.71,3.83-5.21,5.6q-4.89,5.81-6.79,16.9t2.59,16.3q4.5,5.2,12,4.65,9.15-2.4,13.15-6.85Q35,238,36.08,227.8t-2-16.25m-7.1,6.6c.84.2,1.4,1.13,1.71,2.8a17.32,17.32,0,0,1,0,5.85,16.61,16.61,0,0,1-1.81,5.5c-.76,1.43-1.56,2.07-2.4,1.9s-1.41-1.1-1.75-2.8a17,17,0,0,1,.05-5.9,15.6,15.6,0,0,1,1.75-5.45c.81-1.4,1.62-2,2.45-1.9m-14.25,4.2.15-.35a15.17,15.17,0,0,1,1.1-2.5c.87-1.6,1.69-2.33,2.46-2.2s1.18,1,1.34,2.8a18.25,18.25,0,0,1,.06,2.4l-.11.7a20.66,20.66,0,0,1-.45,3.05v.05c-.06.27-.13.55-.19.85-.17.7-.36,1.35-.56,1.95-.1.27-.18.52-.25.75a15.71,15.71,0,0,1-1.1,2.25c-.89,1.6-1.71,2.33-2.45,2.2s-1.21-1-1.35-2.8a12.69,12.69,0,0,1,0-2.45,7.16,7.16,0,0,1,.05-.8,15.31,15.31,0,0,1,.25-1.95q.06-.5.15-.9v-.05a23,23,0,0,1,.85-3M69.18,240.5a80.09,80.09,0,0,0-10.65-20q-13.39-18.25-31.3-16.2,3.75,1.15,6.85,7.25t2,16.25Q35,238,29.34,244.25q-4,4.45-13.15,6.85,12.69,1.4,17,5,4.89,4.09,7.34,12.4,4.3,14.6,3.95,64.5-.15,34.61,11.21,59.8,7.79,17.4,18.79,26.45,14.4,11.85,31,13.45,16.35,1.6,32.91-6.95,16.8-8.75,32-27,14.55-17.44,27.59-49.15,2.4-5.85,7.3-19.8Q210.95,313.73,220,287a111.93,111.93,0,0,1-36.85-10.65A128.11,128.11,0,0,1,167,267.2c-.21,3.47-.42,6.65-.66,9.55q-.67,7.85-1.4,13.9A106.74,106.74,0,0,1,195,306a106.74,106.74,0,0,0-30-15.35q-4.89,40.61-17.6,66.45Q129.79,392.85,103,386.3q-5.25-1.31-9.61-6.9a64.12,64.12,0,0,1-6.79-11.85q-6-12.75-9.46-44.85-.95-8.25-1.6-15.7-9.54,9.75-13.1,9.5,3.56.25,13.1-9.5-1.76-18.87-2.1-35.2c0-.21,0-.43,0-.65q-.2-19.45-4.3-30.65m-9.2-10q-3.54.6-9,10.5,5.46-9.9,9-10.5M55.48,218l-10,15,10-15M61,293.5l10.5-7-10.5,7M59,284l12.5-10.5L59,284m-2-16,12-7.5L57,268m-2-13.5q7.07-8.44,12.5-9-5.45.56-12.5,9m5.5,51,11-7.5-11,7.5m3.5,24,10.5-8-10.5,8m2.5,12.5L78,332l-11.5,10M70,356.5a17.55,17.55,0,0,1,10-9,17.55,17.55,0,0,0-10,9M88,376l-7,8.5,7-8.5m41.5,7a23.69,23.69,0,0,1,9.5,11,23.69,23.69,0,0,0-9.5-11M147,361.5A43.76,43.76,0,0,1,160,375a43.76,43.76,0,0,0-13-13.5m-6.5,11,10.5,13-10.5-13m-66-4q2.31-5,8.5-8-6.2,3-8.5,8m94.5-63,14.5,8.5L169,305.5m0-24a86.54,86.54,0,0,1,33.5,17,86.54,86.54,0,0,0-33.5-17m-8.5,38.5L180,330l-19.5-10M153,346.5l17,16-17-16m5.5-12,18,12.5-18-12.5m-39.5,54,8,11-8-11m-10,1,5,11.5-5-11.5m-7-2-2,16,2-16m-8.5-2.5L89,397l4.5-12m73.86-230.85A19.16,19.16,0,0,0,171,161.5l9-10-9,10a30.39,30.39,0,0,0,10,8.05,378.14,378.14,0,0,1,14.9-54.7q-32.79,22.25-28.54,39.3L178,142.5l-10.64,11.65m192.85,23.3a46.6,46.6,0,0,1-8.91-3.2q4.35,16.5,3.25,29.1a51.75,51.75,0,0,1-7.75,23.3,93.33,93.33,0,0,1-14.15,17.8A68.77,68.77,0,0,1,312.48,258a79.34,79.34,0,0,1-20,5.9q-26.25,20.25-55.1,22.85A116.26,116.26,0,0,1,220,287q-9,26.79-14.75,42.85h276.5l4.21-95.8-25.5-5q-24.4-41.55-75.25-58.65a58.8,58.8,0,0,1-9.06,4.45q-10,4-15.94,2.65m76.75,36.05q-4.21,7-6.5,29.5,2.3-22.5,6.5-29.5m-3,39q-3.9,10.69-2,37-1.9-26.29,2-37m19-13q-4.21,11.15-6.5,37.5,2.3-26.35,6.5-37.5m-117,34q-4.45,17.14-3,22.5-1.45-5.36,3-22.5m79.5-63.5a336.6,336.6,0,0,0-8,89.5,336.6,336.6,0,0,1,8-89.5m-19,0q-7.45,41.66-5.5,96.5-2-54.85,5.5-96.5m-45.5,44q-4.45,23.14-5,62,.54-38.85,5-62m17.5,17.5,1,41.5-1-41.5m5.5-89.5q-11.71,33.25-5,77.5-6.7-44.25,5-77.5m8.5,9.5q-4.76,19.09,0,42-4.76-22.91,0-42m-80.66,82.65a24.38,24.38,0,0,0-7.09,12.55A21.55,21.55,0,0,0,296,301.15q3.56,7.55,12.41,11.85-8.85-4.31-12.41-11.85a21.55,21.55,0,0,1-1.34-14.45,24.38,24.38,0,0,1,7.09-12.55A21.6,21.6,0,0,1,314.94,268a21.6,21.6,0,0,0-13.16,6.15m34-188.1q-3.6-15-6.9-26.2a54.8,54.8,0,0,0-12.29-21.3q-9.06-10-21.61-8,7.15-15.1,8.5-23.5L285,22.15A49.69,49.69,0,0,0,277.48,1a30.68,30.68,0,0,0-6,20.5q-7.14-6-21-12.5-.34,3.56,7,18.65-6.89-5.59-20.3-8.15,1.31,6.6,11.61,18-33.16,22.65-52.91,77.35a378.14,378.14,0,0,0-14.9,54.7q-5.19,25.75-8.64,58.25,3.49,2.85,7.29,5.55a122.67,122.67,0,0,0,35.46,17.85,82.85,82.85,0,0,0,19,3.55,45.9,45.9,0,0,0,9.14-14.55c-.3-.77-.55-1.5-.75-2.2a44.23,44.23,0,0,1,1.2-28.05q4.06-11.1,11.11-17.85Q267.58,180,291.48,174q-23.89,6-36.69,18.1-7.06,6.75-11.11,17.85a44.23,44.23,0,0,0-1.2,28.05c.2.7.45,1.43.75,2.2a62.15,62.15,0,0,0,7.61,13A11.88,11.88,0,0,1,254,255q10.16,9,26.8,9.55a66.33,66.33,0,0,0,11.75-.65,79.34,79.34,0,0,0,20-5.9,68.77,68.77,0,0,0,20.15-13.55,93.33,93.33,0,0,0,14.15-17.8,51.75,51.75,0,0,0,7.75-23.3q1.11-12.6-3.25-29.1a82.44,82.44,0,0,1-8.44-4.75Q330,161.3,329.48,152q.51,9.3,13.36,17.5a82.44,82.44,0,0,0,8.44,4.75,46.6,46.6,0,0,0,8.91,3.2q5.94,1.4,15.94-2.65a58.8,58.8,0,0,0,9.06-4.45,38.4,38.4,0,0,0,6.29-4.85q8.72-8.3,9.55-18.6.9-10.5-6.55-20.9-4.78-6.7-18-12.35-14.89-5.55-20.55-8.3-17-8.14-20.2-19.3m33.7,50.45,19,11.5-19-11.5M373,128l21,13-21-13m-9.5,16.5,19,13-19-13M337,144a76.26,76.26,0,0,0,22.5,24.5A76.26,76.26,0,0,1,337,144m18.5,8.5,17.5,13-17.5-13M331,179l.5,49.5L331,179M274.48,44l-6,44.5,6-44.5M285,48.5l.5,44-.5-44m-21.5,0-13,44,13-44M263,160l-1.5,18,1.5-18m22-4.5-1.5,14,1.5-14m23,3L305,171l3-12.5m-11.5-3-4.5,13,4.5-13m-43-105-14,32,14-32m46-3.5q4.75,34.35,1,77.5,3.75-43.15-1-77.5m12,12q5,37.69,0,67.5,5-29.81,0-67.5M281,190l-4.5,58,4.5-58m8.5-1.5-2,64.5,2-64.5m-40-25q-7.09,15.34-5.5,37-1.59-21.65,5.5-37M209,150q-20.94,32.15-19.5,78.5Q188,182.15,209,150m4,13.5q-16.24,25.25-11,70-5.25-44.74,11-70m13,.5q-13.44,25.75-9.5,65-3.94-39.25,9.5-65m9,2a181.43,181.43,0,0,0-8,69,181.43,181.43,0,0,1,8-69m65.5,23.5-2,54,2-54M319,178l-1,59.5,1-59.5m-9,18.5-1.5,27.5,1.5-27.5m14-119q3,28.75-2,51.5Q327,106.25,324,77.5Z" fill="#7d3c23"/><path d="M11.43,229.05a12.69,12.69,0,0,0,0,2.45c.14,1.77.59,2.7,1.35,2.8s1.56-.6,2.45-2.2a15.71,15.71,0,0,0,1.1-2.25,19.79,19.79,0,0,1-1.05,2c-.86,1.53-1.66,2.23-2.39,2.1s-1.24-1-1.41-2.7a12.86,12.86,0,0,1,0-2.15m2.5-9.2a20.59,20.59,0,0,0-1,2.15l-.15.35a23,23,0,0,0-.85,3v.05q-.09.4-.15.9a15.31,15.31,0,0,0-.25,1.95,7.16,7.16,0,0,0-.05.8,12.86,12.86,0,0,0,0,2.15q.25,2.55,1.41,2.7c.73.13,1.53-.57,2.39-2.1a19.79,19.79,0,0,0,1.05-2c.07-.23.15-.48.25-.75.2-.6.39-1.25.56-1.95.06-.3.13-.58.19-.85v-.05a20.66,20.66,0,0,0,.45-3.05l.11-.7a18.66,18.66,0,0,0-.11-2.05c-.19-1.63-.66-2.52-1.39-2.65s-1.57.58-2.41,2m-1,2.15a20.59,20.59,0,0,1,1-2.15c.84-1.47,1.64-2.15,2.41-2s1.2,1,1.39,2.65a18.66,18.66,0,0,1,.11,2.05,18.25,18.25,0,0,0-.06-2.4c-.16-1.77-.61-2.7-1.34-2.8s-1.59.6-2.46,2.2a15.17,15.17,0,0,0-1.1,2.5M28.69,221c-.31-1.67-.87-2.6-1.71-2.8s-1.64.5-2.45,1.9a15.6,15.6,0,0,0-1.75,5.45,17,17,0,0,0-.05,5.9c.34,1.7.92,2.63,1.75,2.8s1.64-.47,2.4-1.9a16.61,16.61,0,0,0,1.81-5.5A17.32,17.32,0,0,0,28.69,221Z"/><path d="M137.09,175.45Q127,140.55,139,103.8T183,44Q140.7,58.75,121,88.05q-16.29,24.15-16.44,57-.11,25.45,9.19,53,7,20.7,14.75,31.95A138.09,138.09,0,0,0,148,252.15l1.19,1.1A147.18,147.18,0,0,0,167,267.2a128.11,128.11,0,0,0,16.09,9.1A111.93,111.93,0,0,0,220,287a116.26,116.26,0,0,0,17.45-.2q28.86-2.6,55.1-22.85a66.33,66.33,0,0,1-11.75.65q-16.65-.49-26.8-9.55a11.88,11.88,0,0,0-3.14-1.8,49.84,49.84,0,0,1-16.75,1.55,82.85,82.85,0,0,1-19-3.55,122.67,122.67,0,0,1-35.46-17.85q-3.8-2.7-7.29-5.55Q146,206.26,137.09,175.45M123,116.5l-1,9,1-9m-3-1.5-1,8,1-8m5.5,83.5q5,13,10,16.5-5-3.5-10-16.5m125.5,66,11,2.5-11-2.5M10.13,101.1a120.56,120.56,0,0,0-8.6,44.75A151,151,0,0,0,8.68,193q1.35,4.35,4.91,14.7l2.14-.75q3.16-1.08,5.9-1.9a14.24,14.24,0,0,1,5.6-.7q17.91-2.06,31.3,16.2a80.09,80.09,0,0,1,10.65,20q4.11,11.2,4.3,30.65c0,.22,0,.44,0,.65Q96,284.91,116,286.85a116.45,116.45,0,0,0,26.19-.7q16.86-2.29,24.15-9.4c.24-2.9.45-6.08.66-9.55a147.18,147.18,0,0,1-17.81-13.95q-41.38,2.25-72.9-20.65Q47.19,211.35,35.19,176q-12.1-35.65-1.5-70.25Q45.18,68,81,43.5q-26.69,6-45,21.55A92.29,92.29,0,0,0,10.13,101.1M16,134.5l-.5,9.5.5-9.5m81,127,8.5,4.5L97,261.5m4.5-1.5,6,3.5-6-3.5m31,12.5L142,274Z" fill="#fffde1"/></g><path id="MAMMOTH_EMBARRASSED_0_Layer1_0_1_STROKES" data-name="MAMMOTH EMBARRASSED 0 Layer1 0 1 STROKES" d="M385.19,170.35a38.4,38.4,0,0,0,6.29-4.85q8.72-8.3,9.55-18.6.9-10.5-6.55-20.9-4.78-6.7-18-12.35-14.89-5.55-20.55-8.3-17-8.14-20.2-19.3-3.6-15-6.9-26.2a54.8,54.8,0,0,0-12.29-21.3q-9.06-10-21.61-8,7.15-15.1,8.5-23.5L285,22.15A49.69,49.69,0,0,0,277.48,1a30.68,30.68,0,0,0-6,20.5q-7.14-6-21-12.5-.34,3.56,7,18.65-6.89-5.59-20.3-8.15,1.31,6.6,11.61,18-33.16,22.65-52.91,77.35a378.14,378.14,0,0,0-14.9,54.7q-5.19,25.75-8.64,58.25,3.49,2.85,7.29,5.55a122.67,122.67,0,0,0,35.46,17.85,82.85,82.85,0,0,0,19,3.55,45.9,45.9,0,0,0,9.14-14.55c-.3-.77-.55-1.5-.75-2.2a44.23,44.23,0,0,1,1.2-28.05q4.06-11.1,11.11-17.85Q267.58,180,291.48,174m78-37.5,19,11.5M373,128l21,13M292.53,263.9a79.34,79.34,0,0,0,20-5.9,68.77,68.77,0,0,0,20.15-13.55,93.33,93.33,0,0,0,14.15-17.8,51.75,51.75,0,0,0,7.75-23.3q1.11-12.6-3.25-29.1a82.44,82.44,0,0,1-8.44-4.75Q330,161.3,329.48,152m55.71,18.35a58.8,58.8,0,0,1-9.06,4.45q-10,4-15.94,2.65a46.6,46.6,0,0,1-8.91-3.2m12.2-29.75,19,13M337,144a76.26,76.26,0,0,0,22.5,24.5m-4-16,17.5,13m12.21,4.85Q436,187.45,460.44,229l25.5,5-4.21,95.8H205.26q-4.94,13.95-7.33,19.8-13.05,31.69-27.59,49.15-15.21,18.25-32,27-16.56,8.55-32.91,6.95-16.55-1.6-30.95-13.45-11-9-18.79-26.45Q44.33,367.6,44.48,333q.36-49.9-3.95-64.5-2.45-8.29-7.34-12.4-4.3-3.6-17-5-7.52.56-12-4.65t-2.59-16.3q1.89-11.1,6.79-16.9c1.5-1.77,3.24-3.63,5.21-5.6Q10,197.3,8.68,193a151,151,0,0,1-7.15-47.1,120.56,120.56,0,0,1,8.6-44.75A92.29,92.29,0,0,1,36,65.05Q54.3,49.5,81,43.5,45.19,68,33.69,105.7q-10.6,34.61,1.5,70.25,12,35.4,41.14,56.65,31.5,22.91,72.9,20.65l-1.19-1.1A138.09,138.09,0,0,1,128.48,230q-7.74-11.25-14.75-31.95-9.3-27.56-9.19-53,.15-32.85,16.44-57,19.71-29.29,62-44-32,23.05-44,59.8t-1.89,71.65q8.91,30.81,35.25,52.35m264.6-14.3q-4.21,7-6.5,29.5m3.5,9.5q-3.9,10.69-2,37m21-50q-4.21,11.15-6.5,37.5m-110.5-3.5q-4.45,17.14-3,22.5m82.5-86a336.6,336.6,0,0,0-8,89.5m-11-89.5q-7.45,41.66-5.5,96.5m-40-52.5q-4.45,23.14-5,62m22.5-44.5,1,41.5m4.5-131q-11.71,33.25-5,77.5M331,179l.5,49.5m51-37q-4.76,19.09,0,42M274.48,44l-6,44.5m16.5-40,.5,44m-22-44-13,44m-83.14,61.65A19.16,19.16,0,0,0,171,161.5l9-10m-9,10a30.39,30.39,0,0,0,10,8.05m14.9-54.7q-32.79,22.25-28.54,39.3L178,142.5M263,160l-1.5,18M285,155.5l-1.5,14m24.5-11L305,171m-8.5-15.5-4.5,13m-38.5-118-14,32m60-35.5q4.75,34.35,1,77.5m11-65.5q5,37.69,0,67.5M16,134.5l-.5,9.5M123,116.5l-1,9M120,115l-1,8m6.5,75.5q5,13,10,16.5M97,261.5l8.5,4.5m-4-6,6,3.5m25,9L142,274m-68.47-2.17Q96,284.9,116,286.85a116.45,116.45,0,0,0,26.19-.7q16.86-2.29,24.15-9.4c.24-2.9.45-6.08.66-9.55a147.18,147.18,0,0,1-17.81-13.95M60,230.5q-3.54.6-9,10.5M27.23,204.3q17.91-2.06,31.3,16.2a80.09,80.09,0,0,1,10.65,20q4.11,11.2,4.3,30.65l0,.68q.31,16.31,2.07,35.17.66,7.46,1.6,15.7,3.51,32.1,9.46,44.85a64.12,64.12,0,0,0,6.79,11.85q4.35,5.6,9.61,6.9,26.74,6.56,44.34-29.2,12.7-25.85,17.6-66.45a2.57,2.57,0,0,1-.5-.15M55.48,218l-10,15m-16.79-6.2a16.61,16.61,0,0,1-1.81,5.5c-.76,1.43-1.56,2.07-2.4,1.9s-1.41-1.1-1.75-2.8a17,17,0,0,1,.05-5.9,15.6,15.6,0,0,1,1.75-5.45c.81-1.4,1.62-2,2.45-1.9s1.4,1.13,1.71,2.8A17.32,17.32,0,0,1,28.69,226.8Zm-1.46-22.5q3.75,1.15,6.85,7.25t2,16.25Q35,238,29.34,244.25q-4,4.45-13.15,6.85m-.46-44.17q3.16-1.11,5.9-1.93a14.24,14.24,0,0,1,5.6-.7,59.52,59.52,0,0,0-11.5,2.63c-.7.22-1.41.46-2.14.72M12.88,222a20.59,20.59,0,0,1,1-2.15c.84-1.47,1.64-2.15,2.41-2s1.2,1,1.39,2.65a18.66,18.66,0,0,1,.11,2.05m-5-.5-.15.35a23,23,0,0,0-.85,3v.05q-.09.4-.15.9a15.31,15.31,0,0,0-.25,1.95,7.16,7.16,0,0,0-.05.8,12.86,12.86,0,0,0,0,2.15q.25,2.55,1.41,2.7c.73.13,1.53-.57,2.39-2.1a19.79,19.79,0,0,0,1.05-2c.07-.23.15-.48.25-.75.2-.6.39-1.25.56-1.95.06-.3.13-.58.19-.85v-.05a20.66,20.66,0,0,0,.45-3.05l.11-.7M61,293.5l10.5-7M59,284l12.5-10.5M57,268l12-7.5m-14-6q7.07-8.44,12.5-9m-5,71q3.56.25,13.1-9.5m-15.1-1.5,11-7.5M64,329.5l10.5-8m-8,20.5L78,332m-8,24.5a17.55,17.55,0,0,1,10-9M88,376l-7,8.5m48.5-1.5a23.69,23.69,0,0,1,9.5,11m8-32.5A43.76,43.76,0,0,1,160,375m-19.5-2.5,10.5,13m-76.5-17q2.31-5,8.5-8m168-96,11,2.5m-94.94.2a128.11,128.11,0,0,0,16.09,9.1A111.93,111.93,0,0,0,220,287a116.26,116.26,0,0,0,17.45-.2q28.86-2.6,55.1-22.85a66.33,66.33,0,0,1-11.75.65q-16.65-.49-26.8-9.55a11.88,11.88,0,0,0-3.14-1.8,49.84,49.84,0,0,1-16.75,1.55M314.94,268a21.6,21.6,0,0,0-13.16,6.15,24.38,24.38,0,0,0-7.09,12.55A21.55,21.55,0,0,0,296,301.15q3.56,7.55,12.41,11.85m-57.6-59.8a62.15,62.15,0,0,1-7.61-13M165,290.65q.74-6,1.4-13.9M169,305.5l14.5,8.5M165,290.65A106.74,106.74,0,0,1,195,306m-26-24.5a86.54,86.54,0,0,1,33.5,17m2.78,31.3Q210.95,313.73,220,287M281,190l-4.5,58m13-59.5-2,64.5m-38-89.5q-7.09,15.34-5.5,37M160.48,320,180,330m-27,16.5,17,16m-11.5-28,18,12.5M209,150q-20.94,32.15-19.5,78.5m23.5-65q-16.24,25.25-11,70M226,164q-13.44,25.75-9.5,65M235,166a181.43,181.43,0,0,0-8,69m73.5-45.5-2,54M319,178l-1,59.5m-8-41-1.5,27.5M119,388.5l8,11m-18-10,5,11.5m-12-13.5-2,16M93.48,385,89,397M324,77.5q3,28.75-2,51.5" fill="none" stroke="#000" stroke-linecap="round" stroke-linejoin="round" stroke-width="2"/><g id="MAMMOTH_EMBARRASSED_0_Layer0_0_FILL" data-name="MAMMOTH EMBARRASSED 0 Layer0 0 FILL"><path d="M296.53,280q-7.9.69-14,1.2V306.4q7.29-.61,15.55-1.9-8.58-12.27-1.5-24.55m-14,1.2q-16.05,1.31-20,1.3c-.6-.07-1.18-.12-1.75-.15l-.75-.05v24.3a125,125,0,0,0,22.5-.15V281.15m-22.5,1.1a14.65,14.65,0,0,0-2.45.25q-13.89,2.5-17.94,8.1a7,7,0,0,0-.75,7.6q2.19,4.4,10.95,6.65a64.19,64.19,0,0,0,10.19,1.7v-24.3M261,120a10.49,10.49,0,1,0-10.5,10.5A10.59,10.59,0,0,0,261,120m-9.5.5a1.32,1.32,0,0,1-.55,1,1.72,1.72,0,0,1-1.2.45,1.94,1.94,0,0,1-1.25-.45,1.35,1.35,0,0,1,0-2.1,1.94,1.94,0,0,1,1.25-.45,1.72,1.72,0,0,1,1.2.45,1.32,1.32,0,0,1,.55,1m29.36-6.5a11.14,11.14,0,0,0-15.21,0,9.92,9.92,0,0,0,0,14.5,11.14,11.14,0,0,0,15.21,0,9.94,9.94,0,0,0,0-14.5m-8.36,6.5a1.38,1.38,0,0,1,.5-1,1.94,1.94,0,0,1,1.25-.45,1.76,1.76,0,0,1,1.21.45,1.29,1.29,0,0,1,0,2.1,1.76,1.76,0,0,1-1.21.45,1.94,1.94,0,0,1-1.25-.45A1.38,1.38,0,0,1,272.48,120.45Z" fill="#fff"/><path d="M250.93,121.5a1.28,1.28,0,0,0,0-2.1,1.72,1.72,0,0,0-1.2-.45,1.94,1.94,0,0,0-1.25.45,1.35,1.35,0,0,0,0,2.1,1.94,1.94,0,0,0,1.25.45,1.72,1.72,0,0,0,1.2-.45M273,119.4a1.35,1.35,0,0,0,0,2.1,1.94,1.94,0,0,0,1.25.45,1.76,1.76,0,0,0,1.21-.45,1.29,1.29,0,0,0,0-2.1,1.76,1.76,0,0,0-1.21-.45A1.94,1.94,0,0,0,273,119.4Z"/></g><path id="MAMMOTH_EMBARRASSED_0_Layer0_0_1_STROKES" data-name="MAMMOTH EMBARRASSED 0 Layer0 0 1 STROKES" d="M276,120.45a1.34,1.34,0,0,1-.54,1,1.76,1.76,0,0,1-1.21.45,1.94,1.94,0,0,1-1.25-.45,1.35,1.35,0,0,1,0-2.1,1.94,1.94,0,0,1,1.25-.45,1.76,1.76,0,0,1,1.21.45A1.34,1.34,0,0,1,276,120.45Zm8,.75a9.68,9.68,0,0,1-3.14,7.25,11.14,11.14,0,0,1-15.21,0,9.92,9.92,0,0,1,0-14.5,11.14,11.14,0,0,1,15.21,0A9.68,9.68,0,0,1,284,121.2Zm-32.5-.75a1.32,1.32,0,0,1-.55,1,1.72,1.72,0,0,1-1.2.45,1.94,1.94,0,0,1-1.25-.45,1.35,1.35,0,0,1,0-2.1,1.94,1.94,0,0,1,1.25-.45,1.72,1.72,0,0,1,1.2.45A1.32,1.32,0,0,1,251.48,120.45Zm9.5-.5a10.59,10.59,0,0,1-10.5,10.5A10.52,10.52,0,0,1,240,120a10.43,10.43,0,0,1,10.5-10.5A10.5,10.5,0,0,1,261,120Zm-3-25.5q-6.65,9-21.5,5m32.5-4q7.86,9.19,19.5,3M260,282.27c.25,0,.5,0,.75,0,.57,0,1.15.08,1.75.15q3.94,0,20-1.3,6.15-.51,14-1.2-7.08,12.27,1.5,24.55-8.26,1.28-15.55,1.9a127.14,127.14,0,0,1-22.5.18,66.41,66.41,0,0,1-10.19-1.73q-8.76-2.25-10.95-6.65a7,7,0,0,1,.75-7.6q4-5.6,17.94-8.1a13.63,13.63,0,0,1,2.45-.23v24.31m22.5-25.43V306.4" fill="none" stroke="#000" stroke-linecap="round" stroke-linejoin="round" stroke-width="2"/></svg>