<svg id="Layer_1" data-name="Layer 1" xmlns="http://www.w3.org/2000/svg" xmlns:xlink="http://www.w3.org/1999/xlink" viewBox="0 0 348.13 421.09"><defs><clipPath id="clip-path"><circle cx="174.07" cy="235.47" r="174.07" fill="#ff8871"/></clipPath></defs><path d="M39.47,148.63,53.82,12.93A6.41,6.41,0,0,1,66.2,11.34l41.89,111.51Z" fill="#ff8871"/><line x1="71.42" y1="60.44" x2="70.76" y2="112.01" fill="none" stroke="#1d1d1b" stroke-linecap="round" stroke-miterlimit="10"/><path d="M308.67,148.63,294.32,12.93a6.42,6.42,0,0,0-12.39-1.59L240,122.85Z" fill="#ff8871"/><line x1="276.71" y1="60.44" x2="277.37" y2="112.01" fill="none" stroke="#1d1d1b" stroke-linecap="round" stroke-miterlimit="10"/><circle cx="174.07" cy="235.47" r="174.07" fill="#ff8871"/><g clip-path="url(#clip-path)"><circle cx="174.07" cy="235.47" r="174.07" fill="#ff8871"/><path d="M196.49,191.21v17.2A35.18,35.18,0,0,1,212.2,220.7h10.5V191.21Z" fill="#1d1d1b"/><ellipse cx="213.26" cy="211.34" rx="2.26" ry="2.73" fill="#f5f5f5"/><circle cx="202.26" cy="204.71" r="2.86" fill="#f5f5f5"/><circle cx="214.48" cy="199.26" r="2.19" fill="#f5f5f5"/><path d="M183.61,206a35.1,35.1,0,0,1,35.11,35.1" fill="none" stroke="#1d1d1b" stroke-linecap="round" stroke-miterlimit="10" stroke-width="2.41"/><path d="M126.82,191.21v17.9a35.25,35.25,0,0,1,14.82,11.59H153V191.21Z" fill="#1d1d1b"/><circle cx="134.16" cy="199.87" r="2.18" fill="#f5f5f5"/><circle cx="141.02" cy="205.96" r="2.65" fill="#f5f5f5"/><circle cx="133.35" cy="206.88" r="1.25" fill="#f5f5f5"/><circle cx="146.68" cy="214.07" r="1.83" fill="#f5f5f5"/><ellipse cx="143.85" cy="196.28" rx="2.83" ry="2.03" fill="#f5f5f5"/><path d="M113.41,206a35.1,35.1,0,0,1,35.1,35.1" fill="none" stroke="#1d1d1b" stroke-linecap="round" stroke-miterlimit="10" stroke-width="2.41"/><circle cx="258.24" cy="228.16" r="28.72" fill="#ff2e4c"/><circle cx="84.81" cy="228.16" r="28.72" fill="#ff2e4c"/><path d="M342.79,424.9,327.6,318.52a60.43,60.43,0,0,0-59.83-51.89h0a60.44,60.44,0,0,0-53.3,31.93l-6.94,13a37.65,37.65,0,0,1-33.21,19.91h0a37.66,37.66,0,0,1-33.22-19.91l-6.94-13a60.43,60.43,0,0,0-53.3-31.93h0A60.43,60.43,0,0,0,21,318.52L5.84,424.9" fill="#f9e4e1"/></g><path d="M191.37,313.49c0-4.85-4.25-8.79-17.3-8.79s-17.31,3.94-17.31,8.79c0,2.6,2.23,4.94,5.76,6.55a11.84,11.84,0,0,1,6.52,7.42l0,.09a5.21,5.21,0,0,0,5,3.74h0a5.2,5.2,0,0,0,5-3.74l0-.09a11.84,11.84,0,0,1,6.52-7.42C189.15,318.43,191.37,316.09,191.37,313.49Z" fill="#1d1d1b"/><path d="M146,63.37l-5.1.93A239.72,239.72,0,0,1,90.24,68h0a6.29,6.29,0,0,0-6.39,7.4h0a6.28,6.28,0,0,0,7.31,5.06L198.27,61a6.29,6.29,0,0,0,5.06-7.31h0A6.28,6.28,0,0,0,194.75,49h0A240,240,0,0,1,146,63.37Z" fill="#1d1d1b"/><path d="M131.94.45h0A27.4,27.4,0,0,0,109.88,32.3l6.76,37.17,53.91-9.8L163.8,22.51A27.4,27.4,0,0,0,131.94.45Z" fill="#1d1d1b"/></svg>