<svg id="Layer_1" data-name="Layer 1" xmlns="http://www.w3.org/2000/svg" viewBox="0 0 323.7 110.25"><g id="HEADSET_GOOGLES_01_0_Layer3_0_FILL" data-name="HEADSET GOOGLES 01 0 Layer3 0 FILL"><path d="M286.5,85V3.71L39.85,1.76,37.2,84.9l105.7,0,13.75-21.75,15.52,21.76L286.5,85m0-82.54V86.2" fill="#3cc"/></g><path id="HEADSET_GOOGLES_01_0_Layer3_0_1_STROKES" data-name="HEADSET GOOGLES 01 0 Layer3 0 1 STROKES" d="M286.5,86.2V85l-114.33,0L156.65,63.17,142.9,84.92l-105.7,0L39.85,1.76l246.65.65V85" fill="none" stroke="#000" stroke-linecap="round" stroke-linejoin="round" stroke-width="3.92"/><path id="HEADSET_GOOGLES_01_0_Layer3_0_1_STROKES-2" data-name="HEADSET GOOGLES 01 0 Layer3 0 1 STROKES" d="M286.5,2.41h0" fill="none" stroke="#000" stroke-linecap="round" stroke-linejoin="round" stroke-width="3.92"/><g id="HEADSET_GOOGLES_01_0_Layer2_0_FILL" data-name="HEADSET GOOGLES 01 0 Layer2 0 FILL"><path d="M182.5,12l-1.3,62.65,77.35,1.25,1.3-62.65L182.5,12m-50.65,0H57.2V74.68h74.65Z" fill="#ffc16b"/></g><path id="HEADSET_GOOGLES_01_0_Layer2_0_1_STROKES" data-name="HEADSET GOOGLES 01 0 Layer2 0 1 STROKES" d="M57.2,12h74.65V74.68H57.2Zm125.3,0,77.35,1.25-1.3,62.65L181.2,74.68Z" fill="none" stroke="#000" stroke-linecap="round" stroke-linejoin="round" stroke-width="3.92"/><path id="HEADSET_GOOGLES_01_0_Layer1_0_1_STROKES" data-name="HEADSET GOOGLES 01 0 Layer1 0 1 STROKES" d="M194.5,45.28l21.35,17.89m-16-43.51,40,46.05M85.2,22.25,114.55,53M81.2,38.85,102.55,58" fill="none" stroke="#000" stroke-linecap="round" stroke-linejoin="round" stroke-width="3.92"/></svg>