<svg id="Layer_1" data-name="Layer 1" xmlns="http://www.w3.org/2000/svg" viewBox="0 0 198.19 181.55"><g id="EMOTE_THUMBSUP_0_Layer0_0_FILL" data-name="EMOTE THUMBSUP 0 Layer0 0 FILL"><path d="M127.08,146.76c-1.33,1-2.1,1.5-2.32,1.64q-4.74,3.67-4.53,8.49a9.13,9.13,0,0,0,1.75,5,15.91,15.91,0,0,0,5,4.35,29.26,29.26,0,0,0,15.5,4q9,0,15.28-4t6-9.39a10.38,10.38,0,0,0-4.07-7.58,96.82,96.82,0,0,1-20,.39q-8.17-.72-12.67-2.94m39.61-21.61a3.83,3.83,0,0,0-.57-.29c-2.11.87-3.51,1.42-4.19,1.64a53.91,53.91,0,0,1-16.24,2.27,55,55,0,0,1-13.86-1.64,1,1,0,0,0-.34-.06c-.19-.08-2.07-.7-5.66-1.87l-.73-.22a1,1,0,0,0-.4.17q-8.37,4.35-7.87,10.52t10.13,11l.12.06q4.48,2.22,12.67,2.94a96.82,96.82,0,0,0,20-.39,37.36,37.36,0,0,0,8.65-3.17q8.33-4.37,7.81-10.47t-9.5-10.52m.79-22.75a37,37,0,0,0-3.79-1.64,51.89,51.89,0,0,1-18,2.88,59.8,59.8,0,0,1-11.37-1,48.79,48.79,0,0,1-6.62-1.86c-1.32.49-2.6,1-3.85,1.64q-9,4.57-9,10.92t9,10.86l.45.23a2,2,0,0,0,.8.57l.73.22c3.59,1.17,5.47,1.79,5.66,1.87a1,1,0,0,1,.34.06,55,55,0,0,0,13.86,1.64,53.91,53.91,0,0,0,16.24-2.27c.68-.22,2.08-.77,4.19-1.64l1.36-.68q9.06-4.47,9.05-10.86t-9.05-10.92m-34.8-29.14a40.52,40.52,0,0,0-9.17,3.22q-9.17,4.63-9.17,11.26T123.51,99a35.25,35.25,0,0,0,4.19,1.81,48.79,48.79,0,0,0,6.62,1.86,59.8,59.8,0,0,0,11.37,1,51.89,51.89,0,0,0,18-2.88h.05A32.91,32.91,0,0,0,167.82,99Q177,94.36,177,87.74t-9.22-11.26q-9.1-4.64-22.13-4.64a55.78,55.78,0,0,0-13,1.42M123,33.08q-2.66-12.22-11-18a18.72,18.72,0,0,0-15.5-3.29q-8.08,1.88-11.43,8.72Q91.71,58.26,56.23,87a173.51,173.51,0,0,1-33.95-.74L21.15,145H56.8Q80.05,173.08,122,161.93a9.13,9.13,0,0,1-1.75-5q-.21-4.81,4.53-8.49c.22-.14,1-.69,2.32-1.64l-.12-.06q-9.61-4.92-10.13-11t7.87-10.52a1,1,0,0,1,.4-.17,2,2,0,0,1-.8-.57l-.45-.23q-9-4.47-9-10.86t9-10.92c1.25-.61,2.53-1.15,3.85-1.64A35.25,35.25,0,0,1,123.51,99q-9.17-4.59-9.17-11.21t9.17-11.26a40.52,40.52,0,0,1,9.17-3.22l-13.07-4.08Q126.06,47.57,123,33.08Z" fill="#f1c950"/></g><path id="EMOTE_THUMBSUP_0_Layer0_0_1_STROKES" data-name="EMOTE THUMBSUP 0 Layer0 0 1 STROKES" d="M132.68,73.26l-13.07-4.08q6.45-21.62,3.39-36.1-2.66-12.22-11-18a18.72,18.72,0,0,0-15.5-3.29q-8.08,1.88-11.43,8.72Q91.71,58.26,56.23,87a173.51,173.51,0,0,1-33.95-.74L21.15,145H56.8Q80.05,173.08,122,162a9.1,9.1,0,0,1-1.78-5.06q-.21-4.81,4.53-8.46l2.34-1.64-.14-.09q-9.61-4.92-10.13-11t7.87-10.52a1,1,0,0,1,.4-.17,2,2,0,0,1-.8-.57l-.45-.23q-9-4.47-9-10.86t9-10.92c1.25-.61,2.53-1.15,3.85-1.64A35.25,35.25,0,0,1,123.51,99q-9.17-4.59-9.17-11.21t9.17-11.26a40.52,40.52,0,0,1,9.17-3.22,55.78,55.78,0,0,1,13-1.42q13,0,22.13,4.64T177,87.74q0,6.63-9.22,11.21a32.91,32.91,0,0,1-4.08,1.81h-.05a37,37,0,0,1,3.79,1.64q9.06,4.57,9.05,10.92t-9.05,10.86l-1.36.68a3.83,3.83,0,0,1,.57.29q9,4.35,9.5,10.52t-7.81,10.47a37.36,37.36,0,0,1-8.65,3.17,10.38,10.38,0,0,1,4.07,7.58q.22,5.55-6,9.39t-15.28,4a29.26,29.26,0,0,1-15.5-4,15.64,15.64,0,0,1-5-4.33m41.68-61.19a51.89,51.89,0,0,1-18,2.88,59.8,59.8,0,0,1-11.37-1,48.79,48.79,0,0,1-6.62-1.86m38.42,24.1c-2.11.87-3.51,1.42-4.19,1.64a53.91,53.91,0,0,1-16.24,2.27,55,55,0,0,1-13.86-1.64,1,1,0,0,0-.34-.06c-.19-.08-2.07-.7-5.66-1.87l-.73-.22m34.63,24.33a96.82,96.82,0,0,1-20,.39q-8.17-.72-12.65-2.91" fill="none" stroke="#000" stroke-linecap="round" stroke-linejoin="round" stroke-width="3"/></svg>