<svg id="Layer_1" data-name="Layer 1" xmlns="http://www.w3.org/2000/svg" viewBox="0 0 251.33 162.83"><g id="HAMSTER_0_Layer4_0_FILL" data-name="HAMSTER 0 Layer4 0 FILL"><path d="M113,154.63a10.33,10.33,0,0,0,.35-5.85l-21-3.65q-2.75,9.75-.2,12.4a2,2,0,0,0,2.55.35,7.41,7.41,0,0,0,2.75-2.95c.67-1.23,1.1-1.75,1.3-1.55a9,9,0,0,1,.15,2c.1,3,1,4.43,2.65,4.4,1,0,1.89-.67,2.65-2a8.55,8.55,0,0,0,1-4.65c0-.77.14-.87.4-.3l1.15,2.75q2.2,4.75,4,3.6,1.41-.94,2.4-4.5m-42.45-6.85-26-4.95q-5,11.74-2.1,15a2.48,2.48,0,0,0,3.15.5,10,10,0,0,0,4-3.55c1-1.47,1.65-2.07,1.85-1.8a9.9,9.9,0,0,1-.1,2.35q-.45,5.44,2.75,5.45c1.27,0,2.47-.78,3.6-2.35a10.81,10.81,0,0,0,1.9-5.65c.07-.93.24-1.05.5-.35.17.47.54,1.58,1.1,3.35q2.1,5.85,4.4,4.5c1.3-.77,2.55-2.58,3.75-5.45s1.65-5.3,1.25-7.1M215,141.58a8.63,8.63,0,0,0-1.9-6.25q-5.29-8-13-6.3t-8.35,11.3q-.6,10.2,2.85,11.9a2.16,2.16,0,0,0,2.65-.55,8.62,8.62,0,0,0,2.05-4q.6-2.21.9-1.95a7,7,0,0,1,.65,1.8q1.31,4.3,3.8,3.3a4,4,0,0,0,2.15-2.9,8.73,8.73,0,0,0-.2-4.9c-.23-.73-.13-.87.3-.4.27.3.9,1,1.9,2.2,2.27,2.53,3.87,3.22,4.8,2.05Q214.83,145.48,215,141.58Z" fill="#efb5a3"/></g><path id="HAMSTER_0_Layer4_0_1_STROKES" data-name="HAMSTER 0 Layer4 0 1 STROKES" d="M213.08,135.33q-5.29-8-13-6.3t-8.35,11.3q-.6,10.2,2.85,11.9a2.16,2.16,0,0,0,2.65-.55,8.62,8.62,0,0,0,2.05-4q.6-2.21.9-1.95a7,7,0,0,1,.65,1.8q1.31,4.3,3.8,3.3a4,4,0,0,0,2.15-2.9,8.73,8.73,0,0,0-.2-4.9c-.23-.73-.13-.87.3-.4.27.3.9,1,1.9,2.2,2.27,2.53,3.87,3.22,4.8,2.05q1.2-1.45,1.35-5.35A8.63,8.63,0,0,0,213.08,135.33Zm-168.55,7.5q-5,11.74-2.1,15a2.48,2.48,0,0,0,3.15.5,10,10,0,0,0,4-3.55c1-1.47,1.65-2.07,1.85-1.8a9.9,9.9,0,0,1-.1,2.35q-.45,5.44,2.75,5.45c1.27,0,2.47-.78,3.6-2.35a10.81,10.81,0,0,0,1.9-5.65c.07-.93.24-1.05.5-.35.17.47.54,1.58,1.1,3.35q2.1,5.85,4.4,4.5c1.3-.77,2.55-2.58,3.75-5.45s1.65-5.3,1.25-7.1Zm47.75,2.3q-2.75,9.75-.2,12.4a2,2,0,0,0,2.55.35,7.41,7.41,0,0,0,2.75-2.95c.67-1.23,1.1-1.75,1.3-1.55a9,9,0,0,1,.15,2c.1,3,1,4.43,2.65,4.4,1,0,1.89-.67,2.65-2a8.55,8.55,0,0,0,1-4.65c0-.77.14-.87.4-.3l1.15,2.75q2.2,4.75,4,3.6,1.41-.94,2.4-4.5a10.33,10.33,0,0,0,.35-5.85Z" fill="none" stroke="#000" stroke-linecap="round" stroke-linejoin="round" stroke-width="4"/><g id="HAMSTER_0_Layer3_0_FILL" data-name="HAMSTER 0 Layer3 0 FILL"><path d="M225.63,80.43q-13.5-3.6-26.35,10.65-4.54,5-7.6,17.7-1.55,6.41-2.2,8.35-1.39,4-3.3,5.4-4.35,3.19-12,4.55-8.7,1-12.6,1.75-6.69,1.24-9.65,4.4-3.71,3.9-3.4,13.55l1.6-.1a199.24,199.24,0,0,0,41.4-6.85q5.26-18.3,19.5-7.5a81.08,81.08,0,0,0,25.3-21.05,61.78,61.78,0,0,0,9.9-18q-7.69-9.45-20.65-12.8m-50.55,17.9q2.21-9.1-1.75-15.7a164.83,164.83,0,0,0-13.65-18.45,140.72,140.72,0,0,0-19.9-19.4q6.71-6.56,6.35-13a10.38,10.38,0,0,0-5.5-8.75,13.12,13.12,0,0,0-11-1.35,15.47,15.47,0,0,0-7.65,5.1,23.78,23.78,0,0,0-2.6,4.2,23.78,23.78,0,0,1,2.6-4.2Q99.54,10,84.13,10.68c-.8,0-1.62.1-2.45.2q-13.29,1.66-30,15.8Q48,19.44,42,18.43A11.45,11.45,0,0,0,32,21.63a14.27,14.27,0,0,0-4.8,10.45q-.15,7.1,5.9,13.4Q20.94,61.79,5.48,85.68q-4.85,7.5-3,18.25,2,11.7,11.35,21.3,10.86,11.05,28.9,16.25,21.06,6,49.65,3.2c1.23-.12,2.43-.25,3.6-.4q46.05-5.21,67.7-27,8.91-9,11.35-19m-38.5-67.6-8.75,8.9,8.75-8.9M86.43,34.18a15.51,15.51,0,0,1,9.6,4.7,20.51,20.51,0,0,1,5.55,11q-7.24,6.6-2,12.35a11.26,11.26,0,0,0,5.3,3.15,9,9,0,0,0,5.9-.25,32,32,0,0,1,13.8,4.5,42.5,42.5,0,0,1,10.45,8,18.81,18.81,0,0,1,5.15,16.15,19.53,19.53,0,0,1-9.45,14.35q-9,5.8-24.9,2.85a23,23,0,0,1-10.5,11.45,26.11,26.11,0,0,1-14.15,2.9,25,25,0,0,1-13-4.35,15.43,15.43,0,0,1-6.85-10.25q-15.65.1-23.25-5.75-7.05-5.4-7.7-13.4-.64-8.25,5.95-14.95,7.41-7.5,21.7-10.3,13.75-1.5,9.55-18.95A22.58,22.58,0,0,1,76,36.88a15.61,15.61,0,0,1,10.45-2.7m-48.2-8.25,7.3,13.6-7.3-13.6m188.85,15.5q2.21-5.4,5.15-7.4-11.89-12.6-30-20.6A134.42,134.42,0,0,0,162.88,3.18q-.09,16.46,1.65,22.5a16.82,16.82,0,0,0,7.35,9.6q4.05,2.7,14.45-.9a51,51,0,0,1,7.2-2.05c2.37-.37,4.12,0,5.25,1.15a8,8,0,0,1,1.85,5.2c.1,1.37.14,3.62.1,6.75q.21,9,7.15,11.75,6.56,2.66,10.5.55,3.06-1.65,5.25-6.85Q225.83,44.47,227.08,41.43Z" fill="#99724c"/><path d="M96,38.88a15.49,15.49,0,0,0-20-2,22.58,22.58,0,0,0-8.3,10.55q4.21,17.46-9.55,18.95-14.3,2.81-21.7,10.3-6.6,6.7-5.95,14.95.66,8,7.7,13.4,7.6,5.85,23.25,5.75A15.43,15.43,0,0,0,68.28,121a25,25,0,0,0,13,4.35,26.11,26.11,0,0,0,14.15-2.9A23,23,0,0,0,105.88,111q15.86,3,24.9-2.85a19.53,19.53,0,0,0,9.45-14.35,18.81,18.81,0,0,0-5.15-16.15,42.5,42.5,0,0,0-10.45-8,32,32,0,0,0-13.8-4.5,9,9,0,0,1-5.9.25,11.26,11.26,0,0,1-5.3-3.15q-5.3-5.74,2-12.35a20.51,20.51,0,0,0-5.55-11M246.28,93.23a57.46,57.46,0,0,0,2-7.55,54.89,54.89,0,0,0-1.4-26.9A62.31,62.31,0,0,0,232.23,34q-2.94,2-5.15,7.4-1.25,3-3.45,9.45-2.19,5.2-5.25,6.85-3.94,2.1-10.5-.55-6.94-2.8-7.15-11.75c0-3.13,0-5.38-.1-6.75a8,8,0,0,0-1.85-5.2c-1.13-1.13-2.88-1.52-5.25-1.15a51,51,0,0,0-7.2,2.05q-10.4,3.6-14.45.9a16.82,16.82,0,0,1-7.35-9.6q-1.74-6-1.65-22.5-5.85-.71-12-1Q119,.72,81.68,10.88c.83-.1,1.65-.17,2.45-.2Q99.54,10,122,26.78a15.47,15.47,0,0,1,7.65-5.1,13.12,13.12,0,0,1,11,1.35,10.38,10.38,0,0,1,5.5,8.75q.36,6.45-6.35,13a140.72,140.72,0,0,1,19.9,19.4,164.83,164.83,0,0,1,13.65,18.45q4,6.6,1.75,15.7-2.45,9.9-11.35,19-21.64,21.79-67.7,27a312.31,312.31,0,0,0,52.55,2.5q-.3-9.65,3.4-13.55,3-3.15,9.65-4.4,3.9-.75,12.6-1.75,7.61-1.35,12-4.55,1.9-1.4,3.3-5.4.66-1.95,2.2-8.35,3.06-12.7,7.6-17.7,12.85-14.25,26.35-10.65Q238.59,83.78,246.28,93.23Z" fill="#cead8c"/></g><path id="HAMSTER_0_Layer3_0_1_STROKES" data-name="HAMSTER 0 Layer3 0 1 STROKES" d="M232.23,34a62.31,62.31,0,0,1,14.65,24.75,54.89,54.89,0,0,1,1.4,26.9,57.46,57.46,0,0,1-2,7.55m-97.7,53.55a313.83,313.83,0,0,1-52.52-2.47l-3.63.37q-28.59,2.81-49.65-3.2-18-5.21-28.9-16.25-9.35-9.6-11.35-21.3-1.89-10.75,3-18.25,15.45-23.9,27.65-40.2-6-6.3-5.9-13.4A14.27,14.27,0,0,1,32,21.63,11.45,11.45,0,0,1,42,18.43q6.06,1,9.75,8.25,16.67-14.13,30-15.8Q119,.72,150.88,2.18q6.15.3,12,1a134.42,134.42,0,0,1,39.35,10.25q18.11,8,30,20.6-2.94,2-5.15,7.4-1.25,3-3.45,9.45-2.19,5.2-5.25,6.85-3.94,2.1-10.5-.55-6.94-2.8-7.15-11.75c0-3.13,0-5.38-.1-6.75a8,8,0,0,0-1.85-5.2c-1.13-1.13-2.88-1.52-5.25-1.15a51,51,0,0,0-7.2,2.05q-10.4,3.6-14.45.9a16.82,16.82,0,0,1-7.35-9.6q-1.74-6-1.65-22.5m-81.2,7.7c.83-.1,1.65-.17,2.45-.2Q99.54,10,122,26.81a15.23,15.23,0,0,1,7.62-5.13,13.12,13.12,0,0,1,11,1.35,10.38,10.38,0,0,1,5.5,8.75q.36,6.45-6.35,13a140.72,140.72,0,0,1,19.9,19.4,164.83,164.83,0,0,1,13.65,18.45q4,6.6,1.75,15.7-2.45,9.9-11.35,19-21.64,21.79-67.67,27M136.58,30.73l-8.75,8.9M101.61,50A20.7,20.7,0,0,0,96,38.88a15.49,15.49,0,0,0-20-2,22.58,22.58,0,0,0-8.3,10.55M58.13,66.38q-14.3,2.81-21.7,10.3-6.6,6.7-5.95,14.95.66,8,7.7,13.4,7.6,5.85,23.25,5.75A15.43,15.43,0,0,0,68.28,121a25,25,0,0,0,13,4.35,26.11,26.11,0,0,0,14.15-2.9A23,23,0,0,0,105.88,111q15.86,3,24.9-2.85a19.53,19.53,0,0,0,9.45-14.35,18.81,18.81,0,0,0-5.15-16.15,42.5,42.5,0,0,0-10.45-8,32,32,0,0,0-13.8-4.5M119.38,31A21.83,21.83,0,0,1,122,26.81m-83.78-.88,7.3,13.6m200.75,53.7a61.78,61.78,0,0,1-9.9,18,81.08,81.08,0,0,1-25.3,21.05q-14.24-10.8-19.5,7.5a199.24,199.24,0,0,1-41.4,6.85l-1.6.1m97.7-53.55q-7.69-9.45-20.65-12.8-13.5-3.6-26.35,10.65-4.54,5-7.6,17.7-1.55,6.41-2.2,8.35-1.39,4-3.3,5.4-4.35,3.19-12,4.55-8.7,1-12.6,1.75-6.69,1.24-9.65,4.4-3.71,3.9-3.4,13.55M67.68,47.43q4.21,17.46-9.55,18.95m52.7-1.2a9,9,0,0,1-5.9.25,11.26,11.26,0,0,1-5.3-3.15q-5.3-5.74,2-12.32" fill="none" stroke="#000" stroke-linecap="round" stroke-linejoin="round" stroke-width="4"/><g id="HAMSTER_0_Layer2_0_FILL" data-name="HAMSTER 0 Layer2 0 FILL"><path d="M87.08,84.28a13.8,13.8,0,0,0,6.7-1.5c1.87-1,2.8-2.13,2.8-3.5s-.93-2.55-2.8-3.55a14.15,14.15,0,0,0-6.7-1.45,14.5,14.5,0,0,0-6.75,1.45q-2.74,1.5-2.75,3.55c0,1.37.92,2.53,2.75,3.5A15.11,15.11,0,0,0,87.08,84.28Z" fill="#efb5a3"/></g><path id="HAMSTER_0_Layer2_0_1_STROKES" data-name="HAMSTER 0 Layer2 0 1 STROKES" d="M87.08,84.28V97.13q7.61,0,15.7-6.6-.34-5.9,4.8-12.25m-20.5,6a15.11,15.11,0,0,1-6.75-1.5c-1.83-1-2.75-2.13-2.75-3.5s.92-2.55,2.75-3.55a14.5,14.5,0,0,1,6.75-1.45,14.15,14.15,0,0,1,6.7,1.45q2.81,1.5,2.8,3.55c0,1.37-.93,2.53-2.8,3.5A13.8,13.8,0,0,1,87.08,84.28Zm-21.5-8q6,7.8,5.65,14,8,6.9,15.85,6.8m-15.85-6.8q-.45,6.9-8.65,12m40.2-11.75q.41,6.15,6.8,11.75" fill="none" stroke="#000" stroke-linecap="round" stroke-linejoin="round" stroke-width="4"/><g id="HAMSTER_0_Layer1_0_FILL" data-name="HAMSTER 0 Layer1 0 FILL"><path d="M70,57a9.47,9.47,0,0,0-9.5-9.5A9.39,9.39,0,0,0,51,57a9.47,9.47,0,0,0,9.5,9.5A9.56,9.56,0,0,0,70,57m44.5.5a8,8,0,0,0-2.6-6,8.45,8.45,0,0,0-6.15-2.5,8.63,8.63,0,0,0-6.2,2.5,8.33,8.33,0,0,0,0,12,8.63,8.63,0,0,0,6.2,2.5,8.45,8.45,0,0,0,6.15-2.5A8,8,0,0,0,114.53,57.53Z" fill="#fff"/></g><path id="HAMSTER_0_Layer1_0_1_STROKES" data-name="HAMSTER 0 Layer1 0 1 STROKES" d="M114.53,57.53a8,8,0,0,1-2.6,6,8.45,8.45,0,0,1-6.15,2.5,8.63,8.63,0,0,1-6.2-2.5,8.33,8.33,0,0,1,0-12,8.63,8.63,0,0,1,6.2-2.5,8.45,8.45,0,0,1,6.15,2.5A8,8,0,0,1,114.53,57.53ZM70,57a9.56,9.56,0,0,1-9.5,9.5A9.47,9.47,0,0,1,51,57a9.39,9.39,0,0,1,9.5-9.5A9.47,9.47,0,0,1,70,57Z" fill="none" stroke="#22201f" stroke-linecap="round" stroke-linejoin="round" stroke-width="4"/><g id="HAMSTER_0_Layer0_0_FILL" data-name="HAMSTER 0 Layer0 0 FILL"><path d="M61.83,56.88a1.83,1.83,0,0,0-.55-1.35A1.8,1.8,0,0,0,59.93,55a1.83,1.83,0,0,0-1.35.55,1.93,1.93,0,0,0,0,2.7,1.83,1.83,0,0,0,1.35.55,1.8,1.8,0,0,0,1.35-.55,1.83,1.83,0,0,0,.55-1.35m46.2-.1a1.71,1.71,0,0,0-.55-1.25,1.64,1.64,0,0,0-1.2-.5,1.71,1.71,0,0,0-1.75,1.75A1.64,1.64,0,0,0,105,58a1.73,1.73,0,0,0,1.25.55A1.9,1.9,0,0,0,108,56.78Z"/></g><path id="HAMSTER_0_Layer0_0_1_STROKES" data-name="HAMSTER 0 Layer0 0 1 STROKES" d="M108,56.78a1.9,1.9,0,0,1-1.75,1.75A1.73,1.73,0,0,1,105,58a1.64,1.64,0,0,1-.5-1.2A1.71,1.71,0,0,1,106.28,55a1.64,1.64,0,0,1,1.2.5A1.71,1.71,0,0,1,108,56.78Z" fill="none" stroke="#22201f" stroke-linecap="round" stroke-linejoin="round" stroke-width="3.5"/><path id="HAMSTER_0_Layer0_0_2_STROKES" data-name="HAMSTER 0 Layer0 0 2 STROKES" d="M61.83,56.88a1.83,1.83,0,0,1-.55,1.35,1.8,1.8,0,0,1-1.35.55,1.83,1.83,0,0,1-1.35-.55,1.93,1.93,0,0,1,0-2.7A1.83,1.83,0,0,1,59.93,55a1.8,1.8,0,0,1,1.35.55A1.83,1.83,0,0,1,61.83,56.88Z" fill="none" stroke="#22201f" stroke-linecap="round" stroke-linejoin="round" stroke-width="3.7"/></svg>