<svg id="Layer_1" data-name="Layer 1" xmlns="http://www.w3.org/2000/svg" viewBox="0 0 299.44 81.73"><path d="M267.21,82.37c-29.09-.2-58.17-.47-87.26-.55-20.77-.06-41.54.25-62.3.23-29.27,0-58.54-.25-87.81-.31-2.35,0-4.7.73-7.06.9-3.09.22-4.63-.66-3.22-4.22,6.55-16.53,18.24-29,32.32-39.21a224.63,224.63,0,0,1,28.93-18C98.66,12.06,118.12,7.77,137.9,4.88c17.46-2.56,34.74-1.87,52.21,1,22.31,3.59,41,13.67,59,26.77,14.6,10.69,25.39,24.11,34.22,39.45,5.22,9.06,4.49,10.31-5.67,10.25l-10.41-.07ZM37.4,58.6c2.83.17,4.49.35,6.15.36,19,.11,38.06.16,57.08.29,27.2.18,54.4.35,81.6.67,12,.15,23.92.85,35.88,1,15.58.15,31.16,0,46.74-.11a45.23,45.23,0,0,0,4.76-.51l.48-1.38c-2.15-2-4.58-3.76-6.41-6-12.12-15-27.3-25.75-44.93-33.49-11.36-5-22.44-10.36-35.34-10.14-14.67.24-29.49-1.3-44,.3-33.5,3.69-64.16,15.21-90.19,37.18C45.25,50.09,41.83,54.12,37.4,58.6ZM23.89,78.74c7.3-.53,13.1-1.31,18.9-1.32,29.48-.08,59,.06,88.43.07,20.42,0,40.85-.26,61.27,0,21.33.21,42.66,1,64,1.22,7.82.08,15.65-.8,24.27-1.29-1.82-2.7-3.79-4.8-4.76-7.27-1.39-3.55-3.66-4.31-7.18-4.26q-22.08.31-44.17.2c-23.74-.14-47.48-.45-71.22-.67Q109,65,64.52,64.56c-9-.08-18-.25-27.07-.29-1.5,0-3.73-.12-4.38.74C30,69,27.42,73.35,23.89,78.74Z"/><path d="M37.4,58.6c4.43-4.48,7.85-8.51,11.84-11.87,26-22,56.69-33.49,90.19-37.18,14.49-1.6,29.31-.06,44-.3,12.9-.22,24,5.14,35.34,10.14,17.63,7.74,32.81,18.51,44.93,33.49,1.83,2.25,4.26,4,6.41,6l-.48,1.38a45.23,45.23,0,0,1-4.76.51c-15.58.08-31.16.26-46.74.11-12-.12-23.92-.82-35.88-1-27.2-.32-54.4-.49-81.6-.67-19-.13-38-.18-57.08-.29C41.89,59,40.23,58.77,37.4,58.6Zm84.93-29.13-.57-2.66c-6.2.64-12.57.61-18.56,2.07A61.91,61.91,0,0,0,70.26,49c-.87,1-.37,3.22-.51,4.87,1.41-.62,3.06-1,4.17-1.93,3.38-2.9,6.27-6.42,9.85-9,10.29-7.47,22.39-10.16,34.69-12.14A22.22,22.22,0,0,0,122.33,29.47ZM242.22,49.23c-2-2.71-3.41-6.19-6-7.74-8.3-5-17-9.42-25.67-13.69-1.47-.72-3.9.47-5.88.77,1.38,1.28,2.55,3.13,4.18,3.75,10.86,4.11,21.34,8.63,28.36,18.54a3.61,3.61,0,0,0,3,1C240.91,51.73,241.37,50.42,242.22,49.23Z" fill="#6f3"/><path d="M23.89,78.74C27.42,73.35,30,69,33.07,65c.65-.86,2.88-.75,4.38-.74,9,0,18,.21,27.07.29q44.46.42,88.9.81c23.74.22,47.48.53,71.22.67q22.08.13,44.17-.2c3.52,0,5.79.71,7.18,4.26,1,2.47,2.94,4.57,4.76,7.27-8.62.49-16.45,1.37-24.27,1.29-21.33-.21-42.66-1-64-1.22-20.42-.21-40.85.06-61.27,0-29.48,0-58.95-.15-88.43-.07C37,77.43,31.19,78.21,23.89,78.74Z" fill="#6f3"/><path d="M122.33,29.47a22.22,22.22,0,0,1-3.87,1.35c-12.3,2-24.4,4.67-34.69,12.14-3.58,2.6-6.47,6.12-9.85,9-1.11,1-2.76,1.31-4.17,1.93.14-1.65-.36-3.84.51-4.87A61.91,61.91,0,0,1,103.2,28.88c6-1.46,12.36-1.43,18.56-2.07Z"/><path d="M242.22,49.23c-.85,1.19-1.31,2.5-2,2.6a3.61,3.61,0,0,1-3-1c-7-9.91-17.5-14.43-28.36-18.54-1.63-.62-2.8-2.47-4.18-3.75,2-.3,4.41-1.49,5.88-.77,8.71,4.27,17.37,8.7,25.67,13.69C238.81,43,240.2,46.52,242.22,49.23Z"/></svg>