<svg id="Layer_1" data-name="Layer 1" xmlns="http://www.w3.org/2000/svg" viewBox="0 0 198.19 181.55"><g id="EMOTE_STAR_0_Layer2_0_FILL" data-name="EMOTE STAR 0 Layer2 0 FILL"><path d="M102.25,172.11l6.86-75L96.89,90.16l-6.53,4.13Z" fill="#99f"/><path d="M102.5,173.81v0l-.25-1.67L90.36,94.29l-15,9.48Z" fill="#ccf"/><path d="M123.08,105l-14-7.89-6.86,75,.25,1.67Z" fill="#93c"/></g><path id="EMOTE_STAR_0_Layer2_0_1_STROKES" data-name="EMOTE STAR 0 Layer2 0 1 STROKES" d="M135.21,111.83,123.08,105,102.5,173.78v0l.08.22M123.08,105l-14-7.89-6.86,75,.25,1.67m-39-62.5,11.86-7.51,15-9.48m-15,9.48,27.11,70M90.36,94.29l11.89,77.82m6.86-75L96.89,90.16l-6.53,4.13" fill="none" stroke="#000" stroke-linecap="round" stroke-linejoin="round" stroke-width="3"/><g id="EMOTE_STAR_0_Layer1_0_FILL" data-name="EMOTE STAR 0 Layer1 0 FILL"><path d="M125.45,76.69l27.89-26.5-36,1.12L99.51,20.63,82.39,54l0,.09-37.51,3L73,77.25l-9.49,34L96.89,90.16l38.32,21.67Z" fill="aqua"/></g><path id="EMOTE_STAR_0_Layer1_0_1_STROKES" data-name="EMOTE STAR 0 Layer1 0 1 STROKES" d="M63.53,111.28l9.49-34L44.85,57.17l37.51-3,0-.09L99.51,20.63l17.85,30.68,36-1.12-27.89,26.5,9.76,35.14L96.89,90.16,63.53,111.28h.28" fill="none" stroke="#000" stroke-linecap="round" stroke-linejoin="round" stroke-width="3"/><path id="EMOTE_STAR_0_Layer0_0_1_STROKES" data-name="EMOTE STAR 0 Layer0 0 1 STROKES" d="M115.41,8.36l-3.9,11.43m23.15-1.11-7.53,9.48M151.39,34l-10.88,6.41M68.83,20.07l8.09,8.65M88.64,7.52,92,15.89M49.31,37.08l12,5.86" fill="none" stroke="#000" stroke-linecap="round" stroke-linejoin="round" stroke-width="3"/></svg>