<svg id="Layer_1" data-name="Layer 1" xmlns="http://www.w3.org/2000/svg" viewBox="0 0 70 50"><g id="EMOTE_07_0_Layer1_0_FILL" data-name="EMOTE 07 0 Layer1 0 FILL"><path d="M27.25,14.47A4.14,4.14,0,0,1,30,11.42a4.27,4.27,0,0,1,3.65.75,14,14,0,0,1,2.7,2.75l1.15,1.4a3.7,3.7,0,0,0-.6-2.3c-.7-1.27-1.1-2-1.2-2.3a3.39,3.39,0,0,1,.45-2.9,3.73,3.73,0,0,1,1.6-1.55A20.35,20.35,0,0,0,24,2.27,20.57,20.57,0,0,0,9.3,8.07,18.63,18.63,0,0,0,3.25,22,18.56,18.56,0,0,0,9.3,36a20.4,20.4,0,0,0,12.75,5.75.14.14,0,0,0-.05-.1l-.1-.1c-.63-.34-1.23-.67-1.8-1a3.62,3.62,0,0,1-1.7-1.1c-.53-.4-1-.82-1.55-1.25l-.6-.1a5.63,5.63,0,0,1-3.5-2.35,10.74,10.74,0,0,1-1.6-3.95,6.62,6.62,0,0,1-.1-3.2,2.86,2.86,0,0,1,2-2.3,3.51,3.51,0,0,1,2.45.2q1.45.45,1.5,1.35a3.3,3.3,0,0,1,2.1.3,17.09,17.09,0,0,1,1.95,1.05,14.66,14.66,0,0,0,1.75.75l1.15.4-.1-.1-.8-.9a3.06,3.06,0,0,0-.7-.75,10.43,10.43,0,0,1-2.3-1.85,7.47,7.47,0,0,1-.65-1.45,3.88,3.88,0,0,1-1.7-1.65,4,4,0,0,1-.35-2.6,3.88,3.88,0,0,1,1.3-2.25,3.81,3.81,0,0,1,2.4-.95,4,4,0,0,1,2.5.7A3.84,3.84,0,0,1,25,20.62a5.86,5.86,0,0,1,.25,1.3,3,3,0,0,1,.7.35,14.21,14.21,0,0,1,3.1,2.25c.47.46,1.1,1.16,1.9,2.1l.65.05a10.22,10.22,0,0,0-2-4,8.07,8.07,0,0,1-1.85-1.85,5.83,5.83,0,0,1-.65-2.15A12,12,0,0,1,27.25,14.47Z"/></g><path id="EMOTE_07_0_Layer0_0_1_STROKES" data-name="EMOTE 07 0 Layer0 0 1 STROKES" d="M55.2,17.27Q50.1,7.87,42.7,5q-3.41-1.3-5.5,0-2.3,1.44-2,6.75m-3.5,14a40.17,40.17,0,0,0-3.6-4.15c-2.33-3-4.72-4.5-7.15-4.4s-3.88.75-4.35,2.05a6.59,6.59,0,0,0-.5,3.2,6.72,6.72,0,0,0,3,4.45l3.3,2.85m19.75-8.5Q36.1,10.77,30.4,10.72a4.2,4.2,0,0,0-3.9,2.35q-1.39,2.4,1.6,8.55m-9,5.3a5.75,5.75,0,0,0-5-.35,3.67,3.67,0,0,0-2.95,4c0,1.23,0,2,0,2.25Q20.35,43.17,32,46.42q11.05,3.09,20.35-1.1A22.64,22.64,0,0,0,65,31.22a43.78,43.78,0,0,0,1.75-12.95,48.52,48.52,0,0,0-.35-7.35q-.65-3.81-3.2-4.65-5.55-.21-7.4,11.55" fill="none" stroke="#000" stroke-linecap="round" stroke-linejoin="round" stroke-width="4"/></svg>