<svg id="Layer_1" data-name="Layer 1" xmlns="http://www.w3.org/2000/svg" viewBox="0 0 198.19 181.55"><g id="EMOTE_STRONG_0_Layer1_0_FILL" data-name="EMOTE STRONG 0 Layer1 0 FILL"><path d="M113.93,31.51q0-7.95-6.9-13.55a25.25,25.25,0,0,0-16.55-5.6,26.27,26.27,0,0,0-12.35,2.85q-.45.24-6.15,2.55Q46.09,31.6,30.13,61.31,11.59,95.7,13.48,140.21q4.15,8.74,18.25,15.35,13,6,32.3,9.4,12.6,2.14,22.1,3.1a233,233,0,0,0,29.1,1.05q21.81-.6,37.8-5.9,11.46-3.81,18.3-9.35,13.56-10.8,13.55-26.15t-13.55-26.2q-13.5-10.8-32.6-10.8t-32.6,10.8a35.61,35.61,0,0,0-12.75,19.25q-9.94-7.45-17.3-8.8a33,33,0,0,0-15.55,1.1q11.81-12.66,9.65-28.85a58.7,58.7,0,0,0-2.75-10.95,50.61,50.61,0,0,1-2-6.65q-.45-8.05,4.4-16.75A26.73,26.73,0,0,1,63,41.71a26.73,26.73,0,0,0,6.85,8.15,25.77,25.77,0,0,0,12.3,5,21.39,21.39,0,0,0,10.55-1q5.05-1.91,9.4-8.2a20.31,20.31,0,0,1-8.75-.45,8,8,0,0,1-4-2.6A9.13,9.13,0,0,1,87.13,38q-1-6.41,8.65-8.75Q86.14,31.55,87.13,38a9.13,9.13,0,0,0,2.25,4.6,8,8,0,0,0,4,2.6,20.31,20.31,0,0,0,8.75.45,15.64,15.64,0,0,0,5.75-2.25Q113.94,39.4,113.93,31.51Z" fill="#f1c950"/></g><path id="EMOTE_STRONG_0_Layer1_0_1_STROKES" data-name="EMOTE STRONG 0 Layer1 0 1 STROKES" d="M69.83,49.86q-4.85,8.7-4.4,16.75a50.61,50.61,0,0,0,2,6.65,58.7,58.7,0,0,1,2.75,10.95q2.16,16.2-9.65,28.85A33,33,0,0,1,76.08,112q7.35,1.35,17.3,8.8a35.61,35.61,0,0,1,12.75-19.25q13.56-10.8,32.6-10.8t32.6,10.8q13.56,10.84,13.55,26.2t-13.55,26.15q-6.84,5.55-18.3,9.35-16,5.29-37.8,5.9a233,233,0,0,1-29.1-1.05q-9.5-1-22.1-3.1-19.35-3.36-32.3-9.4-14.1-6.6-18.25-15.35-1.89-44.5,16.65-78.9,16-29.7,41.85-43.55,5.7-2.31,6.15-2.55a26.27,26.27,0,0,1,12.35-2.85A25.25,25.25,0,0,1,107,18q6.9,5.59,6.9,13.55t-6.1,11.85a15.64,15.64,0,0,1-5.75,2.25q-4.35,6.3-9.4,8.2a21.39,21.39,0,0,1-10.55,1,25.77,25.77,0,0,1-12.3-5A26.73,26.73,0,0,1,63,41.71m39.1,3.9a20.31,20.31,0,0,1-8.75-.45,8,8,0,0,1-4-2.6A9.13,9.13,0,0,1,87.13,38q-1-6.41,8.65-8.75" fill="none" stroke="#000" stroke-linecap="round" stroke-linejoin="round" stroke-width="3"/><path id="EMOTE_STRONG_0_Layer0_0_1_STROKES" data-name="EMOTE STRONG 0 Layer0 0 1 STROKES" d="M113,70.71l8,11m19-15,2,12.5m30.5-8.5-10.5,14" fill="none" stroke="#000" stroke-linecap="round" stroke-linejoin="round" stroke-width="3"/></svg>