<svg id="Layer_1" data-name="Layer 1" xmlns="http://www.w3.org/2000/svg" xmlns:xlink="http://www.w3.org/1999/xlink" viewBox="0 0 398.62 434.78"><defs><clipPath id="clip-path"><ellipse cx="199.43" cy="227.54" rx="199.43" ry="151.03" fill="none"/></clipPath></defs><g clip-path="url(#clip-path)"><ellipse cx="199.43" cy="227.54" rx="199.43" ry="151.03" fill="#ff8871"/><path d="M330.89,325.86c.62-7.45-4.49-14-21.68-15.38s-23.31,4.15-23.92,11.6c-.33,4,2.3,7.82,6.75,10.68a17.66,17.66,0,0,1,7.66,12.09l0,.14c.57,3.48,3.06,6,6.11,6.29h0c3.05.25,5.92-1.86,7.06-5.2l.05-.13a17.59,17.59,0,0,1,9.54-10.67C327.34,333.19,330.56,329.85,330.89,325.86Z" fill="#1d1d1b"/><path d="M35,260.58h0a64.16,64.16,0,0,1,56.11-33h0a64.17,64.17,0,0,1,54.06,29.6h0a198.58,198.58,0,0,0,125,87l24.21,5.27a20,20,0,0,0,21.92-10.15h0a20,20,0,0,0-10.16-27.94L290,304.77a35.17,35.17,0,0,1-17.82-49.18h0a64.36,64.36,0,0,1,56.75-34h0a64.34,64.34,0,0,1,50.2,24.09h0A174,174,0,0,1,415.49,380l-2.37,16L309.25,429.91l-199.46,8.68L21.25,423.83,0,342.24l3.87-11.36A432.09,432.09,0,0,1,35,260.58Z" fill="#f9e4e1"/></g><circle cx="111.24" cy="307.33" r="24.2" fill="#1d1d1b"/><path d="M189.89,347.22a13.22,13.22,0,0,0-6.56-16.55,14,14,0,0,0-10.89-.64l.51-1.1a15.49,15.49,0,0,0-8.41-21h0a15.49,15.49,0,0,0-20.06,8.81l-.24.62-.06,0a15.15,15.15,0,0,0-29.58-1.54L101.47,364.1l-1.36-12.29a14.47,14.47,0,0,0-28.81,2.66l2.4,31.85a45.92,45.92,0,0,0,6,19.52h0a45.85,45.85,0,0,0,39.88,22.89h0a45.08,45.08,0,0,0,34.13-15.86,181.73,181.73,0,0,0,31.54-53.46Z" fill="#f9f9f9"/><line x1="97.32" y1="379.41" x2="101.85" y2="362.71" fill="#fff"/><path d="M96.24,379.12l5.07-16.56a.28.28,0,0,1,.35-.18.27.27,0,0,1,.19.32h0l-3.45,17a1.12,1.12,0,0,1-2.2-.44l0-.11Z" fill="#1d1d1b"/><line x1="144.56" y1="389.84" x2="172.44" y2="330.03" fill="#fff"/><path d="M143.54,389.37,172.44,330l-26.87,60.28a1.12,1.12,0,1,1-2-.91Z" fill="#1d1d1b"/><line x1="120.53" y1="378.23" x2="144.24" y2="317.39" fill="#fff"/><path d="M119.49,377.82l24.75-60.43-22.67,61.24a1.12,1.12,0,0,1-2.1-.77Z" fill="#1d1d1b"/><path d="M235.93,193a65,65,0,0,0,50.38,1" fill="none" stroke="#1d1d1b" stroke-linecap="round" stroke-miterlimit="10" stroke-width="3.94"/><path d="M120.76,193a65,65,0,0,0,50.39,1" fill="none" stroke="#1d1d1b" stroke-linecap="round" stroke-miterlimit="10" stroke-width="3.94"/><path d="M140.26,108.53,87.39,3.07A5.55,5.55,0,0,0,76.88,5.55v103Z" fill="#ff8871"/><line x1="87.59" y1="46.88" x2="103.8" y2="88.41" fill="none" stroke="#1d1d1b" stroke-linecap="round" stroke-miterlimit="10" stroke-width="1.02"/><path d="M245.87,108.53,298.75,3.07a5.54,5.54,0,0,1,10.5,2.48v103Z" fill="#ff8871"/><line x1="298.55" y1="46.88" x2="282.33" y2="88.41" fill="none" stroke="#1d1d1b" stroke-linecap="round" stroke-miterlimit="10" stroke-width="1.02"/><path d="M196.21,74.45l-5.79.13a267.39,267.39,0,0,1-56.54-4.66h0A7,7,0,0,0,125.55,77h0a7,7,0,0,0,7.18,6.85l121.54-2.92a7,7,0,0,0,6.85-7.18h0a7,7,0,0,0-8.66-6.66h0A267.38,267.38,0,0,1,196.21,74.45Z" fill="#1d1d1b"/><path d="M191.59,2.59h0a30.6,30.6,0,0,0-29.85,31.32l1,42.18,61.17-1.47-1-42.18A30.6,30.6,0,0,0,191.59,2.59Z" fill="#1d1d1b"/></svg>