<svg id="Layer_1" data-name="Layer 1" xmlns="http://www.w3.org/2000/svg" viewBox="0 0 314.33 95.28"><g id="HATS_1_Layer1_0_FILL" data-name="HATS 1 Layer1 0 FILL"><path d="M206.2,40.37l-104.49-.31a66.18,66.18,0,0,0-4.25,14.72H209.93A64.6,64.6,0,0,0,206.2,40.37Z" fill="#6ff"/><path d="M203.68,34.86q1.38,2.66,2.52,5.51a64.6,64.6,0,0,1,3.73,14.41H97.46a66.18,66.18,0,0,1,4.25-14.72q.27-.64.57-1.26-19.89,1.79-29.13,2.85-15.5,1.79-26.41,4Q1.41,54.76,1.74,66t46,18q45.76,6.8,110.14,5.15T267.56,78.36Q312.89,69.27,312.61,58T266.56,40a550.49,550.49,0,0,0-62.88-5.13M23.37,65.23Q52.23,79.44,88.44,77.1,52.23,79.43,23.37,65.23M290,56.61q1.65,3.8-3.91,7.38-5.74,3.69-17.74,6.2a196.29,196.29,0,0,1-30.78,3.59,196.29,196.29,0,0,0,30.78-3.59q12-2.52,17.74-6.2,5.55-3.59,3.91-7.38t-10.63-7q8.94,3.15,10.63,7m-99.68-38a54.7,54.7,0,0,0-16.74-9.24,58.09,58.09,0,0,0-18.74-3.16,59.43,59.43,0,0,0-18.9,2.9,56.27,56.27,0,0,0-17.12,9A54.36,54.36,0,0,0,102.28,38.8q-.3.62-.57,1.26l104.49.31q-1.14-2.85-2.52-5.51A52.06,52.06,0,0,0,190.29,18.57Z" fill="#fff19f"/></g><path id="HATS_1_Layer1_0_1_STROKES" data-name="HATS 1 Layer1 0 1 STROKES" d="M102.28,38.8a54.36,54.36,0,0,1,16.51-20.75,56.27,56.27,0,0,1,17.12-9,59.43,59.43,0,0,1,18.9-2.9,58.09,58.09,0,0,1,18.74,3.16,54.7,54.7,0,0,1,16.74,9.24,52.06,52.06,0,0,1,13.39,16.29A550.49,550.49,0,0,1,266.56,40q45.72,6.81,46.05,18T267.56,78.36q-45.31,9.15-109.71,10.78T47.71,84Q2,77.23,1.74,66t45-20.38q10.92-2.18,26.41-4,9.22-1.07,29.13-2.85-.3.62-.57,1.26l104.49.31q-1.14-2.85-2.52-5.51M23.37,65.23Q52.23,79.44,88.44,77.1m190.9-27.54q8.94,3.15,10.63,7T286.06,64q-5.74,3.69-17.74,6.2a196.29,196.29,0,0,1-30.78,3.59M101.71,40.06a66.18,66.18,0,0,0-4.25,14.72H209.93a64.6,64.6,0,0,0-3.73-14.41" fill="none" stroke="#000" stroke-linecap="round" stroke-linejoin="round" stroke-width="1.9"/><g id="HATS_1_Layer0_0_FILL" data-name="HATS 1 Layer0 0 FILL"><path d="M159.44,28.28a7,7,0,0,0-4,1.61q-4.17,3.49-2.9,12.54-2.9-8.26-7.29-10.9-3.75-2.24-6.72,0a4.62,4.62,0,0,0-1.71,2.59,5.64,5.64,0,0,0,.36,3.58,10.44,10.44,0,0,0,2.61,3.66,25.2,25.2,0,0,0,7.06,4.35,25.2,25.2,0,0,1-7.06-4.35q-7.19-.25-10.71,2.14-3.14,2.13-1.83,4.89t6.2,3.54a19.57,19.57,0,0,0,4.56.14A34.39,34.39,0,0,0,146.86,50,34.39,34.39,0,0,1,138,52.12q-5.62,3.75-6.1,7.51a4,4,0,0,0,2.59,4.6c2.07.86,4.36.45,6.86-1.21a18,18,0,0,0,5.32-5.91,33.32,33.32,0,0,0,2.06-4.23,33.32,33.32,0,0,1-2.06,4.23q-.48,6.6,2,8.74a4.06,4.06,0,0,0,4.92.45,6.82,6.82,0,0,0,3.56-4.73,8.34,8.34,0,0,0,.16-3,11.2,11.2,0,0,0-1.9-4.75,11.2,11.2,0,0,1,1.9,4.75q4.92,4.59,9.19,4.54c2.46,0,4.08-1.07,4.87-3.11s.31-4-1.45-6a14,14,0,0,0-7.14-3.91c-.8-.13-1.6-.3-2.4-.5.8.2,1.6.37,2.4.5a18.37,18.37,0,0,0,9.94-.69q4.35-1.74,4.42-4.7t-4.53-3.57q-5.46-.66-14.49,3.19a29.77,29.77,0,0,0,6.22-4,9,9,0,0,0,3.3-5.22,4.89,4.89,0,0,0-.92-3.61A7.2,7.2,0,0,0,163.6,29a8.45,8.45,0,0,0-4.16-.74m.24,19.85a4.59,4.59,0,0,1-1.88,3.68,7.41,7.41,0,0,1-9.07,0,4.58,4.58,0,0,1-1.87-3.68,4.64,4.64,0,0,1,1.87-3.7,7.53,7.53,0,0,1,9.07,0A4.65,4.65,0,0,1,159.68,48.13Z" fill="#fff"/><path d="M157.8,51.81a4.59,4.59,0,0,0,1.88-3.68,4.65,4.65,0,0,0-1.88-3.7,7.53,7.53,0,0,0-9.07,0,4.64,4.64,0,0,0-1.87,3.7,4.58,4.58,0,0,0,1.87,3.68,7.41,7.41,0,0,0,9.07,0Z" fill="#fc3"/></g><path id="HATS_1_Layer0_0_1_STROKES" data-name="HATS 1 Layer0 0 1 STROKES" d="M162.77,50.13a18.37,18.37,0,0,0,9.94-.69q4.35-1.74,4.42-4.7t-4.53-3.57q-5.46-.66-14.49,3.19a29.77,29.77,0,0,0,6.22-4,9,9,0,0,0,3.3-5.22,4.89,4.89,0,0,0-.92-3.61A7.2,7.2,0,0,0,163.6,29a8.45,8.45,0,0,0-4.16-.74,7,7,0,0,0-4,1.61q-4.17,3.49-2.9,12.54-2.9-8.26-7.29-10.9-3.75-2.24-6.72,0a4.62,4.62,0,0,0-1.71,2.59,5.64,5.64,0,0,0,.36,3.58,10.44,10.44,0,0,0,2.61,3.66,25.2,25.2,0,0,0,7.06,4.35m12.82,2.37a4.59,4.59,0,0,1-1.88,3.68,7.41,7.41,0,0,1-9.07,0,4.58,4.58,0,0,1-1.87-3.68,4.64,4.64,0,0,1,1.87-3.7,7.53,7.53,0,0,1,9.07,0A4.65,4.65,0,0,1,159.68,48.13Zm-4.28,5.7a11.2,11.2,0,0,1,1.9,4.75q4.92,4.59,9.19,4.54c2.46,0,4.08-1.07,4.87-3.11s.31-4-1.45-6a14,14,0,0,0-7.14-3.91c-.8-.13-1.6-.3-2.4-.5m-3.07,8.95a8.34,8.34,0,0,1-.16,3,6.82,6.82,0,0,1-3.56,4.73,4.06,4.06,0,0,1-4.92-.45q-2.44-2.14-2-8.74A18,18,0,0,1,141.37,63c-2.5,1.66-4.79,2.07-6.86,1.21a4,4,0,0,1-2.59-4.6q.48-3.77,6.1-7.51a19.57,19.57,0,0,1-4.56-.14q-4.86-.73-6.2-3.54t1.83-4.89q3.53-2.4,10.71-2.14m8.95,11.47a33.32,33.32,0,0,1-2.06,4.23m.17-7.08A34.39,34.39,0,0,1,138,52.12" fill="none" stroke="#000" stroke-linecap="round" stroke-linejoin="round" stroke-width="1.9"/></svg>