<svg id="Layer_1" data-name="Layer 1" xmlns="http://www.w3.org/2000/svg" viewBox="0 0 222.05 54.95"><g id="SUNGLASSES_2_Layer0_0_FILL" data-name="SUNGLASSES 2 Layer0 0 FILL"><path d="M3.17,3.46l-.53,6.81L48,24.75a42.45,42.45,0,0,1,1.73-14L3.17,3.46M160,37.68a34,34,0,0,0,5.16-11.78A47.67,47.67,0,0,0,166,11.32L49.77,10.79a42.45,42.45,0,0,0-1.73,14,27.14,27.14,0,0,0,2.88,10.76,26.09,26.09,0,0,0,15,13,30.27,30.27,0,0,0,20.63,0Q98,44.58,105.28,33.31q5.23,11.84,15.94,16.15a31.43,31.43,0,0,0,20.95.95A31.66,31.66,0,0,0,160,37.68m-13-3a17.83,17.83,0,0,1-12.62,4.56c-.36,0-.73,0-1.1-.05a18.86,18.86,0,0,1-10.92-4.43l-.6-.52q-5.88-5.26-7-14.58H154q-1.12,9.84-7,15m-58-15.65,8,.1q.52,8.1-5.13,12.78A19.55,19.55,0,0,1,79.3,36.37c-.55,0-1.1,0-1.62,0a18.7,18.7,0,0,1-9.9-3.16c-.36-.27-.72-.54-1.07-.82Q61,27.79,60.77,18.65l18.72.29,9.42.13m127.35-6.71L213.64,5,166,11.32a47.67,47.67,0,0,1-.86,14.58Z" fill="#f03"/><path d="M79.49,18.94l-18.72-.29q.18,9.13,5.94,13.74c.35.28.71.55,1.07.82L79.49,18.94m17.41.23-8-.1L77.68,36.37c.52,0,1.07,0,1.62,0A19.55,19.55,0,0,0,91.77,32q5.66-4.69,5.13-12.78m24.79,15.11.6.52L134.6,19.7H114.68q1.13,9.32,7,14.58M145.44,19.7,133.21,39.23c.37,0,.74.05,1.1.05a17.83,17.83,0,0,0,12.62-4.56q5.9-5.17,7-15Z" fill="#333"/><path d="M88.91,19.07l-9.42-.13L67.78,33.21a18.7,18.7,0,0,0,9.9,3.16l11.23-17.3m44.3,20.16L145.44,19.7H134.6L122.29,34.8A18.86,18.86,0,0,0,133.21,39.23Z" fill="#fff"/></g><path id="SUNGLASSES_2_Layer0_0_1_STROKES" data-name="SUNGLASSES 2 Layer0 0 1 STROKES" d="M166,11.32,213.64,5l2.62,7.33L165.13,25.9A34,34,0,0,1,160,37.68a31.66,31.66,0,0,1-17.8,12.73,31.43,31.43,0,0,1-20.95-.95q-10.71-4.32-15.94-16.15Q98,44.58,86.5,48.52a30.27,30.27,0,0,1-20.63,0,26.09,26.09,0,0,1-15-13A27.14,27.14,0,0,1,48,24.75L2.64,10.27l.53-6.81,46.6,7.33L166,11.32a47.67,47.67,0,0,1-.86,14.58m-19.69-6.2L133.21,39.23c.37,0,.74.05,1.1.05a17.83,17.83,0,0,0,12.62-4.56q5.9-5.17,7-15H134.6L122.29,34.8a18.86,18.86,0,0,0,10.92,4.43M134.6,19.7H114.68q1.13,9.32,7,14.58l.6.52M77.68,36.37c.52,0,1.07,0,1.62,0A19.55,19.55,0,0,0,91.77,32q5.66-4.69,5.13-12.78l-8-.1L77.68,36.37a18.7,18.7,0,0,1-9.9-3.16c-.36-.27-.72-.54-1.07-.82Q61,27.79,60.77,18.65l18.72.29,9.42.13m-9.42-.13L67.78,33.21m-18-22.42a42.45,42.45,0,0,0-1.73,14" fill="none" stroke="#000" stroke-linecap="round" stroke-linejoin="round" stroke-width="2.09"/></svg>