<svg id="Layer_1" data-name="Layer 1" xmlns="http://www.w3.org/2000/svg" xmlns:xlink="http://www.w3.org/1999/xlink" viewBox="0 0 2314.99 1663.81"><defs><clipPath id="clip-path"><path d="M2260.21,1471.41a66.2,66.2,0,0,1-9.41,31h0a66.6,66.6,0,0,1-26.28,57.5h0a48.73,48.73,0,0,1-29.34,9.83h-6.63a186.91,186.91,0,0,1-51.87-7.34h0a187.18,187.18,0,0,0-82-4.89l-9.22,1.51a823.25,823.25,0,0,1-132.37,10.72h0a96.36,96.36,0,0,1-65.1-25.31h0a96.38,96.38,0,0,1-27-99.46l21.24-68.94h243l55.86-15.74a137.87,137.87,0,0,1,84,2.94h0a71.92,71.92,0,0,1,45.27,49.46h0a71.91,71.91,0,0,1-10.16,58.72" fill="none"/></clipPath><clipPath id="clip-path-2"><path d="M55.06,1471.41a66.09,66.09,0,0,0,9.41,31h0a66.6,66.6,0,0,0,26.28,57.5h0a48.71,48.71,0,0,0,29.34,9.83h6.63a186.91,186.91,0,0,0,51.87-7.34h0a187.18,187.18,0,0,1,82-4.89l9.22,1.51a823.25,823.25,0,0,0,132.37,10.72h0a96.37,96.37,0,0,0,65.1-25.31h0a96.38,96.38,0,0,0,27-99.46l-20.47-66.43a3.56,3.56,0,0,0-3.4-2.51H230l-55.86-15.74a137.87,137.87,0,0,0-84,2.94h0a71.9,71.9,0,0,0-45.27,49.46h0a71.91,71.91,0,0,0,10.16,58.72" fill="none"/></clipPath></defs><path d="M829.78,756.42,602.23,620.85A811.79,811.79,0,0,1,273.35,247.3h0c-20.42-46.93,27.25-94.6,74.18-74.18h0A811.79,811.79,0,0,1,721.08,502L856.65,729.55" fill="#f18673"/><path d="M347.53,173.12h0c-46.93-20.42-94.6,27.25-74.18,74.18h0q15.82,36.38,35,70.84a2.76,2.76,0,0,0,4.35.6L419,212.51a2.76,2.76,0,0,0-.6-4.35Q383.93,189,347.53,173.12Z" fill="#fae5e1"/><path d="M829.78,756.42,602.23,620.85A811.79,811.79,0,0,1,273.35,247.3h0c-20.42-46.93,27.25-94.6,74.18-74.18h0A811.79,811.79,0,0,1,721.08,502L856.65,729.55" fill="none"/><path d="M330.63,1378.82h0c0-380.07,283.83-700.27,661.15-745.87h0a977.73,977.73,0,0,1,117.5-7.08h93.06" fill="none"/><path d="M188.2,1378.82A893.75,893.75,0,0,1,974.69,491.55a1125.55,1125.55,0,0,1,134.59-8.1h93.06V768.29h-93.06a840.5,840.5,0,0,0-100.41,6.05,608.88,608.88,0,0,0-535.82,604.48Z" fill="#1e396c"/><path d="M188.2,1378.82A893.75,893.75,0,0,1,974.69,491.55a1125.55,1125.55,0,0,1,134.59-8.1h93.06V768.29h-93.06a840.5,840.5,0,0,0-100.41,6.05,608.88,608.88,0,0,0-535.82,604.48Z" fill="none"/><path d="M259.72,1378.82h-5.94a851.53,851.53,0,0,1,4.84-89.37c1.33-12.85,3.23-27,6-44.38l.38-2.23c1.12-6.51,2.28-13.24,3.53-19.85l3.3-16.46L273,1201a835.4,835.4,0,0,1,23.89-86.35,850.14,850.14,0,0,1,33.16-83.23,830,830,0,0,1,92.2-153.25c9.83-13.07,20.12-25.53,28-34.93,8.07-9.39,18.74-21.63,29.93-33.36a820.94,820.94,0,0,1,64.9-61.66,832.36,832.36,0,0,1,71.19-54.33A849.53,849.53,0,0,1,693,647.58a828.26,828.26,0,0,1,253.61-85.75l16.55-2.59,8-1.07c6.47-.87,13.16-1.76,19.59-2.47,14.94-1.67,29.62-3,43.64-4s28.68-1.75,43.77-2.21c7.81-.22,15-.36,21.92-.42l21,0h81.3V555H1121l-21,0c-6.88.06-14,.19-21.77.41-15,.46-29.65,1.2-43.53,2.19s-28.54,2.33-43.41,4c-6.36.7-13,1.59-19.45,2.45l-8,1.06-16.46,2.58a822.71,822.71,0,0,0-251.76,85.12,848.76,848.76,0,0,0-76.12,46,824.22,824.22,0,0,0-70.68,53.95A814.56,814.56,0,0,0,484.5,814c-11.11,11.63-21.71,23.8-29.71,33.1-7.79,9.32-18,21.71-27.77,34.68a823.86,823.86,0,0,0-91.56,152.16,843.07,843.07,0,0,0-32.92,82.64,832.26,832.26,0,0,0-23.72,85.74l-1.22,5.46-3.27,16.35c-1.24,6.54-2.4,13.24-3.51,19.73l-.38,2.18c-2.71,17.28-4.59,31.29-5.92,44A845.42,845.42,0,0,0,259.72,1378.82ZM338,1298c1.19-11.56,2.85-23.93,5.38-40.08l.53-3.06c.95-5.55,1.94-11.29,3-16.87l3-14.88,1.11-5a759.1,759.1,0,0,1,21.58-78A770.38,770.38,0,0,1,402.51,1065a750.54,750.54,0,0,1,83.34-138.51c8.63-11.48,17.64-22.41,25.29-31.56,7.87-9.14,17.24-19.87,27.05-30.15A740,740,0,0,1,596.86,809a752.41,752.41,0,0,1,64.33-49.11A771.74,771.74,0,0,1,730.46,718a749.11,749.11,0,0,1,229.09-77.46c13.33-2.16,26.83-4,40.12-5.56,13.84-1.55,27.42-2.8,40.35-3.71s26.45-1.61,40.47-2c13.81-.42,27.64-.45,40.55-.42h81.3V622.9h-81.29c-13,0-26.84,0-40.74.43-14.1.43-27.8,1.12-40.71,2.06s-26.67,2.17-40.6,3.73c-13.39,1.53-27,3.42-40.4,5.6a754.68,754.68,0,0,0-230.93,78.07A778.66,778.66,0,0,0,657.86,755,760.57,760.57,0,0,0,593,804.47a746.55,746.55,0,0,0-59.13,56.18C524,871,514.56,881.81,506.61,891c-7.72,9.24-16.79,20.25-25.49,31.82a755.59,755.59,0,0,0-84,139.6,773.12,773.12,0,0,0-30.19,75.78,760.66,760.66,0,0,0-21.75,78.6l-1.12,5-3,15c-1.08,5.67-2.07,11.43-3,17l-.54,3.1c-2.55,16.29-4.22,28.76-5.43,40.42a776.58,776.58,0,0,0-4.41,81.44h5.94A767.83,767.83,0,0,1,338,1298Zm73.45,7.92c1.33-13,3.2-25.55,4.84-36.11l.68-3.89c.8-4.63,1.63-9.42,2.51-14.08l2.68-13.4,1-4.48a680.68,680.68,0,0,1,19.43-70.25,696.9,696.9,0,0,1,27-67.73,676.09,676.09,0,0,1,75.13-124.85c7.55-10.06,15.43-19.64,22.79-28.46,7.6-8.81,15.82-18.21,24.4-27.18a663.55,663.55,0,0,1,52.9-50.25,678.07,678.07,0,0,1,58-44.27,700.18,700.18,0,0,1,62.4-37.72,675.67,675.67,0,0,1,206.42-69.78l13.52-2.11,8.22-1.09c4.74-.64,9.65-1.29,14.64-1.84,12.84-1.43,25.38-2.59,37.3-3.42s24.23-1.49,37.4-1.89c6.74-.19,12.87-.31,18.71-.36l19.67,0h81.3v-5.94H1121l-19.7,0c-5.9,0-12.07.17-18.85.36-13.26.4-25.58,1-37.65,1.9s-24.62,2-37.53,3.44c-5.06.56-10,1.22-14.78,1.86l-8.28,1.09-13.61,2.13A681.57,681.57,0,0,0,762.38,778a705.84,705.84,0,0,0-63,38,684.64,684.64,0,0,0-58.49,44.65,668.22,668.22,0,0,0-53.36,50.69c-8.67,9.06-16.94,18.52-24.63,27.43-7.44,8.92-15.37,18.57-23,28.72a681.86,681.86,0,0,0-75.77,125.94A700.51,700.51,0,0,0,437,1161.8a690.7,690.7,0,0,0-19.6,70.86l-1,4.54-2.71,13.5c-.89,4.73-1.73,9.54-2.53,14.2l-.68,3.93c-1.67,10.69-3.55,23.39-4.89,36.46a701.68,701.68,0,0,0-4,73.52h5.93A695.48,695.48,0,0,1,411.43,1305.91Z" fill="#fff"/><path d="M1202.34,509.14l-85.15-14-3.63-.6c-22.92-3.77-46.08-6.82-69.31-9.17-23.28,1.35-46.52,3.41-69.56,6.19l-1.27.16-4.77,29C951.64,624,1005,723,1093.5,768.46c5.27-.1,10.53-.17,15.78-.17h93.06Z" fill="#1e1e1c"/><path d="M1902.17,786a893,893,0,0,0-331.76-234.94h0q-13.65-5.56-27.51-10.67l-.14,0q-13.76-5.07-27.69-9.7l-.43-.14q-13.79-4.57-27.75-8.7l-.78-.23q-6.81-2-13.66-3.91l-.19,0q-6.94-1.92-13.91-3.74l-1.14-.29q-6.35-1.64-12.74-3.19L1443,510q-6.78-1.63-13.6-3.17l-1.39-.3q-6.06-1.37-12.15-2.62l-2.37-.5q-6.66-1.37-13.36-2.64l-1.45-.27q-5.94-1.12-11.9-2.15l-3-.53c-4.41-.75-8.82-1.48-13.24-2.16l-1.1-.17q-6.08-.93-12.18-1.78l-3.4-.47q-6.63-.9-13.27-1.72c-5-.6-9.94-1.15-14.93-1.69l-3.26-.34c-4.9-.51-9.8-1-14.7-1.44l-2.15-.19q-6.69-.6-13.4-1.11l-2.9-.22q-7.32-.56-14.63-1l-3.17-.19q-6.7-.39-13.43-.71l-2-.09q-25.05-1.12-50-1.13h-96.74a1125.55,1125.55,0,0,0-134.59,8.1l-4.15.52v40.74c0,129.85,105.64,235.48,235.48,235.48a840.5,840.5,0,0,1,100.41,6.05,608.88,608.88,0,0,1,535.82,604.48h284.84A893,893,0,0,0,1902.17,786Z" fill="#1e396c"/><path d="M1895.39,1221.34l-3.59-14.45-3.91-14.36-2.8-9.43c-1.23-4.32-2.63-8.63-4-12.8-.66-2-1.32-4.08-2-6.15s-1.35-4-2-6l-1.21-3.46-1-2.82c-.75-2.15-1.51-4.39-2.35-6.53a678.54,678.54,0,0,0-31.56-72.8l-4.52-8.86-7-13.13-7.34-13-7.61-12.79-7.9-12.63-5.42-8.27a677.16,677.16,0,0,0-47.57-63.61c-10.36-12.16-18.53-21.29-26.47-29.58-8-8.47-16.62-17.12-28.15-28.06a676.53,676.53,0,0,0-61-50.88l-8-5.89-12.19-8.56-12.36-8.28c-10.62-6.81-22-14-33.84-20.69a671.2,671.2,0,0,0-71-35.37c-2.62-1.16-5.29-2.24-7.87-3.29l-10.56-4.28-13.92-5.3-14-5-9.35-3.08c-4.45-1.52-9-2.89-13.39-4.22-1.85-.55-3.71-1.11-5.6-1.7a699.17,699.17,0,0,0-77.3-17.92c-2.12-.38-4.26-.71-6.32-1-1.17-.17-2.34-.35-3.55-.55l-3.51-.55c-2.06-.33-4.2-.68-6.32-.94l-14.79-2-5-.59c-13.46-1.54-27.09-2.79-40.5-3.72s-27.19-1.56-40.63-1.89c-8-.18-14.45-.26-20.31-.26l-8.19-.16c-2.48-.06-5.06-.27-7.55-.48l-2-.16c-3.44-.36-6.58-.77-9.54-1.22l-2.23-.38c-2.52-.44-4.91-.85-7.33-1.43a163.93,163.93,0,0,1-36.52-12.66,164.11,164.11,0,0,1-59.07-48.55,164.25,164.25,0,0,1-19.5-33.27,161.49,161.49,0,0,1-11.19-37,164.74,164.74,0,0,1-2.25-19.14c-.17-2.83-.22-5.75-.27-8.56V475.67a3,3,0,0,0-3.14-2.93h-.06a2.94,2.94,0,0,0-2.74,2.93v57.15l0,1c0,2.88.1,5.86.28,8.82a169.09,169.09,0,0,0,2.33,19.83,167.34,167.34,0,0,0,11.6,38.35,170,170,0,0,0,20.2,34.46,169.93,169.93,0,0,0,61.19,50.29,170.4,170.4,0,0,0,37.8,13.12c2.56.61,5.15,1,7.65,1.49l2.27.39c3.13.47,6.36.89,10,1.27l2,.17c2.58.21,5.24.43,7.89.49l4.92.13,3.39,0c5.85,0,12.27.08,20.2.26,13.35.33,26.93,1,40.36,1.89s26.86,2.16,40.23,3.68l5,.58,14.76,2c2,.26,4.12.59,6.14.92l3.53.55c1.19.2,2.38.38,3.57.56,2,.31,4.12.63,6.17,1a693.14,693.14,0,0,1,76.64,17.75c1.86.58,3.73,1.14,5.6,1.71,4.34,1.31,8.84,2.66,13.21,4.15l9.32,3.08,13.9,4.92,13.79,5.25,10.5,4.26c2.54,1,5.16,2.09,7.72,3.23a667.3,667.3,0,0,1,70.4,35.08c11.75,6.62,23,13.78,33.52,20.5l12.27,8.21,12.07,8.49,8,5.85A669.41,669.41,0,0,1,1694.91,887c11.42,10.83,20,19.4,27.91,27.82,7.88,8.22,16,17.27,26.25,29.32a670.47,670.47,0,0,1,47.13,63l5.39,8.21,7.83,12.52,7.55,12.68,7.27,12.85,7,13,4.49,8.8a670.08,670.08,0,0,1,31.3,72.21c.81,2.08,1.56,4.26,2.29,6.37.33,1,.65,1.9,1,2.82.4,1.16.8,2.32,1.21,3.48.68,1.94,1.36,3.87,2,5.8s1.32,4.11,2,6.17c1.34,4.12,2.72,8.38,3.93,12.62l2.79,9.41,3.88,14.23,3.56,14.34a697.06,697.06,0,0,1,13.65,77.46,714,714,0,0,1,4.56,78.64l5.93,0a718.75,718.75,0,0,0-4.59-79.3A703.3,703.3,0,0,0,1895.39,1221.34Z" fill="#fff"/><path d="M1967.27,1204.28l-4-16-4.34-15.93-3.11-10.48c-1.41-4.94-3-9.88-4.56-14.65-.69-2.12-1.38-4.23-2.06-6.37s-1.51-4.48-2.29-6.71c-.43-1.23-.86-2.46-1.29-3.72l-1.05-3c-.84-2.43-1.7-4.94-2.64-7.36a749.84,749.84,0,0,0-35-80.73l-5-9.82-7.81-14.55-8.13-14.37-8.44-14.19-8.76-14-6-9.17a758.78,758.78,0,0,0-52.71-70.49c-11.16-13.11-20.48-23.53-29.33-32.77-8.85-9.43-18.75-19.3-31.19-31.09a758.15,758.15,0,0,0-67.55-56.4l-8.88-6.53-13.51-9.49-13.71-9.18c-11.83-7.59-24.57-15.64-37.52-23a747.06,747.06,0,0,0-78.73-39.22c-3-1.32-6-2.54-8.9-3.73l-11.53-4.67-15.43-5.87-15.56-5.51-10.38-3.44c-5.08-1.72-10.28-3.29-15.31-4.81l-5.74-1.74a772.65,772.65,0,0,0-85.72-19.87,875.2,875.2,0,0,0-87.37-10.21c-14.61-1-29.39-1.69-43.93-2-8.6-.2-15.59-.29-22-.29-1.32,0-2.65,0-4-.06l-1.45,0c-1.08,0-2.18-.11-3.34-.2-.64-.06-1.27-.11-1.91-.15-2-.23-3.67-.44-5.2-.66-.63-.13-1.27-.24-1.91-.34-1.14-.2-2.21-.38-3.33-.66a90.78,90.78,0,0,1-20-6.93,90.27,90.27,0,0,1-32.51-26.73,91.41,91.41,0,0,1-10.71-18.27,88.31,88.31,0,0,1-6.11-20.28,89.5,89.5,0,0,1-1.25-10.51c-.07-1.15-.09-2.31-.11-3.46,0-.65,0-1.29,0-1.84V473.45a2.94,2.94,0,0,0-2.94-2.94h-.06a2.94,2.94,0,0,0-2.93,2.94v59.43c0,.62,0,1.24,0,1.86,0,1.24.06,2.47.13,3.72a96.75,96.75,0,0,0,7.86,32.81,96.53,96.53,0,0,0,11.41,19.47,96.2,96.2,0,0,0,34.63,28.46,96,96,0,0,0,21.24,7.37c1.25.32,2.49.53,3.69.73l1.85.33.13,0c1.63.24,3.39.46,5.53.71h.15l1.87.14c1.21.1,2.46.2,3.72.22l1.4,0c1.39,0,2.78.08,4.15.07,6.35,0,13.3.09,21.85.28,14.45.35,29.14,1,43.66,2a872,872,0,0,1,86.77,10.14,766.26,766.26,0,0,1,85,19.7c1.91.59,3.83,1.17,5.74,1.74,5,1.51,10.13,3.06,15.13,4.76l10.35,3.42,15.44,5.47,15.31,5.82,11.46,4.65c2.88,1.17,5.86,2.37,8.76,3.66a745,745,0,0,1,78.16,38.94c12.84,7.26,25.49,15.25,37.2,22.77l13.61,9.11,13.41,9.41,8.82,6.49a752.63,752.63,0,0,1,67,55.94c12.34,11.69,22.16,21.49,31,30.85,8.79,9.18,18,19.52,29.11,32.52a755.38,755.38,0,0,1,52.28,69.92l6,9.11,8.68,13.88,8.38,14.08,8.06,14.26,7.75,14.43,5,9.76a746.07,746.07,0,0,1,34.74,80.13c.91,2.37,1.76,4.83,2.58,7.21.35,1,.7,2,1,3,.43,1.24.86,2.49,1.3,3.73.77,2.19,1.53,4.38,2.25,6.57s1.36,4.25,2.05,6.38c1.54,4.73,3.12,9.61,4.51,14.48l3.1,10.44,4.31,15.8,4,15.93a771.56,771.56,0,0,1,15.16,86,788.09,788.09,0,0,1,5,87.18l5.94,0a793.32,793.32,0,0,0-5.09-87.85A778.6,778.6,0,0,0,1967.27,1204.28Z" fill="#fff"/><path d="M1205.74,555h-.15Z" fill="#fff"/><path d="M2055.93,1282.42a852.14,852.14,0,0,0-16.78-95.19l-4.37-17.6-4.77-17.5-3.41-11.53c-1.6-5.55-3.4-11.11-5.15-16.49-.71-2.19-1.42-4.38-2.12-6.59-.84-2.56-1.73-5.12-2.6-7.6-.45-1.28-.89-2.55-1.34-3.86-.37-1.06-.75-2.13-1.12-3.2-.93-2.7-1.89-5.49-2.93-8.18a822.22,822.22,0,0,0-38.45-88.67l-5.49-10.78-8.58-16-8.93-15.78-9.26-15.57L1931,932.54l-6.6-10.07a836.94,836.94,0,0,0-57.85-77.37c-12.12-14.25-22.36-25.68-32.2-36-9.84-10.48-20.71-21.31-34.23-34.12A834.83,834.83,0,0,0,1726,713.1l-9.75-7.16-14.84-10.42-15.05-10.08c-12.16-7.82-26.57-16.93-41.21-25.21a820.69,820.69,0,0,0-86.48-43.09c-3.3-1.46-6.67-2.83-9.93-4.16l-12.5-5.06-17-6.45-17.09-6.05-11.42-3.78c-5.71-1.94-11.56-3.7-17.21-5.41l-5.9-1.78a844.24,844.24,0,0,0-94.08-21.81c-2.62-.48-5.28-.89-7.85-1.28-1.36-.21-2.72-.42-4.11-.65s-2.73-.42-4.09-.64c-2.57-.41-5.22-.83-7.85-1.17l-17.92-2.36-5.86-.68c-15.62-1.78-31.47-3.24-47.09-4.32s-31.61-1.82-47.24-2.2c-9.1-.21-16.62-.3-23.63-.3h-1.89a5.61,5.61,0,0,0-.92,0l-.15,0c-.18,0-.43-.05-.72-.06l-.78-.1a7.27,7.27,0,0,0-.75-.12l-.22-.06a17,17,0,0,1-3.48-1.18,20.11,20.11,0,0,1-3.24-2.07,19.8,19.8,0,0,1-2.75-2.87,16.1,16.1,0,0,1-1.93-3.33,13.88,13.88,0,0,1-1-3.47l0-.14a10.08,10.08,0,0,1-.15-1.19c0-.24,0-.47-.05-.61a2.44,2.44,0,0,1,0-.27c0-.29,0-.58,0-.9V473.45a2.94,2.94,0,0,0-2.94-2.94h-.06a2.94,2.94,0,0,0-2.94,2.94v59.33l0,.39c0,.13,0,.24,0,.34s0,.47,0,.81c0,.19,0,.39,0,.58a13.87,13.87,0,0,0,.27,2,19.55,19.55,0,0,0,1.47,4.84,23,23,0,0,0,2.63,4.47A26.11,26.11,0,0,0,1192,550a25.52,25.52,0,0,0,4.35,2.78,22.57,22.57,0,0,0,4.62,1.62,6,6,0,0,0,1.12.21l.56.11c.28,0,.57.06.85.11l.35.06.27,0h.1a5.37,5.37,0,0,0,1.06,0h.23l-.14,0h0l.26,0,2.27,0c7,0,14.45.1,23.5.3,15.54.38,31.34,1.12,47,2.19s31.29,2.52,46.82,4.29l5.82.68,17.87,2.36c2.55.33,5.16.74,7.69,1.14l4.1.64c1.38.23,2.75.44,4.13.65,2.53.39,5.15.8,7.72,1.26a841.12,841.12,0,0,1,93.4,21.65l5.89,1.78c5.61,1.7,11.41,3.45,17.05,5.36l11.38,3.76,17,6,16.83,6.4,12.43,5c3.22,1.31,6.55,2.66,9.8,4.1a815.66,815.66,0,0,1,85.91,42.8c14.53,8.22,28.85,17.27,40.89,25l15,10,14.72,10.35,9.7,7.12a827.59,827.59,0,0,1,73.6,61.45c13.42,12.71,24.22,23.47,34,33.88,9.78,10.22,19.94,21.58,32,35.72a829.85,829.85,0,0,1,57.42,76.79l6.56,10,9.54,15.26,9.2,15.46,8.86,15.66,8.52,15.86,5.47,10.72a821.12,821.12,0,0,1,38.18,88.06c1,2.64,2,5.38,2.88,8,.37,1.08.74,2.16,1.12,3.21.44,1.29.89,2.58,1.34,3.87.86,2.45,1.74,5,2.55,7.46q1,3.3,2.13,6.6c1.73,5.33,3.52,10.84,5.09,16.32l3.4,11.49,4.74,17.37,4.34,17.5a845.68,845.68,0,0,1,16.66,94.49,861.66,861.66,0,0,1,5.54,95.72l5.93,0A866.89,866.89,0,0,0,2055.93,1282.42Z" fill="#fff"/><g clip-path="url(#clip-path)"><path d="M2260.21,1471.41a66.2,66.2,0,0,1-9.41,31h0a66.6,66.6,0,0,1-26.28,57.5h0a48.73,48.73,0,0,1-29.34,9.83h-6.63a186.91,186.91,0,0,1-51.87-7.34h0a187.18,187.18,0,0,0-82-4.89l-9.22,1.51a823.25,823.25,0,0,1-132.37,10.72h0a96.36,96.36,0,0,1-65.1-25.31h0a96.38,96.38,0,0,1-27-99.46l21.24-68.94h243l55.86-15.74a137.87,137.87,0,0,1,84,2.94h0a71.92,71.92,0,0,1,45.27,49.46h0a71.91,71.91,0,0,1-10.16,58.72" fill="#f18673"/><path d="M2260.21,1471.41a66.62,66.62,0,0,0-3.56-25q-1.05-3-2.36-5.87c-.88-1.91-1.86-3.79-2.88-5.63a85.08,85.08,0,0,0-6.93-10.57,87.7,87.7,0,0,0-40.17-29.22,89.08,89.08,0,0,0-49.27-3l-3,.74c-1,.24-2,.58-3,.86-2,.56-4,1.26-6,1.91l-12.1,3.93-24.21,7.88a2.5,2.5,0,0,1-1.54-4.76h0l0,0,24.3-7.57,12.14-3.79c4-1.25,8.22-2.57,12.49-3.46a93.14,93.14,0,0,1,51.48,3.76,91.09,91.09,0,0,1,41.37,30.87,88.28,88.28,0,0,1,7,11c1,1.93,2,3.87,2.92,5.88s1.67,4.07,2.38,6.16a69.21,69.21,0,0,1,3.39,26,1.25,1.25,0,0,1-2.5-.14Z" fill="#1d1d1b"/><path d="M2250.8,1502.41A66.53,66.53,0,0,0,2233,1462.1a67.21,67.21,0,0,0-8.26-7.47,69.22,69.22,0,0,0-9.41-5.93,109,109,0,0,0-20.67-8.34,106.75,106.75,0,0,0-44-3c-3.67.52-7.23,1.23-10.92,2.08l-11,2.47-22,4.94a2.5,2.5,0,1,1-1.1-4.87h.07l22.07-4.64,11-2.32c1.82-.4,3.71-.76,5.61-1.1s3.79-.6,5.7-.88a110.79,110.79,0,0,1,45.65,3.8,112.71,112.71,0,0,1,21.24,8.91,72.35,72.35,0,0,1,9.77,6.36,70.12,70.12,0,0,1,8.56,8,69.3,69.3,0,0,1,17.95,42.25,1.25,1.25,0,0,1-2.49.17Z" fill="#1d1d1b"/></g><g clip-path="url(#clip-path-2)"><path d="M55.06,1471.41a66.09,66.09,0,0,0,9.41,31h0a66.6,66.6,0,0,0,26.28,57.5h0a48.71,48.71,0,0,0,29.34,9.83h6.63a186.91,186.91,0,0,0,51.87-7.34h0a187.18,187.18,0,0,1,82-4.89l9.22,1.51a823.25,823.25,0,0,0,132.37,10.72h0a96.37,96.37,0,0,0,65.1-25.31h0a96.38,96.38,0,0,0,27-99.46l-20.47-66.43a3.56,3.56,0,0,0-3.4-2.51H230l-55.86-15.74a137.87,137.87,0,0,0-84,2.94h0a71.9,71.9,0,0,0-45.27,49.46h0a71.91,71.91,0,0,0,10.16,58.72" fill="#f18673"/><path d="M62,1502.25a67.32,67.32,0,0,1,17.61-41.18,66.57,66.57,0,0,1,17.95-13.9,108,108,0,0,1,65.29-12.3c1.86.27,3.73.47,5.57.85s3.69.69,5.46,1.08l10.77,2.25,21.54,4.51h0a2.44,2.44,0,0,1-1,4.77h0l-21.47-4.81-10.74-2.4c-1.8-.42-3.57-.78-5.33-1.12s-3.55-.61-5.33-.9a104.9,104.9,0,0,0-43,2.93,107.6,107.6,0,0,0-20.19,8.08,67,67,0,0,0-9.21,5.76,65.53,65.53,0,0,0-8.09,7.26,64.52,64.52,0,0,0-17.43,39.28h0a1.22,1.22,0,0,1-2.43-.17Z" fill="#1d1d1b"/><path d="M52.56,1471.57a69.21,69.21,0,0,1,3.39-26q1.06-3.13,2.38-6.16c.9-2,1.89-4,2.92-5.88a89.37,89.37,0,0,1,7-11,91.17,91.17,0,0,1,41.38-30.87,93.14,93.14,0,0,1,51.48-3.76c4.26.89,8.49,2.21,12.48,3.46l12.15,3.79,24.3,7.57h0a2.5,2.5,0,1,1-1.49,4.78h0l-24.21-7.88-12.1-3.93c-2-.65-4.05-1.35-6-1.91-1-.28-2-.62-3-.86l-3-.74a89.08,89.08,0,0,0-49.27,3,87.7,87.7,0,0,0-40.17,29.22,85.08,85.08,0,0,0-6.93,10.57c-1,1.84-2,3.72-2.89,5.63s-1.65,3.88-2.35,5.87a66.42,66.42,0,0,0-3.56,25v0a1.25,1.25,0,0,1-2.5.14Z" fill="#1d1d1b"/></g><path d="M1229.8,238.85l65.38-130.42a6.86,6.86,0,0,1,13,3.07V238.85Z" fill="#f18673"/><line x1="1294.94" y1="162.61" x2="1268.03" y2="231.52" fill="none" stroke="#1d1d1b" stroke-linecap="round" stroke-miterlimit="10" stroke-width="5"/><path d="M985.6,238.85,920.22,108.43a6.86,6.86,0,0,0-13,3.07V238.85Z" fill="#f18673"/><line x1="920.46" y1="162.61" x2="946.42" y2="229.09" fill="none" stroke="#1d1d1b" stroke-linecap="round" stroke-miterlimit="10" stroke-width="5"/><ellipse cx="1107.59" cy="350.98" rx="404.44" ry="131.82" fill="#f18673"/><path d="M1107.7,482.81c161.75,0,301.3-10.59,366-58.82a5.43,5.43,0,0,0,1.15-7.48,201.65,201.65,0,0,0-28.92-32.64h0a202.2,202.2,0,0,0-272,0h0a98.45,98.45,0,0,1-132.42,0h0a202.2,202.2,0,0,0-272,0h0a201.65,201.65,0,0,0-28.92,32.64,5.43,5.43,0,0,0,1.15,7.48C806.4,472.22,946,482.81,1107.7,482.81Z" fill="#fae5e1"/><path d="M1143.76,374.77c0-10.12-8.87-18.32-36.06-18.32s-36.06,8.2-36.06,18.32c0,5.42,4.63,10.29,12,13.65a24.66,24.66,0,0,1,13.59,15.45l.06.19a10.83,10.83,0,0,0,10.41,7.8h0a10.83,10.83,0,0,0,10.41-7.8l.06-.19a24.66,24.66,0,0,1,13.59-15.45C1139.13,385.06,1143.76,380.19,1143.76,374.77Z" fill="#1e1e1c"/><rect x="892.08" y="364.19" width="35.63" height="35.63" rx="0.71" fill="#1e1e1c"/><rect x="1287.69" y="364.19" width="35.63" height="35.63" rx="0.71" fill="#1e1e1c"/><ellipse cx="901.57" cy="370.33" rx="1.84" ry="1.23" fill="#f5f5f5"/><ellipse cx="902.76" cy="379.33" rx="3.04" ry="2.67" fill="#f5f5f5"/><circle cx="920.19" cy="391.56" r="5.58" fill="#f5f5f5"/><ellipse cx="1298.01" cy="370.04" rx="6.3" ry="3.39" fill="#f5f5f5"/><ellipse cx="1297.42" cy="387.49" rx="2.62" ry="3.39" fill="#f5f5f5"/><ellipse cx="1314.58" cy="384.58" rx="5.82" ry="4.17" fill="#f5f5f5"/><path d="M1112.22,208.64l-9,0a417.87,417.87,0,0,1-88.23-9.11h0a11,11,0,0,0-13.25,10.77h0a11,11,0,0,0,11,10.93l190.08-.65a11,11,0,0,0,10.93-11h0a11,11,0,0,0-13.32-10.67h0A418.28,418.28,0,0,1,1112.22,208.64Z" fill="#1e1e1c"/><path d="M1107.31,96.17h0a47.83,47.83,0,0,0-47.67,48l.23,66,95.66-.33-.22-66A47.83,47.83,0,0,0,1107.31,96.17Z" fill="#1e1e1c"/></svg>