<svg id="Layer_1" data-name="Layer 1" xmlns="http://www.w3.org/2000/svg" viewBox="0 0 314.83 63.81"><g id="HATS_0_Layer1_0_FILL" data-name="HATS 0 Layer1 0 FILL"><path d="M214,54a49.24,49.24,0,0,0-1.45-18.84L108.86,33.25a86,86,0,0,0-4.49,19.1L214,54M144.66,46q9.26-6.61,24.21-3.8Q153.92,39.42,144.66,46Z" fill="#6ff"/><path d="M212.5,35.12q-4.42-15-18.67-23Q182.91,6,167,4.28a61.91,61.91,0,0,0-13.55.16,71.65,71.65,0,0,0-16.75,3.85q-20.59,7.47-27.81,25L212.5,35.12m97.76,27.53q5.16-3.46,1-5.27-3.8-1.64-17.11-2.16-7.63-.3-33.1-.5Q233,54.51,214,54L104.37,52.35l-39-.71q-24-.41-37.2-.12-17.75.38-23.66,2T7,58.88Z" fill="#fff19f"/></g><path id="HATS_0_Layer1_0_1_STROKES" data-name="HATS 0 Layer1 0 1 STROKES" d="M214,54q19.08.55,47.08.76,25.46.2,33.1.5,13.31.53,17.11,2.16,4.17,1.8-1,5.27L7,58.88q-8.6-3.63-2.54-5.34t23.66-2q13.17-.29,37.2.12l39,.71a86,86,0,0,1,4.49-19.1q7.22-17.49,27.81-25a71.65,71.65,0,0,1,16.75-3.85A61.91,61.91,0,0,1,167,4.28Q182.92,6,193.83,12.11q14.23,8,18.67,23A49.24,49.24,0,0,1,214,54L104.37,52.35M144.66,46q9.26-6.61,24.21-3.8m-60-9L212.5,35.12" fill="none" stroke="#000" stroke-linecap="round" stroke-linejoin="round" stroke-width="1.9"/></svg>