<svg id="Layer_1" data-name="Layer 1" xmlns="http://www.w3.org/2000/svg" viewBox="0 0 299.44 81.73"><g id="HS_CAP_02_0_Layer1_0_FILL" data-name="HS CAP 02 0 Layer1 0 FILL"><path d="M55.23,60.52a69.46,69.46,0,0,0-9.6,12.25L41.28,80l201,0a102.91,102.91,0,0,0-9.95-18.5Z" fill="#f90"/><path d="M206.13,40q-20.1-15.45-57-16.15t-61,13.65q-24.15,14.35-32.85,23l177.05,1Q226.18,55.48,206.13,40Z" fill="#fc3"/></g><path id="HS_CAP_02_0_Layer1_0_1_STROKES" data-name="HS CAP 02 0 Layer1 0 1 STROKES" d="M55.23,60.52q8.7-8.64,32.85-23t61.05-13.65q36.9.7,57,16.15t26.15,21.55a102.91,102.91,0,0,1,9.95,18.5L41.28,80l4.35-7.25a69.46,69.46,0,0,1,9.6-12.25l177.05,1" fill="none" stroke="#000" stroke-linecap="round" stroke-linejoin="round" stroke-width="4"/><g id="HS_CAP_02_0_Layer0_0_FILL" data-name="HS CAP 02 0 Layer0 0 FILL"><path d="M41.13,75.47l13.35-16.1-14.6-13.9L21.53,56l19.6,19.45M235.28,63.52l8.55,16.25,24.9-13-12.1-15.85Z" fill="#f90"/></g><path id="HS_CAP_02_0_Layer0_0_1_STROKES" data-name="HS CAP 02 0 Layer0 0 1 STROKES" d="M235.28,63.52l21.35-12.6,12.1,15.85-24.9,13ZM39.88,45.47l14.6,13.9L41.13,75.47,21.53,56Z" fill="none" stroke="#000" stroke-linecap="round" stroke-linejoin="round" stroke-width="4"/></svg>