<svg id="Layer_1" data-name="Layer 1" xmlns="http://www.w3.org/2000/svg" viewBox="0 0 323.7 110.25"><g id="HS_GOOGLES_03_0_Layer2_0_FILL" data-name="HS GOOGLES 03 0 Layer2 0 FILL"><path d="M261.11,44.7A104.62,104.62,0,0,0,266,26q2.55-15.7-2.5-24.15L52.06,1.4q-9.9.26-16.2.15t-9.6-.2H11.51Q11,2.25,9.86,4.8q-2.4,5.29-3,31.45t20,44.85q20.7,18.65,44.7,17t40.95-16q13.35-11.2,16.2-26.15,4.05,17.29,19.65,30.3,16.91,14.05,41.2,14,22.35,0,44-17.3,1.8-1.5,3.6-3.05a89.12,89.12,0,0,0,9.2-9.35,84.56,84.56,0,0,0,14.8-25.8M266,26a104.62,104.62,0,0,1-4.85,18.75,84.56,84.56,0,0,1-14.8,25.8,89.12,89.12,0,0,1-9.2,9.35q-1.8,1.55-3.6,3.05l60.1-17.85,6.8-39.9-37-23.35Q268.52,10.25,266,26Z" fill="#ca212c"/></g><path id="HS_GOOGLES_03_0_Layer2_0_1_STROKES" data-name="HS GOOGLES 03 0 Layer2 0 1 STROKES" d="M263.46,1.8Q268.52,10.25,266,26a104.62,104.62,0,0,1-4.85,18.75,84.56,84.56,0,0,1-14.8,25.8,89.12,89.12,0,0,1-9.2,9.35q-1.8,1.55-3.6,3.05l60.1-17.85,6.8-39.9-37-23.35L52.06,1.4q-9.9.26-16.2.15t-9.6-.2H11.51Q11,2.25,9.86,4.8q-2.4,5.29-3,31.45t20,44.85q20.7,18.65,44.7,17t40.95-16q13.35-11.2,16.2-26.15,4.05,17.29,19.65,30.3,16.91,14.05,41.2,14,22.35,0,44-17.3" fill="none" stroke="#000" stroke-linecap="round" stroke-linejoin="round" stroke-width="4"/><g id="HS_GOOGLES_03_0_Layer1_0_FILL" data-name="HS GOOGLES 03 0 Layer1 0 FILL"><path d="M69.61,34.35q-5-4.7-5.4-17.4L38,16.6Q35.61,30.7,40.21,37q2.61,3.49,12.1,7.95T66,54.75q6.51,8.55,6.55,25.1,13.65-.7,27.35-13.2-1.44-15.71-7.35-22-3.75-4-11.85-5.85-8.3-1.91-11-4.5m116.6.4q-5.85-3.9-6.5-15.75l-22.5.25q-.19,16.39,3.9,23,2.7,4.39,9.55,7.15,8,3.19,11,6.25,5.85,5.85,8.65,21.65c1.1-.17,2.22-.37,3.35-.6a76,76,0,0,0,26.25-10.3q-2.19-16.15-8.35-22.3-4.09-4.09-12.8-5.75Q189.07,36.6,186.21,34.75Z" fill="#fff"/><path d="M64.21,17q.41,12.71,5.4,17.4,2.76,2.59,11,4.5,8.1,1.84,11.85,5.85,5.91,6.25,7.35,22a93.51,93.51,0,0,0,7-7.15q18.51-21,17.4-41.7a.07.07,0,0,1,0-.1L64.21,17m-39.1-.55a60.08,60.08,0,0,0-1.2,13.8q.3,26.1,14,37.6a51.07,51.07,0,0,0,32.05,12c.87,0,1.74,0,2.6,0q0-16.55-6.55-25.1-4-5.4-13.65-9.85T40.21,37Q35.62,30.7,38,16.6l-12.9-.2M170.66,49.45q-6.84-2.75-9.55-7.15-4.1-6.64-3.9-23l-11.05.1a96.87,96.87,0,0,0-1,10.65q-1.29,27.86,13.6,39.3,13.65,10.5,31.6,8-2.79-15.8-8.65-21.65-3-3-11-6.25M179.71,19q.66,11.85,6.5,15.75,2.85,1.84,12.55,3.65,8.7,1.65,12.8,5.75,6.15,6.15,8.35,22.3a76.6,76.6,0,0,0,8.25-6.2q14.4-12.55,19.25-34.2,1.5-6.75.5-7.7a1.05,1.05,0,0,0-.3-.15Z" fill="#333"/></g><path id="HS_GOOGLES_03_0_Layer1_0_1_STROKES" data-name="HS GOOGLES 03 0 Layer1 0 1 STROKES" d="M179.71,19q.66,11.85,6.5,15.75,2.85,1.84,12.55,3.65,8.7,1.65,12.8,5.75,6.15,6.15,8.35,22.3a76.6,76.6,0,0,0,8.25-6.2q14.4-12.55,19.25-34.2,1.5-6.75.5-7.7a1.05,1.05,0,0,0-.3-.15l-67.9.8-22.5.25q-.19,16.39,3.9,23,2.7,4.39,9.55,7.15,8,3.19,11,6.25,5.85,5.85,8.65,21.65c1.1-.17,2.22-.37,3.35-.6a76,76,0,0,0,26.25-10.3m-29.6,10.9q-17.94,2.45-31.6-8-14.9-11.44-13.6-39.3a96.87,96.87,0,0,1,1-10.65l11.05-.1m-84.7,60.6c-.86,0-1.73,0-2.6,0a51.07,51.07,0,0,1-32-12Q24.21,56.3,23.91,30.2a60.08,60.08,0,0,1,1.2-13.8h-.6m39.7.55q.41,12.71,5.4,17.4,2.76,2.59,11,4.5,8.1,1.84,11.85,5.85,5.91,6.25,7.35,22a93.51,93.51,0,0,0,7-7.15q18.51-21,17.4-41.7a.07.07,0,0,1,0-.1L64.21,17,38,16.6Q35.61,30.7,40.21,37q2.61,3.49,12.1,7.95T66,54.75q6.51,8.55,6.55,25.1,13.65-.7,27.35-13.2M25.11,16.4l12.9.2" fill="none" stroke="#000" stroke-linecap="round" stroke-linejoin="round" stroke-width="4"/><path id="HS_GOOGLES_03_0_Layer0_0_1_STROKES" data-name="HS GOOGLES 03 0 Layer0 0 1 STROKES" d="M278.46,22.45q-.69,23.4-13.3,39.9M286.91,28a68.53,68.53,0,0,1-8.25,32" fill="none" stroke="#000" stroke-linecap="round" stroke-linejoin="round" stroke-width="4"/></svg>