<svg id="Layer_1" data-name="Layer 1" xmlns="http://www.w3.org/2000/svg" viewBox="0 0 299.44 81.73"><g id="HS_CAP_01_0_Layer1_0_FILL" data-name="HS CAP 01 0 Layer1 0 FILL"><path d="M223.22,39Q185.08,9,136,15.72T56.52,49.07a85,85,0,0,0-12.8,14.1l202.65,3-202.65-3a78.5,78.5,0,0,0-9.1,16l220.3,2Q245.67,56.61,223.22,39Z" fill="#6f3"/></g><path id="HS_CAP_01_0_Layer1_0_1_STROKES" data-name="HS CAP 01 0 Layer1 0 1 STROKES" d="M34.62,79.17a78.5,78.5,0,0,1,9.1-16,85,85,0,0,1,12.8-14.1Q86.82,22.42,136,15.72T223.22,39q22.46,17.64,31.7,42.2l-220.3-2a1.61,1.61,0,0,0-.1.25m9.2-16.25,202.65,3" fill="none" stroke="#000" stroke-linecap="round" stroke-linejoin="round" stroke-width="4"/><path id="HS_CAP_01_0_Layer0_0_1_STROKES" data-name="HS CAP 01 0 Layer0 0 1 STROKES" d="M190.37,36.12q19.2,5.19,27,18m-100-19q-24.5,0-41,20" fill="none" stroke="#000" stroke-linecap="round" stroke-linejoin="round" stroke-width="4"/></svg>