<svg id="Layer_1" data-name="Layer 1" xmlns="http://www.w3.org/2000/svg" viewBox="0 0 48 29"><g id="EMOTE_05_0_Layer0_0_FILL" data-name="EMOTE 05 0 Layer0 0 FILL"><path d="M5.9,11.2A8.63,8.63,0,0,0,3,17.75,8.63,8.63,0,0,0,5.9,24.3,10.15,10.15,0,0,0,13,27a10,10,0,0,0,7.05-2.7A8.54,8.54,0,0,0,23,17.75a8.54,8.54,0,0,0-2.95-6.55,10,10,0,0,0-7-2.7,10.15,10.15,0,0,0-7.1,2.7M14,16a1.71,1.71,0,0,1,.55,1.25,1.55,1.55,0,0,1-.55,1.2,1.55,1.55,0,0,1-1.2.55,1.71,1.71,0,0,1-1.25-.55,1.64,1.64,0,0,1-.5-1.2,1.71,1.71,0,0,1,1.75-1.75A1.64,1.64,0,0,1,14,16m14.4-4.4A8.43,8.43,0,0,0,25.5,18a8.27,8.27,0,0,0,2.85,6.35A9.75,9.75,0,0,0,35.25,27a9.75,9.75,0,0,0,6.9-2.65A8.27,8.27,0,0,0,45,18a8.43,8.43,0,0,0-2.85-6.4A9.89,9.89,0,0,0,35.25,9a9.89,9.89,0,0,0-6.9,2.6m7.1,4.9A1.71,1.71,0,0,1,36,17.75a1.55,1.55,0,0,1-.55,1.2,1.55,1.55,0,0,1-1.2.55A1.71,1.71,0,0,1,33,19a1.64,1.64,0,0,1-.5-1.2A1.71,1.71,0,0,1,34.25,16,1.64,1.64,0,0,1,35.45,16.5Z" fill="#fff"/></g><path id="EMOTE_05_0_Layer0_0_1_STROKES" data-name="EMOTE 05 0 Layer0 0 1 STROKES" d="M36,17.75a1.55,1.55,0,0,1-.55,1.2,1.55,1.55,0,0,1-1.2.55A1.71,1.71,0,0,1,33,19a1.64,1.64,0,0,1-.5-1.2A1.71,1.71,0,0,1,34.25,16a1.64,1.64,0,0,1,1.2.5A1.71,1.71,0,0,1,36,17.75Zm-21.5-.5a1.55,1.55,0,0,1-.55,1.2,1.55,1.55,0,0,1-1.2.55,1.71,1.71,0,0,1-1.25-.55,1.64,1.64,0,0,1-.5-1.2,1.71,1.71,0,0,1,1.75-1.75A1.64,1.64,0,0,1,14,16,1.71,1.71,0,0,1,14.5,17.25Z" fill="none" stroke="#000" stroke-linecap="round" stroke-linejoin="round" stroke-width="3.5"/><path d="M45,18a8.27,8.27,0,0,1-2.85,6.35A9.75,9.75,0,0,1,35.25,27a9.75,9.75,0,0,1-6.9-2.65A8.27,8.27,0,0,1,25.5,18a8.43,8.43,0,0,1,2.85-6.4A9.89,9.89,0,0,1,35.25,9a9.89,9.89,0,0,1,6.9,2.6A8.43,8.43,0,0,1,45,18Z" fill="none" stroke="#000" stroke-linecap="round" stroke-linejoin="round" stroke-width="4"/><line x1="30.5" y1="2" x2="46" y2="2.5" fill="none" stroke="#000" stroke-linecap="round" stroke-linejoin="round" stroke-width="4"/><line x1="2" y1="2" x2="19" y2="2.5" fill="none" stroke="#000" stroke-linecap="round" stroke-linejoin="round" stroke-width="4"/><path d="M23,17.75a8.54,8.54,0,0,1-2.95,6.55A10,10,0,0,1,13,27a10.15,10.15,0,0,1-7.1-2.7A8.63,8.63,0,0,1,3,17.75,8.63,8.63,0,0,1,5.9,11.2,10.15,10.15,0,0,1,13,8.5a10,10,0,0,1,7.05,2.7A8.54,8.54,0,0,1,23,17.75Z" fill="none" stroke="#000" stroke-linecap="round" stroke-linejoin="round" stroke-width="4"/></svg>