<svg id="Layer_1" data-name="Layer 1" xmlns="http://www.w3.org/2000/svg" viewBox="0 0 212.95 499.45"><g id="MEERCAT_0_Layer5_0_FILL" data-name="MEERCAT 0 Layer5 0 FILL"><path d="M75.55,434.25q0-2.89,0-6.15.25-12.35.15-15.55-.41-15.49-10.6-20.45-4.55,24,10.4,42.15m89.1,41.9q17.81,3.25,30,1.45,13.55-2,16.25-10.9-50,7.5-105.9-27.8a116.49,116.49,0,0,0-.7,11.8q9.86,9,26.8,15.8a172.67,172.67,0,0,0,33.5,9.65M124.55,227.4a40.47,40.47,0,0,1,6,15.45,107.11,107.11,0,0,1,.65,15.5,108.44,108.44,0,0,0,.4,13.35,18.63,18.63,0,0,0,4.45,10.4q14.25-10.46,11.2-40.7t-19-64.25a285.06,285.06,0,0,1-3.7,50.25M54.2,29.75c-.5.6-1,1.22-1.4,1.85a.89.89,0,0,0,.7-.55,11.8,11.8,0,0,1,.7-1.3m9.35-10.1a2.93,2.93,0,0,0-.65.8l1-1.1a3.63,3.63,0,0,0-.35.3m43.7,65.8q-3.3.19-6.65.15a137.08,137.08,0,0,1-26.15-2.85q-8.65,37.8-20.75,98.6-15.45,77.9-19.4,98.8Q12.51,394.86,14.55,430.9q9.3,30.94-3.1,46.65a98.86,98.86,0,0,1-7.95,8.6q-3,3.64-.1,7,4,4.75,10.8,4.25,7-.56,14-6.35,17.15-14.44,20-46.65,0-.25-.35-11.8a104.74,104.74,0,0,1,.6-18q2.81-21.15,16.75-22.55,10.2,4.95,10.6,20.45.1,3.19-.15,15.55,0,3.25,0,6.15-1.2,28.15,10.75,44.45,12.35,16.8,36,16.8,5.15,0,3.75-4.25-1-3-6.7-10.75-7.35-10.1-9.85-14.2-5.2-8.6-5.15-15.6a116.49,116.49,0,0,1,.7-11.8q2.63-23.36,6.65-50Q113,380,120.3,335.1q2.2-13.65,3.75-24.4-52.54,6-39.9-84.15a66.49,66.49,0,0,1-6.45-2.3,19,19,0,0,1-11.2-12.9,19,19,0,0,0,11.2,12.9,66.49,66.49,0,0,0,6.45,2.3,84.37,84.37,0,0,1,12.15,5q5.55,3,6.1,15.7.19,4.24-.1,21.5.8,15.9,7.6,19.95,5.68,2.44,8.95-8.35t5.4-16.85a73.68,73.68,0,0,0,1.45-10.85,75.59,75.59,0,0,0-1.6-22.7q-.34-1.35-.75-2.7a37.21,37.21,0,0,0-1.25-3.6A26.48,26.48,0,0,0,111,210.55a52.15,52.15,0,0,0-8.15-3.7l-8-3a29.44,29.44,0,0,1-5-2.7,17.89,17.89,0,0,1-6.85-8.35q-2.75-7.05.4-24.7-3.15,17.66-.4,24.7a17.89,17.89,0,0,0,6.85,8.35q2.3-68.6,33.75-66.3-4.65-23.14-16.25-49.4m31.65-64.3a.57.57,0,0,0,.25.05c-.19-.29-.47-.77-.85-1.45l.6,1.4m0,0,0,.1a3.7,3.7,0,0,0,.4.2,1,1,0,0,1-.2-.25.57.57,0,0,1-.25-.05m0,.1a1,1,0,0,0-.15-.1l.15.1h0m-.15-.1a1,1,0,0,1,.15.1l0-.1a.16.16,0,0,1-.1,0m-.5-1.4.25.25-.15-.2a.19.19,0,0,1-.1-.05m.25.25-.25-.25c.38.68.66,1.16.85,1.45.43.08.45-.08,0-.5a2.94,2.94,0,0,0-.4-.45l-.25-.25m.8,1.45a.42.42,0,0,0,.1.15c.63.36.6.31-.1-.15m.1.15a.42.42,0,0,1-.1-.15,3.7,3.7,0,0,1-.4-.2h0l-.15-.1a.16.16,0,0,0,.1,0l-.6-1.4-1.05-.95Q118.7,2,99.75,2,91.5,2,81.55,7.05A78.39,78.39,0,0,0,63.9,19.35l.3.6-.3-.6-1,1.1a43.47,43.47,0,0,1-5.5,5.45c-.4.43-.78.87-1.15,1.3-.73.83-1.42,1.68-2,2.55a11.8,11.8,0,0,0-.7,1.3.89.89,0,0,1-.7.55q-1.61,2.2-2.95,4.45Q44.41,45.2,44.4,52.7q0,19.24,16.3,25.85a88.61,88.61,0,0,0,13.75,4.2A137.08,137.08,0,0,0,100.6,85.6q3.34,0,6.65-.15a70.78,70.78,0,0,0,34.5-10.7q8.5-5.44,11.7-13.3,2.9-7.16,1.6-16.75-.65-4.7-5.45-11.8c-.5-.73-1-1.47-1.55-2.2s-1.1-1.52-1.7-2.25a8.92,8.92,0,0,1-1-.9,8,8,0,0,1-1.8-2.5q-.85-.93-4.3-4.35c.4.42.38.58,0,.5a1,1,0,0,0,.2.25c.7.46.73.51.1.15M63.7,20.1a1,1,0,0,1-.25.25A1,1,0,0,0,63.7,20.1Z" fill="#99724c"/><path d="M102.4,247.3q-.56-12.7-6.1-15.7a84.37,84.37,0,0,0-12.15-5q-12.65,90.1,39.9,84.15,1.45-10.09,2.6-25.25t-2.4-21.9q-2.09,6.06-5.4,16.85t-8.95,8.35q-6.8-4-7.6-19.95.3-17.25.1-21.5m25.85-70.15a231,231,0,0,0-4.75-42.3Q92,132.56,89.75,201.15a29.44,29.44,0,0,0,5,2.7l8,3a52.15,52.15,0,0,1,8.15,3.7A26.48,26.48,0,0,1,122.1,223.7q1.32,1.88,2.45,3.7A285.06,285.06,0,0,0,128.25,177.15Z" fill="#cead8c"/><path d="M62.9,20.45a2.93,2.93,0,0,1,.65-.8,3.63,3.63,0,0,1,.35-.3c-.23-.37-.48-.75-.75-1.15q-3.34-4.5-8.25-4.4T48.2,16a8.7,8.7,0,0,0-2.1,5q-.3,2.89,3.15,7.4,2.4,3.2,3.55,3.2c.43-.63.9-1.25,1.4-1.85a13.5,13.5,0,0,1,1.35-1.95,6.35,6.35,0,0,1,.7-.85A5.18,5.18,0,0,1,57.4,25.9a55.29,55.29,0,0,1,3.9-4.1,55.29,55.29,0,0,0-3.9,4.1,43.47,43.47,0,0,0,5.5-5.45M151.1,13q-3.4-1.09-7.9,2c-3,2.07-4.67,3.67-4.9,4.8a.19.19,0,0,0,.1.05l.15.2.25.25a2.94,2.94,0,0,1,.4.45q3.45,3.42,4.3,4.35a8,8,0,0,0,1.8,2.5,8.92,8.92,0,0,0,1,.9c.6.73,1.17,1.48,1.7,2.25,1,.93,1.62,1.55,1.95,1.85s1.85-.72,4.55-2.85,4.12-4.3,4.25-6.4a9.33,9.33,0,0,0-2.05-6.2A11.07,11.07,0,0,0,151.1,13Z" fill="#22201f"/></g><path id="MEERCAT_0_Layer5_0_1_STROKES" data-name="MEERCAT 0 Layer5 0 1 STROKES" d="M138.3,19.75c.23-1.13,1.87-2.73,4.9-4.8s5.63-2.73,7.9-2a11.07,11.07,0,0,1,5.65,4.15,9.33,9.33,0,0,1,2.05,6.2q-.2,3.15-4.25,6.4T150,32.55c-.33-.3-1-.92-1.95-1.85.53.73,1,1.47,1.55,2.2q4.8,7.1,5.45,11.8,1.3,9.6-1.6,16.75-3.19,7.85-11.7,13.3a70.78,70.78,0,0,1-34.5,10.7q11.6,26.25,16.25,49.4a231,231,0,0,1,4.75,42.3q16,34,19,64.28t-11.2,40.67a18.63,18.63,0,0,1-4.45-10.4,108.44,108.44,0,0,1-.4-13.35,107.11,107.11,0,0,0-.65-15.5,40.47,40.47,0,0,0-6-15.45l-.45,2.6a75.59,75.59,0,0,1,1.6,22.7,73.68,73.68,0,0,1-1.45,10.85q3.6,6.79,2.43,21.93t-2.63,25.22q-1.55,10.76-3.75,24.4-7.24,44.89-8.6,53.75-4,26.7-6.62,50.07Q161,474.2,211,466.7q-2.7,9-16.25,10.9-12.25,1.8-30-1.45a172.67,172.67,0,0,1-33.5-9.65q-17-6.75-26.8-15.8,0,7,5.15,15.6,2.5,4.09,9.85,14.2,5.7,7.8,6.7,10.75,1.4,4.25-3.75,4.25-23.65,0-36-16.8-12-16.31-10.75-44.45-15-18.11-10.4-42.15-14,1.39-16.75,22.55a104.74,104.74,0,0,0-.6,18q.35,11.55.35,11.8-2.85,32.21-20,46.65-6.94,5.81-13.95,6.35-6.79.5-10.8-4.25-2.85-3.34.1-7a98.86,98.86,0,0,0,8-8.6q12.4-15.71,3.1-46.65-2.06-36,19.75-150.75,3.95-20.89,19.4-98.8,12.11-60.79,20.75-98.6a88.61,88.61,0,0,1-13.75-4.2Q44.4,72,44.4,52.7q0-7.5,5.45-16.65Q51.2,33.8,52.8,31.6q-1.15,0-3.55-3.2Q45.8,23.9,46.1,21a8.7,8.7,0,0,1,2.1-5q1.8-2.1,6.7-2.2t8.25,4.4c.27.4.52.78.75,1.15A78.39,78.39,0,0,1,81.55,7.05Q91.5,2,99.75,2q18.94,0,37.5,16.8l1.05.95.1.08.18.19.22.23a5.58,5.58,0,0,1,.43.45q3.42,3.42,4.27,4.35a8,8,0,0,0,1.8,2.5,8.92,8.92,0,0,0,1,.9c.6.73,1.17,1.48,1.7,2.25m-8.82-10c.38.42.36.59,0,.53a2.13,2.13,0,0,0,.17.25c.7.44.73.48.1.12a.44.44,0,0,1-.1-.12l-.4-.23,0,0a1.13,1.13,0,0,1-.18-.12l.13,0-.63-1.42.28.27m.22,1.13a1,1,0,0,1,.15.1l0-.08.25.06c-.21-.31-.5-.8-.88-1.48m-31.05,65.7q-3.3.19-6.65.15a137.08,137.08,0,0,1-26.15-2.85M63.9,19.35l.3.6m-.5.15a1,1,0,0,1-.25.25M57.4,25.9a43.47,43.47,0,0,0,5.5-5.45,2.93,2.93,0,0,1,.65-.8,3.63,3.63,0,0,1,.35-.3l-1,1.1M52.8,31.6c.43-.63.9-1.25,1.4-1.85a13.5,13.5,0,0,1,1.35-1.95,6.35,6.35,0,0,1,.7-.85A5.18,5.18,0,0,1,57.4,25.9a55.29,55.29,0,0,1,3.9-4.1m-7.1,8c.63-.87,1.32-1.72,2-2.55.37-.43.75-.87,1.15-1.3m-3.2,3.85a11.8,11.8,0,0,0-.7,1.3.89.89,0,0,1-.7.55M83.3,168.1q-3.15,17.66-.4,24.7a17.89,17.89,0,0,0,6.85,8.35q2.3-68.6,33.75-66.3m-1.4,88.88a34.87,34.87,0,0,1,1.25,3.57q.41,1.35.75,2.7m-2-6.27q1.32,1.85,2.45,3.67a285.06,285.06,0,0,0,3.7-50.25m-38.5,24a29.44,29.44,0,0,0,5,2.7l8,3a52.15,52.15,0,0,1,8.15,3.7,26.47,26.47,0,0,1,11.15,13.18m-37.95,2.82a84.37,84.37,0,0,1,12.15,5q5.55,3,6.1,15.7.19,4.24-.1,21.5.8,15.9,7.6,19.95,5.68,2.44,9-8.35t5.37-16.85M66.5,211.35a19,19,0,0,0,11.2,12.9,66.49,66.49,0,0,0,6.45,2.3q-12.65,90.1,39.9,84.15m-19,128.22a111.05,111.05,0,0,0-.73,11.78m-39.2-58.6q10.2,4.95,10.6,20.45.1,3.19-.15,15.55,0,3.25,0,6.15" fill="none" stroke="#000" stroke-linecap="round" stroke-linejoin="round" stroke-width="4"/><g id="MEERCAT_0_Layer4_0_FILL" data-name="MEERCAT 0 Layer4 0 FILL"><path d="M24.75,337.3l-2.2,16.85q17.14,4.05,27.3-7.5l-25.1-9.35m8-38.35-4.4,17.6q9.65,5.65,24.1-6L32.8,299m6.3-32.55L36,282.25q13.91,2.29,24.5-9.95l-21.4-5.9m24.1-22.1-20.05-8.7L41.2,250.5Q50.65,253.76,63.2,244.3Z" fill="#22201f"/></g><path id="MEERCAT_0_Layer4_0_1_STROKES" data-name="MEERCAT 0 Layer4 0 1 STROKES" d="M114.6,276.3l1.25,6.2m-6.95-9,1,15.25m32-21-5.9,14.35,1.25-17m-4.8-9.75,15.05,1M103.7,266.75l18.9,2.5M43.15,235.6l20.05,8.7q-12.56,9.45-22,6.2ZM36,282.25q13.91,2.29,24.5-9.95l-21.4-5.9ZM32.8,299l19.7,11.6q-14.45,11.65-24.1,6Zm-10.25,55.2q17.14,4.05,27.3-7.5l-25.1-9.35Zm154,113.1,3.8,9.6m20.25-8.45,1.25,6.2m-9.45-5.3,6.35,5.95m-15.4-6.1,3.05,7.5m1.8-5.85,5.3,5.75m-86.8,6.85,9.65,11.35m-111-1.35,9.5-10.9m-1.8,13.9,8.75-12.95m92-.15,10.5,12.5" fill="none" stroke="#000" stroke-linecap="round" stroke-linejoin="round" stroke-width="4"/><g id="MEERCAT_0_Layer3_0_FILL" data-name="MEERCAT 0 Layer3 0 FILL"><path d="M103.2,52a2.17,2.17,0,0,0-1.1-1.8,5.06,5.06,0,0,0-5.3,0,2,2,0,0,0,0,3.6,5.06,5.06,0,0,0,5.3,0A2.17,2.17,0,0,0,103.2,52Z"/></g><path id="MEERCAT_0_Layer3_0_1_STROKES" data-name="MEERCAT 0 Layer3 0 1 STROKES" d="M136.5,46.75l23.9-5M98.9,64.05l.9-6.95m3.4-5.1a2.17,2.17,0,0,1-1.1,1.8,5.06,5.06,0,0,1-5.3,0,2,2,0,0,1,0-3.6,5.06,5.06,0,0,1,5.3,0A2.17,2.17,0,0,1,103.2,52Zm29.85,13.5,22.2,8M66.8,46.75l-24.2-8.2M67.85,62,44,74.05m20.65-18.5L39.5,54.25m41.1,2.3q20.75,17.7,38.4,0m16.5-1.85,26.65,4.5" fill="none" stroke="#000" stroke-linecap="round" stroke-linejoin="round" stroke-width="4"/><g id="MEERCAT_0_Layer2_0_FILL" data-name="MEERCAT 0 Layer2 0 FILL"><path d="M119.25,30.65a9.41,9.41,0,0,0-6.7-2.6,9.59,9.59,0,0,0-6.75,2.6,8.58,8.58,0,0,0-2.75,6.4,8.41,8.41,0,0,0,2.75,6.35,9.46,9.46,0,0,0,6.75,2.65,9.28,9.28,0,0,0,6.7-2.65,8.32,8.32,0,0,0,2.8-6.35,8.49,8.49,0,0,0-2.8-6.4M98.2,43.4a8.27,8.27,0,0,0,2.85-6.35,8.43,8.43,0,0,0-2.85-6.4,10.46,10.46,0,0,0-13.8,0,8.43,8.43,0,0,0-2.85,6.4A8.27,8.27,0,0,0,84.4,43.4a10.31,10.31,0,0,0,13.8,0Z" fill="#fff"/></g><path id="MEERCAT_0_Layer2_0_1_STROKES" data-name="MEERCAT 0 Layer2 0 1 STROKES" d="M101.05,37.05A8.27,8.27,0,0,1,98.2,43.4a10.31,10.31,0,0,1-13.8,0,8.27,8.27,0,0,1-2.85-6.35,8.43,8.43,0,0,1,2.85-6.4,10.46,10.46,0,0,1,13.8,0A8.43,8.43,0,0,1,101.05,37.05Zm21,0a8.32,8.32,0,0,1-2.8,6.35,9.28,9.28,0,0,1-6.7,2.65,9.46,9.46,0,0,1-6.75-2.65,8.41,8.41,0,0,1-2.75-6.35,8.58,8.58,0,0,1,2.75-6.4,9.59,9.59,0,0,1,6.75-2.6,9.41,9.41,0,0,1,6.7,2.6A8.49,8.49,0,0,1,122.05,37.05Z" fill="none" stroke="#000" stroke-linecap="round" stroke-linejoin="round" stroke-width="4"/><g id="MEERCAT_0_Layer1_0_FILL" data-name="MEERCAT 0 Layer1 0 FILL"><path d="M112.55,36.8a1.24,1.24,0,0,0-.4-.9,1.17,1.17,0,0,0-.85-.35,1.2,1.2,0,0,0-1.25,1.25,1.17,1.17,0,0,0,.35.85,1.24,1.24,0,0,0,.9.4,1.39,1.39,0,0,0,1.25-1.25m-19,.35a1,1,0,0,0,.45-.85,1.2,1.2,0,0,0-.45-.9,1.75,1.75,0,0,0-2.1,0,1.2,1.2,0,0,0-.45.9,1,1,0,0,0,.45.85,1.58,1.58,0,0,0,2.1,0Z"/></g><path id="MEERCAT_0_Layer1_0_1_STROKES" data-name="MEERCAT 0 Layer1 0 1 STROKES" d="M94.05,36.3a1,1,0,0,1-.45.85,1.58,1.58,0,0,1-2.1,0,1,1,0,0,1-.45-.85,1.2,1.2,0,0,1,.45-.9,1.75,1.75,0,0,1,2.1,0A1.2,1.2,0,0,1,94.05,36.3Zm18.5.5a1.39,1.39,0,0,1-1.25,1.25,1.24,1.24,0,0,1-.9-.4,1.17,1.17,0,0,1-.35-.85,1.2,1.2,0,0,1,1.25-1.25,1.17,1.17,0,0,1,.85.35A1.24,1.24,0,0,1,112.55,36.8Z" fill="none" stroke="#000" stroke-linecap="round" stroke-linejoin="round" stroke-width="2.5"/><path id="MEERCAT_0_Layer0_0_1_STROKES" data-name="MEERCAT 0 Layer0 0 1 STROKES" d="M104.55,20.55q7.94-5.6,14,.5m-36,0q7.24-6.15,14,0" fill="none" stroke="#000" stroke-linecap="round" stroke-linejoin="round" stroke-width="4"/></svg>