<svg id="Layer_1" data-name="Layer 1" xmlns="http://www.w3.org/2000/svg" viewBox="0 0 299.44 81.73"><g id="HS_CAP_01_0_Layer1_0_FILL" data-name="HS CAP 01 0 Layer1 0 FILL"><path d="M236.72,31.71Q192-3.45,134.46,4.46T41.35,43.55a99.79,99.79,0,0,0-15,16.52l237.5,3.46L26.35,60.07A92.05,92.05,0,0,0,15.69,78.82l258.18,2.35Q263,52.38,236.72,31.71Z" fill="#6f3"/></g><path id="HS_CAP_01_0_Layer1_0_1_STROKES" data-name="HS CAP 01 0 Layer1 0 1 STROKES" d="M15.69,78.82A92.05,92.05,0,0,1,26.35,60.07a99.79,99.79,0,0,1,15-16.52Q76.87,12.31,134.46,4.46T236.72,31.71Q263,52.4,273.87,81.17L15.69,78.82a2.33,2.33,0,0,0-.12.3M26.35,60.07l237.5,3.46" fill="none" stroke="#000" stroke-linecap="round" stroke-linejoin="round" stroke-width="4"/><path id="HS_CAP_01_0_Layer0_0_1_STROKES" data-name="HS CAP 01 0 Layer0 0 1 STROKES" d="M198.22,28.37q22.5,6.09,31.64,21.09M112.67,27.2q-28.73,0-48,23.44" fill="none" stroke="#000" stroke-linecap="round" stroke-linejoin="round" stroke-width="4"/></svg>