<svg id="Layer_1" data-name="Layer 1" xmlns="http://www.w3.org/2000/svg" viewBox="0 0 299.44 81.73"><g id="HS_CAP_02_0_Layer1_0_FILL" data-name="HS CAP 02 0 Layer1 0 FILL"><path d="M46.76,53.28Q42,59,36.25,70.07L31.49,80l219.89.07a155.34,155.34,0,0,0-10.89-25.35Z" fill="#f90"/><path d="M211.88,25.19Q189.88,4,149.51,3.06T82.7,21.76Q56.29,41.43,46.76,53.28l193.73,1.44Q233.82,46.36,211.88,25.19Z" fill="#fc3"/></g><path id="HS_CAP_02_0_Layer1_0_1_STROKES" data-name="HS CAP 02 0 Layer1 0 1 STROKES" d="M46.76,53.28Q56.27,41.43,82.7,21.76t66.81-18.7q40.37,1,62.37,22.13t28.61,29.53a155.34,155.34,0,0,1,10.89,25.35L31.49,80l4.76-9.93Q42,59,46.76,53.28l193.73,1.44" fill="none" stroke="#000" stroke-linecap="round" stroke-linejoin="round" stroke-width="4"/><g id="HS_CAP_02_0_Layer0_0_FILL" data-name="HS CAP 02 0 Layer0 0 FILL"><path d="M31.33,73.77,45.94,51.71,30,32.66,9.88,47.12,31.33,73.77M243.77,57.39l9.36,22.27,27.25-17.81L267.14,40.13Z" fill="#f90"/></g><path id="HS_CAP_02_0_Layer0_0_1_STROKES" data-name="HS CAP 02 0 Layer0 0 1 STROKES" d="M243.77,57.39l23.37-17.26,13.24,21.72L253.13,79.66ZM30,32.66l16,19.05L31.33,73.77,9.88,47.12Z" fill="none" stroke="#000" stroke-linecap="round" stroke-linejoin="round" stroke-width="4"/></svg>