<svg id="Layer_1" data-name="Layer 1" xmlns="http://www.w3.org/2000/svg" viewBox="0 0 486.94 433.95"><g id="MAMMOTH_LAUGHTER_0_Layer1_0_FILL" data-name="MAMMOTH LAUGHTER 0 Layer1 0 FILL"><path d="M250.84,253.2a62.15,62.15,0,0,1-7.61-13,45.9,45.9,0,0,1-9.14,14.55,49.84,49.84,0,0,0,16.75-1.55M73.54,274.1l-.21.15q-.12.75.21-.15M34.08,211.55q-3.09-6.11-6.85-7.25a43.44,43.44,0,0,0-13.64,4.35,24.39,24.39,0,0,0-5.21,4.6q-4.89,5.81-6.79,16.9t2.59,16.3q4.5,5.2,12,4.65,9.15-2.4,13.15-6.85Q35,238,36.08,227.8t-2-16.25m-7.1,6.6c.84.2,1.4,1.13,1.71,2.8a17.32,17.32,0,0,1,0,5.85,16.61,16.61,0,0,1-1.81,5.5c-.76,1.43-1.56,2.07-2.4,1.9s-1.41-1.1-1.75-2.8a17,17,0,0,1,.05-5.9,15.6,15.6,0,0,1,1.75-5.45c.81-1.4,1.62-2,2.45-1.9M12.88,222a15.17,15.17,0,0,1,1.1-2.5c.87-1.6,1.69-2.33,2.46-2.2s1.18,1,1.34,2.8a18.25,18.25,0,0,1,.06,2.4l-.11.7a20.66,20.66,0,0,1-.45,3.05v.05c-.06.27-.13.55-.19.85-.17.7-.36,1.35-.56,1.95-.1.27-.18.52-.25.75a15.71,15.71,0,0,1-1.1,2.25c-.89,1.6-1.71,2.33-2.45,2.2s-1.21-1-1.35-2.8a12.69,12.69,0,0,1,0-2.45,7.16,7.16,0,0,1,.05-.8,15.31,15.31,0,0,1,.25-1.95q.06-.5.15-.9v-.05a23,23,0,0,1,.85-3l.15-.35m56.3,18.5a80.09,80.09,0,0,0-10.65-20q-13.39-18.25-31.3-16.2,3.75,1.15,6.85,7.25t2,16.25Q35,238,29.34,244.25q-4,4.45-13.15,6.85,12.69,1.4,17,5,4.89,4.09,7.34,12.4,4.3,14.6,3.95,64.5-.15,34.61,11.21,59.8,7.79,17.4,18.79,26.45,14.4,11.85,31,13.45,16.35,1.6,32.91-6.95,16.8-8.75,32-27,14.55-17.44,27.59-49.15,2.74-6.69,8.8-23.9Q212.06,310.44,220,287a111.93,111.93,0,0,1-36.85-10.65A128.11,128.11,0,0,1,167,267.2q-.31,5.21-.7,10.05c0,.16,0,.31-.05.45q-.58,6.85-1.31,12.95A106.74,106.74,0,0,1,195,306a106.74,106.74,0,0,0-30-15.35q-4.89,40.61-17.6,66.45Q129.79,392.85,103,386.3q-5.25-1.31-9.61-6.9a64.12,64.12,0,0,1-6.79-11.85q-6-12.75-9.46-44.85-.95-8.25-1.6-15.7-9.54,9.75-13.1,9.5,3.56.25,13.1-9.5-1.77-19-2-32.9-.33.9-.21.15L59,284l14.35-9.75.21-.15c0-1-.06-2-.06-3q-.2-19.45-4.3-30.65m-9.2-10q-3.54.6-9,10.5,5.46-9.9,9-10.5M55.48,218l-10,15,10-15M57,268l12-7.5L57,268m4,25.5,10.5-7-10.5,7m-6-39q7.07-8.44,12.5-9-5.45.56-12.5,9m5.5,51,11-7.5-11,7.5m3.5,24,10.5-8-10.5,8m2.5,12.5L78,332l-11.5,10M70,356.5a17.55,17.55,0,0,1,10-9,17.55,17.55,0,0,0-10,9M88,376l-7,8.5,7-8.5m41.5,7a23.69,23.69,0,0,1,9.5,11,23.69,23.69,0,0,0-9.5-11M147,361.5A43.76,43.76,0,0,1,160,375a43.76,43.76,0,0,0-13-13.5m-6.5,11,10.5,13-10.5-13m-66-4q2.31-5,8.5-8-6.2,3-8.5,8m94.5-63,14.5,8.5L169,305.5m0-24a86.54,86.54,0,0,1,33.5,17,86.54,86.54,0,0,0-33.5-17m-8.5,38.5L180,330l-19.5-10M153,346.5l17,16-17-16m5.5-12,18,12.5-18-12.5m-39.5,54,8,11-8-11m-10,1,5,11.5-5-11.5m-7-2-2,16,2-16m-8.5-2.5L89,397l4.5-12m73.86-230.85A19.16,19.16,0,0,0,171,161.5l9-10-9,10a30.39,30.39,0,0,0,10,8.05,378.14,378.14,0,0,1,14.9-54.7q-32.79,22.25-28.54,39.3L178,142.5l-10.64,11.65m192.85,23.3a46.6,46.6,0,0,1-8.91-3.2q4.35,16.5,3.25,29.1a51.75,51.75,0,0,1-7.75,23.3,93.33,93.33,0,0,1-14.15,17.8A68.77,68.77,0,0,1,312.48,258a79.34,79.34,0,0,1-20,5.9,127,127,0,0,1-13.25,9,69.1,69.1,0,0,1-34.6,12.9q-3.59.61-7.25.95A116.26,116.26,0,0,1,220,287q-7.92,23.49-13.25,38.75h270l9.16-91.7-25.5-5q-24.4-41.55-75.25-58.65a58.8,58.8,0,0,1-9.06,4.45q-10,4-15.94,2.65m76.75,36.05q-4.21,7-6.5,29.5,2.3-22.5,6.5-29.5m-3,39q-3.9,10.69-2,37-1.9-26.29,2-37m19-13q-4.21,11.15-6.5,37.5,2.3-26.35,6.5-37.5m-117,34q-4.45,17.14-3,22.5-1.45-5.36,3-22.5m15-19.5q-4.45,23.14-5,62,.54-38.85,5-62m17.5,17.5,1,41.5-1-41.5m28-61.5q-7.45,41.66-5.5,96.5-2-54.85,5.5-96.5m19,0a336.6,336.6,0,0,0-8,89.5,336.6,336.6,0,0,1,8-89.5m-41.5-28q-11.71,33.25-5,77.5-6.7-44.25,5-77.5m8.5,9.5q-4.76,19.09,0,42-4.76-22.91,0-42m-65.21,91.6q-.39,15.4,12.21,32.4-12.6-17-12.21-32.4t16.21-31.6q-15.85,16.15-16.21,31.6m18.55-197q-3.6-15-6.9-26.2a54.8,54.8,0,0,0-12.29-21.3q-9.06-10-21.61-8,7.15-15.1,8.5-23.5L285,22.15A49.69,49.69,0,0,0,277.48,1a30.68,30.68,0,0,0-6,20.5q-7.14-6-21-12.5-.34,3.56,7,18.65-6.89-5.59-20.3-8.15,1.31,6.6,11.61,18-33.16,22.65-52.91,77.35a378.14,378.14,0,0,0-14.9,54.7q-5.19,25.75-8.89,58,3.61,3,7.54,5.75a122.67,122.67,0,0,0,35.46,17.85,82.85,82.85,0,0,0,19,3.55,45.9,45.9,0,0,0,9.14-14.55c-.3-.77-.55-1.5-.75-2.2a44.23,44.23,0,0,1,1.2-28.05q4.06-11.1,11.11-17.85Q267.58,180,291.48,174q-23.89,6-36.69,18.1-7.06,6.75-11.11,17.85a44.23,44.23,0,0,0-1.2,28.05c.2.7.45,1.43.75,2.2a62.15,62.15,0,0,0,7.61,13A11.88,11.88,0,0,1,254,255q10.16,9,26.8,9.55a66.33,66.33,0,0,0,11.75-.65,79.34,79.34,0,0,0,20-5.9,68.77,68.77,0,0,0,20.15-13.55,93.33,93.33,0,0,0,14.15-17.8,51.75,51.75,0,0,0,7.75-23.3q1.11-12.6-3.25-29.1a82.44,82.44,0,0,1-8.44-4.75Q330,161.3,329.48,152q.51,9.3,13.36,17.5a82.44,82.44,0,0,0,8.44,4.75,46.6,46.6,0,0,0,8.91,3.2q5.94,1.4,15.94-2.65a58.8,58.8,0,0,0,9.06-4.45,38.4,38.4,0,0,0,6.29-4.85q8.72-8.3,9.55-18.6.9-10.5-6.55-20.9-4.78-6.7-18-12.35-14.89-5.55-20.55-8.3-17-8.14-20.2-19.3m33.7,50.45,19,11.5-19-11.5M373,128l21,13-21-13m-9.5,16.5,19,13-19-13m-8,8,17.5,13-17.5-13M337,144a76.26,76.26,0,0,0,22.5,24.5A76.26,76.26,0,0,1,337,144m-6,35,.5,49.5L331,179M285,48.5l.5,44-.5-44M274.48,44l-6,44.5,6-44.5m-11,4.5-13,44,13-44M263,160l-1.5,18,1.5-18m45-1.5L305,171l3-12.5m-11.5-3-4.5,13,4.5-13m-11.5,0-1.5,14,1.5-14M299.48,47q4.75,34.35,1,77.5,3.75-43.15-1-77.5m12,12q5,37.69,0,67.5,5-29.81,0-67.5m-58-8.5-14,32,14-32M235,166a181.43,181.43,0,0,0-8,69,181.43,181.43,0,0,1,8-69m14.5-2.5q-7.09,15.34-5.5,37-1.59-21.65,5.5-37m51,26-2,54,2-54m9.5,7-1.5,27.5,1.5-27.5m9-18.5-1,59.5,1-59.5m-38,12-4.5,58,4.5-58m8.5-1.5-2,64.5,2-64.5M209,150q-20.94,32.15-19.5,78.5Q188,182.15,209,150m4,13.5q-16.24,25.25-11,70-5.25-44.74,11-70m13,.5q-13.44,25.75-9.5,65-3.94-39.25,9.5-65m98-86.5q3,28.75-2,51.5Q327,106.25,324,77.5Z" fill="#7d3c23"/><path d="M279.28,272.9a101.17,101.17,0,0,1-34.6,12.9,69.1,69.1,0,0,0,34.6-12.9M137.09,175.45Q127,140.55,139,103.8T183,44Q140.7,58.75,121,88.05q-16.29,24.15-16.44,57-.11,25.45,9.19,53,7,20.7,14.75,31.95A138.09,138.09,0,0,0,148,252.15a155,155,0,0,0,19,15,128.11,128.11,0,0,0,16.09,9.1A111.93,111.93,0,0,0,220,287a116.26,116.26,0,0,0,17.45-.2q3.66-.33,7.25-.95a101.17,101.17,0,0,0,34.6-12.9,127,127,0,0,0,13.25-9,66.33,66.33,0,0,1-11.75.65q-16.65-.49-26.8-9.55a11.88,11.88,0,0,0-3.14-1.8,49.84,49.84,0,0,1-16.75,1.55,82.85,82.85,0,0,1-19-3.55,122.67,122.67,0,0,1-35.46-17.85q-3.93-2.79-7.54-5.75-26.13-21.48-35-52.15M123,116.5l-1,9,1-9m-3-1.5-1,8,1-8m5.5,83.5q5,13,10,16.5-5-3.5-10-16.5m125.5,66,11,2.5-11-2.5M80.93,43.55q-26.64,6-45,21.5A92.29,92.29,0,0,0,10.13,101.1a120.56,120.56,0,0,0-8.6,44.75A151,151,0,0,0,8.68,193q1.35,4.35,4.91,15.7a38.34,38.34,0,0,1,8-3.65,14.24,14.24,0,0,1,5.6-.7q17.91-2.06,31.3,16.2a80.09,80.09,0,0,1,10.65,20q4.11,11.2,4.3,30.65c0,1,0,2,.06,3q21.36,9.69,40.54,11.55a116.62,116.62,0,0,0,26.21-.7q16.8-2.29,26-7.25c0-.14,0-.29.05-.45q.39-4.85.7-10.05a155,155,0,0,1-19-15q-39.48,3-70.15-18.7a111.3,111.3,0,0,1-42.5-57.35q-11.87-35.74-1.25-70.35,11.49-37.69,46.79-62.2M16,134.5l-.5,9.5.5-9.5m81,127,8.5,4.5L97,261.5m4.5-1.5,6,3.5-6-3.5m31,12.5L142,274Z" fill="#fffde1"/><path d="M11.43,229.05a12.69,12.69,0,0,0,0,2.45c.14,1.77.59,2.7,1.35,2.8s1.56-.6,2.45-2.2a15.71,15.71,0,0,0,1.1-2.25,19.79,19.79,0,0,1-1.05,2c-.86,1.53-1.66,2.23-2.39,2.1s-1.24-1-1.41-2.7a12.86,12.86,0,0,1,0-2.15m2.5-9.2a20.59,20.59,0,0,0-1,2.15l-.15.35a23,23,0,0,0-.85,3v.05q-.09.4-.15.9a15.31,15.31,0,0,0-.25,1.95,7.16,7.16,0,0,0-.05.8,12.86,12.86,0,0,0,0,2.15q.25,2.55,1.41,2.7c.73.13,1.53-.57,2.39-2.1a19.79,19.79,0,0,0,1.05-2c.07-.23.15-.48.25-.75.2-.6.39-1.25.56-1.95.06-.3.13-.58.19-.85v-.05a20.66,20.66,0,0,0,.45-3.05l.11-.7a18.66,18.66,0,0,0-.11-2.05c-.19-1.63-.66-2.52-1.39-2.65s-1.57.58-2.41,2m.05-.35a15.17,15.17,0,0,0-1.1,2.5,20.59,20.59,0,0,1,1-2.15c.84-1.47,1.64-2.15,2.41-2s1.2,1,1.39,2.65a18.66,18.66,0,0,1,.11,2.05,18.25,18.25,0,0,0-.06-2.4c-.16-1.77-.61-2.7-1.34-2.8s-1.59.6-2.46,2.2M28.69,221c-.31-1.67-.87-2.6-1.71-2.8s-1.64.5-2.45,1.9a15.6,15.6,0,0,0-1.75,5.45,17,17,0,0,0-.05,5.9c.34,1.7.92,2.63,1.75,2.8s1.64-.47,2.4-1.9a16.61,16.61,0,0,0,1.81-5.5A17.32,17.32,0,0,0,28.69,221Z"/></g><path id="MAMMOTH_LAUGHTER_0_Layer1_0_1_STROKES" data-name="MAMMOTH LAUGHTER 0 Layer1 0 1 STROKES" d="M385.19,170.35a38.4,38.4,0,0,0,6.29-4.85q8.72-8.3,9.55-18.6.9-10.5-6.55-20.9-4.78-6.7-18-12.35-14.89-5.55-20.55-8.3-17-8.14-20.2-19.3-3.6-15-6.9-26.2a54.8,54.8,0,0,0-12.29-21.3q-9.06-10-21.61-8,7.15-15.1,8.5-23.5L285,22.15A49.69,49.69,0,0,0,277.48,1a30.68,30.68,0,0,0-6,20.5q-7.14-6-21-12.5-.34,3.56,7,18.65-6.89-5.59-20.3-8.15,1.31,6.6,11.61,18-33.16,22.65-52.91,77.35a378.14,378.14,0,0,0-14.9,54.7q-5.19,25.75-8.89,58,3.61,3,7.54,5.75a122.67,122.67,0,0,0,35.46,17.85,82.85,82.85,0,0,0,19,3.55,45.9,45.9,0,0,0,9.14-14.55c-.3-.77-.55-1.5-.75-2.2a44.23,44.23,0,0,1,1.2-28.05q4.06-11.1,11.11-17.85Q267.58,180,291.48,174m78-37.5,19,11.5M373,128l21,13M292.53,263.9a79.34,79.34,0,0,0,20-5.9,68.77,68.77,0,0,0,20.15-13.55,93.33,93.33,0,0,0,14.15-17.8,51.75,51.75,0,0,0,7.75-23.3q1.11-12.6-3.25-29.1a82.44,82.44,0,0,1-8.44-4.75Q330,161.3,329.48,152m55.71,18.35a58.8,58.8,0,0,1-9.06,4.45q-10,4-15.94,2.65a46.6,46.6,0,0,1-8.91-3.2m12.2-29.75,19,13m-27-5,17.5,13M337,144a76.26,76.26,0,0,0,22.5,24.5m25.71,1.85Q436,187.45,460.44,229l25.5,5-9.16,91.7h-270q-6.06,17.22-8.8,23.9-13.05,31.69-27.59,49.15-15.21,18.25-32,27-16.56,8.55-32.91,6.95-16.55-1.6-30.95-13.45-11-9-18.79-26.45Q44.33,367.6,44.48,333q.36-49.9-3.95-64.5-2.45-8.29-7.34-12.4-4.3-3.6-17-5-7.52.56-12-4.65t-2.59-16.3q1.89-11.1,6.79-16.9a24.39,24.39,0,0,1,5.21-4.6Q10,197.3,8.68,193a151,151,0,0,1-7.15-47.1,120.56,120.56,0,0,1,8.6-44.75A92.29,92.29,0,0,1,36,65.05q18.32-15.55,45-21.5Q45.63,68,34.14,105.75q-10.62,34.6,1.25,70.35a111.44,111.44,0,0,0,42.52,57.38q30.65,21.61,70.13,18.67A138.09,138.09,0,0,1,128.48,230q-7.74-11.25-14.75-31.95-9.3-27.56-9.19-53,.15-32.85,16.44-57,19.71-29.29,62-44-32,23.05-44,59.8t-1.89,71.65q8.86,30.68,35,52.15m264.85-14.1q-4.21,7-6.5,29.5m3.5,9.5q-3.9,10.69-2,37m21-50q-4.21,11.15-6.5,37.5m-110.5-3.5q-4.45,17.14-3,22.5m18-42q-4.45,23.14-5,62m22.5-44.5,1,41.5m27-103q-7.45,41.66-5.5,96.5m24.5-96.5a336.6,336.6,0,0,0-8,89.5M331,179l.5,49.5M373.94,182q-11.71,33.25-5,77.5m13.5-68q-4.76,19.09,0,42M285,48.5l.5,44m-11-48.5-6,44.5m-5-40-13,44m-83.14,61.65A19.16,19.16,0,0,0,171,161.5l9-10m-9,10a30.39,30.39,0,0,0,10,8.05m-3-27.05-10.64,11.65q-4.26-17.06,28.54-39.3M263,160l-1.5,18M308,158.5,305,171m-8.5-15.5-4.5,13m-7-13-1.5,14m16-122.5q4.75,34.35,1,77.5m11-65.5q5,37.69,0,67.5m-58-76-14,32M16,134.5l-.5,9.5M123,116.5l-1,9M120,115l-1,8m6.5,75.5q5,13,10,16.5M97,261.5l8.5,4.5m-4-6,6,3.5m25,9L142,274m-68.44.1q21.36,9.69,40.54,11.55a116.62,116.62,0,0,0,26.21-.7q16.8-2.29,26-7.22c0-.16,0-.32.05-.48q.39-4.85.7-10.05a155,155,0,0,1-19-15M60,230.5q-3.54.6-9,10.5M27.23,204.3q17.91-2.06,31.3,16.2a80.09,80.09,0,0,1,10.65,20q4.11,11.2,4.3,30.65c0,1,0,2,.06,3q.27,13.88,2,32.9.66,7.46,1.6,15.7,3.51,32.1,9.46,44.85a64.12,64.12,0,0,0,6.79,11.85q4.35,5.6,9.61,6.9,26.74,6.56,44.34-29.2,12.7-25.85,17.6-66.45.74-6.09,1.31-12.92M55.48,218l-10,15m-16.79-6.2a16.61,16.61,0,0,1-1.81,5.5c-.76,1.43-1.56,2.07-2.4,1.9s-1.41-1.1-1.75-2.8a17,17,0,0,1,.05-5.9,15.6,15.6,0,0,1,1.75-5.45c.81-1.4,1.62-2,2.45-1.9s1.4,1.13,1.71,2.8A17.32,17.32,0,0,1,28.69,226.8Zm-1.46-22.5q3.75,1.15,6.85,7.25t2,16.25Q35,238,29.34,244.25q-4,4.45-13.15,6.85m-2.6-42.45a38.34,38.34,0,0,1,8-3.65,14.24,14.24,0,0,1,5.6-.7A43.44,43.44,0,0,0,13.59,208.65Zm4.25,13.85-.11.7a20.66,20.66,0,0,1-.45,3.05v.05c-.06.27-.13.55-.19.85-.17.7-.36,1.35-.56,1.95-.1.27-.18.52-.25.75m-4.85-.8a7.16,7.16,0,0,1,.05-.8,15.31,15.31,0,0,1,.25-1.95q.06-.5.15-.9v-.05a23,23,0,0,1,.85-3l.15-.35a20.59,20.59,0,0,1,1-2.15c.84-1.47,1.64-2.15,2.41-2s1.2,1,1.39,2.65a18.66,18.66,0,0,1,.11,2.05m-1.56,7.35a19.79,19.79,0,0,1-1.05,2c-.86,1.53-1.66,2.23-2.39,2.1s-1.24-1-1.41-2.7a12.86,12.86,0,0,1,0-2.15M59,284l14.35-9.75.21-.15q-.33.9-.21.15M57,268l12-7.5m-8,33,10.5-7M55,254.5q7.07-8.44,12.5-9m-7,60,11-7.5M64,329.5l10.5-8m-8,20.5L78,332m-15.5-15.5q3.56.25,13.1-9.5M70,356.5a17.55,17.55,0,0,1,10-9M88,376l-7,8.5m48.5-1.5a23.69,23.69,0,0,1,9.5,11m8-32.5A43.76,43.76,0,0,1,160,375m-19.5-2.5,10.5,13m-76.5-17q2.31-5,8.5-8m161.7-74.7a101.17,101.17,0,0,0,34.6-12.9,127,127,0,0,0,13.25-9,66.33,66.33,0,0,1-11.75.65q-16.65-.49-26.8-9.55a11.88,11.88,0,0,0-3.14-1.8,49.84,49.84,0,0,1-16.75,1.55m45.19,18.15a69.1,69.1,0,0,1-34.6,12.9q-3.59.61-7.25.95A116.26,116.26,0,0,1,220,287q-7.92,23.49-13.25,38.75M251,264.5l11,2.5m-11.14-13.8a62.15,62.15,0,0,1-7.61-13M167,267.2a128.11,128.11,0,0,0,16.09,9.1A111.93,111.93,0,0,0,220,287M169,305.5l14.5,8.5M169,281.5a86.54,86.54,0,0,1,33.5,17M165,290.65A106.74,106.74,0,0,1,195,306m40-140a181.43,181.43,0,0,0-8,69m22.5-71.5q-7.09,15.34-5.5,37M160.48,320,180,330m-27,16.5,17,16m-11.5-28,18,12.5m124-157.5-2,54m11.5-47-1.5,27.5M319,178l-1,59.5M281,190l-4.5,58m13-59.5-2,64.5M209,150q-20.94,32.15-19.5,78.5m23.5-65q-16.24,25.25-11,70M226,164q-13.44,25.75-9.5,65M324,77.5q3,28.75-2,51.5M119,388.5l8,11m-18-10,5,11.5m-12-13.5-2,16M93.48,385,89,397M333.44,251.5q-15.85,16.15-16.21,31.6t12.21,32.4" fill="none" stroke="#000" stroke-linecap="round" stroke-linejoin="round" stroke-width="2"/><g id="MAMMOTH_LAUGHTER_0_Layer0_0_FILL" data-name="MAMMOTH LAUGHTER 0 Layer0 0 FILL"><path d="M297.38,269.35c-2.29.37-5.48.92-9.54,1.65-4.74.87-7.52,1.42-8.36,1.65l5,31.85a76.35,76.35,0,0,0,16.86-3.95l-.65.2-.5.2-2.81-31.6m14.4,26.35q5.46-3.45,5.66-7.95.54-12.15-4.75-16.35-4.71-3.75-15.31-2l2.81,31.6.5-.2a69.91,69.91,0,0,0,11.09-5.05m-32.3-23.05-.29.1A59.86,59.86,0,0,1,262,282.1v22.6a73.14,73.14,0,0,0,13.4.7c3.2-.2,6.24-.5,9.1-.9l-5-31.85M262,282.1a70.27,70.27,0,0,1-17.3,3.65q-2.25,10.31,6.45,15.45A24.29,24.29,0,0,0,262,304.7Z" fill="#fff"/></g><path id="MAMMOTH_LAUGHTER_0_Layer0_0_1_STROKES" data-name="MAMMOTH LAUGHTER 0 Layer0 0 1 STROKES" d="M240.48,115a17.06,17.06,0,0,0,1.9,10.75,9,9,0,0,0,6.05,4.65,6.26,6.26,0,0,0,6.3-2.3q2.81-3.19,2.75-9.35V118m17.5-4q1,6.15-1.45,10.35a8.83,8.83,0,0,1-6.15,4.4,7.47,7.47,0,0,1-6.75-2c-2-1.83-3-4.52-3.15-8m-24-18.75q11.81-8.75,23,1m7.5-.5q13.11-7.09,23.5,2.5M262,282.12a70.72,70.72,0,0,1-17.3,3.63q-2.25,10.31,6.45,15.45A24.29,24.29,0,0,0,262,304.7V282.12a60.16,60.16,0,0,0,17.21-9.37l.29-.1c.84-.23,3.62-.78,8.36-1.65,4.06-.73,7.25-1.28,9.54-1.65q10.61-1.69,15.31,2,5.3,4.2,4.75,16.35-.21,4.5-5.66,7.95a69.9,69.9,0,0,1-11.07,5.05l.63-.2a76.86,76.86,0,0,1-16.86,4c-2.86.39-5.9.68-9.1.88a73.14,73.14,0,0,1-13.4-.7m35.4-35.35,2.81,31.6.52-.2m-21.23-28.1,5,31.87" fill="none" stroke="#000" stroke-linecap="round" stroke-linejoin="round" stroke-width="2"/></svg>