<svg id="Layer_1" data-name="Layer 1" xmlns="http://www.w3.org/2000/svg" viewBox="0 0 285 162"><g id="HS_ANTENNA_01_0_Layer1_0_FILL" data-name="HS ANTENNA 01 0 Layer1 0 FILL"><path d="M10.45,79.44a23.14,23.14,0,0,0,6.8-4.7,16.89,16.89,0,0,0,3.55-5.4q1-2.64-1.9-4.7a9.47,9.47,0,0,0-5.9-1.9A13.12,13.12,0,0,0,6.65,65a9.37,9.37,0,0,0-4.3,5.75q-1,3.6,1.75,5.6a7.44,7.44,0,0,0,6.45,1.1q3.64-.84-.1,2M264.5,75.19a11.78,11.78,0,0,0,2.75,5,17.67,17.67,0,0,0,4.25,3.35c2.8,1.67,5.16,2.15,7.1,1.45q4-1.44,4.3-4.25a9.66,9.66,0,0,0-1.2-5.4,15.49,15.49,0,0,0-6.85-6.85,9.81,9.81,0,0,0-7.8-.6q-3.66,1.31-3,5.4A11.22,11.22,0,0,0,264.5,75.19Z" fill="#a1ccde"/></g><path id="HS_ANTENNA_01_0_Layer1_0_1_STROKES" data-name="HS ANTENNA 01 0 Layer1 0 1 STROKES" d="M264.5,75.19a11.22,11.22,0,0,1-.45-1.9q-.66-4.1,3-5.4a9.81,9.81,0,0,1,7.8.6,15.49,15.49,0,0,1,6.85,6.85,9.66,9.66,0,0,1,1.2,5.4q-.25,2.81-4.3,4.25c-1.94.7-4.3.22-7.1-1.45a17.67,17.67,0,0,1-4.25-3.35A11.78,11.78,0,0,1,264.5,75.19Zm4.3,9L206.57,162M10.45,79.44q3.75-2.79.1-2a7.44,7.44,0,0,1-6.45-1.1q-2.76-2-1.75-5.6A9.37,9.37,0,0,1,6.65,65,13.12,13.12,0,0,1,13,62.74a9.47,9.47,0,0,1,5.9,1.9q2.89,2.06,1.9,4.7a16.89,16.89,0,0,1-3.55,5.4,23.14,23.14,0,0,1-6.8,4.7C13.85,81.41,51,129,74.07,162" fill="none" stroke="#000" stroke-linecap="round" stroke-linejoin="round" stroke-width="4"/><path id="HS_ANTENNA_01_0_Layer0_0_1_STROKES" data-name="HS ANTENNA 01 0 Layer0 0 1 STROKES" d="M136.2,32.14q5.79,3.51,3.05,11.35t-11.6,13q4.65-2.49.1.2a43.5,43.5,0,0,0,19.75,6.6A34.28,34.28,0,0,0,165,60.54c.93-.43,1.81-.88,2.65-1.35q-13.2-19.2,4-25.55m-4,25.55a29,29,0,0,0,10.3-9.75,11.5,11.5,0,0,0,2-8q-.75-5.1-6.85-7.8m44,.5q-11.76-.24-13.85,9.1a27,27,0,0,0,2,17.75c.6-.33,1.2-.7,1.8-1.1Q216.4,53.74,219,49t2.65-7.5a8.9,8.9,0,0,0-.2-2.6,15,15,0,0,0-2.85-4.25M205.25,61q6.75,6.9,14.7,8.55a24.45,24.45,0,0,0,15.2-1.85q-6.75-7.74-3.7-16.2t10.65-7.85M167.6,59.19a55.25,55.25,0,0,0,19.6,5.75A29.11,29.11,0,0,0,205.25,61m29.9,6.7c.26-.13.51-.25.75-.35A21.6,21.6,0,0,0,247,55.59q3.09-7.85-2.9-11.45m-8.95,23.55Q252,79.9,264.5,75.19M13.1,79.09a108.6,108.6,0,0,0,21.6-7.4,87.6,87.6,0,0,0,16.4-9.8c.23-.16.46-.35.7-.55a17.34,17.34,0,0,1-2.95-12.8q.94-6.15,7.55-7.9M51.1,61.89c.63.4,1.28.79,1.95,1.15l-1.25-1.7q8.14-6.69,10-12.45,1.74-5.6-3.4-8.25M53.05,63q4.74,5.91,16,4.35a38.39,38.39,0,0,0,19.7-8.75,2.45,2.45,0,0,1,.5-.45q-3.9-10.24-2.55-16.7,1.39-6.75,8.4-7.85M89.25,58.19q8-6.94,10.5-13.4a11.41,11.41,0,0,0,.65-6.8,5,5,0,0,0-4.2-4.2m-7,24.4a39.72,39.72,0,0,0,18.9,4.2,36.1,36.1,0,0,0,18.15-4.8c.53-.33,1-.61,1.45-.85l-.1-.2Q121.24,46,125.1,38t10.5-6.7" fill="none" stroke="#ff9" stroke-linecap="round" stroke-linejoin="round" stroke-width="4"/></svg>