<svg id="Layer_1" data-name="Layer 1" xmlns="http://www.w3.org/2000/svg" viewBox="0 0 198.19 181.55"><g id="SUNGLASSES_0_Layer0_0_FILL" data-name="SUNGLASSES 0 Layer0 0 FILL"><path d="M45.15,84.05,4.22,83.68q-3,17.94,3.84,30.39a30.62,30.62,0,0,0,18.24,15,34.06,34.06,0,0,0,23.47-1q12.56-5,20.8-17.57a31.91,31.91,0,0,0,17.2,18.21,36.63,36.63,0,0,0,24.45,2.19,35.06,35.06,0,0,0,21.13-14.22,40.15,40.15,0,0,0,5.21-10.29,58.22,58.22,0,0,0,2.65-21.46l-96.06-.85m58.61,9.68,14.18.18,9.26.12q-1.12,11.27-8.62,17.39a23.53,23.53,0,0,1-15,5.54h-.61a21.88,21.88,0,0,1-13-4.08,18.69,18.69,0,0,1-2.1-1.71q-6.87-6.3-7.52-17.75l23.45.31M51.11,93.3l10.36.12q-2.38,11-9.6,16.78a21.62,21.62,0,0,1-13,4.93c-.54,0-1.1,0-1.67,0A19.55,19.55,0,0,1,25.57,111a27,27,0,0,1-2-1.82Q17.44,103,17,92.81l23.45.34,10.65.15m143-31q-1.85-4-7.88-3.6L141.21,84.9a58.22,58.22,0,0,1-2.65,21.46l47.71-37.9q1.06,7.1,3.77,6.51c1.61-.32,2.94-1.94,4-4.84s1.14-5.61.12-7.82M80.92,61.76q2.07-5.2-.21-8.86T73,49.58L4.22,83.68l40.93.37L72.4,60.54q2.43,5.7,5.17,4.87Q79.7,64.78,80.92,61.76Z" fill="#f03"/><path d="M40.46,93.15,17,92.81q.43,10.23,6.52,16.39a27,27,0,0,0,2,1.82L40.46,93.15m21,.27L51.11,93.3,38.87,115.13a21.62,21.62,0,0,0,13-4.93q7.22-5.76,9.6-16.78M127.2,94l-9.26-.12-14.4,23a23.53,23.53,0,0,0,15-5.54q7.5-6.12,8.62-17.39m-23.44-.3-23.45-.31q.64,11.46,7.52,17.75a18.69,18.69,0,0,0,2.1,1.71Z" fill="#333"/><path d="M51.11,93.3l-10.65-.15L25.57,111a19.55,19.55,0,0,0,11.63,4.11c.57,0,1.13,0,1.67,0L51.11,93.3m66.83.61-14.18-.18L89.93,112.88a21.88,21.88,0,0,0,13,4.08h.61Z" fill="#fff"/></g><path id="SUNGLASSES_0_Layer0_0_1_STROKES" data-name="SUNGLASSES 0 Layer0 0 1 STROKES" d="M4.22,83.68,73,49.58q5.4-.46,7.71,3.32t.21,8.86q-1.22,3-3.35,3.65-2.75.82-5.17-4.87L45.15,84.05l96.06.85,45.06-26.19q6-.42,7.88,3.6,1.53,3.31-.12,7.82C193,73,191.65,74.65,190,75q-2.7.59-3.77-6.51l-47.71,37.9a40.15,40.15,0,0,1-5.21,10.29,35.06,35.06,0,0,1-21.13,14.22,36.63,36.63,0,0,1-24.45-2.19,31.91,31.91,0,0,1-17.2-18.21Q62.32,123.06,49.77,128a34.06,34.06,0,0,1-23.47,1,30.62,30.62,0,0,1-18.24-15Q1.21,101.61,4.22,83.68l40.93.37m58.61,9.68,14.18.18,9.26.12q-1.12,11.27-8.62,17.39a23.53,23.53,0,0,1-15,5.54h-.61a21.88,21.88,0,0,1-13-4.08,18.69,18.69,0,0,1-2.1-1.71q-6.87-6.3-7.52-17.75l23.45.31L89.93,112.88M51.11,93.3l10.36.12q-2.38,11-9.6,16.78a21.62,21.62,0,0,1-13,4.93c-.54,0-1.1,0-1.67,0A19.55,19.55,0,0,1,25.57,111a27,27,0,0,1-2-1.82Q17.44,103,17,92.81l23.45.34,10.65.15L38.87,115.13m79.07-21.22-14.4,23m35-10.6a58.22,58.22,0,0,0,2.65-21.46M40.46,93.15,25.57,111" fill="none" stroke="#000" stroke-linecap="round" stroke-linejoin="round" stroke-width="3"/></svg>