<svg id="Layer_1" data-name="Layer 1" xmlns="http://www.w3.org/2000/svg" viewBox="0 0 311.86 128.35"><g id="MOUSE_0_Layer4_0_FILL" data-name="MOUSE 0 Layer4 0 FILL"><path d="M72.55,92.55l-.75-.1q5.15,14.44-7.95,24a56.65,56.65,0,0,0-6.9,4.9c-1.17,1.26-.27,2.25,2.7,3Q73.49,120.49,78,114.1q3.3-4.75,3.55-20.25-4-.51-9-1.3m6.6-58.1Q83,10.64,74,5.1T55.65,4Q46.31,8.3,45.5,18T59.4,38.8q9-2.32,19.75-4.35M139.7,21.1c0-.35,0-.68-.1-1a22.94,22.94,0,0,0-4.9-11.65q-5.14-6.36-12.45-6.35T109.8,8.45a23.8,23.8,0,0,0-5.15,15.4,27.61,27.61,0,0,0,.75,6.55,22.68,22.68,0,0,0,4.4,8.8q5.15,6.39,12.45,6.4t12.45-6.4a23.62,23.62,0,0,0,5.15-15.35,24.4,24.4,0,0,0-.15-2.75m70.15,57.5c.67-1,1.3-2,1.9-3.1a57.29,57.29,0,0,0,2.95-6A44.8,44.8,0,0,0,216,37.55q-6.34-19.5-25.25-25.75-21.19-7-48.5,7.65L139.7,21.1a24.4,24.4,0,0,1,.15,2.75A23.62,23.62,0,0,1,134.7,39.2q-5.14,6.39-12.45,6.4T109.8,39.2a22.68,22.68,0,0,1-4.4-8.8q-14.22,1.83-26.25,4.05-10.77,2-19.75,4.35Q13.58,50.59,13.9,70.55,18.7,82,52,88.85q8,1.7,19.8,3.6l.75.1q5,.8,9,1.3c2.2.4,3.9.68,5.1.85l5.4.8q6.15,13.55-7,23.1a56.65,56.65,0,0,0-6.9,4.9c-1.17,1.26-.13,2.21,3.1,2.85q13.45-3.7,18-10.1,3.3-4.75,6-18.85c1.83.26,3.75.55,5.75.85q7.53,1,18.3,1.75a23.09,23.09,0,0,1-.45-17.75,32,32,0,0,1,12.8-16q10.4-7,24.9-7.6-14.5.64-24.9,7.6a32,32,0,0,0-12.8,16,23.09,23.09,0,0,0,.45,17.75,1.24,1.24,0,0,1,.1.2q4.16,9.15,15.25,13.7-14.85,1.5-14.2,11.8l37.45-11.25,2-9.35,1.9-9.35-1.9,9.35Q197.7,96.94,209.85,78.6Z" fill="#d4d4d4"/><path d="M309.8,12.4q.6-7.65-4.4-8.3-22.8,69.19-90.7,65.4a57.29,57.29,0,0,1-2.95,6c-.6,1.06-1.23,2.1-1.9,3.1q10.85,2.45,31.5-1.8,21.9-4.5,36.1-13.2,7.35-4.5,14.95-14.35a103.44,103.44,0,0,0,12-19.45Q309.26,19.39,309.8,12.4Z" fill="#efb5a3"/></g><path id="MOUSE_0_Layer4_0_1_STROKES" data-name="MOUSE 0 Layer4 0 1 STROKES" d="M209.85,78.6q10.85,2.45,31.5-1.8,21.9-4.5,36.1-13.2,7.35-4.5,14.95-14.35a103.44,103.44,0,0,0,12-19.45q4.9-10.41,5.45-17.4.6-7.65-4.4-8.3-22.8,69.19-90.7,65.4a57.29,57.29,0,0,1-2.95,6c-.6,1.06-1.23,2.1-1.9,3.1,1.17.43,1.63.63,1.4.6m-1.4-.6q-12.15,18.35-40,26.5l-2,9.35L130.4,125.7q-.65-10.31,14.2-11.8-11.1-4.56-15.25-13.7a1.24,1.24,0,0,0-.1-.2q-10.77-.7-18.3-1.75c-2-.3-3.92-.59-5.75-.85q-2.65,14.1-6,18.85-4.5,6.39-18,10.1c-3.23-.64-4.27-1.59-3.1-2.85a56.65,56.65,0,0,1,6.9-4.9q13.1-9.55,7-23.1l-5.4-.8c-1.2-.17-2.9-.45-5.1-.85q-.26,15.5-3.55,20.25-4.5,6.39-18.35,10.2c-3-.7-3.87-1.69-2.7-3a56.65,56.65,0,0,1,6.9-4.9q13.09-9.56,7.95-24Q60,90.55,52,88.85,18.7,82,13.9,70.55q-.32-20,45.5-31.75Q44.66,27.55,45.5,18T55.65,4Q65-.46,74,5.1t5.15,29.37q12-2.23,26.28-4.07a26.6,26.6,0,0,1-.78-6.55,23.8,23.8,0,0,1,5.15-15.4q5.15-6.36,12.45-6.35T134.7,8.45a22.94,22.94,0,0,1,4.9,11.65c.05.32.09.65.13,1l2.52-1.65q27.3-14.61,48.5-7.65Q209.65,18,216,37.55a44.8,44.8,0,0,1-1.3,32m-43,26.25-1.9,9.35m-30.07-84c.08.88.12,1.8.12,2.75A23.62,23.62,0,0,1,134.7,39.2q-5.14,6.39-12.45,6.4T109.8,39.2a22.21,22.21,0,0,1-4.37-8.8M166.5,58.7q-14.5.64-24.9,7.6a32,32,0,0,0-12.8,16,23.09,23.09,0,0,0,.45,17.75M79.15,34.47q-10.77,2-19.75,4.33M71.8,92.45l.75.1q5,.8,9,1.3" fill="none" stroke="#000" stroke-linecap="round" stroke-linejoin="round" stroke-width="4"/><path id="MOUSE_0_Layer3_0_1_STROKES" data-name="MOUSE 0 Layer3 0 1 STROKES" d="M301.65,13.75l7,.9M298.2,24.9l6.85,1.4M293,33.3l7.4,1.5M286.2,43l7.6,3.55m-25.7,11.3,3.1,7.45m-11.35-2.5,3.65,7m-16.8-2.7,3.15,6.5M275,55.2l5.4,5.25M282,48.55l5,4.15m-58.3,17.15,2,7.85m-8.6-7.7-.6,8.55m16.4-9.5,2.6,7.4M92.7,85.9l15.5,1M85.4,71.85l22.65-7.15M94.1,79l17.6-3.2m-95.65-14L2,61M19.8,56.2,6,49.85M24,51.7l-10.6-12" fill="none" stroke="#000" stroke-linecap="round" stroke-linejoin="round" stroke-width="4"/><g id="MOUSE_0_Layer2_0_FILL" data-name="MOUSE 0 Layer2 0 FILL"><path d="M40.25,61.35a7.29,7.29,0,0,0-2.9-5.8,10.48,10.48,0,0,0-6.9-2.35,10.67,10.67,0,0,0-6.95,2.35,7.33,7.33,0,0,0-2.85,5.8A7.21,7.21,0,0,0,23.5,67.1a10.54,10.54,0,0,0,7,2.4,10.36,10.36,0,0,0,6.9-2.4,7.17,7.17,0,0,0,2.9-5.75m-12,1.35a1,1,0,0,1,.3.7,1,1,0,0,1-.3.7,1.09,1.09,0,0,1-1.5,0,1,1,0,0,1-.3-.7,1,1,0,0,1,.3-.7,1.09,1.09,0,0,1,1.5,0m5.4.7a1,1,0,0,1-.3.7.77.77,0,0,1-.6.3.91.91,0,0,1-.65-.3,1.06,1.06,0,0,1-.25-.7,1,1,0,0,1,.25-.7.91.91,0,0,1,.65-.3.77.77,0,0,1,.6.3,1,1,0,0,1,.3.7m-.3.7a1,1,0,0,0,.3-.7,1,1,0,0,0-.3-.7.77.77,0,0,0-.6-.3.91.91,0,0,0-.65.3,1,1,0,0,0-.25.7,1.06,1.06,0,0,0,.25.7.91.91,0,0,0,.65.3.77.77,0,0,0,.6-.3m-4.8-.7a1,1,0,0,0-.3-.7,1.09,1.09,0,0,0-1.5,0,1,1,0,0,0-.3.7,1,1,0,0,0,.3.7,1.09,1.09,0,0,0,1.5,0A1,1,0,0,0,28.55,63.4Z" fill="#efb5a3"/></g><path id="MOUSE_0_Layer2_0_1_STROKES" data-name="MOUSE 0 Layer2 0 1 STROKES" d="M126.8,36.8q4.7-12,2.8-19.55Q128,10.8,123.25,11t-6.9,6.9q-2.5,7.89,1.2,20.05m-51.5-2.3q-8.44-9.7-9-17.3-.45-6.45,4-7.55t7.85,4.75q3.9,6.9,2.25,19.4m-30.9,26.4a7.17,7.17,0,0,1-2.9,5.75,10.36,10.36,0,0,1-6.9,2.4,10.54,10.54,0,0,1-6.95-2.4,7.21,7.21,0,0,1-2.85-5.75,7.33,7.33,0,0,1,2.85-5.8,10.67,10.67,0,0,1,7-2.35,10.48,10.48,0,0,1,6.9,2.35A7.29,7.29,0,0,1,40.25,61.35Zm36.9,7.4q-7.4,8.49.7,17.55M40.25,73.5q9.95,8.59,20-2" fill="none" stroke="#000" stroke-linecap="round" stroke-linejoin="round" stroke-width="4"/><path id="MOUSE_0_Layer2_0_2_STROKES" data-name="MOUSE 0 Layer2 0 2 STROKES" d="M33.65,63.4a1,1,0,0,1-.3.7.77.77,0,0,1-.6.3.91.91,0,0,1-.65-.3,1.06,1.06,0,0,1-.25-.7,1,1,0,0,1,.25-.7.91.91,0,0,1,.65-.3.77.77,0,0,1,.6.3A1,1,0,0,1,33.65,63.4Z" fill="none" stroke="#000" stroke-linecap="round" stroke-linejoin="round" stroke-width="1.8"/><path id="MOUSE_0_Layer2_0_3_STROKES" data-name="MOUSE 0 Layer2 0 3 STROKES" d="M28.55,63.4a1,1,0,0,1-.3.7,1.09,1.09,0,0,1-1.5,0,1,1,0,0,1-.3-.7,1,1,0,0,1,.3-.7,1.09,1.09,0,0,1,1.5,0A1,1,0,0,1,28.55,63.4Z" fill="none" stroke="#000" stroke-linecap="round" stroke-linejoin="round" stroke-width="1.9"/><g id="MOUSE_0_Layer1_0_FILL" data-name="MOUSE 0 Layer1 0 FILL"><path d="M74.55,48.8a7,7,0,0,0-2.15-5.15,6.94,6.94,0,0,0-5.1-2.1,7.17,7.17,0,0,0-7.25,7.25,6.94,6.94,0,0,0,2.1,5.1,7,7,0,0,0,5.15,2.15,7.34,7.34,0,0,0,7.25-7.25m18.15-4a8.36,8.36,0,0,0-11.3,0,7.15,7.15,0,0,0,0,10.6,8.36,8.36,0,0,0,11.3,0,7.15,7.15,0,0,0,0-10.6Z" fill="#fff"/></g><path id="MOUSE_0_Layer1_0_1_STROKES" data-name="MOUSE 0 Layer1 0 1 STROKES" d="M95.05,50.05a7,7,0,0,1-2.35,5.3,8.36,8.36,0,0,1-11.3,0,7.15,7.15,0,0,1,0-10.6,8.36,8.36,0,0,1,11.3,0A7,7,0,0,1,95.05,50.05ZM74.55,48.8a7.34,7.34,0,0,1-7.25,7.25,7,7,0,0,1-5.15-2.15,6.94,6.94,0,0,1-2.1-5.1,7.17,7.17,0,0,1,7.25-7.25,6.94,6.94,0,0,1,5.1,2.1A7,7,0,0,1,74.55,48.8Z" fill="none" stroke="#22201f" stroke-linecap="round" stroke-linejoin="round" stroke-width="4"/><g id="MOUSE_0_Layer0_0_FILL" data-name="MOUSE 0 Layer0 0 FILL"><path d="M68.05,48.55a1.54,1.54,0,1,0-.45,1.05,1.44,1.44,0,0,0,.45-1.05M86.6,49a1.45,1.45,0,1,0,.45,1A1.44,1.44,0,0,0,86.6,49Z"/></g><path id="MOUSE_0_Layer0_0_1_STROKES" data-name="MOUSE 0 Layer0 0 1 STROKES" d="M87.05,50.05a1.54,1.54,0,1,1-.45-1A1.44,1.44,0,0,1,87.05,50.05Zm-19-1.5a1.54,1.54,0,1,1-.45-1A1.44,1.44,0,0,1,68.05,48.55Z" fill="none" stroke="#22201f" stroke-linecap="round" stroke-linejoin="round" stroke-width="3"/></svg>