<svg id="Layer_1" data-name="Layer 1" xmlns="http://www.w3.org/2000/svg" viewBox="0 0 486.94 433.95"><g id="MAMMOTH_ANGRY_0_Layer1_0_FILL" data-name="MAMMOTH ANGRY 0 Layer1 0 FILL"><path d="M250.84,253.2a62.15,62.15,0,0,1-7.61-13,45.9,45.9,0,0,1-9.14,14.55,49.84,49.84,0,0,0,16.75-1.55M34.08,211.55q-3.09-6.11-6.85-7.25A40.91,40.91,0,0,0,15,207.8l-1.39.85a24.39,24.39,0,0,0-5.21,4.6q-4.89,5.81-6.79,16.9t2.59,16.3q4.5,5.2,12,4.65,9.15-2.4,13.15-6.85Q35,238,36.08,227.8t-2-16.25m-9.55,8.5c.81-1.4,1.62-2,2.45-1.9s1.4,1.13,1.71,2.8a17.32,17.32,0,0,1,0,5.85,16.61,16.61,0,0,1-1.81,5.5c-.76,1.43-1.56,2.07-2.4,1.9s-1.41-1.1-1.75-2.8a17,17,0,0,1,.05-5.9,15.6,15.6,0,0,1,1.75-5.45M12.88,222a15.17,15.17,0,0,1,1.1-2.5c.87-1.6,1.69-2.33,2.46-2.2s1.18,1,1.34,2.8a18.25,18.25,0,0,1,.06,2.4l-.11.7a20.66,20.66,0,0,1-.45,3.05v.05c-.06.27-.13.55-.19.85-.17.7-.36,1.35-.56,1.95-.1.27-.18.52-.25.75a15.71,15.71,0,0,1-1.1,2.25c-.89,1.6-1.71,2.33-2.45,2.2s-1.21-1-1.35-2.8a12.69,12.69,0,0,1,0-2.45,7.16,7.16,0,0,1,.05-.8,15.31,15.31,0,0,1,.25-1.95q.06-.5.15-.9v-.05a23,23,0,0,1,.85-3l.15-.35m56.3,18.5a80.09,80.09,0,0,0-10.65-20q-13.39-18.25-31.3-16.2,3.75,1.15,6.85,7.25t2,16.25Q35,238,29.34,244.25q-4,4.45-13.15,6.85,12.69,1.4,17,5,4.89,4.09,7.34,12.4,4.3,14.6,3.95,64.5-.15,34.61,11.21,59.8,7.79,17.4,18.79,26.45,14.4,11.85,31,13.45,16.35,1.6,32.91-6.95,16.8-8.75,32-27,14.55-17.44,27.59-49.15c.38-.91.79-2,1.25-3.15Q204.91,331.6,220,287a111.93,111.93,0,0,1-36.85-10.65A128.11,128.11,0,0,1,167,267.2q-.31,5.21-.7,10.05c0,.24,0,.47-.05.7q-.6,6.72-1.31,12.7A106.74,106.74,0,0,1,195,306a106.74,106.74,0,0,0-30-15.35q-4.89,40.61-17.6,66.45Q129.79,392.85,103,386.3q-5.25-1.31-9.61-6.9a64.12,64.12,0,0,1-6.79-11.85q-6-12.75-9.46-44.85-.95-8.25-1.6-15.7-9.54,9.75-13.1,9.5,3.56.25,13.1-9.5-1.74-18.72-2-32.9c0-1-.06-2-.06-3q-.2-19.45-4.3-30.65M55.48,218l-10,15,10-15M60,230.5q-3.54.6-9,10.5,5.46-9.9,9-10.5M57,268l12-7.5L57,268m2,16,12.5-10.5L59,284m2,9.5,10.5-7-10.5,7m-6-39q7.07-8.44,12.5-9-5.45.56-12.5,9M66.48,342,78,332l-11.5,10M64,329.5l10.5-8-10.5,8m-3.5-24,11-7.5-11,7.5m9.5,51a17.55,17.55,0,0,1,10-9,17.55,17.55,0,0,0-10,9M88,376l-7,8.5,7-8.5m59-14.5A43.76,43.76,0,0,1,160,375a43.76,43.76,0,0,0-13-13.5m-6.5,11,10.5,13-10.5-13m-11,10.5a23.69,23.69,0,0,1,9.5,11,23.69,23.69,0,0,0-9.5-11m-55-14.5q2.31-5,8.5-8-6.2,3-8.5,8m94.5-63,14.5,8.5L169,305.5m0-24a86.54,86.54,0,0,1,33.5,17,86.54,86.54,0,0,0-33.5-17m-10.5,53,18,12.5-18-12.5m-5.5,12,17,16-17-16m7.5-26.5L180,330l-19.5-10M119,388.5l8,11-8-11M93.48,385,89,397l4.5-12m15.5,4.5,5,11.5-5-11.5m-7-2-2,16,2-16m69-226a30.39,30.39,0,0,0,10,8.05,378.14,378.14,0,0,1,14.9-54.7q-32.79,22.25-28.54,39.3L178,142.5l-10.64,11.65A19.16,19.16,0,0,0,171,161.5l9-10-9,10m189.21,15.95a46.6,46.6,0,0,1-8.91-3.2q4.35,16.5,3.25,29.1a51.75,51.75,0,0,1-7.75,23.3,93.33,93.33,0,0,1-14.15,17.8A68.77,68.77,0,0,1,312.48,258a79.34,79.34,0,0,1-20,5.9q-26.25,20.25-55.1,22.85A116.26,116.26,0,0,1,220,287q-15.07,44.66-20.8,59.5h285.1L485.94,234l-25.5-5q-24.4-41.55-75.25-58.65a58.8,58.8,0,0,1-9.06,4.45q-10,4-15.94,2.65m76.75,36.05q-4.21,7-6.5,29.5,2.3-22.5,6.5-29.5m-3,39q-3.9,10.69-2,37-1.9-26.29,2-37m19-13q-4.21,11.15-6.5,37.5,2.3-26.35,6.5-37.5m-117,34q-4.45,17.14-3,22.5-1.45-5.36,3-22.5m32.5-2,1,41.5-1-41.5M350.94,254q-4.45,23.14-5,62,.54-38.85,5-62m45.5-44q-7.45,41.66-5.5,96.5-2-54.85,5.5-96.5m19,0a336.6,336.6,0,0,0-8,89.5,336.6,336.6,0,0,1,8-89.5m-41.5-28q-11.71,33.25-5,77.5-6.7-44.25,5-77.5m8.5,9.5q-4.76,19.09,0,42-4.76-22.91,0-42m-70.6,132.75q5.49,7.35,12.1,8.75-6.6-1.39-12.1-8.75a36.08,36.08,0,0,1-7-16.65,28.94,28.94,0,0,1,2.85-18.45q5.06-9.5,17.21-14.15-12.15,4.65-17.21,14.15a28.94,28.94,0,0,0-2.85,18.45,36.08,36.08,0,0,0,7,16.65m23.94-238.2q-3.6-15-6.9-26.2a54.8,54.8,0,0,0-12.29-21.3q-9.06-10-21.61-8,7.15-15.1,8.5-23.5L285,22.15A49.69,49.69,0,0,0,277.48,1a30.68,30.68,0,0,0-6,20.5q-7.14-6-21-12.5-.34,3.56,7,18.65-6.89-5.59-20.3-8.15,1.31,6.6,11.61,18-33.16,22.65-52.91,77.35a378.14,378.14,0,0,0-14.9,54.7q-5.19,25.75-8.89,58,3.6,3,7.54,5.75a122.67,122.67,0,0,0,35.46,17.85,82.85,82.85,0,0,0,19,3.55,45.9,45.9,0,0,0,9.14-14.55c-.3-.77-.55-1.5-.75-2.2a44.23,44.23,0,0,1,1.2-28.05q4.06-11.1,11.11-17.85Q267.58,180,291.48,174q-23.89,6-36.69,18.1-7.06,6.75-11.11,17.85a44.23,44.23,0,0,0-1.2,28.05c.2.7.45,1.43.75,2.2a62.15,62.15,0,0,0,7.61,13A11.88,11.88,0,0,1,254,255q10.16,9,26.8,9.55a66.33,66.33,0,0,0,11.75-.65,79.34,79.34,0,0,0,20-5.9,68.77,68.77,0,0,0,20.15-13.55,93.33,93.33,0,0,0,14.15-17.8,51.75,51.75,0,0,0,7.75-23.3q1.11-12.6-3.25-29.1a82.44,82.44,0,0,1-8.44-4.75Q330,161.3,329.48,152q.51,9.3,13.36,17.5a82.44,82.44,0,0,0,8.44,4.75,46.6,46.6,0,0,0,8.91,3.2q5.94,1.4,15.94-2.65a58.8,58.8,0,0,0,9.06-4.45,38.4,38.4,0,0,0,6.29-4.85q8.72-8.3,9.55-18.6.9-10.5-6.55-20.9-4.78-6.7-18-12.35-14.89-5.55-20.55-8.3-17-8.14-20.2-19.3M373,128l21,13-21-13m-3.5,8.5,19,11.5-19-11.5m-14,16,17.5,13-17.5-13m8-8,19,13-19-13M337,144a76.26,76.26,0,0,0,22.5,24.5A76.26,76.26,0,0,1,337,144m-6,35,.5,49.5L331,179M285,48.5l.5,44-.5-44M274.48,44l-6,44.5,6-44.5m-11,4.5-13,44,13-44M263,160l-1.5,18,1.5-18m22-4.5-1.5,14,1.5-14m11.5,0-4.5,13,4.5-13m11.5,3L305,171l3-12.5m3.5-99.5q5,37.69,0,67.5,5-29.81,0-67.5m-12-12q4.75,34.35,1,77.5,3.75-43.15-1-77.5m-46,3.5-14,32,14-32M213,163.5q-16.24,25.25-11,70-5.25-44.74,11-70M209,150q-20.94,32.15-19.5,78.5Q188,182.15,209,150m72,40-4.5,58,4.5-58m8.5-1.5-2,64.5,2-64.5M226,164q-13.44,25.75-9.5,65-3.94-39.25,9.5-65m9,2a181.43,181.43,0,0,0-8,69,181.43,181.43,0,0,1,8-69m75,30.5-1.5,27.5,1.5-27.5m9-18.5-1,59.5,1-59.5m-18.5,11.5-2,54,2-54m-51-26q-7.09,15.34-5.5,37-1.59-21.65,5.5-37m74.5-86q3,28.75-2,51.5Q327,106.25,324,77.5Z" fill="#7d3c23"/><path d="M11.43,229.05a12.69,12.69,0,0,0,0,2.45c.14,1.77.59,2.7,1.35,2.8s1.56-.6,2.45-2.2a15.71,15.71,0,0,0,1.1-2.25,19.79,19.79,0,0,1-1.05,2c-.86,1.53-1.66,2.23-2.39,2.1s-1.24-1-1.41-2.7a12.86,12.86,0,0,1,0-2.15M14,219.5a15.17,15.17,0,0,0-1.1,2.5,20.59,20.59,0,0,1,1-2.15c.84-1.47,1.64-2.15,2.41-2s1.2,1,1.39,2.65a18.66,18.66,0,0,1,.11,2.05,18.25,18.25,0,0,0-.06-2.4c-.16-1.77-.61-2.7-1.34-2.8S14.85,217.9,14,219.5Z" fill="#3e3e3e"/><path d="M13.93,219.85a20.59,20.59,0,0,0-1,2.15l-.15.35a23,23,0,0,0-.85,3v.05q-.09.4-.15.9a15.31,15.31,0,0,0-.25,1.95,7.16,7.16,0,0,0-.05.8,12.86,12.86,0,0,0,0,2.15q.25,2.55,1.41,2.7c.73.13,1.53-.57,2.39-2.1a19.79,19.79,0,0,0,1.05-2c.07-.23.15-.48.25-.75.2-.6.39-1.25.56-1.95.06-.3.13-.58.19-.85v-.05a20.66,20.66,0,0,0,.45-3.05l.11-.7a18.66,18.66,0,0,0-.11-2.05c-.19-1.63-.66-2.52-1.39-2.65s-1.57.58-2.41,2M27,218.15c-.83-.13-1.64.5-2.45,1.9a15.6,15.6,0,0,0-1.75,5.45,17,17,0,0,0-.05,5.9c.34,1.7.92,2.63,1.75,2.8s1.64-.47,2.4-1.9a16.61,16.61,0,0,0,1.81-5.5,17.32,17.32,0,0,0,0-5.85C28.38,219.28,27.82,218.35,27,218.15Z"/><path d="M137.09,175.45Q127,140.55,139,103.8T183,44Q140.7,58.75,121,88.05q-16.29,24.15-16.44,57-.11,25.45,9.19,53,7,20.7,14.75,31.95A138.09,138.09,0,0,0,148,252.15L150,254A149,149,0,0,0,167,267.2a128.11,128.11,0,0,0,16.09,9.1A111.93,111.93,0,0,0,220,287a116.26,116.26,0,0,0,17.45-.2q28.86-2.6,55.1-22.85a66.33,66.33,0,0,1-11.75.65q-16.65-.49-26.8-9.55a11.88,11.88,0,0,0-3.14-1.8,49.84,49.84,0,0,1-16.75,1.55,82.85,82.85,0,0,1-19-3.55,122.67,122.67,0,0,1-35.46-17.85q-3.93-2.79-7.54-5.75-26.13-21.48-35-52.15M123,116.5l-1,9,1-9m-3-1.5-1,8,1-8m5.5,83.5q5,13,10,16.5-5-3.5-10-16.5m125.5,66,11,2.5-11-2.5M10.13,101.1a120.56,120.56,0,0,0-8.6,44.75A151,151,0,0,0,8.68,193,135.91,135.91,0,0,0,15,207.8a32.49,32.49,0,0,1,6.65-2.8,14.24,14.24,0,0,1,5.6-.7q17.91-2.06,31.3,16.2a80.09,80.09,0,0,1,10.65,20q4.11,11.2,4.3,30.65c0,1,0,2,.06,3Q96,285,116,287a116.45,116.45,0,0,0,26.19-.7q16.86-2.29,24.06-8.3c0-.23,0-.46.05-.7q.39-4.85.7-10.05A149,149,0,0,1,150,254q-42.15,1.55-73.65-21.35Q47.19,211.35,35.19,176q-12.1-35.65-1.5-70.25Q45.18,68,81,45.5q-26.69,4-45,19.55A92.29,92.29,0,0,0,10.13,101.1M16,134.5l-.5,9.5.5-9.5M101.48,260l6,3.5-6-3.5M97,261.5l8.5,4.5L97,261.5m35.5,11L142,274Z" fill="#fffde1"/></g><path id="MAMMOTH_ANGRY_0_Layer1_0_1_STROKES" data-name="MAMMOTH ANGRY 0 Layer1 0 1 STROKES" d="M385.19,170.35a38.4,38.4,0,0,0,6.29-4.85q8.72-8.3,9.55-18.6.9-10.5-6.55-20.9-4.78-6.7-18-12.35-14.89-5.55-20.55-8.3-17-8.14-20.2-19.3-3.6-15-6.9-26.2a54.8,54.8,0,0,0-12.29-21.3q-9.06-10-21.61-8,7.15-15.1,8.5-23.5L285,22.15A49.69,49.69,0,0,0,277.48,1a30.68,30.68,0,0,0-6,20.5q-7.14-6-21-12.5-.34,3.56,7,18.65-6.89-5.59-20.3-8.15,1.31,6.6,11.61,18-33.16,22.65-52.91,77.35a378.14,378.14,0,0,0-14.9,54.7q-5.19,25.75-8.89,58,3.6,3,7.54,5.75a122.67,122.67,0,0,0,35.46,17.85,82.85,82.85,0,0,0,19,3.55,45.9,45.9,0,0,0,9.14-14.55c-.3-.77-.55-1.5-.75-2.2a44.23,44.23,0,0,1,1.2-28.05q4.06-11.1,11.11-17.85Q267.58,180,291.48,174M373,128l21,13m-24.5-4.5,19,11.5m-3.29,22.35a58.8,58.8,0,0,1-9.06,4.45q-10,4-15.94,2.65a46.6,46.6,0,0,1-8.91-3.2q4.35,16.5,3.25,29.1a51.75,51.75,0,0,1-7.75,23.3,93.33,93.33,0,0,1-14.15,17.8A68.77,68.77,0,0,1,312.48,258a79.34,79.34,0,0,1-20,5.9q-26.25,20.25-55.1,22.85A116.26,116.26,0,0,1,220,287q-15.07,44.66-20.8,59.5h285.1L485.94,234l-25.5-5Q436,187.45,385.19,170.35Zm-33.91,3.9a82.44,82.44,0,0,1-8.44-4.75Q330,161.3,329.48,152m26,.5,17.5,13m-9.5-21,19,13M337,144a76.26,76.26,0,0,0,22.5,24.5m77.46,45q-4.21,7-6.5,29.5m3.5,9.5q-3.9,10.69-2,37m21-50q-4.21,11.15-6.5,37.5m-110.5-3.5q-4.45,17.14-3,22.5m35.5-24.5,1,41.5m-18.5-59q-4.45,23.14-5,62m50.5-106q-7.45,41.66-5.5,96.5m24.5-96.5a336.6,336.6,0,0,0-8,89.5M331,179l.5,49.5M373.94,182q-11.71,33.25-5,77.5m13.5-68q-4.76,19.09,0,42M285,48.5l.5,44m-11-48.5-6,44.5m-5-40-13,44M181,169.55a30.39,30.39,0,0,1-10-8.05,19.16,19.16,0,0,1-3.64-7.35M171,161.5l9-10m-2-9-10.64,11.65q-4.26-17.06,28.54-39.3M263,160l-1.5,18M285,155.5l-1.5,14m13-14-4.5,13m16-10L305,171m6.5-112q5,37.69,0,67.5m-12-79.5q4.75,34.35,1,77.5m-47-74-14,32M16,134.5l-.5,9.5M15,207.8A135.91,135.91,0,0,1,8.68,193a151,151,0,0,1-7.15-47.1,120.56,120.56,0,0,1,8.6-44.75A92.29,92.29,0,0,1,36,65.05Q54.3,49.5,81,45.5,45.19,68,33.69,105.7q-10.6,34.61,1.5,70.25,12,35.4,41.14,56.65Q107.83,255.49,150,254c-.66-.59-1.32-1.19-2-1.8A138.09,138.09,0,0,1,128.48,230q-7.74-11.25-14.75-31.95-9.3-27.56-9.19-53,.15-32.85,16.44-57,19.71-29.29,62-44-32,23.05-44,59.8t-1.89,71.65q8.86,30.66,35,52.15M123,116.5l-1,9M120,115l-1,8m6.5,75.5q5,13,10,16.5m-34,45,6,3.5m-10.5-2,8.5,4.5m27,6.5L142,274m-68.44.1Q96,285,116,287a116.45,116.45,0,0,0,26.19-.7q16.86-2.29,24.06-8.3c0-.23,0-.46.05-.7q.39-4.85.7-10.05A146.18,146.18,0,0,1,150,254M55.48,218l-10,15M27.23,204.3q17.91-2.06,31.3,16.2a80.09,80.09,0,0,1,10.65,20q4.11,11.2,4.3,30.65c0,1,0,2,.06,3q.28,14.17,2,32.9.66,7.46,1.6,15.7,3.51,32.1,9.46,44.85a64.12,64.12,0,0,0,6.79,11.85q4.35,5.6,9.61,6.9,26.74,6.56,44.34-29.2,12.7-25.85,17.6-66.45a2.57,2.57,0,0,1-.5-.15M60,230.5q-3.54.6-9,10.5M27.23,204.3q3.75,1.15,6.85,7.25t2,16.25Q35,238,29.34,244.25q-4,4.45-13.15,6.85,12.69,1.4,17,5,4.89,4.09,7.34,12.4,4.3,14.6,3.95,64.5-.15,34.61,11.21,59.8,7.79,17.4,18.79,26.45,14.4,11.85,31,13.45,16.35,1.6,32.91-6.95,16.8-8.75,32-27,14.55-17.44,27.59-49.15c.38-.91.79-2,1.25-3.15M15,207.8a32.49,32.49,0,0,1,6.65-2.8,14.24,14.24,0,0,1,5.6-.7A40.91,40.91,0,0,0,15,207.8l-1.39.85a24.39,24.39,0,0,0-5.21,4.6q-4.89,5.81-6.79,16.9t2.59,16.3q4.5,5.2,12,4.65m12.5-24.3a16.61,16.61,0,0,1-1.81,5.5c-.76,1.43-1.56,2.07-2.4,1.9s-1.41-1.1-1.75-2.8a17,17,0,0,1,.05-5.9,15.6,15.6,0,0,1,1.75-5.45c.81-1.4,1.62-2,2.45-1.9s1.4,1.13,1.71,2.8A17.32,17.32,0,0,1,28.69,226.8Zm-10.85-4.3-.11.7a20.66,20.66,0,0,1-.45,3.05v.05c-.06.27-.13.55-.19.85-.17.7-.36,1.35-.56,1.95-.1.27-.18.52-.25.75m-4.85-.8a7.16,7.16,0,0,1,.05-.8,15.31,15.31,0,0,1,.25-1.95q.06-.5.15-.9v-.05a23,23,0,0,1,.85-3l.15-.35a20.59,20.59,0,0,1,1-2.15c.84-1.47,1.64-2.15,2.41-2s1.2,1,1.39,2.65a18.66,18.66,0,0,1,.11,2.05m-1.56,7.35a19.79,19.79,0,0,1-1.05,2c-.86,1.53-1.66,2.23-2.39,2.1s-1.24-1-1.41-2.7a12.86,12.86,0,0,1,0-2.15M57,268l12-7.5M59,284l12.5-10.5M61,293.5l10.5-7M55,254.5q7.07-8.44,12.5-9m-5,71q3.56.25,13.1-9.5m-9.1,35L78,332m-14-2.5,10.5-8m-14-16,11-7.5M70,356.5a17.55,17.55,0,0,1,10-9M88,376l-7,8.5m66-23A43.76,43.76,0,0,1,160,375m-19.5-2.5,10.5,13m-21.5-2.5a23.69,23.69,0,0,1,9.5,11m-64.5-25.5q2.31-5,8.5-8m168-96,11,2.5m30.55-3.1a66.33,66.33,0,0,1-11.75.65q-16.65-.49-26.8-9.55a11.88,11.88,0,0,0-3.14-1.8,49.84,49.84,0,0,1-16.75,1.55m16.75-1.55a62.15,62.15,0,0,1-7.61-13M167,267.2a128.11,128.11,0,0,0,16.09,9.1A111.93,111.93,0,0,0,220,287m-55,3.7q.72-6,1.31-12.7M169,305.5l14.5,8.5m141.46-39q-12.15,4.65-17.21,14.15a28.94,28.94,0,0,0-2.85,18.45,36.08,36.08,0,0,0,7,16.65q5.49,7.35,12.1,8.75M165,290.65A106.74,106.74,0,0,1,195,306m-26-24.5a86.54,86.54,0,0,1,33.5,17m-44,36,18,12.5m-23.5-.5,17,16m-9.5-42.5L180,330m33-166.5q-16.24,25.25-11,70m7-83.5q-20.94,32.15-19.5,78.5M281,190l-4.5,58m13-59.5-2,64.5M226,164q-13.44,25.75-9.5,65M235,166a181.43,181.43,0,0,0-8,69m83-38.5-1.5,27.5M319,178l-1,59.5m-17.5-48-2,54m-49-80q-7.09,15.34-5.5,37m-125,188,8,11M93.48,385,89,397m20-7.5,5,11.5m-12-13.5-2,16m224-326q3,28.75-2,51.5" fill="none" stroke="#000" stroke-linecap="round" stroke-linejoin="round" stroke-width="2"/><g id="MAMMOTH_ANGRY_0_Layer0_0_FILL" data-name="MAMMOTH ANGRY 0 Layer0 0 FILL"><path d="M278.13,285.3a45.57,45.57,0,0,0-10.44-1.55q-3.4,0-9.21,2.35a62.12,62.12,0,0,0-11.39,5.95q-13.8,9.1-12.86,17.25.71,5.7,4.4,6.95,3,1,8.6-.75,3.3-1,10.5-3.9,6.4-2.36,10-2.35a42.52,42.52,0,0,1,12,2q3.7,1.15,10.11,3.3,5,1.45,7.75.4c2.26-.87,4-3.1,5.14-6.7q3.38-10.44-11.5-18.1l-9.5,20.6,9.5-20.6-.29-.15a63.13,63.13,0,0,0-12.81-4.7m-10.44-1.05-1,24,1-24m-21.51,9.05,6.55,19.5-6.55-19.5m34.6-180.15a13,13,0,0,0-17.3,0,10.52,10.52,0,0,0,0,15.85,13,13,0,0,0,17.3,0,10.52,10.52,0,0,0,0-15.85m-10.9,6.9a1.72,1.72,0,0,1,.56-1.25,2.19,2.19,0,0,1,1.44-.5,2,2,0,0,1,1.4.5,1.66,1.66,0,0,1,.6,1.25,1.5,1.5,0,0,1-.6,1.2,1.87,1.87,0,0,1-1.4.55,2,2,0,0,1-1.44-.55,1.56,1.56,0,0,1-.56-1.2m-32.2-8a10.57,10.57,0,0,0-3.3,7.8,10.4,10.4,0,0,0,3.3,7.75,11.36,11.36,0,0,0,15.91,0,10.39,10.39,0,0,0,3.29-7.75,10.56,10.56,0,0,0-3.29-7.8,11.49,11.49,0,0,0-15.91,0m10.66,6.3a1.74,1.74,0,0,1,.54,1.25,1.87,1.87,0,0,1-1.75,1.75,1.73,1.73,0,0,1-1.25-.55,1.64,1.64,0,0,1-.5-1.2,1.71,1.71,0,0,1,1.75-1.75A1.68,1.68,0,0,1,248.34,118.3Z" fill="#fff"/><path d="M270.44,118.8a1.72,1.72,0,0,0-.56,1.25,1.56,1.56,0,0,0,.56,1.2,2,2,0,0,0,1.44.55,1.87,1.87,0,0,0,1.4-.55,1.5,1.5,0,0,0,.6-1.2,1.66,1.66,0,0,0-.6-1.25,2,2,0,0,0-1.4-.5,2.19,2.19,0,0,0-1.44.5m-21.56.75a1.74,1.74,0,0,0-.54-1.25,1.68,1.68,0,0,0-1.21-.5,1.71,1.71,0,0,0-1.75,1.75,1.64,1.64,0,0,0,.5,1.2,1.73,1.73,0,0,0,1.25.55,1.87,1.87,0,0,0,1.75-1.75Z"/></g><path id="MAMMOTH_ANGRY_0_Layer0_0_1_STROKES" data-name="MAMMOTH ANGRY 0 Layer0 0 1 STROKES" d="M256.88,119.8a10.39,10.39,0,0,1-3.29,7.75,11.36,11.36,0,0,1-15.91,0,10.4,10.4,0,0,1-3.3-7.75,10.57,10.57,0,0,1,3.3-7.8,11.49,11.49,0,0,1,15.91,0A10.56,10.56,0,0,1,256.88,119.8Zm17,.25a1.5,1.5,0,0,1-.6,1.2,1.87,1.87,0,0,1-1.4.55,2,2,0,0,1-1.44-.55,1.56,1.56,0,0,1-.56-1.2,1.72,1.72,0,0,1,.56-1.25,2.19,2.19,0,0,1,1.44-.5,2,2,0,0,1,1.4.5A1.66,1.66,0,0,1,273.88,120.05Zm10.5,1a10.4,10.4,0,0,1-3.6,8,13,13,0,0,1-17.3,0,10.52,10.52,0,0,1,0-15.85,13,13,0,0,1,17.3,0A10.35,10.35,0,0,1,284.38,121.05Zm-35.5-1.5a1.87,1.87,0,0,1-1.75,1.75,1.73,1.73,0,0,1-1.25-.55,1.64,1.64,0,0,1-.5-1.2,1.71,1.71,0,0,1,1.75-1.75,1.68,1.68,0,0,1,1.21.5A1.74,1.74,0,0,1,248.88,119.55Zm16-11.75,24-12m-52,0,20,12m34.35,182.35q14.88,7.65,11.5,18.1c-1.16,3.6-2.88,5.83-5.14,6.7q-2.76,1.05-7.75-.4-6.4-2.15-10.11-3.3a42.52,42.52,0,0,0-12-2q-3.59,0-10,2.35-7.2,2.85-10.5,3.9-5.64,1.75-8.6.75-3.69-1.25-4.4-6.95-.94-8.15,12.86-17.25a62.12,62.12,0,0,1,11.39-5.95q5.81-2.36,9.21-2.35a45.57,45.57,0,0,1,10.44,1.55,63.13,63.13,0,0,1,12.81,4.7l.29.15-9.5,20.6m-14-26.5-1,24M246.18,293.3l6.55,19.5" fill="none" stroke="#000" stroke-linecap="round" stroke-linejoin="round" stroke-width="2"/></svg>