<svg id="Layer_1" data-name="Layer 1" xmlns="http://www.w3.org/2000/svg" viewBox="0 0 238.75 339.98"><g id="RABBIT_0_Layer7_0_FILL" data-name="RABBIT 0 Layer7 0 FILL"><path d="M92.5,193c-1.17,0-2.33,0-3.5,0L77,304.78q15.8,35.1,63.95,21-3.62-19.86,27.5-18.5-15.7-2.14-21.15-12.35a22.9,22.9,0,0,1-1.6-19.1q3.45-10,13.8-14.65Q171,255.93,187,259.83q-15.9-3.9-27.45,1.35-10.35,4.65-13.8,14.65a22.9,22.9,0,0,0,1.6,19.1q5.44,10.2,21.15,12.35-31.11-1.35-27.5,18.5,22.59,26.21,51-4,54-83.74-49-151.95a54.8,54.8,0,0,1-9,9.2Q116.76,193,92.5,193m-41.4-81.3Q34,125.63,34,145.33T51.1,179Q67,192,89,192.93c1.17,0,2.33,0,3.5,0q24.25,0,41.4-13.95a54.8,54.8,0,0,0,9-9.2,39.92,39.92,0,0,0,8.15-24.5q0-19.7-17.2-33.65t-41.4-14Q68.25,97.73,51.1,111.68Z" fill="#fffce2"/></g><path id="RABBIT_0_Layer7_0_1_STROKES" data-name="RABBIT 0 Layer7 0 1 STROKES" d="M141,325.78q-48.15,14.1-63.95-21L89,192.93Q67,192,51.1,179,34,165.08,34,145.33T51.1,111.68q17.15-14,41.4-14t41.4,14q17.21,13.95,17.2,33.65a39.92,39.92,0,0,1-8.15,24.5Q245.9,238,192,321.78m-23.5-14.5q-15.7-2.14-21.15-12.35a22.9,22.9,0,0,1-1.6-19.1q3.45-10,13.8-14.65Q171,255.93,187,259.83m-44-90a54.8,54.8,0,0,1-9,9.2Q116.76,193,92.5,193c-1.17,0-2.33,0-3.5,0M192,321.78q-28.41,30.21-51,4-3.62-19.86,27.5-18.5" fill="none" stroke="#000" stroke-linecap="round" stroke-linejoin="round" stroke-width="4"/><g id="RABBIT_0_Layer6_0_FILL" data-name="RABBIT 0 Layer6 0 FILL"><path d="M236.35,293q1.4-7.25-2.15-12.5a11.49,11.49,0,0,0-9.85-5.25q-6.4,0-11.9,5a21.94,21.94,0,0,0-6.9,12.3q-1.4,7.25,2.1,12.45a11.34,11.34,0,0,0,9.9,5.25q6.34.11,11.85-5A21.58,21.58,0,0,0,236.35,293Z" fill="#fffce2"/></g><path id="RABBIT_0_Layer6_0_1_STROKES" data-name="RABBIT 0 Layer6 0 1 STROKES" d="M236.35,293a21.58,21.58,0,0,1-6.95,12.25q-5.51,5.1-11.85,5a11.34,11.34,0,0,1-9.9-5.25q-3.5-5.21-2.1-12.45a21.94,21.94,0,0,1,6.9-12.3q5.51-5.06,11.9-5a11.49,11.49,0,0,1,9.85,5.25Q237.76,285.73,236.35,293Z" fill="none" stroke="#000" stroke-linecap="round" stroke-linejoin="round" stroke-width="4"/><g id="RABBIT_0_Layer5_0_FILL" data-name="RABBIT 0 Layer5 0 FILL"><path d="M82.5,58.68a163.58,163.58,0,0,0-.7-28.85q-1.5-11.7-4.45-11.2t-5.6,12.9A194.38,194.38,0,0,0,68.3,61.08,170.43,170.43,0,0,0,69,89.93a81.85,81.85,0,0,0,2,10.9,36.89,36.89,0,0,1,4.55-1.4q1.8-3.15,3.5-11.2A183.87,183.87,0,0,0,82.5,58.68m57.05-27.1q0-12.34-3.35-12.95T128,29.53q-4.65,11.6-7.2,29.05t-3.3,28.05A132.86,132.86,0,0,1,115.65,101a57.37,57.37,0,0,1,7.25,2.75,34.3,34.3,0,0,0,5.6-10.5q4.25-14.4,7.75-31.8T139.55,31.58Z" fill="#efb5a3"/><path d="M85.5,97.83a15.59,15.59,0,0,0,2-3.4q6.26-15.65,6-35.8a179.2,179.2,0,0,0-4.3-37.55Q85.2,3.63,78.1,2.13T64.7,16.28q-6.2,15.7-7.3,38.2t3.65,38.7a47,47,0,0,0,4,10q3.56-1.43,6-2.35a81.85,81.85,0,0,1-2-10.9,170.43,170.43,0,0,1-.7-28.85,194.38,194.38,0,0,1,3.45-29.55q2.66-12.4,5.6-12.9t4.45,11.2a163.58,163.58,0,0,1,.7,28.85,183.87,183.87,0,0,1-3.45,29.55q-1.69,8.05-3.5,11.2,6-1.16,10-1.6m50.7-79.2q3.35.6,3.35,13t-3.3,29.85q-3.5,17.4-7.75,31.8a34.3,34.3,0,0,1-5.6,10.5l.1,0a35.81,35.81,0,0,1,7.95,5q3.95-6.41,7.35-13,4.69-9.3,8.15-32.45t1.3-40.8q-2.1-17.65-9.25-19.65t-15.3,13q-8,14.85-12.25,37.9T108.8,94.48q0,.45,0,4.35,5.81,1.8,6.85,2.15a132.86,132.86,0,0,0,1.85-14.35q.75-10.6,3.3-28t7.2-29Q132.84,18,136.2,18.63Z" fill="#fffce2"/></g><path id="RABBIT_0_Layer5_0_1_STROKES" data-name="RABBIT 0 Layer5 0 1 STROKES" d="M115.65,101a132.86,132.86,0,0,0,1.85-14.35q.75-10.6,3.3-28t7.2-29q4.84-11.51,8.2-10.9t3.35,13q.15,12.45-3.3,29.85t-7.75,31.8a35.09,35.09,0,0,1-5.57,10.53l.07,0a35.81,35.81,0,0,1,7.95,5q3.95-6.41,7.35-13,4.69-9.3,8.15-32.45t1.3-40.8q-2.1-17.65-9.25-19.65t-15.3,13q-8,14.85-12.25,37.9T108.8,94.48q0,.45,0,4.35,5.81,1.8,6.85,2.15a56.52,56.52,0,0,1,7.28,2.78M71,100.86q-2.43.9-6,2.32a47,47,0,0,1-4-10Q56.36,77,57.4,54.48t7.3-38.2Q71,.63,78.1,2.13t11.15,19a179.2,179.2,0,0,1,4.3,37.55q.26,20.15-6,35.8a15.59,15.59,0,0,1-2,3.4q-3.9.45-10,1.6A34.28,34.28,0,0,0,71,100.86a79.31,79.31,0,0,1-2-10.93,170.43,170.43,0,0,1-.7-28.85,194.38,194.38,0,0,1,3.45-29.55q2.66-12.4,5.6-12.9t4.45,11.2a163.58,163.58,0,0,1,.7,28.85,183.87,183.87,0,0,1-3.45,29.55q-1.69,8.05-3.5,11.2" fill="none" stroke="#000" stroke-linecap="round" stroke-linejoin="round" stroke-width="4"/><g id="RABBIT_0_Layer4_0_FILL" data-name="RABBIT 0 Layer4 0 FILL"><path d="M94.4,145.83a4.55,4.55,0,0,0,1.6-3.5,4.69,4.69,0,0,0-1.6-3.55,6,6,0,0,0-7.8,0,4.69,4.69,0,0,0-1.6,3.55,4.55,4.55,0,0,0,1.6,3.5,5.82,5.82,0,0,0,7.8,0Z" fill="#efb5a3"/><path d="M79,153.48l.5,16.85,10,.85v0l7.5.65,1-18.15Q87.55,157.17,79,153.48Z" fill="#fff"/></g><path id="RABBIT_0_Layer4_0_1_STROKES" data-name="RABBIT 0 Layer4 0 1 STROKES" d="M66,135.83q5.2,5.65,4.9,12.1a26.65,26.65,0,0,0,8.1,5.55q8.55,3.71,19,.2a54.79,54.79,0,0,0,13.2-6.7q1.45-6.85,8.55-12.3M79,153.48l.5,16.85,10,.85V160.33m-38.5-21-49-11m41.5,20L2,149.83m40.5,10.5-32.5,9m60.9-21.4q-.41,9.6-12.9,20.9m45-56.5q9.75-5.14,17.5,1.5M96,142.33a4.55,4.55,0,0,1-1.6,3.5,5.82,5.82,0,0,1-7.8,0,4.55,4.55,0,0,1-1.6-3.5,4.69,4.69,0,0,1,1.6-3.55,6,6,0,0,1,7.8,0A4.69,4.69,0,0,1,96,142.33Zm2,11.35-1,18.15-7.5-.65M111.2,147q-2.06,9.41,6.3,21.35M78,109.83q11.35-4,17,1.5m37.5,46,34,13M135,137.83l45.5-6.5m-47,17,35,2.5" fill="none" stroke="#000" stroke-linecap="round" stroke-linejoin="round" stroke-width="4"/><g id="RABBIT_0_Layer3_0_FILL" data-name="RABBIT 0 Layer3 0 FILL"><path d="M115.4,120.83a11.14,11.14,0,0,0-7.05-2.25,11.37,11.37,0,0,0-7.1,2.25,6.57,6.57,0,0,0,0,10.9,11.37,11.37,0,0,0,7.1,2.25,11.14,11.14,0,0,0,7.05-2.25,6.51,6.51,0,0,0,0-10.9M77.45,119a7.7,7.7,0,0,0,0,11.8,9.93,9.93,0,0,0,6.75,2.45,9.73,9.73,0,0,0,6.7-2.45,7.62,7.62,0,0,0,0-11.8,9.73,9.73,0,0,0-6.7-2.45A9.93,9.93,0,0,0,77.45,119Z" fill="#fff"/></g><path id="RABBIT_0_Layer3_0_1_STROKES" data-name="RABBIT 0 Layer3 0 1 STROKES" d="M93.7,124.93a7.56,7.56,0,0,1-2.8,5.9,9.73,9.73,0,0,1-6.7,2.45,9.93,9.93,0,0,1-6.75-2.45,7.7,7.7,0,0,1,0-11.8,9.93,9.93,0,0,1,6.75-2.45A9.73,9.73,0,0,1,90.9,119,7.56,7.56,0,0,1,93.7,124.93Zm24.65,1.35a6.67,6.67,0,0,1-2.95,5.45,11.14,11.14,0,0,1-7.05,2.25,11.37,11.37,0,0,1-7.1-2.25,6.57,6.57,0,0,1,0-10.9,11.37,11.37,0,0,1,7.1-2.25,11.14,11.14,0,0,1,7.05,2.25A6.67,6.67,0,0,1,118.35,126.28Z" fill="none" stroke="#000" stroke-linecap="round" stroke-linejoin="round" stroke-width="4"/><path id="RABBIT_0_Layer2_0_1_STROKES" data-name="RABBIT 0 Layer2 0 1 STROKES" d="M109.75,126.13a1.38,1.38,0,0,1-.5,1.05,1.83,1.83,0,0,1-2.4,0,1.35,1.35,0,0,1,0-2.1,1.83,1.83,0,0,1,2.4,0A1.38,1.38,0,0,1,109.75,126.13Z" fill="none" stroke="#000" stroke-linecap="round" stroke-linejoin="round" stroke-width="3"/><path id="RABBIT_0_Layer2_0_2_STROKES" data-name="RABBIT 0 Layer2 0 2 STROKES" d="M86.75,125.28a1.55,1.55,0,0,1-.55,1.2,1.94,1.94,0,0,1-2.6,0,1.58,1.58,0,0,1,0-2.4,1.94,1.94,0,0,1,2.6,0A1.55,1.55,0,0,1,86.75,125.28Z" fill="none" stroke="#000" stroke-linecap="round" stroke-linejoin="round" stroke-width="3.3"/><g id="RABBIT_0_Layer1_0_FILL" data-name="RABBIT 0 Layer1 0 FILL"><path d="M60.65,273q-1.8,11.2,1.85,19.1A20.1,20.1,0,0,0,76,303.33l9-72A73.23,73.23,0,0,0,68.7,251a63.29,63.29,0,0,0-8.05,22m5.85,13.85.5,9Z" fill="#fffce2"/></g><path id="RABBIT_0_Layer1_0_1_STROKES" data-name="RABBIT 0 Layer1 0 1 STROKES" d="M128,247.33a36.39,36.39,0,0,0-9,20q-.65,5.85.8,17.95,1.2,9.75-.6,13.45-2.2,4.55-9.7,6.1c-1.07.2-2.23.37-3.5.5q.75.19,1.5.45m-1.5-71.5a87.91,87.91,0,0,0-13,26.1,74.93,74.93,0,0,0-2.85,21.15q0,18.26,15.9,23.8M66.5,286.83l.5,9m18-64.5A73.23,73.23,0,0,0,68.7,251a63.29,63.29,0,0,0-8.05,22q-1.8,11.2,1.85,19.1A20.1,20.1,0,0,0,76,303.33m34.5-10-1,11.55m-8-14.05-.5,11.5m-16-71-9,72" fill="none" stroke="#000" stroke-linecap="round" stroke-linejoin="round" stroke-width="4"/><g id="RABBIT_0_Layer0_0_FILL" data-name="RABBIT 0 Layer0 0 FILL"><path d="M77,304.78q-6.85-1.65-11.25,2.15a14.41,14.41,0,0,0,0,22.25,18.66,18.66,0,0,0,12.75,4.65,18.48,18.48,0,0,0,12.7-4.65,16.37,16.37,0,0,0,2.35-2.45q-14.92-11-16.55-22M66.5,328.33l11-4-11,4m-5-9,11.5-4Z" fill="#fffce2"/></g><path id="RABBIT_0_Layer0_0_1_STROKES" data-name="RABBIT 0 Layer0 0 1 STROKES" d="M66.5,328.33l11-4m-16-5,11.5-4m20.55,11.4a16.37,16.37,0,0,1-2.35,2.45,18.48,18.48,0,0,1-12.7,4.65,18.66,18.66,0,0,1-12.75-4.65,14.41,14.41,0,0,1,0-22.25q4.4-3.8,11.25-2.15m115.85,15.65q-5.4,9.19-11.4,13.05-7,4.5-16.95,4.5t-17-4.5q-7-4.5-7-10.9t7-10.9q7-4.5,20-3.5m-25,18.15,10.5-5m-4,12.5,13-5M77,304.78q1.62,11,16.55,22" fill="none" stroke="#000" stroke-linecap="round" stroke-linejoin="round" stroke-width="4"/></svg>