<svg id="Layer_1" data-name="Layer 1" xmlns="http://www.w3.org/2000/svg" viewBox="0 0 198.19 181.55"><g id="EMOTE_HEART_0_Layer1_0_FILL" data-name="EMOTE HEART 0 Layer1 0 FILL"><path d="M118.56,39.64a33.62,33.62,0,0,0-10.09,17.42A33.63,33.63,0,0,0,98.18,41.13Q86.73,30.9,70.56,30.91T42.94,41.13a36.68,36.68,0,0,0-5.23,5.71,34.43,34.43,0,0,0-5.84,13.92,34.41,34.41,0,0,0-.37,5.13,29.51,29.51,0,0,0,3.29,13.35,82.48,82.48,0,0,0,10.06,13l.91.82,58.94,59.27L161.53,96l1.29-1.16q3.7-3.36,5.5-5a37.78,37.78,0,0,0,12.27-24.33c0-.49,0-1,0-1.52A32.4,32.4,0,0,0,170,39.64a37.76,37.76,0,0,0-51.39,0Z" fill="#f33"/></g><path id="EMOTE_HEART_0_Layer1_0_1_STROKES" data-name="EMOTE HEART 0 Layer1 0 1 STROKES" d="M37.71,46.84a36.68,36.68,0,0,1,5.23-5.71Q54.4,30.9,70.56,30.91T98.18,41.13a33.63,33.63,0,0,1,10.29,15.93,33.62,33.62,0,0,1,10.09-17.42,37.76,37.76,0,0,1,51.39,0A32.4,32.4,0,0,1,180.62,64c0,.52,0,1,0,1.52a37.78,37.78,0,0,1-12.27,24.33q-1.8,1.59-5.5,5L161.53,96,104.7,152.34,45.76,93.07l-.91-.82a82.48,82.48,0,0,1-10.06-13A29.51,29.51,0,0,1,31.5,65.89a34.41,34.41,0,0,1,.37-5.13A34.43,34.43,0,0,1,37.71,46.84Z" fill="none" stroke="#000" stroke-linecap="round" stroke-linejoin="round" stroke-width="3"/><g id="EMOTE_HEART_0_Layer0_0_FILL" data-name="EMOTE HEART 0 Layer0 0 FILL"><path d="M38.7,70.34q-3.09,13.22-16,16.55Q38.8,91.3,37.61,107.67q3-19.22,20.89-24.93Q44.21,81.53,39,68.27A13.77,13.77,0,0,1,38.7,70.34Z" fill="#99f"/><path d="M36.83,56.38c1.31-1,2.72-1.85,4.21-2.72a50.09,50.09,0,0,1,6.8-3.26q-17.33-1.45-21.1-21.19-7.5,24-23.44,25.13a58,58,0,0,1,6,2,23.22,23.22,0,0,1,4.92,2.72,22.51,22.51,0,0,1,7.34,9.51A34.65,34.65,0,0,1,24,78.12a30.22,30.22,0,0,1,2.55-9.51,29.44,29.44,0,0,1,7-9.51A34.21,34.21,0,0,1,36.83,56.38Z" fill="#3ff"/><path d="M194.89,71.33Q175,68.91,169.78,51.63q-4.25,16.5-18.37,23.1,17.11,2.77,18.88,24.93c.16-.64.34-1.25.55-1.84Q177.59,76.11,194.89,71.33Z" fill="#0f6"/></g><path id="EMOTE_HEART_0_Layer0_0_1_STROKES" data-name="EMOTE HEART 0 Layer0 0 1 STROKES" d="M169.78,51.63q5.26,17.28,25.11,19.7-17.29,4.78-24,26.49c-.21.59-.39,1.2-.55,1.84q-1.75-22.15-18.88-24.93Q165.54,68.13,169.78,51.63ZM24,78.12a30.22,30.22,0,0,1,2.55-9.51,29.44,29.44,0,0,1,7-9.51,34.21,34.21,0,0,1,3.29-2.72c1.31-1,2.72-1.85,4.21-2.72a50.09,50.09,0,0,1,6.8-3.26q-17.33-1.45-21.1-21.19-7.5,24-23.44,25.13a58,58,0,0,1,6,2,23.22,23.22,0,0,1,4.92,2.72,22.51,22.51,0,0,1,7.34,9.51A34.65,34.65,0,0,1,24,78.12a1.87,1.87,0,0,0,0,.34M39,68.27a13.77,13.77,0,0,1-.27,2.07q-3.09,13.22-16,16.55Q38.8,91.3,37.61,107.67q3-19.22,20.89-24.93Q44.21,81.53,39,68.27Z" fill="none" stroke="#000" stroke-linecap="round" stroke-linejoin="round" stroke-width="3"/></svg>