<svg id="Layer_1" data-name="Layer 1" xmlns="http://www.w3.org/2000/svg" viewBox="0 0 198.19 181.55"><g id="EMOTE_RAINBOW_0_Layer1_0_FILL" data-name="EMOTE RAINBOW 0 Layer1 0 FILL"><path d="M120.17,117.56q-8.3-11.39-21-13.08-13-1.76-22.41,8.12Q66.16,123.79,66.38,147l12,.46q.77-15.58,6.79-24.35,5.46-7.87,12.68-7.75t11.82,8.21q5.07,9,4.51,24.81l13.42.28Q129.22,130,120.17,117.56Z" fill="#06c"/><path d="M99.22,104.48q12.65,1.69,21,13.08,9,12.45,7.47,31.05l12.32.25q0-26.29-13.09-41.76a41.66,41.66,0,0,0-13.42-10.61A37.54,37.54,0,0,0,98,92.63a37,37,0,0,0-15.71,3,41.08,41.08,0,0,0-14.07,9.88q-13.89,14.72-15.65,40.95l13.86.53q-.21-23.16,10.43-34.35Q86.2,102.72,99.22,104.48Z" fill="#0c3"/><path d="M122.3,89A46.75,46.75,0,0,0,104,83.18a47.4,47.4,0,0,0-19.44,2.19A54.11,54.11,0,0,0,66,96.08a71.81,71.81,0,0,0-16.45,20.68A77,77,0,0,0,41.1,146l11.42.43q1.77-26.23,15.65-40.95a41.08,41.08,0,0,1,14.07-9.88,37,37,0,0,1,15.71-3,37.54,37.54,0,0,1,15.5,3.86,41.66,41.66,0,0,1,13.42,10.61q13,15.47,13.09,41.76l11,.25q1-28.59-13.36-47A50.58,50.58,0,0,0,122.3,89Z" fill="#faca44"/><path d="M80.27,75.19A60.63,60.63,0,0,0,58.88,87.84q-21.75,19.6-28,57.78L41.1,146a77,77,0,0,1,8.49-29.23A71.81,71.81,0,0,1,66,96.08,54.11,54.11,0,0,1,84.53,85.37,47.4,47.4,0,0,1,104,83.18,46.75,46.75,0,0,1,122.3,89a50.58,50.58,0,0,1,15.28,13.21q14.35,18.38,13.36,47l11.11.21q.22-33.91-17.74-55.15A62.05,62.05,0,0,0,125.45,79a58,58,0,0,0-22.16-6.55A56.39,56.39,0,0,0,80.27,75.19Z" fill="#f60"/><path d="M58.88,87.84A60.63,60.63,0,0,1,80.27,75.19a56.39,56.39,0,0,1,23-2.75A58,58,0,0,1,125.45,79a62.05,62.05,0,0,1,18.86,15.18q18,21.24,17.74,55.15l11.73.25Q172.37,105,148.63,81.39A66.15,66.15,0,0,0,124.46,66a69,69,0,0,0-27.34-4,76.16,76.16,0,0,0-27.28,6.64A78.44,78.44,0,0,0,45.92,85.16,81.57,81.57,0,0,0,28.67,111a94.48,94.48,0,0,0-7.35,34.29l9.6.37Q37.11,107.45,58.88,87.84Z" fill="#f33"/></g><path id="EMOTE_RAINBOW_0_Layer1_0_1_STROKES" data-name="EMOTE RAINBOW 0 Layer1 0 1 STROKES" d="M30.92,145.62q6.19-38.18,28-57.78A60.63,60.63,0,0,1,80.27,75.19a56.39,56.39,0,0,1,23-2.75A58,58,0,0,1,125.45,79a62.05,62.05,0,0,1,18.86,15.18q18,21.24,17.74,55.15l11.73.25Q172.37,105,148.63,81.39A66.15,66.15,0,0,0,124.46,66a69,69,0,0,0-27.34-4,76.16,76.16,0,0,0-27.28,6.64A78.44,78.44,0,0,0,45.92,85.16,81.57,81.57,0,0,0,28.67,111a94.48,94.48,0,0,0-7.35,34.29l9.6.37L41.1,146a77,77,0,0,1,8.49-29.23A71.81,71.81,0,0,1,66,96.08,54.11,54.11,0,0,1,84.53,85.37,47.4,47.4,0,0,1,104,83.18,46.75,46.75,0,0,1,122.3,89a50.58,50.58,0,0,1,15.28,13.21q14.35,18.38,13.36,47l11.11.21M66.38,147q-.21-23.16,10.43-34.35,9.39-9.88,22.41-8.12,12.65,1.69,21,13.08,9,12.45,7.47,31.05l12.32.25q0-26.29-13.09-41.76a41.66,41.66,0,0,0-13.42-10.61A37.54,37.54,0,0,0,98,92.63a37,37,0,0,0-15.71,3,41.08,41.08,0,0,0-14.07,9.88q-13.89,14.72-15.65,40.95l13.86.53,12,.46q.77-15.58,6.79-24.35,5.46-7.87,12.68-7.75t11.82,8.21q5.07,9,4.51,24.81l13.42.28m12.32.25,11,.25M41.1,146l11.42.43" fill="none" stroke="#000" stroke-linecap="round" stroke-linejoin="round" stroke-width="3"/><g id="EMOTE_RAINBOW_0_Layer0_0_FILL" data-name="EMOTE RAINBOW 0 Layer0 0 FILL"><path d="M17,68.77l-9.29,2.1,7.1,4.32-.31,9.88,7.1-7.1,11.42,2.47-4.94-7.72,6.24-7.62-10,1.51-4.91-7.16L17,68.77l.28-.06-.28.06M166.16,79.26l6.39,3.95-.93,8.65,6.79-5.25,9.26,3.09L184,82.6l6.48-6.18-9.38,1L176.56,69l-3.7,8.33-6.7,1.91M113.29,42.48,107.74,32l-7.1,10.22-9.57.89,7.31,5.5-3.91,8.7,9.44-5.46L117,57.6l-4-9,9.88-6.79Z" fill="#f1c950"/></g><path id="EMOTE_RAINBOW_0_Layer0_0_1_STROKES" data-name="EMOTE RAINBOW 0 Layer0 0 1 STROKES" d="M113.29,42.48l9.57-.62L113,48.65l4,9-13.09-5.77-9.44,5.46,3.91-8.7-7.31-5.5,9.57-.89L107.74,32Zm59.26,40.73-.93,8.65,6.79-5.25,9.26,3.09L184,82.6l6.48-6.18-9.38,1L176.56,69l-3.7,8.33-6.7,1.91ZM17,68.77l2.44-9.32,4.91,7.16,10-1.51-6.24,7.62,4.94,7.72L21.63,78l-7.1,7.1.31-9.88-7.1-4.32L17,68.77l.28-.06" fill="none" stroke="#000" stroke-linecap="round" stroke-linejoin="round" stroke-width="3"/></svg>