<svg id="Layer_1" data-name="Layer 1" xmlns="http://www.w3.org/2000/svg" viewBox="0 0 285 162"><g id="HS_ANTENNA_02_0_Layer2_0_FILL" data-name="HS ANTENNA 02 0 Layer2 0 FILL"><path d="M141.77,140.28c-.9,0-1.81.05-2.75.05a58.67,58.67,0,0,1-7.85-.5l.15,20.62,11,3.1-.5-23.27m-1.5-53.55c-.61,0-1.23,0-1.85,0a46.28,46.28,0,0,1-7.7-.6l.25,26.65a44.53,44.53,0,0,0,6.5.45c1.22,0,2.4,0,3.55-.15Z" fill="#6cc"/><path d="M141.77,140.28,141,113.13c-1.15.1-2.33.15-3.55.15a44.53,44.53,0,0,1-6.5-.45l.2,27a58.67,58.67,0,0,0,7.85.5c.94,0,1.85,0,2.75-.05m-1.5-53.55-.8-28a28.94,28.94,0,0,1-4.45.55,28,28,0,0,1-4.5-.15l.2,27.05a46.28,46.28,0,0,0,7.7.6C139,86.78,139.66,86.76,140.27,86.73Z" fill="#366"/></g><path id="HS_ANTENNA_02_0_Layer2_0_1_STROKES" data-name="HS ANTENNA 02 0 Layer2 0 1 STROKES" d="M130.75,86.18l-.23-27.05a28,28,0,0,0,4.5.15,28.94,28.94,0,0,0,4.45-.55l.8,28,.75,26.4.75,27.13.5,23.27m-11-3.1-.12-20.62-.23-27-.22-26.67a45.74,45.74,0,0,0,7.67.6c.62,0,1.24,0,1.85,0m1.5,53.53c-.9,0-1.81.05-2.75.05a58,58,0,0,1-7.82-.5M141,113.15c-1.15.09-2.33.13-3.55.13a46.07,46.07,0,0,1-6.5-.43" fill="none" stroke="#000" stroke-linecap="round" stroke-linejoin="round" stroke-width="4"/><path id="HS_ANTENNA_02_0_Layer1_0_1_STROKES" data-name="HS ANTENNA 02 0 Layer1 0 1 STROKES" d="M140.92,71.48a30.48,30.48,0,0,1,11.25,2.25q5.7,2.25,5.7,5.4t-5.7,5.4a37.46,37.46,0,0,1-13.75,2.25,37.46,37.46,0,0,1-13.75-2.25q-5.7-2.25-5.7-5.4t5.7-5.4q2.74-1.1,4.55-1.65m11.45,24.5a35,35,0,0,1,11.05,2.35c4,1.63,5.95,3.62,5.95,5.95s-2,4.32-5.95,6a37.16,37.16,0,0,1-14.25,2.45,37.57,37.57,0,0,1-14.3-2.45c-3.93-1.63-5.9-3.62-5.9-6s2-4.32,5.9-5.95a31.35,31.35,0,0,1,7-1.9m11.45,26.45a42.35,42.35,0,0,1,13.2,2.4q6.6,2.5,6.6,6t-6.6,6a44.49,44.49,0,0,1-15.85,2.5,44.9,44.9,0,0,1-15.9-2.5q-6.56-2.45-6.55-6t6.55-6a35.6,35.6,0,0,1,7-1.8" fill="none" stroke="#000" stroke-linecap="round" stroke-linejoin="round" stroke-width="4"/><g id="HS_ANTENNA_02_0_Layer0_0_FILL" data-name="HS ANTENNA 02 0 Layer0 0 FILL"><path d="M143.22,41.33c-1.73,0-3.47,0-5.2.05h-30.3q1.35,4.84,7.85,10.6,8.81,7.76,19.45,7.3t20.1-9a53.75,53.75,0,0,0,8.35-8.9Z" fill="#6c9"/><path d="M138,41.38c1.73,0,3.47-.05,5.2-.05l5.3-.1a12.21,12.21,0,0,0-3.2-4.9,9.69,9.69,0,0,0-7.7-3.35q-4.2.3-8,4.25a26.39,26.39,0,0,0-3.2,4.15H138Z" fill="#ff9"/></g><path id="HS_ANTENNA_02_0_Layer0_0_1_STROKES" data-name="HS ANTENNA 02 0 Layer0 0 1 STROKES" d="M126.47,41.38H138c1.73,0,3.47-.05,5.2-.05l5.3-.1a12.21,12.21,0,0,0-3.2-4.9,9.69,9.69,0,0,0-7.7-3.35q-4.2.3-8,4.25a26.39,26.39,0,0,0-3.2,4.15H107.72q1.35,4.84,7.85,10.6,8.81,7.76,19.45,7.3t20.1-9a53.75,53.75,0,0,0,8.35-8.9l-20.25-.05" fill="none" stroke="#000" stroke-linecap="round" stroke-linejoin="round" stroke-width="4"/></svg>