<svg id="Layer_1" data-name="Layer 1" xmlns="http://www.w3.org/2000/svg" viewBox="0 0 1193.21 480"><path id="Layer0_0_1_STROKES" data-name="Layer0 0 1 STROKES" d="M1118.61,339.75q8.79-2.65,9.75,4.5l-14.2,11Q1112.18,347.5,1118.61,339.75ZM1135.36,359q10.86-4.15,19,0-4.18,6.47-9.35,8Q1135.24,364,1135.36,359Zm-26.25,55.3,28-16.25-25.42-20.6,11.07-11.95m-14.85,18.1a35.46,35.46,0,0,1-4.62,9.65q-2.6,3.56-11.2,1.93t-12-3.88q-3.35-2.26-.42-7.8t5.45-11q2.54-5.46,9-3.93a27.85,27.85,0,0,1,11.13,5.23Q1109.88,377.51,1107.86,383.6Zm-29.65,39.2v-7.5l2.6-6.75,1.5,13.9,2.4-17,4,18.35,2.5-20.25,3.6,18.9,2.25-17.4.9,18.15,2.15-15.5L1102,421m51.15-4.25,1.6,4m-69.35-19.95q6.26-3.51,12.5.5,10.77,11.21,9,28.5l-34.5-1.5Q1073.31,412.65,1085.36,400.75Zm102.15,28.75,3.2,13.6M1086.11,339q2.92-5.76,9.75-2.75a50,50,0,0,1,.5,19.6A77,77,0,0,1,1086.11,339Zm-121.7-6q5.82-6.75,12.13.35l-4,18.25Zm24.9-8.25q10.43-9.66,12.85,2.6l-13.6,15Zm26.3,16.6q5.17,5.22.9,11.08l-16.4,0Q1005.41,345.5,1015.61,341.35Zm-22.75,29.17q-.15,3.93-3.75,7.81t-10.25,3.89a14.91,14.91,0,0,1-10.82-4c-2.79-2.66-4.31-4.8-4.55-6.4s1.08-3.33,4-5.15a24.81,24.81,0,0,1,11.28-3.3q6.93-.57,10.62,1.32A5.82,5.82,0,0,1,992.86,370.52Zm-8,27.2q4.55,12.51-3.55,26.53l-37-3.5q2.16-23.94,22.5-33l13,1a33.7,33.7,0,0,1,5,9l-6.1-4.07L982,407.7l-9-14,5.35,21.6-7.25-10.4-.5,14.05-6.25-25.55.25,24.8-4.75-19.9-.35,12-3.65-10.75,1.4,19.65-4.4-13.3-4,10.55m13.1,8.25-23.42,24.07,9,15.93m124-102.4,8.83,14.13L1041,403.22l34.55,6.28M1026,372.77l.18-1.82-1.8,1.15,1.62.67,13.5,5.53m-12-21.6L1026.19,371l10.92-7.05m-12,65.6h27.2m-22.4,8.8h18.4m47.2-8L1061,449l6.55,12.55m-80-65.6,36.88-23.8m72.72,59.8,15.75,31.5,15.45-7.5m1.6,21.6,4-8m-164-45.6,14.38,31.48,24-17.88m31.2,15.2,11.2-4.8M74.31,165.55l9.33,7.63L90,167.07,141,214.72l37.62,3.91,2.85,1q59.61-59.28,123.25-116.17a474,474,0,0,1,54.68,45.4,534.45,534.45,0,0,1,52.47-50.73,322.75,322.75,0,0,1,71.7,8.17Q499,137.9,512.34,170.45l15.55,3.87,30.32-22.54-3.42-10.15,52.92-11.16-1-59.77,57.88-5.1L679,124.82q40.23-21.34,69-61.7-.79-30.7-54.55-60.62,24.55,1.91,55,21.43,42.12,32.61,21.93,60.85-27.71,33.69-84.18,68.29l10.8,9.21q51.45-22.38,108.53-70.23,27.9-15.39-14.3-80.27,54.79,54.74,52.65,85-67.49,52.62-127.13,83.43l49.93,51.27,13,13.2,15.22,13.53,22.33,14.47,6.32,2.55,10.93-16.92,15.47-22.18,12.58-20.17,2.1-7.61-8-31.85,11.47-9,9.45-6.77,8.73-6.25,11,54.39L826.11,312.28,727.71,236l-97,12L601,320l75.73,57.3L651.14,408.2l-11.5,13.23-19.15,20.75L558.36,332.32l-50.95-9.19,47.88,79.59-22.73,10.55-20.92,8.45-33.18,11.83L452.36,319.3l-80.2,74.92-21.92-4.77-6.65,75.1-25.33-6.28-22.55-5.59-33.6-8.35,54.8-62.15-69.7-15.48-22.7,84.4-20.95-8.55-21.9-8.92-29-11.86,58-62.07-5-.8q-21.36-89.43-27-140.27M677.11,119.1l1.85,5.72-33.67,25.81q-2.49,13.16,10,18.72l30.92-16.28M652.31,84.7l11.2,26.4m-27.2-22.4,8,32m-20-32,5.6,28M684,200.55q-2,0-6-4.55a14.44,14.44,0,0,1-3.57-10.8c.25-4.17,1.48-6.79,3.67-7.88l18,20.08A23.68,23.68,0,0,1,684,200.55l5.1-7.85m-54.6,45.1-3.77,10.25m86-67.87L697,162.28m-3.85,60,17.8-10,3,14m43.2,16.8,9.53-11.65M873.91,185.5l-5.85-18.05m12.25,7.65-2.8-14.42m-2.8,60-12.22-4.77m1,24.77-13.6-4.6M434.71,123.9l-24,31.2m2.4,48-30.4,33.6m188-136,12-4.8m-86.4,104-16.8,24.8m78.7-72.92,9.83,29,38.17-18.57m-79.5-57.55,9.6-8m-68.8,58.4-12,29.6m81.6,18.4a155.94,155.94,0,0,1-31.2,34.4m-52.8-111.2a273.79,273.79,0,0,1-58.4,64m163.65,142,34.5,7.15L601,320m-148.6-.65,6.6-6.15,48.45,10m9.7,124-.8-7.2m-13.6-42.4,8.93,24.22m47.87-57,8,20.8m-18.4-17.6,8.8,24.8m-40.8-8,15.45,28.57M357.11,275.1l-40.8,45.6m20-56-44,52m24.6,65.48,33.33,7.27M326.71,400.7l-3.2,17.6m-5.6-20.8-5.6,22.4m27.2-80-18.4,24.8m32.8-15.2-18.4,20m-34.4,65.6-5.4,17.58m31-24-8.45,29.57m174.85,4.83,6.4-21.6m-28.8,19.2,4.8-8.8m-26.4-102.4,8,50.4m5.2-127.3-28.4,30.5m456.15,9.4q5.78,6.09,1.5,13.72-11.65,4.36-29.9,3.53A95.05,95.05,0,0,1,890.06,312.5Zm-43.35-49.4-12.27-4.82M788.31,271.9l6.55-13.72m-3.92,90.62-.7-.08.47.81.23-.73,4.57-15.3m-21.6,13.6,16.33,1.62-7.53-12.82m33.7-15.9q3.63-4.59,13.1-2.6,5.87,14.63,4.63,19.48Q829.27,334,816.41,320Zm-4.1-31.3,4.88-16.05m28,28.1q6.3-7.5,13-2.18Q855,316.26,851.76,322,848.43,317.47,845.16,300.75Zm7.38,66.43q.69,3.21-3.3,7.82a16.19,16.19,0,0,1-9.1,5.63,9.42,9.42,0,0,1-9-3.13c-2.62-2.75-3.8-5.22-3.55-7.43s1.76-4.73,4.55-7.57a32.15,32.15,0,0,1,8.35-6.35q4.18-2.1,7.8,2.85T852.54,367.18Zm33.37-5.68-.65.53-34.2,29.77.45,2.25q-1.6,20.94-8.75,35.75L820.44,425l16.25,42.25,30.72-10.92m-47-31.33-20.68-6q3.62-12.9,14.75-26.75,24.9-19.51,36.55-.5m-45.55,14.85,5.75,11.25,2.5-19.75,7,17.25.25-15.25,6.25,17.5.25-27.5,9.5,30-2.25-30.5,7,21.25,1-20.75,6.75,15L849,394.9m-55.9,77-13.57-21.6,36.67-25.8m96.9-47.8,15.7,6.73-2.1-14.73M885.26,362l-.1-2.4-5.65,6.67m4.8-26.4.83,19.35.35,0,11.62-13.72m-12,13.75,0,.38.33-.41,20.42-.92m-5.45,61.85,28.4,1.55m-46.15,14.2,47.6,1m-139.6-87.32,24.1,41M642.71,294.3l8.8-7.2m-24,73.6,7.2-4m.8,30.4,15.63,21.1m-32.43-11.5,20.93,24.73m97.47,25.67,23.2-3.2m-54.4-13.6,58.4-.8m-37.6-16.8,36-1.6m-72.8-113.6,3.2-9.6M904,454.2l19.4-.5M773.46,254.4l6.18-9.75M434.71,221.5l-43.2,54.4m167.2-42.4-29.6,55.2m50.4-40.8-23.2,47.2m60.8-92-38.4,90.4m-131.1-46.4-79,87.5m243.7-152.3q-6.62,17.65-17.1,29.5M88.31,166.3l-1.75-16.75L74.71,153.5m8.93,19.68,54.62,57,40.2-.72m77-14.4-33.6,31.2m9.6,18.4-20.8,20.8m32.8.8-27.2,25.6M181.66,433.63l17.85-26.53m30.4-24.8-9.6,19.2m-9.62-41.8,36.52,7m-29.3,44.4-14.35,31.45M15.86,322.3a15,15,0,0,1-9.1-3.25,10.34,10.34,0,0,1-4.25-7.95,11.68,11.68,0,0,1,3.25-8.57,10.53,10.53,0,0,1,8.6-3.63q5.15.19,11.25,6.75-1.11-7.26,1.58-10.55c1.78-2.2,4.56-3.33,8.32-3.4a11.65,11.65,0,0,1,9,3.4q3.38,3.51,2.25,9.78T35.41,313.5q8.56,1.61,11.05,1.38t5.23,2.87q2.73,3.09,2.07,8.57a18,18,0,0,1-3.3,8.93q-1.32,1.75-9.75,3,8,.45,11.3,4.62a15.15,15.15,0,0,1,3.5,8.8q.21,4.62-4,10.62t-12.6,6.18q-8.4.18-12.5-4.4a9.92,9.92,0,0,1-2.3-10.22,39.23,39.23,0,0,1,5.95-11.28q-5.61,4.5-10.67,5.22T9.61,344Q4.89,339.41,7,333.78t4.93-8.15c1.9-1.7,3.23-2.8,4-3.33a10.38,10.38,0,0,1,6.25-2,12.36,12.36,0,0,1,2,.17,15.68,15.68,0,0,1-7.63,1.83Zm154.05,11.2H71.51m96.8-22.4-100.8-1.6m96.8,44.8h-39.2m16.8-64-79.2-3.2m241-20.7q-17.29,20.07-34.6,31.1m55.2-91.1a219.55,219.55,0,0,1-71.7,64.6m46.9-59.1q-12.47,16.22-36.8,34.4m64.8-102.4-44,43.6m656,182.8-9.72,13.55,22.52,9.65" fill="none" stroke="#000" stroke-linecap="round" stroke-linejoin="round" stroke-width="5"/></svg>