<svg id="Layer_1" data-name="Layer 1" xmlns="http://www.w3.org/2000/svg" viewBox="0 0 323.7 110.25"><g id="HS_GOOGLES_02_0_Layer6_0_FILL" data-name="HS GOOGLES 02 0 Layer6 0 FILL"><path d="M102.15,17.75q16.6,15.15,16.6,36.5,0,20.15-14.8,34.8a31.56,31.56,0,0,0,19.2,6.35A22,22,0,0,0,137,91a4.55,4.55,0,0,0-.4-.45c-.23-.2-.45-.4-.65-.6Q122,75.55,122,56q0-21.64,17.1-36.95c.43-.4.88-.78,1.35-1.15s1-.85,1.5-1.25l.4-.3c-.47-.47-.93-.9-1.4-1.3a26.05,26.05,0,0,0-17.75-6.9Q110.06,8.15,102.15,17.75Z" fill="#96c"/></g><path id="HS_GOOGLES_02_0_Layer6_0_1_STROKES" data-name="HS GOOGLES 02 0 Layer6 0 1 STROKES" d="M102.15,17.75q7.91-9.6,21-9.6a26.05,26.05,0,0,1,17.75,6.9c.47.4.93.83,1.4,1.3l-.4.3c-.5.4-1,.82-1.5,1.25s-.92.75-1.35,1.15Q122,34.35,122,56q0,19.55,14,34c.2.2.42.4.65.6a4.55,4.55,0,0,1,.4.45,22,22,0,0,1-13.8,4.4A31.56,31.56,0,0,1,104,89.05q14.8-14.65,14.8-34.8Q118.75,32.91,102.15,17.75Z" fill="none" stroke="#000" stroke-linecap="round" stroke-linejoin="round" stroke-width="4"/><g id="HS_GOOGLES_02_0_Layer5_0_FILL" data-name="HS GOOGLES 02 0 Layer5 0 FILL"><path d="M217.8,15.9q1.95,1.5,3.8,3.15,17.1,15.3,17.1,37a46.82,46.82,0,0,1-12,31.9,51.5,51.5,0,0,0,18,3A41.15,41.15,0,0,0,274.9,78.3a41,41,0,0,0,12.6-30.2,41.22,41.22,0,0,0-12.6-30.3A41.33,41.33,0,0,0,244.65,5.3Q227.3,5.3,217.8,15.9Z" fill="#96c"/></g><path id="HS_GOOGLES_02_0_Layer5_0_1_STROKES" data-name="HS GOOGLES 02 0 Layer5 0 1 STROKES" d="M217.8,15.9Q227.3,5.3,244.65,5.3A41.33,41.33,0,0,1,274.9,17.8a41.22,41.22,0,0,1,12.6,30.3,41,41,0,0,1-12.6,30.2,41.15,41.15,0,0,1-30.25,12.6,51.5,51.5,0,0,1-18-3,46.82,46.82,0,0,0,12-31.9q0-21.64-17.1-36.95Q219.76,17.4,217.8,15.9Z" fill="none" stroke="#000" stroke-linecap="round" stroke-linejoin="round" stroke-width="4"/><g id="HS_GOOGLES_02_0_Layer4_0_FILL" data-name="HS GOOGLES 02 0 Layer4 0 FILL"><path d="M295.35,28.65q-7.61,0-11.25,2.35a42.48,42.48,0,0,1,3.4,17.1,40.75,40.75,0,0,1-10.15,27.6,27.1,27.1,0,0,0,18,6.2A25.07,25.07,0,0,0,314,74.1a25.75,25.75,0,0,0,7.75-18.85A25.7,25.7,0,0,0,314,36.45,25.07,25.07,0,0,0,295.35,28.65Z" fill="#99f"/></g><path id="HS_GOOGLES_02_0_Layer4_0_1_STROKES" data-name="HS GOOGLES 02 0 Layer4 0 1 STROKES" d="M295.35,28.65a25.07,25.07,0,0,1,18.6,7.8,25.7,25.7,0,0,1,7.75,18.8A25.75,25.75,0,0,1,314,74.1a25.07,25.07,0,0,1-18.6,7.8,27.1,27.1,0,0,1-18-6.2A40.75,40.75,0,0,0,287.5,48.1,42.48,42.48,0,0,0,284.1,31Q287.74,28.65,295.35,28.65Z" fill="none" stroke="#000" stroke-linecap="round" stroke-linejoin="round" stroke-width="4"/><g id="HS_GOOGLES_02_0_Layer3_0_FILL" data-name="HS GOOGLES 02 0 Layer3 0 FILL"><path d="M19.1,17.3Q2,32.6,2,54.25t17.1,37q17.06,15.3,41.25,15.3t41.3-15.3q17.1-15.3,17.1-36.95T101.65,17.3Q84.55,2,60.35,2T19.1,17.3m202.5,1.75q-17.1-15.3-41.3-15.3-20.81,0-36.3,11.3c-.67.47-1.37,1-2.1,1.6-.5.4-1,.82-1.5,1.25s-.92.75-1.35,1.15Q122,34.35,122,56q0,19.55,14,34c.2.2.42.4.65.6.8.8,1.63,1.6,2.5,2.4q17.05,15.3,41.25,15.3T221.6,93a63.89,63.89,0,0,0,4.8-4.8A46.82,46.82,0,0,0,238.7,56Q238.7,34.36,221.6,19.05Z" fill="#ccf"/></g><path id="HS_GOOGLES_02_0_Layer3_0_1_STROKES" data-name="HS GOOGLES 02 0 Layer3 0 1 STROKES" d="M226.4,88.15a63.89,63.89,0,0,1-4.8,4.8q-17.1,15.3-41.3,15.3T139.05,93c-.87-.8-1.7-1.6-2.5-2.4-.23-.2-.45-.4-.65-.6Q122,75.55,122,56q0-21.64,17.1-36.95c.43-.4.88-.78,1.35-1.15s1-.85,1.5-1.25c.73-.6,1.43-1.13,2.1-1.6q15.5-11.3,36.3-11.3,24.19,0,41.3,15.3t17.1,37A46.82,46.82,0,0,1,226.4,88.15ZM118.75,54.25q0,21.65-17.1,37t-41.3,15.3q-24.19,0-41.25-15.3T2,54.25Q2,32.61,19.1,17.3T60.35,2q24.2,0,41.3,15.3T118.75,54.25Z" fill="none" stroke="#000" stroke-linecap="round" stroke-linejoin="round" stroke-width="4"/><g id="HS_GOOGLES_02_0_Layer2_0_FILL" data-name="HS GOOGLES 02 0 Layer2 0 FILL"><path d="M34.5,30.85Q24,40.56,24,54.25T34.5,77.7a36.08,36.08,0,0,0,25.4,9.7,36.08,36.08,0,0,0,25.4-9.7Q95.8,68,95.8,54.25T85.3,30.85a36.08,36.08,0,0,0-25.4-9.7,36.08,36.08,0,0,0-25.4,9.7M204.3,33Q193.7,23.5,178.7,23.5A37.24,37.24,0,0,0,153.1,33q-10.54,9.45-10.55,22.8t10.55,22.8A37.24,37.24,0,0,0,178.7,88q15,0,25.6-9.45t10.6-22.8Q214.9,42.4,204.3,33Z" fill="#99f"/></g><path id="HS_GOOGLES_02_0_Layer2_0_1_STROKES" data-name="HS GOOGLES 02 0 Layer2 0 1 STROKES" d="M214.9,55.75q0,13.35-10.6,22.8T178.7,88a37.24,37.24,0,0,1-25.6-9.45q-10.54-9.45-10.55-22.8T153.1,33a37.24,37.24,0,0,1,25.6-9.45q15,0,25.6,9.45T214.9,55.75ZM95.8,54.25Q95.8,68,85.3,77.7a36.08,36.08,0,0,1-25.4,9.7,36.08,36.08,0,0,1-25.4-9.7Q24,68,24,54.25t10.5-23.4a36.08,36.08,0,0,1,25.4-9.7,36.08,36.08,0,0,1,25.4,9.7Q95.8,40.56,95.8,54.25Z" fill="none" stroke="#000" stroke-linecap="round" stroke-linejoin="round" stroke-width="4"/><g id="HS_GOOGLES_02_0_Layer1_0_FILL" data-name="HS GOOGLES 02 0 Layer1 0 FILL"><path d="M74.45,40.55A22.52,22.52,0,0,0,59.1,35a22.72,22.72,0,0,0-15.4,5.55,17.37,17.37,0,0,0,0,26.85A22.61,22.61,0,0,0,59.1,73a22.41,22.41,0,0,0,15.35-5.6,17.28,17.28,0,0,0,0-26.85m119,1.15a24.06,24.06,0,0,0-31.1,0,18,18,0,0,0,0,27.6,24.06,24.06,0,0,0,31.1,0,18,18,0,0,0,0-27.6Z" fill="#ccf"/></g><path id="HS_GOOGLES_02_0_Layer1_0_1_STROKES" data-name="HS GOOGLES 02 0 Layer1 0 1 STROKES" d="M199.85,55.5a17.77,17.77,0,0,1-6.45,13.8,24.06,24.06,0,0,1-31.1,0,18,18,0,0,1,0-27.6,24.06,24.06,0,0,1,31.1,0A17.77,17.77,0,0,1,199.85,55.5ZM80.85,54a17.13,17.13,0,0,1-6.4,13.4A22.41,22.41,0,0,1,59.1,73a22.61,22.61,0,0,1-15.4-5.6,17.37,17.37,0,0,1,0-26.85A22.72,22.72,0,0,1,59.1,35a22.52,22.52,0,0,1,15.35,5.55A17.27,17.27,0,0,1,80.85,54Z" fill="none" stroke="#000" stroke-linecap="round" stroke-linejoin="round" stroke-width="4"/><g id="HS_GOOGLES_02_0_Layer0_0_FILL" data-name="HS GOOGLES 02 0 Layer0 0 FILL"><path d="M68.35,53.8a7.87,7.87,0,0,0-2.8-6.1,9.59,9.59,0,0,0-6.7-2.5,9.78,9.78,0,0,0-6.75,2.5,8.09,8.09,0,0,0,0,12.15,9.78,9.78,0,0,0,6.75,2.5,9.59,9.59,0,0,0,6.7-2.5,7.81,7.81,0,0,0,2.8-6.05m116.9-3.65a10.71,10.71,0,0,0-6.85-2.25,10.91,10.91,0,0,0-6.9,2.25,6.49,6.49,0,0,0,0,10.75,11.05,11.05,0,0,0,6.9,2.2,10.85,10.85,0,0,0,6.85-2.2,6.49,6.49,0,0,0,0-10.75Z" fill="#99f"/></g><path id="HS_GOOGLES_02_0_Layer0_0_1_STROKES" data-name="HS GOOGLES 02 0 Layer0 0 1 STROKES" d="M188.1,55.5a6.7,6.7,0,0,1-2.85,5.4,10.85,10.85,0,0,1-6.85,2.2,11.05,11.05,0,0,1-6.9-2.2,6.49,6.49,0,0,1,0-10.75,10.91,10.91,0,0,1,6.9-2.25,10.71,10.71,0,0,1,6.85,2.25A6.65,6.65,0,0,1,188.1,55.5ZM68.35,53.8a7.81,7.81,0,0,1-2.8,6.05,9.59,9.59,0,0,1-6.7,2.5,9.78,9.78,0,0,1-6.75-2.5,8.09,8.09,0,0,1,0-12.15,9.78,9.78,0,0,1,6.75-2.5,9.59,9.59,0,0,1,6.7,2.5A7.87,7.87,0,0,1,68.35,53.8Z" fill="none" stroke="#000" stroke-linecap="round" stroke-linejoin="round" stroke-width="4"/></svg>