<svg id="Layer_1" data-name="Layer 1" xmlns="http://www.w3.org/2000/svg" viewBox="0 0 209.5 192.75"><g id="FROG_0_Layer3_0_FILL" data-name="FROG 0 Layer3 0 FILL"><path d="M16.08,105.6a30.81,30.81,0,0,0-6.7,20q0,11.7,6.7,20,1.44,1.8,6.15,6.55c2.63,2.67,4.48,4.43,5.55,5.3q-5.91,1.46-16.45,9.55-11.21,8.6-8.95,11.4,2.89,3.56,6.45,2.65c1.6-.4,3.76-1.73,6.5-4a65.46,65.46,0,0,1,6.7-5.1q3.79-2.1,6.85-.55c1.1.57,1.21,2.82.35,6.75s-.49,6.08,1.15,6.75q4.74,2,8.75-5c1.8-3.17,2.73-4.78,2.8-4.85,1-1.43,2-2,3-1.65s1.71,1.33,2,3q.24,1.5.45,5.1.65,6.9,6,6.9,6.45,0,6.2-8.5T53,161.25a43.25,43.25,0,0,1-9.85-14.85,42.16,42.16,0,0,1-2.9-15.75,41.56,41.56,0,0,1,8.7-26.05q-7.65-7.25-16.55-7.25-9.55,0-16.3,8.25m58,3.8q-18.75,12.64-30.9,37A43.25,43.25,0,0,0,53,161.25,58.92,58.92,0,0,0,59,166.5a131.71,131.71,0,0,0,16.6,10.1l1,.5a57,57,0,0,1,6.6-5.2l2-42.5-2,42.5a57,57,0,0,0-6.6,5.2,28.57,28.57,0,0,0-3.7,4.05c-2.2,2.93-2.65,5.07-1.35,6.4q2.7,2.85,8-.7c.9-.6,2.16-1.52,3.8-2.75,1.3-.9,2.26-1.3,2.9-1.2.16,0,.55.68,1.15,1.95a13.67,13.67,0,0,0,2,3.3q3.24,3.75,7.9-2.75c.53-.73,1.11-.7,1.75.1a28.79,28.79,0,0,1,1.95,3.1q2.85,4.4,6.3-.2a2.34,2.34,0,0,0,.35-.85,3.87,3.87,0,0,0,0-1,17,17,0,0,0-2.55-5.45q-2.06-3.19-7.75-10.2l2-43.5-2,43.5q5.7,7,7.75,10.2a17,17,0,0,1,2.55,5.45,14.56,14.56,0,0,1,2.2-5.35q1.84-3.1,6.95-10.4l-2.75-41,2.75,41q-5.1,7.3-6.95,10.4a14.56,14.56,0,0,0-2.2,5.35,3.87,3.87,0,0,1,0,1,1.19,1.19,0,0,0,.25.65q3.3,4.35,5.8.1a23.27,23.27,0,0,1,1.75-3c.56-.77,1.1-.82,1.6-.15q4.39,6.1,7.3,2.45a11.37,11.37,0,0,0,1.75-3.2c.53-1.2.86-1.82,1-1.85a4.54,4.54,0,0,1,2.75,1.1c1.5,1.13,2.66,2,3.5,2.55q4.89,3.26,7.35.5,1.69-1.95-1.4-6a31.57,31.57,0,0,0-5.15-5.3c-1.34-1.1-2.84-2.21-4.5-3.35l-2.7-40.55,2.7,40.55c1.66,1.14,3.16,2.25,4.5,3.35l14.3-10.85c1.4-1.07,2.71-2.15,3.95-3.25a52.19,52.19,0,0,0,7.05-7.95A80.19,80.19,0,0,0,153,131.25a62.85,62.85,0,0,0-11.65-17.65A46,46,0,0,0,110,98.8q-18.56-1.24-36,10.6m75.8-14.65q-8-6-22.5-9c-.67.1-1.34.18-2,.25a124.94,124.94,0,0,1-17.45,1.3,132.62,132.62,0,0,1-28-3.3A65.55,65.55,0,0,0,59,94.75a53.19,53.19,0,0,0-10.1,9.85,41.56,41.56,0,0,0-8.7,26.05,42.16,42.16,0,0,0,2.9,15.75q12.15-24.35,30.9-37,17.44-11.85,36-10.6a46,46,0,0,1,31.3,14.8A62.85,62.85,0,0,1,153,131.25a80.19,80.19,0,0,1,6.35,22.05,44.32,44.32,0,0,0,8-23.3,37.51,37.51,0,0,0-10.05-28.5,56.15,56.15,0,0,0-7.45-6.75M152,29.3a65,65,0,0,0-6-4.1c-1.4-.87-2.09-1.4-2.05-1.6q.9-6.41-4.3-13.95T126.83,2q-7.56,0-11,4.25c-.6.73-1.4,1.6-2.4,2.6A20.85,20.85,0,0,0,111,6.1q-3.75-3.75-11.4-4A15.69,15.69,0,0,0,87.08,7.05a22.87,22.87,0,0,0-4.25,7.3c-1.17,3-2.27,5.78-3.3,8.45a64.85,64.85,0,0,0-14.15,8.1Q48.07,44,49.18,56.45t17.55,21.7a97.61,97.61,0,0,0,13.15,5.9,132.62,132.62,0,0,0,28,3.3,124.94,124.94,0,0,0,17.45-1.3q18.69-4.5,24.6-7.5,17.44-8.74,18.9-21.9T152,29.3m24.7,63.3A23.51,23.51,0,0,0,166,95.15a28.16,28.16,0,0,0-8.75,6.35A37.51,37.51,0,0,1,167.33,130a44.32,44.32,0,0,1-8,23.3,52.19,52.19,0,0,1-7.05,7.95q-1,3.94.75,12.25,2.1,10.09,7.35,9.85,6.65-.3,7-7.2-.11-3.56,0-5c.13-1.6.65-2.55,1.55-2.85q2.15-.65,4,1.75a38.51,38.51,0,0,1,3,5.65,21.15,21.15,0,0,0,3.25,5.4,4.16,4.16,0,0,0,4.8,1.2q3.94-1.5,4.15-4,.09-1.75-1.8-4.75a26.78,26.78,0,0,1-2.45-4.35q-.56-2.1,2.1-2.9,1.55-.45,4.5,2,1.69,1.39,5.45,4.85,7.29,5.85,11-1.3,3-5.81-8.85-11.85-10.11-5.15-18.15-4.65a83.73,83.73,0,0,0,6.25-5.85q4.44-4.55,6.2-6.65a33.06,33.06,0,0,0,7.4-19.8,34.9,34.9,0,0,0-5.15-21Q188.73,92.85,176.68,92.6Z" fill="#88b464"/></g><path id="FROG_0_Layer3_0_1_STROKES" data-name="FROG 0 Layer3 0 1 STROKES" d="M79.88,84.05a97.61,97.61,0,0,1-13.15-5.9q-16.5-9.25-17.55-21.7T65.38,30.9a64.85,64.85,0,0,1,14.15-8.1c1-2.67,2.13-5.48,3.3-8.45a22.87,22.87,0,0,1,4.25-7.3A15.69,15.69,0,0,1,99.63,2.1q7.65.25,11.4,4a20.85,20.85,0,0,1,2.35,2.75c1-1,1.8-1.87,2.4-2.6q3.5-4.3,11-4.25t12.75,7.65q5.19,7.55,4.3,14c0,.2.65.73,2.05,1.6a65,65,0,0,1,6,4.1q18.3,14.14,16.85,27.35t-18.9,21.9q-5.91,3-24.6,7.53l2-.28q14.49,2.9,22.5,9a56.15,56.15,0,0,1,7.45,6.75A28.16,28.16,0,0,1,166,95.15a23.51,23.51,0,0,1,10.65-2.55q12,.25,17.9,9.5a34.9,34.9,0,0,1,5.15,21,33.06,33.06,0,0,1-7.4,19.8q-1.76,2.1-6.2,6.65a83.73,83.73,0,0,1-6.25,5.85q8-.49,18.15,4.65,11.9,6,8.85,11.85-3.75,7.16-11,1.3-3.75-3.45-5.45-4.85-3-2.4-4.5-2-2.65.79-2.1,2.9a26.78,26.78,0,0,0,2.45,4.35q1.89,3,1.8,4.75-.21,2.51-4.15,4a4.16,4.16,0,0,1-4.8-1.2,21.15,21.15,0,0,1-3.25-5.4,38.51,38.51,0,0,0-3-5.65q-1.8-2.4-4-1.75c-.9.3-1.42,1.25-1.55,2.85q-.11,1.4,0,5-.3,6.9-7,7.2-5.25.26-7.35-9.85-1.71-8.3-.75-12.25c-1.24,1.1-2.55,2.18-3.95,3.25L134,175.35a31.57,31.57,0,0,1,5.15,5.3q3.09,4.09,1.4,6-2.46,2.75-7.35-.5c-.84-.57-2-1.42-3.5-2.55a4.54,4.54,0,0,0-2.75-1.1c-.14,0-.47.65-1,1.85a11.37,11.37,0,0,1-1.75,3.2q-2.91,3.65-7.3-2.45c-.5-.67-1-.62-1.6.15a23.27,23.27,0,0,0-1.75,3q-2.51,4.24-5.8-.1a1.19,1.19,0,0,1-.25-.65,2.34,2.34,0,0,1-.35.85q-3.45,4.6-6.3.2a28.79,28.79,0,0,0-1.95-3.1c-.64-.8-1.22-.83-1.75-.1q-4.65,6.49-7.9,2.75a13.67,13.67,0,0,1-2-3.3c-.6-1.27-1-1.92-1.15-1.95-.64-.1-1.6.3-2.9,1.2-1.64,1.23-2.9,2.15-3.8,2.75q-5.25,3.56-8,.7c-1.3-1.33-.85-3.47,1.35-6.4a28.57,28.57,0,0,1,3.7-4.05l-1-.5A131.71,131.71,0,0,1,59,166.5,58.92,58.92,0,0,1,53,161.25q6.35,10.25,6.6,18.6.24,8.51-6.2,8.5-5.35,0-6-6.9-.21-3.6-.45-5.1c-.34-1.67-1-2.67-2-3s-2,.22-3,1.65c-.07.07-1,1.68-2.8,4.85q-4,6.94-8.75,5-2.46-1-1.15-6.75c.86-3.93.75-6.18-.35-6.75q-3.06-1.54-6.85.55a65.46,65.46,0,0,0-6.7,5.1c-2.74,2.27-4.9,3.6-6.5,4q-3.55.9-6.45-2.65-2.25-2.81,9-11.4,10.55-8.1,16.45-9.55c-1.07-.87-2.92-2.63-5.55-5.3q-4.71-4.75-6.15-6.55-6.7-8.25-6.7-20a30.81,30.81,0,0,1,6.7-20q6.75-8.25,16.3-8.25,8.9,0,16.55,7.25A53.19,53.19,0,0,1,59,94.75a65.55,65.55,0,0,1,20.85-10.7c-.94-.2-1.87-.42-2.8-.65m48.25,2.68a127.83,127.83,0,0,1-17.45,1.27,132.62,132.62,0,0,1-28-3.3M48.93,104.6a41.56,41.56,0,0,0-8.7,26.05,42.16,42.16,0,0,0,2.9,15.75q12.15-24.35,30.9-37,17.44-11.85,36-10.6a46,46,0,0,1,31.3,14.8A62.85,62.85,0,0,1,153,131.25a80.19,80.19,0,0,1,6.35,22.05,44.32,44.32,0,0,0,8-23.3,37.51,37.51,0,0,0-10.05-28.5M53,161.25a43.25,43.25,0,0,1-9.85-14.85m64.4,41.15a3.87,3.87,0,0,0,0-1,17,17,0,0,0-2.55-5.45q-2.06-3.19-7.75-10.2l2-43.5m8.3,59.15a14.56,14.56,0,0,1,2.2-5.35q1.84-3.1,6.95-10.4l-2.75-41m45.45,23.5a52.19,52.19,0,0,1-7.05,7.95m-25.45-29.8,2.7,40.55c1.66,1.14,3.16,2.25,4.5,3.35M85.18,129.4l-2,42.5a57,57,0,0,0-6.6,5.2" fill="none" stroke="#000" stroke-linecap="round" stroke-linejoin="round" stroke-width="4"/><g id="FROG_0_Layer2_0_FILL" data-name="FROG 0 Layer2 0 FILL"><path d="M123.58,48.4q5.49-2.55,7.55-6,1.89-3.35-.4-5.45-2.46-2.25-8.65-1.5l-4.8,1a37,37,0,0,1-6.9.8,75.29,75.29,0,0,1-14-1q-6.3-1.09-8.7,1.3-2.2,2.14-.15,5.7t7.35,6.1a28.78,28.78,0,0,0,13.8,2.4,39.37,39.37,0,0,0,15-3.35m-29.7-6q14.75,6.34,28-1Q108.62,48.7,93.88,42.35Z" fill="#88b464"/></g><path id="FROG_0_Layer2_0_1_STROKES" data-name="FROG 0 Layer2 0 1 STROKES" d="M122.08,35.4q6.19-.75,8.65,1.5,2.29,2.1.4,5.45-2.06,3.49-7.55,6a39.37,39.37,0,0,1-15,3.35,28.78,28.78,0,0,1-13.8-2.4q-5.25-2.4-7.35-6.1t.15-5.7q2.4-2.4,8.7-1.3a75.29,75.29,0,0,0,14,1,37,37,0,0,0,6.9-.8Zm14.8-2.55q-9.51,12.49,2,25m-45-15.5q14.75,6.34,28-1m-30,24.5q16.5,15.5,30.5-1m-42.5-32q7.89,11.25,0,22.5" fill="none" stroke="#000" stroke-linecap="round" stroke-linejoin="round" stroke-width="4"/><g id="FROG_0_Layer1_0_FILL" data-name="FROG 0 Layer1 0 FILL"><path d="M109.53,20.3a8.19,8.19,0,0,0-2.8-6.2,9.51,9.51,0,0,0-6.7-2.55,9.65,9.65,0,0,0-6.75,2.55,8.21,8.21,0,0,0-2.75,6.2,8.06,8.06,0,0,0,2.75,6.15,9.56,9.56,0,0,0,6.75,2.6,9.42,9.42,0,0,0,6.7-2.6,8,8,0,0,0,2.8-6.15m21.5,1a8.19,8.19,0,0,0-2.8-6.2,9.51,9.51,0,0,0-6.7-2.55,9.65,9.65,0,0,0-6.75,2.55A8.21,8.21,0,0,0,112,21.3a8.06,8.06,0,0,0,2.75,6.15,9.56,9.56,0,0,0,6.75,2.6,9.42,9.42,0,0,0,6.7-2.6A8,8,0,0,0,131,21.3Z" fill="#fff"/></g><path id="FROG_0_Layer1_0_1_STROKES" data-name="FROG 0 Layer1 0 1 STROKES" d="M131,21.3a8,8,0,0,1-2.8,6.15,9.42,9.42,0,0,1-6.7,2.6,9.56,9.56,0,0,1-6.75-2.6A8.06,8.06,0,0,1,112,21.3a8.21,8.21,0,0,1,2.75-6.2,9.65,9.65,0,0,1,6.75-2.55,9.51,9.51,0,0,1,6.7,2.55A8.19,8.19,0,0,1,131,21.3Zm-21.5-1a8,8,0,0,1-2.8,6.15,9.42,9.42,0,0,1-6.7,2.6,9.56,9.56,0,0,1-6.75-2.6,8.06,8.06,0,0,1-2.75-6.15,8.21,8.21,0,0,1,2.75-6.2A9.65,9.65,0,0,1,100,11.55a9.51,9.51,0,0,1,6.7,2.55A8.19,8.19,0,0,1,109.53,20.3Z" fill="none" stroke="#000" stroke-linecap="round" stroke-linejoin="round" stroke-width="4"/><g id="FROG_0_Layer0_0_FILL" data-name="FROG 0 Layer0 0 FILL"><path d="M99.78,21.55a1.76,1.76,0,0,0,1.2-.45,1.28,1.28,0,0,0,0-2.1,1.76,1.76,0,0,0-1.2-.45,1.9,1.9,0,0,0-1.25.45,1.35,1.35,0,0,0,0,2.1,1.9,1.9,0,0,0,1.25.45M123,20.3a1.92,1.92,0,0,0-.45-1.25,1.35,1.35,0,0,0-2.1,0A1.92,1.92,0,0,0,120,20.3a1.72,1.72,0,0,0,.45,1.2,1.28,1.28,0,0,0,2.1,0A1.72,1.72,0,0,0,123,20.3Z"/></g><path id="FROG_0_Layer0_0_1_STROKES" data-name="FROG 0 Layer0 0 1 STROKES" d="M123,20.3a1.72,1.72,0,0,1-.45,1.2,1.28,1.28,0,0,1-2.1,0,1.72,1.72,0,0,1-.45-1.2,1.92,1.92,0,0,1,.45-1.25,1.35,1.35,0,0,1,2.1,0A1.92,1.92,0,0,1,123,20.3Zm-21.5-.25A1.35,1.35,0,0,1,101,21.1a1.76,1.76,0,0,1-1.2.45,1.9,1.9,0,0,1-1.25-.45,1.35,1.35,0,0,1,0-2.1,1.9,1.9,0,0,1,1.25-.45A1.76,1.76,0,0,1,101,19,1.35,1.35,0,0,1,101.53,20.05Z" fill="none" stroke="#000" stroke-linecap="round" stroke-linejoin="round" stroke-width="3"/></svg>