<svg id="Layer_1" data-name="Layer 1" xmlns="http://www.w3.org/2000/svg" viewBox="0 0 58.5 36.4"><g id="EMOTE_03_0_Layer0_0_FILL" data-name="EMOTE 03 0 Layer0 0 FILL"><path d="M5.5,24.5a8.9,8.9,0,0,0,3.3,7,11.65,11.65,0,0,0,8,2.9,11.65,11.65,0,0,0,8-2.9,8.9,8.9,0,0,0,3.3-7,9.16,9.16,0,0,0-3.3-7,11.75,11.75,0,0,0-7.95-2.85A11.75,11.75,0,0,0,8.8,17.45,9.16,9.16,0,0,0,5.5,24.5M18,23a1.28,1.28,0,0,1,0,2.1,1.72,1.72,0,0,1-1.2.45,1.92,1.92,0,0,1-1.25-.45,1.35,1.35,0,0,1,0-2.1,1.92,1.92,0,0,1,1.25-.45A1.72,1.72,0,0,1,18,23m16.9-6.8a9.05,9.05,0,0,0-3.5,7.15,8.9,8.9,0,0,0,3.5,7.1,12.65,12.65,0,0,0,8.45,3,12.65,12.65,0,0,0,8.45-3,8.94,8.94,0,0,0,3.45-7.1,9.09,9.09,0,0,0-3.45-7.15A12.65,12.65,0,0,0,43.3,13.2a12.65,12.65,0,0,0-8.45,2.95m8.7,4.8a1.45,1.45,0,1,1-1-.45A1.44,1.44,0,0,1,43.55,21Z" fill="#fff"/></g><path d="M55.2,23.3a8.94,8.94,0,0,1-3.45,7.1,12.65,12.65,0,0,1-8.45,3,12.65,12.65,0,0,1-8.45-3,8.9,8.9,0,0,1-3.5-7.1,9.05,9.05,0,0,1,3.5-7.15A12.65,12.65,0,0,1,43.3,13.2a12.65,12.65,0,0,1,8.45,2.95A9.09,9.09,0,0,1,55.2,23.3Z" fill="none" stroke="#000" stroke-linecap="round" stroke-linejoin="round" stroke-width="4"/><path d="M35,2q8.74,7,21.5,4" fill="none" stroke="#000" stroke-linecap="round" stroke-linejoin="round" stroke-width="4"/><path d="M28,24.5a8.9,8.9,0,0,1-3.3,7,11.65,11.65,0,0,1-7.95,2.9A11.65,11.65,0,0,1,8.8,31.5a8.9,8.9,0,0,1-3.3-7,9.16,9.16,0,0,1,3.3-7,11.75,11.75,0,0,1,8-2.85,11.75,11.75,0,0,1,8,2.85A9.16,9.16,0,0,1,28,24.5Z" fill="none" stroke="#000" stroke-linecap="round" stroke-linejoin="round" stroke-width="4"/><path d="M2,5Q17,7.51,24,2" fill="none" stroke="#000" stroke-linecap="round" stroke-linejoin="round" stroke-width="4"/><path id="EMOTE_03_0_Layer0_0_2_STROKES" data-name="EMOTE 03 0 Layer0 0 2 STROKES" d="M44,22A1.54,1.54,0,1,1,43.55,21,1.44,1.44,0,0,1,44,22ZM18.5,24A1.32,1.32,0,0,1,18,25.05a1.72,1.72,0,0,1-1.2.45,1.92,1.92,0,0,1-1.25-.45,1.35,1.35,0,0,1,0-2.1,1.92,1.92,0,0,1,1.25-.45A1.72,1.72,0,0,1,18,23,1.32,1.32,0,0,1,18.5,24Z" fill="none" stroke="#000" stroke-linecap="round" stroke-linejoin="round" stroke-width="3"/></svg>