<svg id="Layer_1" data-name="Layer 1" xmlns="http://www.w3.org/2000/svg" viewBox="0 0 299.44 81.73"><g id="HS_CAP_03_0_Layer3_0_FILL" data-name="HS CAP 03 0 Layer3 0 FILL"><path d="M232.31,31.68Q190.05-6.63,125.86,6.23T45.21,56.13a189.19,189.19,0,0,0-8.85,23.6q.84-.51.75,0l225.9,1Q264.6,60.93,232.31,31.68Z" fill="#f69"/></g><path id="HS_CAP_03_0_Layer3_0_1_STROKES" data-name="HS CAP 03 0 Layer3 0 1 STROKES" d="M36.36,79.73a189.19,189.19,0,0,1,8.85-23.6q16.44-37.05,80.65-49.9T232.31,31.68q32.3,29.25,30.7,49.05l-225.9-1h-.75q.84-.51.75,0" fill="none" stroke="#000" stroke-linecap="round" stroke-linejoin="round" stroke-width="4"/><g id="HS_CAP_03_0_Layer2_0_FILL" data-name="HS CAP 03 0 Layer2 0 FILL"><path d="M98,28.68Q87.36,30,80.46,35.83t-6.9,13.9q0,8.1,7,13.8a26.17,26.17,0,0,0,17,5.7,25.45,25.45,0,0,0,17-6.05,24.79,24.79,0,0,0,8.6-15.4q1.44-9.36-6.65-14.9A25.94,25.94,0,0,0,98,28.68m-3.85,8.45a15.63,15.63,0,0,1,12.5,2.2q6.09,3.75,4.15,9.75t-5.85,8.5A17.22,17.22,0,0,1,95.36,60a15.34,15.34,0,0,1-9.25-2.8,7.92,7.92,0,0,1-3.55-6.45,14.92,14.92,0,0,1,2.55-7.85Q87.66,38.72,94.11,37.13Z" fill="#fc9"/><path d="M106.61,39.33a15.63,15.63,0,0,0-12.5-2.2q-6.45,1.59-9,5.75a14.92,14.92,0,0,0-2.55,7.85,7.92,7.92,0,0,0,3.55,6.45A15.34,15.34,0,0,0,95.36,60a17.22,17.22,0,0,0,9.55-2.4q3.84-2.51,5.85-8.5t-4.15-9.75M95.06,50.73l9-1.5-9,1.5v0Z" fill="#ff6"/><path d="M198.51,62.83q-.1-3-3.5-5.65a11,11,0,0,0-8.1-2.3q-4.75.39-6.8,2.85A8,8,0,0,0,178.06,63q0,2.79,3.25,4.8a14.26,14.26,0,0,0,7.5,2,11.84,11.84,0,0,0,7-2,5.84,5.84,0,0,0,2.7-5m-22-58.25a121.22,121.22,0,0,0-22-1.55Q128.85,35,134.06,80.18l21.35.1Q144.85,32,176.51,4.58Z" fill="#f33"/><path d="M237.56,61.23a5.5,5.5,0,0,0-2.8-4.6,11.5,11.5,0,0,0-6.7-1.9,11.68,11.68,0,0,0-6.75,1.9,5.22,5.22,0,0,0,0,9.2,11.75,11.75,0,0,0,6.75,1.9,11.57,11.57,0,0,0,6.7-1.9A5.51,5.51,0,0,0,237.56,61.23Z" fill="#ff3"/><path d="M217.56,41.23q0-3.1-3.15-5.3a11.25,11.25,0,0,0-7.35-2q-4.2.24-5.9,2.45a8.21,8.21,0,0,0-1.75,5,6.29,6.29,0,0,0,2.35,5.05,8.68,8.68,0,0,0,6,2.2,11.48,11.48,0,0,0,6.65-2.2Q217.56,44.33,217.56,41.23Z" fill="#0c6"/></g><path id="HS_CAP_03_0_Layer2_0_1_STROKES" data-name="HS CAP 03 0 Layer2 0 1 STROKES" d="M176.51,4.58Q144.86,32,155.41,80.28l-21.35-.1Q128.86,35,154.46,3A121.22,121.22,0,0,1,176.51,4.58Zm41.05,36.65q0,3.09-3.15,5.3a11.48,11.48,0,0,1-6.65,2.2,8.68,8.68,0,0,1-6-2.2,6.29,6.29,0,0,1-2.35-5.05,8.21,8.21,0,0,1,1.75-5q1.69-2.2,5.9-2.45a11.25,11.25,0,0,1,7.35,2Q217.56,38.12,217.56,41.23Zm20,20a5.51,5.51,0,0,1-2.8,4.6,11.57,11.57,0,0,1-6.7,1.9,11.75,11.75,0,0,1-6.75-1.9,5.22,5.22,0,0,1,0-9.2,11.68,11.68,0,0,1,6.75-1.9,11.5,11.5,0,0,1,6.7,1.9A5.5,5.5,0,0,1,237.56,61.23Zm-39.05,1.6a5.84,5.84,0,0,1-2.7,5,11.84,11.84,0,0,1-7,2,14.26,14.26,0,0,1-7.5-2q-3.26-2-3.25-4.8a8,8,0,0,1,2.05-5.25q2-2.46,6.8-2.85a11,11,0,0,1,8.1,2.3Q198.4,59.88,198.51,62.83ZM110.76,49.08q-2,6-5.85,8.5A17.22,17.22,0,0,1,95.36,60a15.34,15.34,0,0,1-9.25-2.8,7.92,7.92,0,0,1-3.55-6.45,14.92,14.92,0,0,1,2.55-7.85q2.55-4.16,9-5.75a15.63,15.63,0,0,1,12.5,2.2Q112.7,43.08,110.76,49.08Zm12.45-1.3a24.79,24.79,0,0,1-8.6,15.4,25.45,25.45,0,0,1-17,6.05,26.17,26.17,0,0,1-17-5.7q-7-5.7-7-13.8t6.9-13.9Q87.36,30,98,28.68a25.94,25.94,0,0,1,18.6,4.2Q124.66,38.43,123.21,47.78ZM95.06,43.23v7.5l9-1.5m-9,1.5v.5" fill="none" stroke="#000" stroke-linecap="round" stroke-linejoin="round" stroke-width="4"/><path id="HS_CAP_03_0_Layer1_0_1_STROKES" data-name="HS CAP 03 0 Layer1 0 1 STROKES" d="M255.86,17.28a78.07,78.07,0,0,0,13.75,1.25q-.11-6.51,3.5-10.15,3.34-3.41,6.8-2m2,.6q1.24,11.15-12.3,11.5a14.64,14.64,0,0,0,13.25,7.55q-4.35,4.09-6.15,13.75m20.55-21.3c.43,1.1.11,2.36-.95,3.8a11.94,11.94,0,0,1-4.55,3.7,11.36,11.36,0,0,1-5.5,1.25c-1.7-.07-2.77-.65-3.2-1.75s-.19-2.42.85-4a12,12,0,0,1,4.6-3.6A11.3,11.3,0,0,1,294,16.63C295.69,16.79,296.79,17.43,297.26,18.53Zm-294.2,4q4.24-3.21,8.25-.55,3.39,2.25,6,8.25a73.7,73.7,0,0,0,7.15-4.75q-5.16-4.46-4.75-8.3.35-3.4,4.6-4.4m-22.15,11q-.75,5.3,3.85,7.2t11.3-.8Q19.6,37,19.41,51.23M25.46,13q9.69,3.9-1.05,12.5Q34.25,30.72,45.26,23" fill="none" stroke="#000" stroke-linecap="round" stroke-linejoin="round" stroke-width="4"/><g id="HS_CAP_03_0_Layer0_0_FILL" data-name="HS CAP 03 0 Layer0 0 FILL"><path d="M36.26,73.68l12.6-25.5-21.5-7.55L14.91,63.08l21.35,10.6M61.06,7.23,44,25l13.7,11.1L77.11,20.48l-16-13.25M249.81,48.08l12.4,21.7,25.7-12.4L274.46,36.13,249.81,48.08m-6.25-6.85,16-17.25L244.81,9.28,225,22.83Z" fill="#f33"/></g><path id="HS_CAP_03_0_Layer0_0_1_STROKES" data-name="HS CAP 03 0 Layer0 0 1 STROKES" d="M225,22.83l19.8-13.55L259.56,24l-16,17.25Zm24.8,25.25,24.65-11.95,13.45,21.25-25.7,12.4ZM61.06,7.23l16,13.25L57.66,36.13,44,25Zm-33.7,33.4,21.5,7.55-12.6,25.5L14.91,63.08Z" fill="none" stroke="#000" stroke-linecap="round" stroke-linejoin="round" stroke-width="4"/></svg>