<svg id="Layer_1" data-name="Layer 1" xmlns="http://www.w3.org/2000/svg" viewBox="0 0 69.5 25.85"><g id="EMOTE_01_0_Layer0_0_FILL" data-name="EMOTE 01 0 Layer0 0 FILL"><path d="M31.9,14.55a8.58,8.58,0,0,0-3-6.6A10.37,10.37,0,0,0,21.6,5.2,10.47,10.47,0,0,0,14.35,8a8.63,8.63,0,0,0-3,6.6,8.49,8.49,0,0,0,3,6.55,10.47,10.47,0,0,0,7.25,2.75,10.37,10.37,0,0,0,7.25-2.75,8.44,8.44,0,0,0,3-6.55M22.55,13A1.92,1.92,0,0,1,23,14.25a1.72,1.72,0,0,1-.45,1.2,1.28,1.28,0,0,1-2.1,0,1.72,1.72,0,0,1-.45-1.2A1.92,1.92,0,0,1,20.45,13a1.35,1.35,0,0,1,2.1,0M53.7,7.4a10,10,0,0,0-7-2.65A10.31,10.31,0,0,0,39.55,7.4,8.69,8.69,0,0,0,36.6,14a8.5,8.5,0,0,0,2.95,6.5,10.13,10.13,0,0,0,7.15,2.75,9.82,9.82,0,0,0,7-2.75,8.45,8.45,0,0,0,3-6.5,8.63,8.63,0,0,0-3-6.6M48,13.75a1.72,1.72,0,0,1-.45,1.2,1.28,1.28,0,0,1-2.1,0,1.72,1.72,0,0,1-.45-1.2,1.92,1.92,0,0,1,.45-1.25,1.35,1.35,0,0,1,2.1,0A1.92,1.92,0,0,1,48,13.75Z" fill="#fff"/></g><path d="M56.7,14a8.45,8.45,0,0,1-3,6.5,9.82,9.82,0,0,1-7,2.75,10.13,10.13,0,0,1-7.15-2.75A8.5,8.5,0,0,1,36.6,14a8.69,8.69,0,0,1,2.95-6.6A10.31,10.31,0,0,1,46.7,4.75a10,10,0,0,1,7,2.65A8.63,8.63,0,0,1,56.7,14Z" fill="none" stroke="#000" stroke-linecap="round" stroke-linejoin="round" stroke-width="4"/><line x1="38.5" y1="2" x2="67.5" y2="2" fill="none" stroke="#000" stroke-linecap="round" stroke-linejoin="round" stroke-width="4"/><path d="M31.9,14.55a8.44,8.44,0,0,1-3,6.55,10.37,10.37,0,0,1-7.25,2.75,10.47,10.47,0,0,1-7.25-2.75,8.49,8.49,0,0,1-3-6.55,8.63,8.63,0,0,1,3-6.6A10.47,10.47,0,0,1,21.6,5.2,10.37,10.37,0,0,1,28.85,8,8.58,8.58,0,0,1,31.9,14.55Z" fill="none" stroke="#000" stroke-linecap="round" stroke-linejoin="round" stroke-width="4"/><line x1="2" y1="2" x2="33" y2="2.5" fill="none" stroke="#000" stroke-linecap="round" stroke-linejoin="round" stroke-width="4"/><path id="EMOTE_01_0_Layer0_0_2_STROKES" data-name="EMOTE 01 0 Layer0 0 2 STROKES" d="M48,13.75a1.72,1.72,0,0,1-.45,1.2,1.28,1.28,0,0,1-2.1,0,1.72,1.72,0,0,1-.45-1.2,1.92,1.92,0,0,1,.45-1.25,1.35,1.35,0,0,1,2.1,0A1.92,1.92,0,0,1,48,13.75Zm-25,.5a1.72,1.72,0,0,1-.45,1.2,1.28,1.28,0,0,1-2.1,0,1.72,1.72,0,0,1-.45-1.2A1.92,1.92,0,0,1,20.45,13a1.35,1.35,0,0,1,2.1,0A1.92,1.92,0,0,1,23,14.25Z" fill="none" stroke="#000" stroke-linecap="round" stroke-linejoin="round" stroke-width="3"/></svg>