<svg id="Layer_1" data-name="Layer 1" xmlns="http://www.w3.org/2000/svg" viewBox="0 0 323.7 110.25"><g id="HEADSET_GOOGLES_01_0_Layer3_0_FILL" data-name="HEADSET GOOGLES 01 0 Layer3 0 FILL"><path d="M260.7,87.9V3.23L14.05,1.2,11.4,87.85l249.3.05m0-86V89.2L318,66.55l.05-40Z" fill="#3cc"/></g><path id="HEADSET_GOOGLES_01_0_Layer3_0_1_STROKES" data-name="HEADSET GOOGLES 01 0 Layer3 0 1 STROKES" d="M260.7,1.87h0l57.35,24.68-.05,40L260.7,89.2V87.9L11.4,87.85,14.05,1.2l246.65.67v86" fill="none" stroke="#000" stroke-linecap="round" stroke-linejoin="round" stroke-width="4"/><g id="HEADSET_GOOGLES_01_0_Layer2_0_FILL" data-name="HEADSET GOOGLES 01 0 Layer2 0 FILL"><path d="M156.7,11.9l-1.3,65.3,77.35,1.3,1.3-65.3L156.7,11.9m-50.65,0H31.4V77.2h74.65Z" fill="#ffc16b"/></g><path id="HEADSET_GOOGLES_01_0_Layer2_0_1_STROKES" data-name="HEADSET GOOGLES 01 0 Layer2 0 1 STROKES" d="M31.4,11.9h74.65V77.2H31.4Zm125.3,0,77.35,1.3-1.3,65.3L155.4,77.2Z" fill="none" stroke="#000" stroke-linecap="round" stroke-linejoin="round" stroke-width="4"/><path id="HEADSET_GOOGLES_01_0_Layer1_0_1_STROKES" data-name="HEADSET GOOGLES 01 0 Layer1 0 1 STROKES" d="M168.7,46.55,190.05,65.2m-16-45.35,40,48M59.4,22.55l29.35,32M55.4,39.85l21.35,20" fill="none" stroke="#000" stroke-linecap="round" stroke-linejoin="round" stroke-width="4"/><path id="HEADSET_GOOGLES_01_0_Layer0_0_1_STROKES" data-name="HEADSET GOOGLES 01 0 Layer0 0 1 STROKES" d="M272.7,23.85l34.65,12M278.05,70.5l26.65-9.3" fill="none" stroke="#000" stroke-linecap="round" stroke-linejoin="round" stroke-width="4"/></svg>