<svg id="Layer_1" data-name="Layer 1" xmlns="http://www.w3.org/2000/svg" viewBox="0 0 437.95 299"><g id="SIGN_03_0_Layer0_0_FILL" data-name="SIGN 03 0 Layer0 0 FILL"><path d="M95,4H61l-.8,34L60,46H98l-.55-8L95,4M344,2l-.8,34.3L343,44h42l-.35-8L383,2Z" fill="#0083b7"/><path d="M343,44l.2-7.7L97.45,38,98,46H60l.2-8H3L2,292l434,5L435,36H384.6l.35,8H343M241,117.5q-8.3,10.09-3,21.5-5.3-11.4,3-21.5m18,.5q-9.19,5.5-7.5,16.5-1.69-11,7.5-16.5M265,146.35q1.5-3.85,6.7-5.3a20.23,20.23,0,0,1,12.1.8A86.85,86.85,0,0,1,296,147q-10.8-15.7-13.4-27.3-2.3-10,2-13.3t11.2,2.25a44.87,44.87,0,0,1,10.7,13q-5.4-11.25-4.5-18.1c.53-4,2.42-6,5.65-6s6.58,2.07,10,6.1a40.24,40.24,0,0,1,7.2,13.85q-2.66-9.45-1.9-15,.86-6.7,5.9-6.8t9.05,5.7Q342.35,108,345,119q-1.61-10.09,1.65-16,2.85-5.25,8.35-5.35t10.25,4.9q5.29,5.55,7.75,15.9c.47,3.2.83,6.67,1.1,10.4q.94,13.54-10.4,27.9a46.26,46.26,0,0,1-32,19.1q-20.15,3-37.35-4-7.8-3.15-24.45-13.35-6.5-8.06-4.95-12.15M366.5,88.5q7.75.56,12.5,10-4.75-9.45-12.5-10M373,81q10.75,2.55,17,13.5Q383.75,83.55,373,81M317,208l-8.4,16.85L326,241l-17.4-16.15L299,244l9.6-19.15L298,215l10.6,9.85L317,208m-98,26,16,12.65L240,233l-5,13.65L253,261l-18-14.35L230,260l5-13.35L219,234m59.9,3.25L275,245l3.9-7.75L271,232l7.9,5.25L284,227l-5.1,10.25L289,244l-10.1-6.75M98.4,113.55Q113.81,101,135.55,101t37.1,12.6q15.4,12.6,15.4,30.5t-15.4,30.4q-15.35,12.65-37.1,12.65T98.4,174.45q-15.34-12.55-15.35-30.4T98.4,113.55Z" fill="#3c9"/><path d="M135.55,101q-21.75,0-37.15,12.6t-15.35,30.5q0,17.85,15.35,30.4t37.15,12.65q21.75,0,37.1-12.65t15.4-30.4q0-17.9-15.4-30.5T135.55,101m-25,18.75a35.44,35.44,0,0,1,24.9-9.5,35.44,35.44,0,0,1,24.9,9.5q10.31,9.45,10.3,22.85t-10.3,22.8a35.44,35.44,0,0,1-24.9,9.5,35.44,35.44,0,0,1-24.9-9.5q-10.25-9.45-10.25-22.8T110.6,119.7Z" fill="#fda5e0"/><path d="M135.5,110.2a35.44,35.44,0,0,0-24.9,9.5q-10.25,9.45-10.25,22.85t10.25,22.8a35.44,35.44,0,0,0,24.9,9.5,35.44,35.44,0,0,0,24.9-9.5q10.31-9.45,10.3-22.8T160.4,119.7a35.44,35.44,0,0,0-24.9-9.5M132,147.1V124q3.9-6.45,7-1l.7,16h0l.05.5H158q5.1,2.75.95,7.2l-19.2.3Z" fill="#9f9"/><path d="M158,139.5H139.75V147l19.2-.3q4.16-4.45-.95-7.2M132,124v15h7.7l-.7-16q-3.1-5.44-7,1m0,15v8.1l7.75-.1v-7.5l-.05-.5Z" fill="#39f"/><path d="M271.65,141.05q-5.2,1.45-6.7,5.3-1.54,4.1,4.95,12.15,16.65,10.2,24.45,13.35,17.2,6.94,37.35,4a46.26,46.26,0,0,0,32-19.1q11.35-14.35,10.4-27.9c-.27-3.73-.63-7.2-1.1-10.4q-2.44-10.35-7.75-15.9-4.8-5-10.25-4.9T346.65,103q-3.25,5.9-1.65,16-2.65-11.06-7.15-17.6-4.05-5.85-9.05-5.7t-5.9,6.8q-.75,5.59,1.9,15,.3.95.6,2c.17.67.33,1.35.5,2,0,.13.07.28.1.45,0-.17-.07-.32-.1-.45-.17-.7-.33-1.38-.5-2s-.4-1.32-.6-2a40.24,40.24,0,0,0-7.2-13.85q-5.06-6-10-6.1c-3.23,0-5.12,2-5.65,6q-.9,6.86,4.5,18.1,1.69,3,3.35,6.45A19.18,19.18,0,0,0,311,130a19.18,19.18,0,0,1-1.15-1.85q-1.65-3.5-3.35-6.45a44.87,44.87,0,0,0-10.7-13q-7-5.4-11.2-2.25t-2,13.3q2.59,11.6,13.4,27.3a86.85,86.85,0,0,0-12.25-5.15,20.23,20.23,0,0,0-12.1-.8M314.5,149q6.35-10.35,20.5-11Q320.86,138.65,314.5,149Z" fill="#faca44"/></g><path id="SIGN_03_0_Layer0_0_1_STROKES" data-name="SIGN 03 0 Layer0 0 1 STROKES" d="M343.15,36.3,344,2h39l1.65,34H435l1,261L2,292,3,38H60.2L61,4H95l2.45,34,245.7-1.7L343,44h42l-.35-8M97.45,38,98,46H60l.2-8M132,139v8.1l7.75-.1v-7.5l-.05-.5H132V124q3.9-6.45,7-1l.7,16h.3m-.25,8,19.2-.3q4.16-4.45-.95-7.2H139.75" fill="none" stroke="#000" stroke-linecap="round" stroke-linejoin="round" stroke-width="4"/><path id="SIGN_03_0_Layer0_0_2_STROKES" data-name="SIGN 03 0 Layer0 0 2 STROKES" d="M241,117.5q-8.3,10.09-3,21.5m21-21q-9.19,5.5-7.5,16.5m115-46q7.75.56,12.5,10M373,81q10.75,2.55,17,13.5M317,208l-8.4,16.85L326,241m-107-7,16,12.65L240,233m49,11-10.1-6.75L275,245m9-18-5.1,10.25L271,232m27-17,10.6,9.85L299,244m-46,17-18-14.35L230,260" fill="none" stroke="#fff" stroke-linecap="round" stroke-linejoin="round" stroke-width="4"/><path id="SIGN_03_0_Layer0_0_3_STROKES" data-name="SIGN 03 0 Layer0 0 3 STROKES" d="M306.5,121.7a44.87,44.87,0,0,0-10.7-13q-7-5.4-11.2-2.25t-2,13.3q2.59,11.6,13.4,27.3a86.85,86.85,0,0,0-12.25-5.15,20.23,20.23,0,0,0-12.1-.8q-5.2,1.45-6.7,5.3-1.54,4.1,4.95,12.15,16.65,10.2,24.45,13.35,17.2,6.94,37.35,4a46.26,46.26,0,0,0,32-19.1q11.35-14.35,10.4-27.9c-.27-3.73-.63-7.2-1.1-10.4q-2.44-10.35-7.75-15.9-4.8-5-10.25-4.9T346.65,103q-3.25,5.9-1.65,16-2.65-11.06-7.15-17.6-4.05-5.85-9.05-5.7t-5.9,6.8q-.75,5.59,1.9,15,.3.95.6,2c.17.67.33,1.35.5,2,0,.13.07.28.1.45m-1.2-4.45a40.24,40.24,0,0,0-7.2-13.85q-5.06-6-10-6.1c-3.23,0-5.12,2-5.65,6q-.9,6.86,4.5,18.1,1.69,3,3.35,6.45A19.18,19.18,0,0,0,311,130m3.5,19q6.35-10.35,20.5-11" fill="none" stroke="#f90" stroke-linecap="round" stroke-linejoin="round" stroke-width="4"/><path id="SIGN_03_0_Layer0_0_4_STROKES" data-name="SIGN 03 0 Layer0 0 4 STROKES" d="M188.05,144.05q0,17.85-15.4,30.4t-37.1,12.65q-21.75,0-37.15-12.65t-15.35-30.4q0-17.9,15.35-30.5T135.55,101q21.75,0,37.1,12.6T188.05,144.05Z" fill="none" stroke="#f3c" stroke-linecap="round" stroke-linejoin="round" stroke-width="4"/><path id="SIGN_03_0_Layer0_0_5_STROKES" data-name="SIGN 03 0 Layer0 0 5 STROKES" d="M170.7,142.55q0,13.35-10.3,22.8a35.44,35.44,0,0,1-24.9,9.5,35.44,35.44,0,0,1-24.9-9.5q-10.25-9.45-10.25-22.8T110.6,119.7a35.44,35.44,0,0,1,24.9-9.5,35.44,35.44,0,0,1,24.9,9.5Q170.71,129.15,170.7,142.55Z" fill="none" stroke="#3c9" stroke-linecap="round" stroke-linejoin="round" stroke-width="4"/></svg>