<svg id="Layer_1" data-name="Layer 1" xmlns="http://www.w3.org/2000/svg" viewBox="0 0 37.93 130.3"><g id="EARING_0_Layer2_0_FILL" data-name="EARING 0 Layer2 0 FILL"><path d="M31.82,111.24,20,98.86,6.57,111.24,20,127.75Z" fill="#92e6bc"/><path d="M26.69,84.16a7.07,7.07,0,0,0-1.76-4.82,5.32,5.32,0,0,0-4.18-2,5.41,5.41,0,0,0-4.2,2,7.15,7.15,0,0,0-1.73,4.82A7,7,0,0,0,16.55,89a5.35,5.35,0,0,0,4.2,2,5.27,5.27,0,0,0,4.18-2A7,7,0,0,0,26.69,84.16Z" fill="#58b989"/><path d="M35.4,59.14a12.41,12.41,0,0,0-4.9-9.86,17.73,17.73,0,0,0-11.78-4.07A17.92,17.92,0,0,0,6.88,49.28,12.39,12.39,0,0,0,6.88,69a17.88,17.88,0,0,0,11.84,4.08A17.68,17.68,0,0,0,30.5,69a12.39,12.39,0,0,0,4.9-9.85M24.24,54.52a5.3,5.3,0,0,1,0,8.23,7.06,7.06,0,0,1-4.75,1.68,7.06,7.06,0,0,1-4.75-1.68,5.3,5.3,0,0,1,0-8.23,7,7,0,0,1,4.75-1.7A7,7,0,0,1,24.24,54.52Z" fill="#ee9cd4"/><path d="M26.2,58.62a5.27,5.27,0,0,0-2-4.1,7,7,0,0,0-4.75-1.7,7,7,0,0,0-4.75,1.7,5.3,5.3,0,0,0,0,8.23,7.06,7.06,0,0,0,4.75,1.68,7.06,7.06,0,0,0,4.75-1.68A5.3,5.3,0,0,0,26.2,58.62Z" fill="#f15cc1"/></g><path id="EARING_0_Layer2_0_1_STROKES" data-name="EARING 0 Layer2 0 1 STROKES" d="M26.2,58.62a5.3,5.3,0,0,1-2,4.13,7.06,7.06,0,0,1-4.75,1.68,7.06,7.06,0,0,1-4.75-1.68,5.3,5.3,0,0,1,0-8.23,7,7,0,0,1,4.75-1.7,7,7,0,0,1,4.75,1.7A5.27,5.27,0,0,1,26.2,58.62Zm9.2.52A12.39,12.39,0,0,1,30.5,69a17.68,17.68,0,0,1-11.78,4.08A17.88,17.88,0,0,1,6.88,69a12.39,12.39,0,0,1,0-19.71,17.92,17.92,0,0,1,11.84-4.07A17.73,17.73,0,0,1,30.5,49.28,12.41,12.41,0,0,1,35.4,59.14Zm-8.71,25A7,7,0,0,1,24.93,89a5.27,5.27,0,0,1-4.18,2,5.35,5.35,0,0,1-4.2-2,7,7,0,0,1-1.73-4.8,7.15,7.15,0,0,1,1.73-4.82,5.41,5.41,0,0,1,4.2-2,5.32,5.32,0,0,1,4.18,2A7.07,7.07,0,0,1,26.69,84.16ZM6.57,111.24,20,127.75l11.84-16.51L20,98.86Z" fill="none" stroke="#000" stroke-linecap="round" stroke-linejoin="round" stroke-width="2.06"/><path id="EARING_0_Layer1_0_1_STROKES" data-name="EARING 0 Layer1 0 1 STROKES" d="M20.5,44.69Q21,30,20.73,19.8q0-6.24-.08-8.62a12.67,12.67,0,0,0-1.19-5.7,6.86,6.86,0,0,0-3.53-3A5,5,0,0,0,12,2.36Q8.64,3.86,8.63,9.61M20,73.07v4.12m0,14.45v7.22" fill="none" stroke="#000" stroke-linecap="round" stroke-linejoin="round" stroke-width="2.06"/><path id="EARING_0_Layer0_0_1_STROKES" data-name="EARING 0 Layer0 0 1 STROKES" d="M9.66,47.79l4.64,5.67m10.32-6.7L22,52.43M17.4,45.72l1.32,7.12m13.1-2-5.65,3.61m0,3.62,8.23,1m-12.64,5,3.89,7.4m-7.73-6.19-.52,7.74m8.25-10.32,6.17,4.13M17.92,56l3.61,5.16M17.4,113.31,21,117.44M19,107.63l4.64,5.68M4,53l7.73,4.12M2.21,61.46,12.94,60m.85,3.31L8.11,70" fill="none" stroke="#000" stroke-linecap="round" stroke-linejoin="round" stroke-width="2.06"/></svg>