<svg id="Layer_1" data-name="Layer 1" xmlns="http://www.w3.org/2000/svg" viewBox="0 0 323.7 110.25"><g id="HS_GOOGLES_02_0_Layer6_0_FILL" data-name="HS GOOGLES 02 0 Layer6 0 FILL"><path d="M157.64,47.84q0-20.39,16.11-34.81c.41-.37.83-.74,1.27-1.08s.94-.8,1.41-1.18l.38-.28q-.66-.66-1.32-1.23a24.55,24.55,0,0,0-16.72-6.5q-12.35,0-19.79,9.05,15.65,14.27,15.64,34.39Z" fill="#96c"/></g><path id="HS_GOOGLES_02_0_Layer6_0_1_STROKES" data-name="HS GOOGLES 02 0 Layer6 0 1 STROKES" d="M140.68,79q13.94-13.8,13.94-32.78,0-20.12-15.64-34.39,7.44-9,19.79-9a24.55,24.55,0,0,1,16.72,6.5q.66.57,1.32,1.23l-.38.28c-.47.38-.94.77-1.41,1.18s-.86.71-1.27,1.08q-16.11,14.42-16.11,34.81,0,18.42,13.14,32a8.27,8.27,0,0,0,.61.56,5.52,5.52,0,0,1,.38.43" fill="none" stroke="#000" stroke-linecap="round" stroke-linejoin="round" stroke-width="3.77"/><g id="HS_GOOGLES_02_0_Layer5_0_FILL" data-name="HS GOOGLES 02 0 Layer5 0 FILL"><path d="M247.94,16.5c1,.74,1.9,1.52,2.82,2.33q12.69,11.37,12.7,27.44A34.78,34.78,0,0,1,254.51,70a38.33,38.33,0,0,0,13.36,2.23,30.54,30.54,0,0,0,22.46-9.36,30.41,30.41,0,0,0,9.36-22.42,30.58,30.58,0,0,0-9.36-22.49,30.66,30.66,0,0,0-22.46-9.28Q255,8.63,247.94,16.5Z" fill="#96c"/></g><path id="HS_GOOGLES_02_0_Layer5_0_1_STROKES" data-name="HS GOOGLES 02 0 Layer5 0 1 STROKES" d="M247.94,16.5q7-7.87,19.93-7.87a30.66,30.66,0,0,1,22.46,9.28,30.58,30.58,0,0,1,9.36,22.49,30.41,30.41,0,0,1-9.36,22.42,30.54,30.54,0,0,1-22.46,9.36A38.33,38.33,0,0,1,254.51,70a34.78,34.78,0,0,0,8.95-23.68q0-16.08-12.7-27.44C249.84,18,248.9,17.24,247.94,16.5Z" fill="none" stroke="#000" stroke-linecap="round" stroke-linejoin="round" stroke-width="2.97"/><g id="HS_GOOGLES_02_0_Layer5_0_FILL-2" data-name="HS GOOGLES 02 0 Layer5 0 FILL"><path d="M78.44,64.31c-1-.75-1.9-1.52-2.82-2.34Q62.93,50.61,62.92,34.54a34.79,34.79,0,0,1,9-23.69A38.33,38.33,0,0,0,58.51,8.63,30.53,30.53,0,0,0,36.05,18,30.42,30.42,0,0,0,26.69,40.4a30.58,30.58,0,0,0,9.36,22.5,30.7,30.7,0,0,0,22.46,9.28Q71.38,72.18,78.44,64.31Z" fill="#96c"/></g><path id="HS_GOOGLES_02_0_Layer5_0_1_STROKES-2" data-name="HS GOOGLES 02 0 Layer5 0 1 STROKES" d="M78.44,64.31q-7.05,7.86-19.93,7.87A30.7,30.7,0,0,1,36.05,62.9a30.58,30.58,0,0,1-9.36-22.5A30.42,30.42,0,0,1,36.05,18,30.53,30.53,0,0,1,58.51,8.63a38.33,38.33,0,0,1,13.36,2.22,34.79,34.79,0,0,0-9,23.69q0,16.07,12.7,27.43C76.54,62.79,77.48,63.56,78.44,64.31Z" fill="none" stroke="#000" stroke-linecap="round" stroke-linejoin="round" stroke-width="2.97"/><g id="HS_GOOGLES_02_0_Layer3_0_FILL" data-name="HS GOOGLES 02 0 Layer3 0 FILL"><path d="M60.74,11.38Q44.63,25.79,44.63,46.2T60.74,81Q76.81,95.43,99.6,95.42T138.51,81Q154.62,66.6,154.62,46.2T138.51,11.38Q122.4-3,99.6-3T60.74,11.38M251.52,13Q235.41-1.38,212.61-1.38q-19.59,0-34.2,10.64c-.63.44-1.29,1-2,1.51-.47.38-.94.77-1.41,1.18s-.86.71-1.27,1.08q-16.11,14.42-16.11,34.81,0,18.42,13.14,32a8.27,8.27,0,0,0,.61.56c.76.76,1.54,1.51,2.36,2.27q16.06,14.4,38.86,14.41t38.91-14.41A62.34,62.34,0,0,0,256,78.13a44.07,44.07,0,0,0,11.59-30.29Q267.63,27.46,251.52,13Z" fill="#ccf"/></g><path id="HS_GOOGLES_02_0_Layer3_0_1_STROKES" data-name="HS GOOGLES 02 0 Layer3 0 1 STROKES" d="M256,78.13a62.34,62.34,0,0,1-4.52,4.53q-16.11,14.4-38.91,14.41T173.75,82.66c-.82-.76-1.6-1.51-2.36-2.27a8.27,8.27,0,0,1-.61-.56q-13.14-13.58-13.14-32,0-20.39,16.11-34.81c.41-.37.83-.74,1.27-1.08s.94-.8,1.41-1.18c.69-.56,1.35-1.07,2-1.51Q193-1.37,212.61-1.38q22.8,0,38.91,14.41t16.11,34.81A44.07,44.07,0,0,1,256,78.13ZM154.62,46.2q0,20.38-16.11,34.81T99.6,95.42Q76.8,95.42,60.74,81T44.63,46.2q0-20.4,16.11-34.82T99.6-3q22.8,0,38.91,14.41T154.62,46.2Z" fill="none" stroke="#000" stroke-linecap="round" stroke-linejoin="round" stroke-width="3.77"/><g id="HS_GOOGLES_02_0_Layer2_0_FILL" data-name="HS GOOGLES 02 0 Layer2 0 FILL"><path d="M75.25,24.15q-9.9,9.13-9.89,22.05a29,29,0,0,0,9.89,22.09,34,34,0,0,0,23.93,9.14,34,34,0,0,0,23.93-9.14Q133,59.16,133,46.2t-9.89-22.05A34,34,0,0,0,99.18,15a34,34,0,0,0-23.93,9.14m160,2a37.13,37.13,0,0,0-48.24,0Q177.05,35,177,47.61T187,69.09a37.13,37.13,0,0,0,48.24,0q10-8.91,10-21.48T235.22,26.13Z" fill="#99f"/></g><path id="HS_GOOGLES_02_0_Layer2_0_1_STROKES" data-name="HS GOOGLES 02 0 Layer2 0 1 STROKES" d="M245.21,47.61q0,12.57-10,21.48a37.13,37.13,0,0,1-48.24,0q-9.93-8.91-9.94-21.48T187,26.13a37.13,37.13,0,0,1,48.24,0Q245.21,35,245.21,47.61ZM133,46.2q0,12.94-9.89,22.09a34,34,0,0,1-23.93,9.14,34,34,0,0,1-23.93-9.14A29,29,0,0,1,65.36,46.2q0-12.91,9.89-22.05A34,34,0,0,1,99.18,15a34,34,0,0,1,23.93,9.14Q133,33.28,133,46.2Z" fill="none" stroke="#000" stroke-linecap="round" stroke-linejoin="round" stroke-width="3.77"/><g id="HS_GOOGLES_02_0_Layer1_0_FILL" data-name="HS GOOGLES 02 0 Layer1 0 FILL"><path d="M112.89,33.29a21.21,21.21,0,0,0-14.47-5.23,21.36,21.36,0,0,0-14.5,5.23,16.34,16.34,0,0,0,0,25.29,22.51,22.51,0,0,0,29,0,16.27,16.27,0,0,0,0-25.29M225,34.37a22.67,22.67,0,0,0-29.3,0,16.94,16.94,0,0,0,0,26,22.67,22.67,0,0,0,29.3,0,16.94,16.94,0,0,0,0-26Z" fill="#ccf"/></g><path id="HS_GOOGLES_02_0_Layer1_0_1_STROKES" data-name="HS GOOGLES 02 0 Layer1 0 1 STROKES" d="M231,47.37a16.74,16.74,0,0,1-6.08,13,22.67,22.67,0,0,1-29.3,0,16.94,16.94,0,0,1,0-26,22.67,22.67,0,0,1,29.3,0A16.75,16.75,0,0,1,231,47.37ZM118.92,46a16.12,16.12,0,0,1-6,12.62,22.51,22.51,0,0,1-29,0,16.34,16.34,0,0,1,0-25.29,21.36,21.36,0,0,1,14.5-5.23,21.21,21.21,0,0,1,14.47,5.23A16.28,16.28,0,0,1,118.92,46Z" fill="none" stroke="#000" stroke-linecap="round" stroke-linejoin="round" stroke-width="3.77"/><g id="HS_GOOGLES_02_0_Layer0_0_FILL" data-name="HS GOOGLES 02 0 Layer0 0 FILL"><path d="M107.14,45.77A7.42,7.42,0,0,0,104.5,40a9,9,0,0,0-6.31-2.35A9.22,9.22,0,0,0,91.83,40a7.62,7.62,0,0,0,0,11.45,9.23,9.23,0,0,0,6.36,2.36,9.05,9.05,0,0,0,6.31-2.36,7.37,7.37,0,0,0,2.64-5.7m110.13-3.44a10.11,10.11,0,0,0-6.45-2.12,10.31,10.31,0,0,0-6.5,2.12,6.11,6.11,0,0,0,0,10.13,10.46,10.46,0,0,0,6.5,2.07,10.25,10.25,0,0,0,6.45-2.07,6.11,6.11,0,0,0,0-10.13Z" fill="#99f"/></g><path id="HS_GOOGLES_02_0_Layer0_0_1_STROKES" data-name="HS GOOGLES 02 0 Layer0 0 1 STROKES" d="M220,47.37a6.31,6.31,0,0,1-2.69,5.09,10.25,10.25,0,0,1-6.45,2.07,10.46,10.46,0,0,1-6.5-2.07,6.11,6.11,0,0,1,0-10.13,10.31,10.31,0,0,1,6.5-2.12,10.11,10.11,0,0,1,6.45,2.12A6.29,6.29,0,0,1,220,47.37Zm-112.82-1.6a7.37,7.37,0,0,1-2.64,5.7,9.05,9.05,0,0,1-6.31,2.36,9.23,9.23,0,0,1-6.36-2.36,7.62,7.62,0,0,1,0-11.45,9.22,9.22,0,0,1,6.36-2.35A9,9,0,0,1,104.5,40,7.42,7.42,0,0,1,107.14,45.77Z" fill="none" stroke="#000" stroke-linecap="round" stroke-linejoin="round" stroke-width="3.77"/></svg>