<svg id="Layer_1" data-name="Layer 1" xmlns="http://www.w3.org/2000/svg" xmlns:xlink="http://www.w3.org/1999/xlink" viewBox="0 0 564.88 419.32"><defs><clipPath id="clip-path"><path d="M53.45,245.42h0a139.63,139.63,0,0,1,68-112.07h0a309.62,309.62,0,0,1,298.34-10.17L439,132.92a132.52,132.52,0,0,1,72.63,118.22v11.22a123.57,123.57,0,0,1-57.15,104.2h0a306.84,306.84,0,0,1-346.16-11.13l-4.48-3.27A123.58,123.58,0,0,1,53.45,245.42Z" fill="none"/></clipPath><clipPath id="clip-path-4"><path d="M518.49,336.75a15.22,15.22,0,0,1-8.21,5.12h0a15.19,15.19,0,0,1-18.46-12h0a133.88,133.88,0,0,0-24.38-55.61l-22.41-30a43.55,43.55,0,0,1,4.33-57.11h0a43.53,43.53,0,0,1,29.1-12.49h0a94.64,94.64,0,0,1,83.11,43.94l.88,1.4a15.62,15.62,0,0,1-2.3,19.56h0a15.56,15.56,0,0,1-12.4,4.36l-.09,0a199.11,199.11,0,0,1,16,55.87l.66,5a15.26,15.26,0,0,1-9.82,16.31h0a15.19,15.19,0,0,1-12.73-1l-.66-.4.87,4.51a13.88,13.88,0,0,1-10,16h0a13.87,13.87,0,0,1-13.26-3.37" fill="none"/></clipPath><clipPath id="clip-path-5"><path d="M46.39,336.75a15.18,15.18,0,0,0,8.21,5.12h0a15.19,15.19,0,0,0,18.46-12h0a133.88,133.88,0,0,1,24.38-55.61l22.41-30a43.55,43.55,0,0,0-4.33-57.11h0a43.53,43.53,0,0,0-29.1-12.49h0A94.64,94.64,0,0,0,3.31,218.63L2.43,220a15.62,15.62,0,0,0,2.3,19.56h0A15.56,15.56,0,0,0,17.13,244l.09,0a198.77,198.77,0,0,0-16,55.87l-.66,5a15.26,15.26,0,0,0,9.82,16.31h0a15.19,15.19,0,0,0,12.73-1l.66-.4-.87,4.51a13.88,13.88,0,0,0,10,16h0a13.87,13.87,0,0,0,13.26-3.37" fill="none"/></clipPath></defs><path d="M210.79,119.83l-52-103.66a5.45,5.45,0,0,0-10.33,2.44V119.83Z" fill="#ff8871"/><line x1="159.02" y1="59.23" x2="174.95" y2="100.06" fill="none" stroke="#1d1d1b" stroke-linecap="round" stroke-miterlimit="10"/><path d="M282.44,106.68,334.41,3a5.45,5.45,0,0,1,10.33,2.44V106.68Z" fill="#ff8871"/><line x1="334.22" y1="46.08" x2="318.28" y2="86.9" fill="none" stroke="#1d1d1b" stroke-linecap="round" stroke-miterlimit="10"/><g clip-path="url(#clip-path)"><g clip-path="url(#clip-path)"><g clip-path="url(#clip-path)"><path d="M53.45,245.42h0a139.63,139.63,0,0,1,68-112.07h0a309.62,309.62,0,0,1,298.34-10.17L439,132.92a132.52,132.52,0,0,1,72.63,118.22v11.22a123.57,123.57,0,0,1-57.15,104.2h0a306.84,306.84,0,0,1-346.16-11.13l-4.48-3.27A123.58,123.58,0,0,1,53.45,245.42Z" fill="#ff8871"/><path d="M349.65,323.73c0-7.73-6.77-14-27.53-14s-27.54,6.26-27.54,14c0,4.14,3.54,7.86,9.16,10.42A18.84,18.84,0,0,1,314.12,346l.05.14a8.28,8.28,0,0,0,7.95,6h0a8.28,8.28,0,0,0,7.94-6l.05-.14a18.84,18.84,0,0,1,10.38-11.8C346.11,331.59,349.65,327.87,349.65,323.73Z" fill="#1d1d1b"/><path d="M67.05,282h0A95,95,0,0,1,149,235.12h0a95,95,0,0,1,72.36,33.45l63.47,74.63a25.14,25.14,0,0,0,19.15,8.85h0A25.15,25.15,0,0,0,329,328.2l1.47-28.81a76,76,0,0,1,75.88-72.09h0a76,76,0,0,1,51,19.67h0a187.81,187.81,0,0,1,61.73,139.21v90H45.75V360.35A154.66,154.66,0,0,1,67.05,282Z" fill="#f9e4e1"/></g></g></g><g clip-path="url(#clip-path-4)"><path d="M518.49,336.75a15.22,15.22,0,0,1-8.21,5.12h0a15.19,15.19,0,0,1-18.46-12h0a133.88,133.88,0,0,0-24.38-55.61l-22.41-30a43.55,43.55,0,0,1,4.33-57.11h0a43.53,43.53,0,0,1,29.1-12.49h0a94.64,94.64,0,0,1,83.11,43.94l.88,1.4a15.62,15.62,0,0,1-2.3,19.56h0a15.56,15.56,0,0,1-12.4,4.36l-.09,0a199.11,199.11,0,0,1,16,55.87l.66,5a15.26,15.26,0,0,1-9.82,16.31h0a15.19,15.19,0,0,1-12.73-1l-.66-.4.87,4.51a13.88,13.88,0,0,1-10,16h0a13.87,13.87,0,0,1-13.26-3.37" fill="#f9f9f9"/><path d="M547.78,244.11q-4-8.13-8.69-15.87-2.34-3.86-4.87-7.6-1.26-1.87-2.56-3.71l-1.31-1.84-.66-.91-.34-.45-.16-.23-.09-.11,0-.06,0,0h0c.4-.29-.92.63.91-.64s.51-.35.92-.63h0v0l0,0,0,.06.08.12.16.23.32.47.64.94,1.26,1.9q1.25,1.91,2.45,3.83,2.42,3.87,4.65,7.84,4.47,7.94,8.19,16.25a.49.49,0,0,1-.25.66.5.5,0,0,1-.65-.23Z" fill="#1d1d1b"/><path d="M520.39,257.08c1.94-1.1.54-.3,1-.54v0l0,.05.07.12.12.23.26.46.5.92c.34.62.68,1.23,1,1.86.65,1.24,1.31,2.48,1.92,3.74,1.26,2.51,2.43,5.07,3.56,7.63q3.35,7.72,5.93,15.75t4.29,16.27c1.11,5.51,2.1,11,3.16,16.45a.5.5,0,0,1-.4.58.49.49,0,0,1-.58-.38h0c-1.16-5.46-2.26-10.93-3.46-16.37s-2.78-10.78-4.55-16-3.85-10.43-6.15-15.48c-1.17-2.51-2.37-5-3.66-7.47-.63-1.23-1.3-2.45-2-3.66-.33-.61-.68-1.21-1-1.81l-.52-.9-.26-.45-.13-.23-.06-.11,0-.06,0,0h0C519.85,257.39,518.45,258.18,520.39,257.08Z" fill="#1d1d1b"/><path d="M496.11,262.85c1.83-1.27.51-.34.93-.62v0l0,0,0,.07.09.13.18.26.35.52.71,1.06c.48.69.94,1.4,1.39,2.11.92,1.42,1.82,2.85,2.68,4.31,1.75,2.89,3.38,5.85,4.93,8.86a155.68,155.68,0,0,1,13.64,38c.38,1.65.7,3.28,1,4.93.17.81.36,1.63.49,2.54a17.07,17.07,0,0,1,.15,2.68,16.16,16.16,0,0,1-3.7,9.86.52.52,0,0,1-.71.07.5.5,0,0,1-.07-.7,15.12,15.12,0,0,0,3.33-9.26,15.87,15.87,0,0,0-.18-2.49c-.13-.81-.33-1.63-.51-2.45-.38-1.63-.73-3.27-1.13-4.9a150.62,150.62,0,0,0-5.82-19.2,152.73,152.73,0,0,0-8.25-18.25c-1.58-2.94-3.23-5.84-5-8.67-.87-1.42-1.78-2.82-2.71-4.2-.45-.7-.92-1.39-1.4-2.07l-.72-1-.35-.51-.18-.26-.09-.12,0-.07,0,0v0C495.61,263.21,494.28,264.13,496.11,262.85Z" fill="#1d1d1b"/></g><g clip-path="url(#clip-path-5)"><g clip-path="url(#clip-path-5)"><path d="M46.39,336.75a15.18,15.18,0,0,0,8.21,5.12h0a15.19,15.19,0,0,0,18.46-12h0a133.88,133.88,0,0,1,24.38-55.61l22.41-30a43.55,43.55,0,0,0-4.33-57.11h0a43.53,43.53,0,0,0-29.1-12.49h0A94.64,94.64,0,0,0,3.31,218.63L2.43,220a15.62,15.62,0,0,0,2.3,19.56h0A15.56,15.56,0,0,0,17.13,244l.09,0a198.77,198.77,0,0,0-16,55.87l-.66,5a15.26,15.26,0,0,0,9.82,16.31h0a15.19,15.19,0,0,0,12.73-1l.66-.4-.87,4.51a13.88,13.88,0,0,0,10,16h0a13.87,13.87,0,0,0,13.26-3.37" fill="#f9f9f9"/><path d="M16.16,243.82q3.73-8.31,8.2-16.26c1.49-2.64,3-5.26,4.64-7.83q1.21-1.93,2.46-3.84L32.72,214l.64-.94.32-.47.16-.24.08-.12,0-.06,0,0h0c.41.28-.92-.64.92.63s.5.36.91.65h0v0l0,0,0,.05-.08.12-.17.22-.33.46-.66.91L33.19,217q-1.29,1.85-2.56,3.71c-1.67,2.5-3.3,5-4.86,7.61q-4.71,7.72-8.7,15.87h0a.5.5,0,0,1-.91-.42Z" fill="#1d1d1b"/><path d="M68.58,262.58c1.83,1.27.5.36.91.65h0l0,0,0,.06-.09.13-.18.26-.36.51-.71,1q-.72,1-1.41,2.07c-.92,1.39-1.83,2.78-2.7,4.21-1.77,2.82-3.42,5.72-5,8.66a154.6,154.6,0,0,0-14.08,37.45c-.39,1.63-.74,3.27-1.12,4.91-.18.82-.38,1.63-.51,2.45a15.83,15.83,0,0,0-.18,2.48,15.15,15.15,0,0,0,3.32,9.26.49.49,0,0,1-.07.7.49.49,0,0,1-.7-.06,16.29,16.29,0,0,1-3.71-9.87,17.22,17.22,0,0,1,.16-2.68c.13-.9.32-1.72.49-2.54.35-1.64.67-3.28,1-4.93a156.26,156.26,0,0,1,13.65-38.05c1.55-3,3.18-6,4.93-8.86q1.29-2.18,2.67-4.3c.45-.72.92-1.42,1.39-2.12L67,263l.36-.53.17-.26.09-.13.05-.07,0,0v0C68.06,262.23,66.74,261.31,68.58,262.58Z" fill="#1d1d1b"/><path d="M44.61,256.83c1.94,1.1.53.31,1,.56h0v0l0,.06-.06.11-.13.23-.26.45-.51.9c-.35.6-.7,1.2-1,1.81-.67,1.21-1.34,2.43-2,3.66-1.29,2.45-2.48,5-3.66,7.47-2.29,5.05-4.35,10.22-6.14,15.48s-3.31,10.62-4.56,16S24.9,314.55,23.75,320h0a.5.5,0,0,1-1-.2c1.06-5.49,2-10.94,3.16-16.45s2.6-10.92,4.3-16.27,3.69-10.6,5.92-15.75c1.14-2.57,2.3-5.12,3.56-7.63.62-1.26,1.27-2.5,1.92-3.74.32-.63.66-1.24,1-1.86l.51-.92.25-.46.13-.23.06-.12,0-.06,0,0v0C44.06,256.53,42.66,255.73,44.61,256.83Z" fill="#1d1d1b"/></g></g><rect x="200.01" y="196.68" width="24.34" height="32.05" fill="#1d1d1b"/><circle cx="207.06" cy="214.34" r="1.64" fill="#f5f5f5"/><ellipse cx="214.13" cy="204.93" rx="1.94" ry="3.26" fill="#f5f5f5"/><circle cx="218.85" cy="216.57" r="2.78" fill="#f5f5f5"/><rect x="347.62" y="196.68" width="24.34" height="32.05" fill="#1d1d1b"/><ellipse cx="370.13" cy="193.42" rx="25.25" ry="20.35" fill="#ff8871"/><path d="M373.08,213.79c-15.57,0-28.2-10.18-28.2-22.73" fill="none" stroke="#1d1d1b" stroke-linecap="round" stroke-miterlimit="10" stroke-width="3"/><ellipse cx="354.24" cy="213.79" rx="2.95" ry="1.39" fill="#f5f5f5"/><circle cx="364.8" cy="221.28" r="1.93" fill="#f5f5f5"/><path d="M192,180.59a20.76,20.76,0,0,1,26.83-11.92" fill="none" stroke="#1d1d1b" stroke-linecap="round" stroke-miterlimit="10" stroke-width="3"/><path d="M246.16,90.28l-4.37.59A203.48,203.48,0,0,1,198.64,92h0a5.34,5.34,0,0,0-5.72,6h0a5.33,5.33,0,0,0,6,4.58l91.7-12.3a5.35,5.35,0,0,0,4.58-6h0A5.35,5.35,0,0,0,288.09,80h0A203,203,0,0,1,246.16,90.28Z" fill="#1d1d1b"/><path d="M236.69,36.32h0a23.28,23.28,0,0,0-20,26.17L221,94.3l46.15-6.19-4.27-31.82A23.28,23.28,0,0,0,236.69,36.32Z" fill="#1d1d1b"/><path d="M175,288.19l.48,3.58a47.28,47.28,0,0,0,35.36,39.66h0" fill="none" stroke="#1d1d1b" stroke-linecap="round" stroke-miterlimit="10" stroke-width="4"/><text transform="translate(131.09 -31.37)" font-size="50.44" font-family="CourierNewPSMT, Courier New">DON’T KNOW</text></svg>