<svg id="Layer_1" data-name="Layer 1" xmlns="http://www.w3.org/2000/svg" viewBox="0 0 439.95 298.95"><g id="SIGN_02_0_Layer0_0_FILL" data-name="SIGN 02 0 Layer0 0 FILL"><path d="M60.2,38.75,60,46l38,1-.35-8.4L96,2,61,6Z" fill="#f1c950"/><path d="M344,45l.2-7.55L97.65,38.6,98,47,60,46l.2-7.25L4,39,2,293l435,4L438,37l-52.65.25L386,47l-42-2M237.2,112q6.6-.75,8.4,1.45-1.8-2.2-8.4-1.45a20.38,20.38,0,0,0-11.4,5q-4.85,4.2-4.6,9.4t3.4,8q3.1,2.7,11.2,2.1,6-.45,7.35-1.95-1.31,1.5-7.35,1.95-8.1.6-11.2-2.1t-3.4-8q-.25-5.2,4.6-9.4a20.38,20.38,0,0,1,11.4-5m43.3,5.45q14.14-.95,19.85,2,1.61.85,8.85,6.95,5.21,4.4,10.2,4.55,7.05.3,17.6-6.5-10.54,6.79-17.6,6.5-5-.15-10.2-4.55-7.24-6.1-8.85-6.95-5.7-3-19.85-2m-5-24,5,41-5-41m3.5,24.5,26-20-26,20M320,156l9,32-9-32m12.1,51.55A1.72,1.72,0,0,1,333,209a1.62,1.62,0,0,1-.9,1.4,3.56,3.56,0,0,1-2.1.6,3.79,3.79,0,0,1-2.15-.6A1.62,1.62,0,0,1,327,209a1.73,1.73,0,0,1,.85-1.45A4,4,0,0,1,330,207a3.78,3.78,0,0,1,2.1.55M278.55,193a13.75,13.75,0,0,0-8.05-1.75q-11.75,1.16-15,22.45,3.25-21.3,15-22.45a13.75,13.75,0,0,1,8.05,1.75c2.33,1.27,3.67,2.52,4,3.75q.9,3.15-.95,12.65-1.55,8.21.65,10.45,3.3,3.45,16.3-.85-13,4.31-16.3.85-2.21-2.25-.65-10.45,1.84-9.49.95-12.65c-.33-1.23-1.67-2.48-4-3.75m-46.05-11.1q5.5,1.4,7.25,5.8t-1.3,9.15a18.35,18.35,0,0,1-9,7.25,18.15,18.15,0,0,1-11.5.9q-5.44-1.39-7.2-5.75T212,190a20.11,20.11,0,0,1,20.55-8.15m15.8,75L237,271l11.35-14.15L231,232l17.35,24.85L261,241,248.3,256.85,261,275,248.3,256.85m61.7.8L303,267l7.05-9.35L300,249,310,257.65,321,243,310,257.65,322,268,310,257.65m-199.1-156q.1,3.86-5.15,7.55-5.7,4-16.25,6.75,10.55-2.7,16.25-6.75,5.25-3.7,5.15-7.55t-5.25-6.15Q100.25,92.9,91,92.9q9.25,0,14.65,2.55,5.14,2.4,5.25,6.15m-1.85,26.1q-.55,4.54-6.25,7-6.45,2.81-16.8,1.2,10.35,1.6,16.8-1.2,5.7-2.44,6.25-7t-4.15-7.6q-5.25-3.55-14.4-3.2,9.15-.34,14.4,3.2,4.75,3.15,4.15,7.6M90.5,91.9l-6,44.5,6-44.5m80.05,20.85,0,.2Q179,141.65,191,135.4q-12,6.25-20.4-22.45c0,.17.07.37.1.6q.56,3.95-2.5,8.45a20.24,20.24,0,0,1-7.9,6.9q-4.85,2.44-8.7,1.35a5.69,5.69,0,0,1-4.4-5q-.55-3.9,2.5-8.45a20.73,20.73,0,0,1,7.9-6.9q4.85-2.4,8.7-1.35a5.66,5.66,0,0,1,4.15,4,1.73,1.73,0,0,1,.1.3m-11.75,81.3A21.55,21.55,0,0,1,170.5,191a21.3,21.3,0,0,1,11.65,3.05q4.84,3.1,4.85,7.45t-4.85,7.4A21,21,0,0,1,170.5,212a21.23,21.23,0,0,1-11.7-3.1q-4.8-3-4.8-7.4t4.8-7.45M109.55,177.6a17.29,17.29,0,0,1,9,5.1,17.29,17.29,0,0,0-9-5.1,16.11,16.11,0,0,0-9.15.45,10.6,10.6,0,0,0-6.2,4.9,9,9,0,0,0-.15,8.25A9,9,0,0,1,94.2,183a10.6,10.6,0,0,1,6.2-4.9,16.11,16.11,0,0,1,9.15-.45M84.8,208.45q-2.4,12,7.35,14.3a17.68,17.68,0,0,0,17.15-4.7q7.35-7.05,3.2-13.8a20.39,20.39,0,0,0-7.25-6.5q-5.2-3-10.45-6.05,5.25,3,10.45,6.05a20.39,20.39,0,0,1,7.25,6.5q4.16,6.75-3.2,13.8a17.68,17.68,0,0,1-17.15,4.7q-9.75-2.35-7.35-14.3m109,47.35L186,267l7.8-11.2L187,249l6.8,6.8L202,244l-8.2,11.8L205,267l-11.2-11.2M170.5,191a21.55,21.55,0,0,0-11.7,3.05q-4.8,3.1-4.8,7.45t4.8,7.4a21.23,21.23,0,0,0,11.7,3.1,21,21,0,0,0,11.65-3.1q4.84-3,4.85-7.4t-4.85-7.45A21.3,21.3,0,0,0,170.5,191m.1-78,0-.2a1.73,1.73,0,0,0-.1-.3,5.66,5.66,0,0,0-4.15-4q-3.86-1.05-8.7,1.35a20.73,20.73,0,0,0-7.9,6.9q-3,4.55-2.5,8.45a5.69,5.69,0,0,0,4.4,5q3.85,1.09,8.7-1.35a20.24,20.24,0,0,0,7.9-6.9q3-4.5,2.5-8.45c0-.23-.07-.43-.1-.6m69.15,74.7q-1.75-4.4-7.25-5.8A20.11,20.11,0,0,0,212,190q-3,4.8-1.25,9.2t7.2,5.75a18.15,18.15,0,0,0,11.5-.9,18.35,18.35,0,0,0,9-7.25Q241.5,192,239.75,187.65Z" fill="#6ff"/><path d="M333,209a1.72,1.72,0,0,0-.9-1.45A3.78,3.78,0,0,0,330,207a4,4,0,0,0-2.15.55A1.73,1.73,0,0,0,327,209a1.62,1.62,0,0,0,.85,1.4,3.79,3.79,0,0,0,2.15.6,3.56,3.56,0,0,0,2.1-.6A1.62,1.62,0,0,0,333,209Z" fill="#fff"/><path d="M345,2l-.8,35.45L344,45l42,2-.65-9.75L383,2Z" fill="#f98437"/></g><path id="SIGN_02_0_Layer0_0_1_STROKES" data-name="SIGN 02 0 Layer0 0 1 STROKES" d="M344.15,37.45,345,2h38l2.35,35.25L438,37l-1,260L2,293,4,39l56.2-.25L61,6,96,2l1.65,36.6,246.5-1.15L344,45l42,2-.65-9.75M97.65,38.6,98,47,60,46l.2-7.25" fill="none" stroke="#000" stroke-linecap="round" stroke-linejoin="round" stroke-width="4"/><path id="SIGN_02_0_Layer0_0_2_STROKES" data-name="SIGN 02 0 Layer0 0 2 STROKES" d="M243.15,134.4q-1.31,1.5-7.35,1.95-8.1.6-11.2-2.1t-3.4-8q-.25-5.2,4.6-9.4a20.38,20.38,0,0,1,11.4-5q6.6-.75,8.4,1.45M261,275,248.3,256.85,237,271m24-30L248.3,256.85,231,232M94.05,191.2A9,9,0,0,1,94.2,183a10.6,10.6,0,0,1,6.2-4.9,16.11,16.11,0,0,1,9.15-.45,17.29,17.29,0,0,1,9,5.1M84.8,208.45q-2.4,12,7.35,14.3a17.68,17.68,0,0,0,17.15-4.7q7.35-7.05,3.2-13.8a20.39,20.39,0,0,0-7.25-6.5q-5.2-3-10.45-6.05" fill="none" stroke="#096" stroke-linecap="round" stroke-linejoin="round" stroke-width="4"/><path id="SIGN_02_0_Layer0_0_3_STROKES" data-name="SIGN 02 0 Layer0 0 3 STROKES" d="M280.5,117.4q14.14-.95,19.85,2,1.61.85,8.85,6.95,5.21,4.4,10.2,4.55,7.05.3,17.6-6.5m-61.5-31,5,41M279,117.9l26-20m-65.25,89.75q1.75,4.35-1.3,9.15a18.35,18.35,0,0,1-9,7.25,18.15,18.15,0,0,1-11.5.9q-5.44-1.39-7.2-5.75T212,190a20.11,20.11,0,0,1,20.55-8.15Q238,183.25,239.75,187.65ZM322,268,310,257.65,303,267m18-24L310,257.65,300,249" fill="none" stroke="#39f" stroke-linecap="round" stroke-linejoin="round" stroke-width="4"/><path id="SIGN_02_0_Layer0_0_4_STROKES" data-name="SIGN 02 0 Layer0 0 4 STROKES" d="M320,156l9,32m4,21a1.62,1.62,0,0,1-.9,1.4,3.56,3.56,0,0,1-2.1.6,3.79,3.79,0,0,1-2.15-.6A1.62,1.62,0,0,1,327,209a1.73,1.73,0,0,1,.85-1.45A4,4,0,0,1,330,207a3.78,3.78,0,0,1,2.1.55A1.72,1.72,0,0,1,333,209ZM91,92.9q9.25,0,14.65,2.55,5.14,2.4,5.25,6.15t-5.15,7.55q-5.7,4-16.25,6.75m1,1q9.15-.34,14.4,3.2,4.75,3.15,4.15,7.6t-6.25,7q-6.45,2.81-16.8,1.2m4.5-44-6,44.5M187,201.5q0,4.35-4.85,7.4A21,21,0,0,1,170.5,212a21.23,21.23,0,0,1-11.7-3.1q-4.8-3-4.8-7.4t4.8-7.45A21.55,21.55,0,0,1,170.5,191a21.3,21.3,0,0,1,11.65,3.05Q187,197.16,187,201.5Z" fill="none" stroke="#c09" stroke-linecap="round" stroke-linejoin="round" stroke-width="4"/><path id="SIGN_02_0_Layer0_0_5_STROKES" data-name="SIGN 02 0 Layer0 0 5 STROKES" d="M298.55,219q-13,4.31-16.3.85-2.21-2.25-.65-10.45,1.84-9.49.95-12.65c-.33-1.23-1.67-2.48-4-3.75a13.75,13.75,0,0,0-8.05-1.75q-11.75,1.16-15,22.45M191,135.4q-12,6.25-20.4-22.45c0,.17.07.37.1.6q.56,3.95-2.5,8.45a20.24,20.24,0,0,1-7.9,6.9q-4.85,2.44-8.7,1.35a5.69,5.69,0,0,1-4.4-5q-.55-3.9,2.5-8.45a20.73,20.73,0,0,1,7.9-6.9q4.85-2.4,8.7-1.35a5.66,5.66,0,0,1,4.15,4,1.73,1.73,0,0,1,.1.3l0,.2M205,267l-11.2-11.2L186,267m1-18,6.8,6.8L202,244" fill="none" stroke="#93f" stroke-linecap="round" stroke-linejoin="round" stroke-width="4"/></svg>