<svg id="Layer_1" data-name="Layer 1" xmlns="http://www.w3.org/2000/svg" xmlns:xlink="http://www.w3.org/1999/xlink" viewBox="0 0 466.89 394.64"><defs><clipPath id="clip-path"><path d="M234,388c125.93,0,228-30.18,228-151.11S360,85.78,234,85.78h-1.18c-125.93,0-228,30.18-228,151.1S106.93,388,232.86,388Z" fill="none"/></clipPath><clipPath id="clip-path-2"><path d="M477.23,418.51V367.73a234.62,234.62,0,0,0-39.39-130.14h0a67.27,67.27,0,0,0-56-30h0a67.29,67.29,0,0,0-52.75,25.5l-69.71,88a41,41,0,0,1-32.14,15.55h0a41,41,0,0,1-34.2-18.39L149.89,253a82.38,82.38,0,0,0-68.72-36.95h0A82.41,82.41,0,0,0,24.55,238.6h0A187.34,187.34,0,0,0-34,374.69V405" fill="none"/></clipPath></defs><path d="M102.41,29.5c0-9.62,55.58-17.43,124.14-17.43S350.69,19.88,350.69,29.5" fill="none" stroke="#ffce00" stroke-miterlimit="10" stroke-width="13"/><path d="M174.46,106.68,122.49,3a5.45,5.45,0,0,0-10.33,2.44V106.68Z" fill="#ff8871"/><line x1="122.68" y1="46.08" x2="138.62" y2="86.9" fill="none" stroke="#1d1d1b" stroke-linecap="round" stroke-miterlimit="10"/><path d="M278.26,106.68,330.24,3a5.45,5.45,0,0,1,10.32,2.44V106.68Z" fill="#ff8871"/><line x1="330.04" y1="46.08" x2="314.1" y2="86.9" fill="none" stroke="#1d1d1b" stroke-linecap="round" stroke-miterlimit="10"/><g clip-path="url(#clip-path)"><path d="M234,388c125.93,0,228-30.18,228-151.11S360,85.78,234,85.78h-1.18c-125.93,0-228,30.18-228,151.1S106.93,388,232.86,388Z" fill="#ff8871"/><g clip-path="url(#clip-path-2)"><path d="M477.23,418.51V367.73a234.62,234.62,0,0,0-39.39-130.14h0a67.27,67.27,0,0,0-56-30h0a67.29,67.29,0,0,0-52.75,25.5l-69.71,88a41,41,0,0,1-32.14,15.55h0a41,41,0,0,1-34.2-18.39L149.89,253a82.38,82.38,0,0,0-68.72-36.95h0A82.41,82.41,0,0,0,24.55,238.6h0A187.34,187.34,0,0,0-34,374.69V405" fill="#f9e4e1"/></g></g><path d="M255.21,307.15c0-8-7-14.57-28.66-14.57s-28.66,6.52-28.66,14.57c0,4.3,3.69,8.18,9.54,10.84a19.67,19.67,0,0,1,10.81,12.29l0,.15a8.63,8.63,0,0,0,8.27,6.2h0a8.64,8.64,0,0,0,8.28-6.2l0-.15A19.64,19.64,0,0,1,245.68,318C251.53,315.33,255.21,311.45,255.21,307.15Z" fill="#1d1d1b"/><rect x="113.28" y="137.1" width="61.18" height="68.64" fill="#1d1d1b"/><path d="M150.83,173.68l17-2a.29.29,0,0,0,0-.57l-17-2a5.36,5.36,0,0,1-4.7-4.7c-.61-5.21-1.52-13.07-2-17a.28.28,0,0,0-.56,0l-2,17a5.36,5.36,0,0,1-4.7,4.71l-17,2a.29.29,0,0,0,0,.57l17,2a5.35,5.35,0,0,1,4.7,4.7c.61,5.21,1.52,13.07,2,17a.28.28,0,0,0,.56,0l2-17A5.36,5.36,0,0,1,150.83,173.68Z" fill="#ffce00"/><rect x="278.82" y="137.1" width="61.18" height="68.64" fill="#1d1d1b"/><path d="M316.37,173.68l17-2a.29.29,0,0,0,0-.57l-17-2a5.36,5.36,0,0,1-4.7-4.7c-.61-5.21-1.52-13.07-2-17a.28.28,0,0,0-.56,0l-2,17a5.36,5.36,0,0,1-4.7,4.71l-17,2a.29.29,0,0,0,0,.57l17,2a5.35,5.35,0,0,1,4.7,4.7c.61,5.21,1.52,13.07,2,17a.28.28,0,0,0,.56,0l2-17A5.36,5.36,0,0,1,316.37,173.68Z" fill="#ffce00"/><path d="M229.26,85.33h-5.41a250.2,250.2,0,0,1-52.76-5.63h0a6.56,6.56,0,0,0-8,6.41h0a6.56,6.56,0,0,0,6.56,6.56H283.4A6.56,6.56,0,0,0,290,86.11h0a6.56,6.56,0,0,0-8-6.41h0A250.2,250.2,0,0,1,229.26,85.33Z" fill="#1d1d1b"/><path d="M226.55,14.78h0a28.61,28.61,0,0,0-28.61,28.61V86.11h57.23V43.39A28.61,28.61,0,0,0,226.55,14.78Z" fill="#1d1d1b"/><path d="M350.69,29.5c0,9.63-55.57,17.44-124.14,17.44S102.41,39.13,102.41,29.5" fill="none" stroke="#ffce00" stroke-miterlimit="10" stroke-width="13"/></svg>