<svg id="Layer_1" data-name="Layer 1" xmlns="http://www.w3.org/2000/svg" viewBox="0 0 53.75 25.15"><g id="EMOTE_04_0_Layer0_0_FILL" data-name="EMOTE 04 0 Layer0 0 FILL"><path d="M13.65,3.65A12.43,12.43,0,0,0,5.4,6.5a8.7,8.7,0,0,0,0,13.8,12.43,12.43,0,0,0,8.25,2.85A12.43,12.43,0,0,0,21.9,20.3a8.7,8.7,0,0,0,0-13.8,12.43,12.43,0,0,0-8.25-2.85m0,2.5a1.64,1.64,0,0,1,1.2.5A1.71,1.71,0,0,1,15.4,7.9a1.55,1.55,0,0,1-.55,1.2,1.55,1.55,0,0,1-1.2.55A1.71,1.71,0,0,1,12.4,9.1a1.64,1.64,0,0,1-.5-1.2,1.71,1.71,0,0,1,1.75-1.75M32,4.85A9.18,9.18,0,0,0,28.6,12,9,9,0,0,0,32,19a12.24,12.24,0,0,0,8.2,2.9A12.24,12.24,0,0,0,48.4,19a9.11,9.11,0,0,0,3.35-7,9.25,9.25,0,0,0-3.35-7.1A12.35,12.35,0,0,0,40.2,2,12.35,12.35,0,0,0,32,4.85m8.75.3A1.62,1.62,0,0,1,41.4,6.4a1.48,1.48,0,0,1-.65,1.2,2.6,2.6,0,0,1-3.2,0,1.48,1.48,0,0,1-.65-1.2,1.62,1.62,0,0,1,.65-1.25,2.81,2.81,0,0,1,3.2,0Z" fill="#fff"/></g><path id="EMOTE_04_0_Layer0_0_1_STROKES" data-name="EMOTE 04 0 Layer0 0 1 STROKES" d="M41.4,6.4a1.48,1.48,0,0,1-.65,1.2,2.6,2.6,0,0,1-3.2,0,1.48,1.48,0,0,1-.65-1.2,1.62,1.62,0,0,1,.65-1.25,2.81,2.81,0,0,1,3.2,0A1.62,1.62,0,0,1,41.4,6.4Zm-26,1.5a1.55,1.55,0,0,1-.55,1.2,1.55,1.55,0,0,1-1.2.55A1.71,1.71,0,0,1,12.4,9.1a1.64,1.64,0,0,1-.5-1.2,1.71,1.71,0,0,1,1.75-1.75,1.64,1.64,0,0,1,1.2.5A1.71,1.71,0,0,1,15.4,7.9Z" fill="none" stroke="#000" stroke-linecap="round" stroke-linejoin="round" stroke-width="3.5"/><path id="EMOTE_04_0_Layer0_0_2_STROKES" data-name="EMOTE 04 0 Layer0 0 2 STROKES" d="M51.75,12A9.11,9.11,0,0,1,48.4,19a12.24,12.24,0,0,1-8.2,2.9A12.24,12.24,0,0,1,32,19a9,9,0,0,1-3.4-7A9.18,9.18,0,0,1,32,4.85,12.35,12.35,0,0,1,40.2,2a12.35,12.35,0,0,1,8.2,2.85A9.25,9.25,0,0,1,51.75,12ZM25.3,13.4a8.7,8.7,0,0,1-3.4,6.9,12.43,12.43,0,0,1-8.25,2.85A12.43,12.43,0,0,1,5.4,20.3a8.7,8.7,0,0,1,0-13.8,12.43,12.43,0,0,1,8.25-2.85A12.43,12.43,0,0,1,21.9,6.5,8.7,8.7,0,0,1,25.3,13.4Z" fill="none" stroke="#000" stroke-linecap="round" stroke-linejoin="round" stroke-width="4"/></svg>