<svg id="Layer_1" data-name="Layer 1" xmlns="http://www.w3.org/2000/svg" viewBox="0 0 285 162"><g id="HS_ANTENNA_02_0_Layer2_0_FILL" data-name="HS ANTENNA 02 0 Layer2 0 FILL"><path d="M149.64,140q-1.54.06-3.18.06a66.55,66.55,0,0,1-9.08-.58l.18,23.85,12.66,3.58L149.64,140M147.91,78.1c-.71,0-1.42.06-2.14.06a53.86,53.86,0,0,1-8.91-.7l.29,30.82a51,51,0,0,0,7.52.52c1.41,0,2.78,0,4.1-.17Z" fill="#6cc"/><path d="M149.64,140l-.87-31.4c-1.32.12-2.69.17-4.1.17a51,51,0,0,1-7.52-.52l.23,31.23a66.55,66.55,0,0,0,9.08.58q1.64,0,3.18-.06M147.91,78.1,147,45.72a34,34,0,0,1-5.15.63,33.2,33.2,0,0,1-5.2-.17l.23,31.28a53.86,53.86,0,0,0,8.91.7C146.49,78.16,147.2,78.14,147.91,78.1Z" fill="#366"/></g><path id="HS_ANTENNA_02_0_Layer2_0_1_STROKES" data-name="HS ANTENNA 02 0 Layer2 0 1 STROKES" d="M136.89,77.46l-.26-31.28a33.2,33.2,0,0,0,5.2.17,34,34,0,0,0,5.15-.63l.93,32.41.86,30.53.87,31.37.58,26.91m-12.66-3.58-.15-23.85-.26-31.2-.26-30.85a53.31,53.31,0,0,0,8.88.7c.72,0,1.43,0,2.14,0m1.73,61.9q-1.54.06-3.18.06a65.89,65.89,0,0,1-9.05-.58m11.36-30.85c-1.32.1-2.69.14-4.1.14a54.09,54.09,0,0,1-7.52-.49" fill="none" stroke="#000" stroke-linecap="round" stroke-linejoin="round" stroke-width="4.63"/><path id="HS_ANTENNA_02_0_Layer1_0_1_STROKES" data-name="HS ANTENNA 02 0 Layer1 0 1 STROKES" d="M148.66,60.46a35.36,35.36,0,0,1,13,2.6q6.59,2.61,6.59,6.25t-6.59,6.24a43.26,43.26,0,0,1-15.9,2.61,43.28,43.28,0,0,1-15.91-2.61q-6.59-2.6-6.59-6.24t6.59-6.25c2.13-.84,3.88-1.48,5.27-1.91m13.24,28.34a40.13,40.13,0,0,1,12.78,2.72Q168,95,168,99.09T161.15,106a42.91,42.91,0,0,1-16.48,2.83A43.37,43.37,0,0,1,128.13,106q-6.82-2.84-6.82-6.88t6.82-6.88a36.69,36.69,0,0,1,8.15-2.2m13.25,30.59a48.93,48.93,0,0,1,15.26,2.78q7.64,2.88,7.64,6.94t-7.64,6.88a51.7,51.7,0,0,1-18.33,2.89,52.2,52.2,0,0,1-18.39-2.89q-7.57-2.83-7.57-6.88t7.57-6.94a41.58,41.58,0,0,1,8.16-2.09" fill="none" stroke="#000" stroke-linecap="round" stroke-linejoin="round" stroke-width="4.63"/><g id="HS_ANTENNA_02_0_Layer0_0_FILL" data-name="HS ANTENNA 02 0 Layer0 0 FILL"><path d="M151.32,25.59c-2,0-4,0-6,.06h-35q1.56,5.61,9.08,12.26,10.18,9,22.49,8.44t23.25-10.41q6.94-6.24,9.66-10.29Z" fill="#6c9"/><path d="M145.3,25.65c2,0,4-.06,6-.06l6.13-.11a14.1,14.1,0,0,0-3.7-5.67q-4-4.17-8.91-3.88c-3.24.24-6.3,1.87-9.19,4.92a30.3,30.3,0,0,0-3.7,4.8H145.3Z" fill="#ff9"/></g><path id="HS_ANTENNA_02_0_Layer0_0_1_STROKES" data-name="HS ANTENNA 02 0 Layer0 0 1 STROKES" d="M132,25.65H145.3c2,0,4-.06,6-.06l6.13-.11a14.1,14.1,0,0,0-3.7-5.67q-4-4.17-8.91-3.88c-3.24.24-6.3,1.87-9.19,4.92a30.3,30.3,0,0,0-3.7,4.8H110.26q1.56,5.61,9.08,12.26,10.18,9,22.49,8.44t23.25-10.41q6.94-6.24,9.66-10.29l-23.42-.06" fill="none" stroke="#000" stroke-linecap="round" stroke-linejoin="round" stroke-width="4.63"/></svg>