<svg id="Layer_1" data-name="Layer 1" xmlns="http://www.w3.org/2000/svg" viewBox="0 0 51 30.31"><path d="M28.5,2.5Q35,11.16,49,9" fill="none" stroke="#000" stroke-linecap="round" stroke-linejoin="round" stroke-width="4"/><path d="M3,19a13.24,13.24,0,0,0,4,7.15,8.33,8.33,0,0,0,6,2.15,8.83,8.83,0,0,0,5.85-2.6,13.31,13.31,0,0,0,3.7-7.2Q25,28.25,32,27.7a8.67,8.67,0,0,0,5.4-2.65A14.12,14.12,0,0,0,41,18.5" fill="none" stroke="#000" stroke-linecap="round" stroke-linejoin="round" stroke-width="4"/><path d="M2,8q12.71,2.5,19-6" fill="none" stroke="#000" stroke-linecap="round" stroke-linejoin="round" stroke-width="4"/></svg>